<svg xmlns="http://www.w3.org/2000/svg" xmlns:xlink="http://www.w3.org/1999/xlink" width="973" zoomAndPan="magnify" viewBox="0 0 729.75 477.749988" height="637" preserveAspectRatio="xMidYMid meet" version="1.0"><defs><g/><clipPath id="871c9c51ff"><path d="M 0.0664062 0 L 729.433594 0 L 729.433594 477.5 L 0.0664062 477.5 Z M 0.0664062 0 " clip-rule="nonzero"/></clipPath><clipPath id="9d9305f7ef"><path d="M 0.0664062 246 L 729.433594 246 L 729.433594 248 L 0.0664062 248 Z M 0.0664062 246 " clip-rule="nonzero"/></clipPath><clipPath id="fd5110b263"><path d="M 355 0 L 371 0 L 371 477.5 L 355 477.5 Z M 355 0 " clip-rule="nonzero"/></clipPath><clipPath id="5f39a3f3af"><path d="M 459.886719 38.210938 L 617 38.210938 L 617 173.566406 L 459.886719 173.566406 Z M 459.886719 38.210938 " clip-rule="nonzero"/></clipPath><clipPath id="4b501fe743"><path d="M 459.804688 59 L 617 59 L 617 66 L 459.804688 66 Z M 459.804688 59 " clip-rule="nonzero"/></clipPath><clipPath id="1847c055fd"><path d="M 606 127 L 639.289062 127 L 639.289062 160.359375 L 606 160.359375 Z M 606 127 " clip-rule="nonzero"/></clipPath><clipPath id="314978de43"><path d="M 131.5625 282 L 263 282 L 263 410.425781 L 131.5625 410.425781 Z M 131.5625 282 " clip-rule="nonzero"/></clipPath><clipPath id="8f1a957852"><path d="M 504 372 L 594 372 L 594 410.425781 L 504 410.425781 Z M 504 372 " clip-rule="nonzero"/></clipPath><clipPath id="f5524b953f"><path d="M 114.511719 32.375 L 274.585938 32.375 L 274.585938 157 L 114.511719 157 Z M 114.511719 32.375 " clip-rule="nonzero"/></clipPath><clipPath id="150730cce1"><path d="M 200 104 L 224 104 L 224 167.773438 L 200 167.773438 Z M 200 104 " clip-rule="nonzero"/></clipPath><clipPath id="303d050dd2"><path d="M 231 73 L 255 73 L 255 167.773438 L 231 167.773438 Z M 231 73 " clip-rule="nonzero"/></clipPath><clipPath id="a8842a3288"><path d="M 138 129 L 162 129 L 162 167.773438 L 138 167.773438 Z M 138 129 " clip-rule="nonzero"/></clipPath><clipPath id="c087b0c38d"><path d="M 169 116 L 193 116 L 193 167.773438 L 169 167.773438 Z M 169 116 " clip-rule="nonzero"/></clipPath></defs><g clip-path="url(#871c9c51ff)"><path fill="#ffffff" d="M 0.0664062 0 L 729.433594 0 L 729.433594 477.5 L 0.0664062 477.5 Z M 0.0664062 0 " fill-opacity="1" fill-rule="nonzero"/><path fill="#ffffff" d="M 0.0664062 0 L 729.433594 0 L 729.433594 477.5 L 0.0664062 477.5 Z M 0.0664062 0 " fill-opacity="1" fill-rule="nonzero"/><rect x="-72.975" width="875.7" fill="#1673ff" y="-47.774999" height="573.299985" fill-opacity="1"/></g><g clip-path="url(#9d9305f7ef)"><path stroke-linecap="round" transform="matrix(0.632698, 0, 0, 0.632698, -30.855324, 246.558503)" fill="none" stroke-linejoin="miter" d="M 0.999952 1.000324 L 1355.663816 1.000324 " stroke="#ffffff" stroke-width="2" stroke-opacity="1" stroke-miterlimit="4"/></g><g clip-path="url(#fd5110b263)"><path stroke-linecap="round" transform="matrix(-0.000822551, -0.632698, 0.632698, -0.000822551, 362.993948, 489.891006)" fill="none" stroke-linejoin="miter" d="M 0.999485 0.998697 L 768.187808 1.002088 " stroke="#ffffff" stroke-width="2" stroke-opacity="1" stroke-miterlimit="4"/></g><g clip-path="url(#5f39a3f3af)"><path fill="#ffffff" d="M 607.984375 173.566406 L 468.796875 173.566406 C 463.882812 173.566406 459.886719 169.570312 459.886719 164.660156 L 459.886719 47.117188 C 459.886719 42.207031 463.882812 38.210938 468.796875 38.210938 L 607.984375 38.210938 C 612.898438 38.210938 616.894531 42.207031 616.894531 47.117188 L 616.894531 99.96875 C 616.894531 101.515625 615.640625 102.769531 614.09375 102.769531 C 612.542969 102.769531 611.289062 101.515625 611.289062 99.96875 L 611.289062 47.117188 C 611.289062 45.296875 609.808594 43.816406 607.984375 43.816406 L 468.796875 43.816406 C 466.976562 43.816406 465.492188 45.296875 465.492188 47.117188 L 465.492188 164.660156 C 465.492188 166.480469 466.976562 167.960938 468.796875 167.960938 L 607.984375 167.960938 C 609.808594 167.960938 611.289062 166.480469 611.289062 164.660156 L 611.289062 142.042969 C 611.289062 140.496094 612.542969 139.238281 614.09375 139.238281 C 615.640625 139.238281 616.894531 140.496094 616.894531 142.042969 L 616.894531 164.660156 C 616.894531 169.570312 612.898438 173.566406 607.984375 173.566406 " fill-opacity="1" fill-rule="evenodd"/></g><g clip-path="url(#4b501fe743)"><path fill="#ffffff" d="M 614.09375 65.335938 L 462.691406 65.335938 C 461.140625 65.335938 459.886719 64.082031 459.886719 62.535156 C 459.886719 60.988281 461.140625 59.730469 462.691406 59.730469 L 614.09375 59.730469 C 615.640625 59.730469 616.894531 60.988281 616.894531 62.535156 C 616.894531 64.082031 615.640625 65.335938 614.09375 65.335938 " fill-opacity="1" fill-rule="evenodd"/></g><path fill="#ffffff" d="M 600.34375 54.578125 L 539.601562 54.578125 C 538.050781 54.578125 536.796875 53.324219 536.796875 51.773438 C 536.796875 50.226562 538.050781 48.972656 539.601562 48.972656 L 600.34375 48.972656 C 601.890625 48.972656 603.148438 50.226562 603.148438 51.773438 C 603.148438 53.324219 601.890625 54.578125 600.34375 54.578125 " fill-opacity="1" fill-rule="evenodd"/><path fill="#ffffff" d="M 481.714844 51.773438 C 481.714844 50 480.269531 48.558594 478.5 48.558594 C 476.726562 48.558594 475.28125 50 475.28125 51.773438 C 475.28125 53.546875 476.726562 54.992188 478.5 54.992188 C 480.269531 54.992188 481.714844 53.546875 481.714844 51.773438 " fill-opacity="1" fill-rule="evenodd"/><path fill="#ffffff" d="M 495.179688 51.773438 C 495.179688 50 493.734375 48.558594 491.964844 48.558594 C 490.191406 48.558594 488.746094 50 488.746094 51.773438 C 488.746094 53.546875 490.191406 54.992188 491.964844 54.992188 C 493.734375 54.992188 495.179688 53.546875 495.179688 51.773438 " fill-opacity="1" fill-rule="evenodd"/><path fill="#ffffff" d="M 508.644531 51.773438 C 508.644531 50 507.199219 48.558594 505.429688 48.558594 C 503.65625 48.558594 502.210938 50 502.210938 51.773438 C 502.210938 53.546875 503.65625 54.992188 505.429688 54.992188 C 507.199219 54.992188 508.644531 53.546875 508.644531 51.773438 " fill-opacity="1" fill-rule="evenodd"/><path fill="#ffffff" d="M 491.433594 156.632812 L 479.632812 156.632812 C 478.085938 156.632812 476.828125 155.378906 476.828125 153.828125 L 476.828125 125.132812 C 476.828125 123.582031 478.085938 122.328125 479.632812 122.328125 L 491.433594 122.328125 C 492.980469 122.328125 494.234375 123.582031 494.234375 125.132812 L 494.234375 153.828125 C 494.234375 155.378906 492.980469 156.632812 491.433594 156.632812 Z M 482.433594 151.027344 L 488.628906 151.027344 L 488.628906 127.933594 L 482.433594 127.933594 L 482.433594 151.027344 " fill-opacity="1" fill-rule="evenodd"/><path fill="#ffffff" d="M 513.960938 156.632812 L 502.160156 156.632812 C 500.613281 156.632812 499.359375 155.378906 499.359375 153.828125 L 499.359375 133.902344 C 499.359375 132.355469 500.613281 131.101562 502.160156 131.101562 L 513.960938 131.101562 C 515.511719 131.101562 516.765625 132.355469 516.765625 133.902344 L 516.765625 153.828125 C 516.765625 155.378906 515.511719 156.632812 513.960938 156.632812 Z M 504.964844 151.027344 L 511.160156 151.027344 L 511.160156 136.707031 L 504.964844 136.707031 L 504.964844 151.027344 " fill-opacity="1" fill-rule="evenodd"/><path fill="#ffffff" d="M 536.492188 156.632812 L 524.691406 156.632812 C 523.144531 156.632812 521.886719 155.378906 521.886719 153.828125 L 521.886719 115.429688 C 521.886719 113.878906 523.144531 112.625 524.691406 112.625 L 536.492188 112.625 C 538.042969 112.625 539.296875 113.878906 539.296875 115.429688 L 539.296875 153.828125 C 539.296875 155.378906 538.042969 156.632812 536.492188 156.632812 Z M 527.496094 151.027344 L 533.691406 151.027344 L 533.691406 118.230469 L 527.496094 118.230469 L 527.496094 151.027344 " fill-opacity="1" fill-rule="evenodd"/><path fill="#ffffff" d="M 559.023438 156.632812 L 547.222656 156.632812 C 545.671875 156.632812 544.417969 155.378906 544.417969 153.828125 L 544.417969 131.734375 C 544.417969 130.183594 545.671875 128.929688 547.222656 128.929688 L 559.023438 128.929688 C 560.570312 128.929688 561.828125 130.183594 561.828125 131.734375 L 561.828125 153.828125 C 561.828125 155.378906 560.570312 156.632812 559.023438 156.632812 Z M 550.023438 151.027344 L 556.21875 151.027344 L 556.21875 134.535156 L 550.023438 134.535156 L 550.023438 151.027344 " fill-opacity="1" fill-rule="evenodd"/><path fill="#ffffff" d="M 502.75 112.128906 C 502.375 112.128906 502 112.054688 501.632812 111.894531 L 488.210938 106.054688 C 486.792969 105.4375 486.144531 103.785156 486.761719 102.367188 C 487.378906 100.945312 489.03125 100.296875 490.449219 100.914062 L 503.871094 106.753906 C 505.292969 107.375 505.941406 109.027344 505.324219 110.445312 C 504.863281 111.5 503.832031 112.128906 502.75 112.128906 " fill-opacity="1" fill-rule="evenodd"/><path fill="#ffffff" d="M 511.191406 110.71875 C 510.429688 110.71875 509.675781 110.410156 509.121094 109.808594 C 508.074219 108.667969 508.152344 106.894531 509.292969 105.847656 L 524.941406 91.507812 C 526.082031 90.460938 527.855469 90.539062 528.898438 91.679688 C 529.945312 92.820312 529.867188 94.59375 528.726562 95.640625 L 513.082031 109.980469 C 512.546875 110.472656 511.867188 110.71875 511.191406 110.71875 " fill-opacity="1" fill-rule="evenodd"/><path fill="#ffffff" d="M 549.789062 108.460938 C 549.167969 108.460938 548.546875 108.253906 548.027344 107.835938 L 532.792969 95.515625 C 531.589844 94.542969 531.40625 92.777344 532.378906 91.574219 C 533.351562 90.371094 535.117188 90.183594 536.320312 91.15625 L 551.554688 103.476562 C 552.757812 104.449219 552.941406 106.214844 551.96875 107.417969 C 551.417969 108.101562 550.605469 108.460938 549.789062 108.460938 " fill-opacity="1" fill-rule="evenodd"/><path fill="#ffffff" d="M 484.730469 109.183594 C 480.375 109.183594 476.832031 105.636719 476.832031 101.28125 C 476.832031 96.921875 480.375 93.375 484.730469 93.375 C 489.089844 93.375 492.632812 96.921875 492.632812 101.28125 C 492.632812 105.636719 489.089844 109.183594 484.730469 109.183594 Z M 484.730469 98.984375 C 483.464844 98.984375 482.4375 100.011719 482.4375 101.277344 C 482.4375 102.546875 483.46875 103.574219 484.730469 103.574219 C 486 103.574219 487.027344 102.546875 487.027344 101.277344 C 487.027344 100.011719 486 98.984375 484.730469 98.984375 " fill-opacity="1" fill-rule="evenodd"/><path fill="#ffffff" d="M 507.429688 119.265625 C 503.074219 119.265625 499.527344 115.71875 499.527344 111.363281 C 499.527344 107.003906 503.074219 103.460938 507.429688 103.460938 C 511.785156 103.460938 515.332031 107.003906 515.332031 111.363281 C 515.332031 115.71875 511.785156 119.265625 507.429688 119.265625 Z M 507.429688 109.066406 C 506.164062 109.066406 505.132812 110.097656 505.132812 111.363281 C 505.132812 112.628906 506.164062 113.65625 507.429688 113.65625 C 508.695312 113.65625 509.726562 112.628906 509.726562 111.363281 C 509.726562 110.097656 508.695312 109.066406 507.429688 109.066406 " fill-opacity="1" fill-rule="evenodd"/><path fill="#ffffff" d="M 530.589844 98.03125 C 526.234375 98.03125 522.6875 94.488281 522.6875 90.128906 C 522.6875 85.773438 526.234375 82.226562 530.589844 82.226562 C 534.949219 82.226562 538.492188 85.773438 538.492188 90.128906 C 538.492188 94.488281 534.949219 98.03125 530.589844 98.03125 Z M 530.589844 87.832031 C 529.324219 87.832031 528.296875 88.863281 528.296875 90.128906 C 528.296875 91.394531 529.324219 92.425781 530.589844 92.425781 C 531.855469 92.425781 532.886719 91.394531 532.886719 90.128906 C 532.886719 88.863281 531.855469 87.832031 530.589844 87.832031 " fill-opacity="1" fill-rule="evenodd"/><path fill="#ffffff" d="M 553.757812 116.765625 C 549.398438 116.765625 545.855469 113.222656 545.855469 108.863281 C 545.855469 104.507812 549.398438 100.960938 553.757812 100.960938 C 558.113281 100.960938 561.65625 104.507812 561.65625 108.863281 C 561.660156 113.222656 558.113281 116.765625 553.757812 116.765625 Z M 553.757812 106.570312 C 552.488281 106.570312 551.460938 107.597656 551.460938 108.863281 C 551.460938 110.128906 552.488281 111.160156 553.757812 111.160156 C 555.023438 111.160156 556.054688 110.128906 556.054688 108.863281 C 556.054688 107.597656 555.023438 106.570312 553.757812 106.570312 " fill-opacity="1" fill-rule="evenodd"/><path fill="#ffffff" d="M 595.675781 143.898438 C 588.332031 143.898438 581.429688 141.039062 576.238281 135.847656 C 571.046875 130.65625 568.1875 123.753906 568.1875 116.410156 C 568.1875 109.066406 571.046875 102.160156 576.238281 96.96875 C 581.429688 91.777344 588.332031 88.917969 595.675781 88.917969 C 603.019531 88.917969 609.921875 91.777344 615.113281 96.96875 C 620.308594 102.164062 623.167969 109.066406 623.167969 116.410156 C 623.167969 123.75 620.308594 130.65625 615.113281 135.847656 C 609.921875 141.039062 603.019531 143.898438 595.675781 143.898438 Z M 595.675781 94.523438 C 583.609375 94.523438 573.792969 104.339844 573.792969 116.410156 C 573.792969 128.472656 583.609375 138.292969 595.675781 138.292969 C 607.742188 138.292969 617.5625 128.472656 617.5625 116.410156 C 617.5625 104.339844 607.742188 94.523438 595.675781 94.523438 " fill-opacity="1" fill-rule="evenodd"/><path fill="#ffffff" d="M 595.675781 134.09375 C 585.925781 134.09375 577.992188 126.160156 577.992188 116.410156 C 577.992188 106.65625 585.925781 98.722656 595.675781 98.722656 C 605.425781 98.722656 613.363281 106.65625 613.363281 116.410156 C 613.363281 126.160156 605.425781 134.09375 595.675781 134.09375 Z M 595.675781 104.328125 C 589.015625 104.328125 583.597656 109.746094 583.597656 116.410156 C 583.597656 123.066406 589.015625 128.488281 595.675781 128.488281 C 602.339844 128.488281 607.757812 123.066406 607.757812 116.410156 C 607.757812 109.746094 602.339844 104.328125 595.675781 104.328125 " fill-opacity="1" fill-rule="evenodd"/><g clip-path="url(#1847c055fd)"><path fill="#ffffff" d="M 631.394531 160.035156 C 629.28125 160.035156 627.292969 159.210938 625.804688 157.71875 L 607.167969 139.082031 C 606.070312 137.988281 606.070312 136.210938 607.167969 135.117188 C 608.261719 134.023438 610.035156 134.023438 611.128906 135.117188 L 629.769531 153.753906 C 630.203125 154.1875 630.78125 154.429688 631.394531 154.429688 C 631.984375 154.429688 632.539062 154.207031 632.96875 153.808594 C 633.417969 153.386719 633.671875 152.8125 633.679688 152.183594 C 633.691406 151.535156 633.441406 150.917969 632.976562 150.453125 L 614.386719 131.863281 C 613.292969 130.769531 613.292969 128.992188 614.386719 127.898438 C 615.480469 126.804688 617.253906 126.804688 618.351562 127.898438 L 636.941406 146.488281 C 638.464844 148.015625 639.320312 150.125 639.285156 152.277344 C 639.25 154.433594 638.367188 156.429688 636.800781 157.898438 C 635.328125 159.277344 633.410156 160.035156 631.394531 160.035156 " fill-opacity="1" fill-rule="evenodd"/></g><g clip-path="url(#314978de43)"><path fill="#ffffff" d="M 169.792969 289.191406 C 163.371094 289.371094 163.371094 298.761719 169.792969 298.914062 C 176.21875 298.761719 176.21875 289.371094 169.792969 289.191406 Z M 169.792969 292.03125 C 172.457031 292.082031 172.457031 296.050781 169.792969 296.101562 C 167.132812 296.050781 167.132812 292.082031 169.792969 292.03125 Z M 224.71875 328.730469 C 218.292969 328.910156 218.292969 338.304688 224.71875 338.457031 C 231.117188 338.304688 231.117188 328.910156 224.71875 328.730469 Z M 224.71875 331.574219 C 227.378906 331.625 227.378906 335.589844 224.71875 335.640625 C 222.03125 335.589844 222.03125 331.625 224.71875 331.574219 Z M 254.660156 305.519531 C 239.28125 280.207031 203.527344 274.398438 180.824219 293.363281 C 180.390625 278.671875 159.328125 278.59375 158.765625 293.285156 C 158.765625 297.175781 162.988281 305.59375 166.671875 312.222656 C 165.007812 316.039062 163.855469 320.054688 163.21875 324.175781 C 155.539062 325.6875 149.753906 332.671875 148.808594 341.273438 C 148.347656 343.859375 150.035156 349.949219 150.445312 352.585938 C 150.445312 360.492188 155.105469 368.222656 162.015625 371.371094 L 161.144531 374.824219 L 146.605469 379.738281 C 142.128906 381.273438 138.570312 384.859375 137.085938 389.386719 C 136.984375 389.617188 132.964844 404.054688 131.738281 408.710938 C 131.636719 409.144531 131.710938 409.605469 131.992188 409.9375 C 132.273438 410.296875 132.683594 410.476562 133.121094 410.476562 C 138.035156 410.398438 170.460938 410.222656 170.792969 410.222656 L 222.542969 410.222656 C 223.207031 410.222656 223.769531 409.761719 223.925781 409.121094 L 224.792969 405.203125 C 225 404.359375 224.28125 403.464844 223.414062 403.488281 L 221.363281 403.488281 L 225.640625 379.917969 C 257.425781 371.523438 272.320312 333.390625 254.660156 305.519531 Z M 253.460938 309.078125 C 256.941406 315.398438 258.988281 322.511719 259.292969 329.730469 C 256.070312 331.007812 252.894531 331.113281 251.488281 329.933594 C 250.566406 329.167969 250.4375 327.683594 250.3125 326.097656 C 250.285156 323.203125 249.082031 319.851562 245.550781 319.902344 C 243.808594 319.902344 242.042969 320.722656 240.507812 321.4375 C 239.691406 321.820312 237.796875 322.691406 237.464844 322.4375 C 236.925781 322 237.027344 318.980469 238.820312 316.730469 C 240.125 315.089844 241.660156 314.808594 243.785156 314.425781 C 246.984375 314.117188 251.410156 312.222656 253.460938 309.078125 Z M 179.699219 298.148438 C 181.925781 295.945312 184.484375 294 187.121094 292.285156 C 199.148438 284.53125 214.8125 282.765625 228.222656 287.65625 C 221.773438 291.621094 222.335938 297.097656 227.097656 301.832031 C 221.03125 298.96875 214.300781 299.554688 209.4375 304.445312 C 207.441406 306.160156 206.238281 307.105469 204.34375 306.875 C 202.808594 306.695312 201.941406 305.800781 200.8125 304.621094 C 199.507812 303.265625 197.894531 301.601562 194.976562 301.371094 C 192.574219 301.117188 190.5 302.320312 189.066406 303.367188 C 185.609375 306.160156 181.847656 305.1875 177.933594 302.34375 C 178.574219 300.988281 179.1875 299.554688 179.699219 298.148438 Z M 161.578125 293.257812 C 161.578125 288.730469 165.265625 285.042969 169.792969 285.042969 C 174.324219 285.042969 177.984375 288.730469 177.984375 293.257812 C 177.34375 298.789062 172.097656 307.644531 169.792969 312.019531 C 165.007812 303.652344 161.476562 295.640625 161.578125 293.257812 Z M 151.625 341.578125 C 153.132812 328.398438 165.851562 322.820312 175.449219 329.679688 C 176.167969 330.113281 176.371094 330.550781 177.113281 330.574219 C 178.035156 330.601562 179.214844 330.753906 180.132812 331.035156 C 186.710938 332.828125 189.269531 340.070312 187.402344 346.542969 C 186.300781 344.394531 183.640625 342.988281 181.464844 342.9375 C 178.777344 342.886719 176.578125 340.886719 175.679688 338.277344 C 175.347656 337.304688 173.941406 337.050781 173.300781 337.84375 C 170.613281 340.835938 168.027344 342.707031 164.523438 343.628906 C 160.195312 344.601562 155.308594 343.421875 152.367188 347.722656 C 152.03125 345.980469 151.34375 343.269531 151.625 341.578125 Z M 153.464844 355.246094 C 152.902344 352.6875 153.644531 350 155.667969 348.3125 C 157.074219 347.183594 158.558594 347.109375 160.65625 346.980469 C 165.496094 346.929688 170.203125 345.035156 173.964844 341.273438 C 175.246094 343.832031 178.597656 345.777344 181.105469 345.777344 C 182.667969 345.90625 183.921875 346.367188 184.765625 347.746094 C 187.660156 352.636719 185.738281 359.035156 182.695312 363.4375 C 173.761719 375.898438 155.511719 370.140625 153.464844 355.246094 Z M 184.640625 373.1875 C 182.898438 373.007812 181.15625 373.878906 180.621094 375.566406 L 178.367188 374.824219 L 177.5 371.371094 C 178.445312 370.933594 179.339844 370.398438 180.183594 369.808594 C 181.59375 371.039062 183.078125 372.164062 184.640625 373.1875 Z M 175.628906 375.515625 C 175.449219 375.671875 175.21875 375.824219 174.988281 375.976562 C 171.6875 377.769531 166.953125 377.769531 163.882812 375.515625 L 164.675781 372.394531 C 167.976562 373.339844 171.535156 373.339844 174.863281 372.394531 Z M 170.253906 404.566406 L 169.640625 407.378906 C 164.394531 407.40625 142.410156 407.535156 134.9375 407.609375 C 136.445312 402.03125 139.59375 390.898438 139.773438 390.234375 C 140.976562 386.574219 143.867188 383.65625 147.503906 382.425781 L 161.9375 377.5625 C 166.160156 381.019531 173.480469 380.941406 177.625 377.5625 L 180.082031 378.382812 C 179.238281 383.039062 176.421875 398.550781 175.554688 403.464844 L 171.664062 403.464844 C 170.972656 403.464844 170.382812 403.925781 170.253906 404.566406 Z M 221.59375 406.304688 L 221.363281 407.378906 L 172.53125 407.378906 L 172.761719 406.304688 Z M 222.953125 378.511719 C 222.953125 378.535156 222.953125 378.535156 222.953125 378.5625 L 218.449219 403.464844 L 178.417969 403.464844 L 181.492188 386.417969 L 183.28125 376.566406 C 183.332031 376.257812 183.613281 376.027344 183.921875 376.027344 C 186.917969 376.027344 218.753906 376.027344 222.644531 376.027344 C 222.902344 376.027344 223.054688 376.183594 223.132812 376.257812 C 223.207031 376.335938 223.285156 376.566406 223.285156 376.796875 Z M 226.277344 376.746094 C 226.226562 376.769531 226.175781 376.769531 226.125 376.796875 C 226.175781 374.875 224.5625 373.160156 222.644531 373.1875 C 222.644531 373.1875 217.78125 373.1875 217.78125 373.1875 C 217.707031 367.890625 212.917969 362.644531 208.875 360.773438 C 206.597656 359.417969 204.78125 358.367188 203.707031 355.605469 C 202.886719 353.480469 203.195312 352.148438 203.628906 350.308594 C 206.238281 341.808594 200.582031 333.542969 195.617188 329.089844 C 194.621094 328.09375 193.265625 326.734375 193.085938 326.171875 C 195.898438 324.945312 200.277344 326.070312 203.246094 328.398438 C 205.316406 330.113281 206.085938 332.238281 206.828125 334.3125 C 207.929688 338.457031 211.152344 341.65625 215.605469 339.761719 C 217.730469 344.777344 220.316406 349.589844 223.027344 354.324219 C 223.589844 355.273438 223.71875 355.734375 224.71875 355.835938 C 225.230469 355.835938 225.691406 355.578125 225.945312 355.144531 C 226.226562 354.65625 230.425781 347.234375 231.449219 344.933594 C 238.488281 351.6875 248.828125 349.742188 256.660156 347.542969 C 251.898438 361.390625 240.277344 372.523438 226.277344 376.746094 Z M 216.503906 332.828125 C 216.835938 322 232.574219 321.976562 232.90625 332.828125 C 232.90625 333.722656 232.5 336.128906 229.734375 341.964844 C 227.992188 345.648438 226.277344 348.769531 224.71875 351.5625 C 222.160156 346.800781 217.117188 338.277344 216.503906 332.828125 Z M 232.730469 342.246094 C 234.75 337.84375 235.75 334.746094 235.75 332.828125 C 235.75 326.734375 230.808594 321.796875 224.71875 321.796875 C 216.9375 321.796875 211.433594 329.753906 214.609375 337.152344 C 211.714844 338.277344 210.539062 336.539062 209.515625 333.390625 C 208.722656 331.1875 207.75 328.476562 205.085938 326.25 C 201.09375 323 193.339844 321.15625 190.578125 324.867188 C 189.449219 326.914062 191.292969 328.78125 193.648438 331.136719 C 198.050781 335.078125 203.246094 342.398438 200.890625 349.691406 C 199.023438 355.398438 202.425781 360.824219 207.441406 363.230469 C 210.871094 364.894531 214.738281 368.8125 214.914062 373.214844 L 190.089844 373.214844 C 187.351562 371.730469 184.765625 369.988281 182.4375 368.042969 C 185.558594 365.125 187.761719 361.183594 188.65625 356.757812 C 192.957031 355.835938 193.878906 350.027344 190.039062 347.851562 C 192.957031 338.253906 187.839844 328.296875 177.652344 327.785156 C 174.324219 325.40625 170.28125 323.84375 166.109375 323.894531 C 166.621094 320.976562 167.390625 318.109375 168.4375 315.347656 C 168.695312 315.910156 169.179688 316.292969 169.792969 316.292969 C 170.304688 316.292969 170.765625 316.039062 171.023438 315.601562 C 171.046875 315.550781 174.09375 310.40625 176.730469 305.007812 C 181.363281 308.359375 186.761719 309.023438 190.703125 305.773438 C 192.035156 304.851562 193.109375 304.136719 194.800781 304.265625 C 196.640625 304.417969 197.589844 305.390625 198.792969 306.644531 C 202.425781 311.019531 207.339844 310.5625 211.28125 306.621094 C 213.125 305.058594 215.019531 303.421875 218.089844 303.035156 C 221.441406 302.601562 224.386719 303.828125 226.5625 304.699219 C 228.429688 305.46875 230.167969 306.183594 231.191406 304.75 C 232.214844 303.265625 230.886719 301.832031 229.503906 300.296875 C 224.792969 295.539062 225.152344 292.390625 231.472656 289.035156 C 239.84375 292.722656 246.855469 298.710938 251.820312 306.390625 C 250.183594 309.613281 246.550781 311.304688 243.296875 311.660156 C 240.96875 312.070312 238.5625 312.503906 236.617188 314.988281 C 234.316406 317.90625 233.394531 322.769531 235.671875 324.636719 C 237.359375 326.070312 239.585938 325.019531 241.710938 324.046875 C 243.425781 323.253906 245.371094 322.359375 246.445312 323 C 247.214844 323.460938 247.367188 324.558594 247.496094 326.351562 C 247.445312 333.414062 253.230469 334.796875 259.320312 332.722656 C 259.242188 336.640625 258.707031 340.554688 257.632812 344.34375 C 249.363281 346.648438 239.304688 349.179688 232.730469 342.246094 Z M 189.039062 353.453125 C 189.015625 352.660156 189.21875 351.867188 189.375 351.101562 C 189.707031 351.613281 189.707031 352.277344 189.476562 352.816406 C 189.375 353.046875 189.246094 353.277344 189.039062 353.453125 Z M 201.351562 385.574219 C 193.800781 385.550781 191.726562 396.453125 200.070312 396.914062 C 207.621094 396.9375 209.695312 386.035156 201.351562 385.574219 Z M 197.511719 391.433594 C 197.84375 388.183594 204.167969 386.878906 203.9375 391.050781 C 203.578125 394.300781 197.28125 395.605469 197.511719 391.433594 Z M 197.511719 391.433594 " fill-opacity="1" fill-rule="nonzero"/></g><path fill="#ffffff" d="M 551.167969 273 L 553.042969 277 L 555.234375 281.683594 L 564.503906 283.105469 C 567.050781 283.488281 567.203125 284.640625 565.386719 286.511719 L 558.808594 293.28125 L 560.320312 302.503906 C 560.8125 305.515625 559.910156 306.242188 557.855469 305.105469 L 549.460938 300.457031 L 549.460938 300.429688 L 549.449219 300.457031 L 541.042969 305.113281 C 538.988281 306.25 538.097656 305.523438 538.589844 302.511719 L 540.089844 293.292969 L 533.523438 286.523438 C 531.703125 284.652344 531.859375 283.496094 534.402344 283.105469 L 543.675781 281.6875 L 547.730469 272.992188 C 548.753906 270.824219 550.144531 270.804688 551.167969 273 Z M 551.167969 273 " fill-opacity="1" fill-rule="nonzero"/><path fill="#ffffff" d="M 518.320312 289.832031 L 519.9375 293.296875 L 521.839844 297.34375 L 529.851562 298.574219 C 532.054688 298.902344 532.191406 299.898438 530.617188 301.527344 L 524.933594 307.375 L 526.234375 315.34375 C 526.660156 317.953125 525.878906 318.582031 524.105469 317.601562 L 516.847656 313.578125 L 516.835938 313.550781 L 516.828125 313.578125 L 509.570312 317.601562 C 507.789062 318.582031 507.011719 317.964844 507.441406 315.355469 L 508.742188 307.378906 L 503.054688 301.53125 C 501.484375 299.910156 501.621094 298.910156 503.820312 298.574219 L 511.835938 297.347656 L 515.355469 289.835938 C 516.230469 287.953125 517.433594 287.933594 518.320312 289.832031 Z M 518.320312 289.832031 " fill-opacity="1" fill-rule="nonzero"/><path fill="#ffffff" d="M 583.546875 289.789062 L 585.167969 293.246094 L 587.066406 297.289062 L 595.082031 298.523438 C 597.28125 298.855469 597.417969 299.859375 595.847656 301.476562 L 590.160156 307.324219 L 591.460938 315.300781 C 591.890625 317.902344 591.117188 318.539062 589.332031 317.546875 L 582.074219 313.53125 L 582.066406 313.507812 L 582.058594 313.535156 L 574.800781 317.554688 C 573.027344 318.539062 572.246094 317.910156 572.671875 315.300781 L 573.96875 307.332031 L 568.289062 301.484375 C 566.714844 299.863281 566.847656 298.863281 569.054688 298.527344 L 577.066406 297.300781 L 580.585938 289.777344 C 581.457031 287.90625 582.667969 287.886719 583.546875 289.789062 Z M 583.546875 289.789062 " fill-opacity="1" fill-rule="nonzero"/><path fill="#ffffff" d="M 493.9375 315.492188 L 495.316406 318.425781 L 496.9375 321.855469 L 503.785156 322.894531 C 505.667969 323.183594 505.785156 324.03125 504.441406 325.402344 L 499.585938 330.359375 L 500.695312 337.121094 C 501.058594 339.332031 500.394531 339.859375 498.882812 339.019531 L 492.671875 335.617188 L 492.671875 335.597656 L 492.660156 335.617188 L 486.460938 339.027344 C 484.9375 339.863281 484.277344 339.328125 484.636719 337.117188 L 485.75 330.359375 L 480.894531 325.402344 C 479.558594 324.03125 479.667969 323.183594 481.550781 322.902344 L 488.398438 321.867188 L 491.398438 315.492188 C 492.152344 313.898438 493.179688 313.890625 493.9375 315.492188 Z M 493.9375 315.492188 " fill-opacity="1" fill-rule="nonzero"/><g clip-path="url(#8f1a957852)"><path fill="#ffffff" d="M 535.425781 372.515625 C 518.890625 375.945312 508.507812 385.730469 505.277344 399.828125 C 504.386719 403.640625 505.757812 404.75 507.46875 405.277344 C 519.203125 408.886719 540.925781 410.171875 549.453125 410.171875 C 557.976562 410.171875 579.699219 408.890625 591.433594 405.277344 C 593.144531 404.75 594.515625 403.640625 593.636719 399.828125 C 590.664062 386.851562 581.609375 377.535156 567.296875 373.464844 C 564.960938 374.890625 562.457031 376.046875 559.820312 376.890625 C 558.9375 379.65625 556.765625 381.910156 553.746094 381.910156 L 545.578125 381.910156 C 541.867188 381.910156 538.753906 378.800781 538.753906 375.078125 L 538.753906 374.371094 Z M 535.425781 372.515625 " fill-opacity="1" fill-rule="nonzero"/></g><path fill="#ffffff" d="M 550.640625 315.171875 C 544.523438 314.972656 538.335938 316.636719 532.996094 320.203125 C 527.003906 324.214844 522.808594 330.125 520.882812 336.738281 C 520.347656 336.679688 519.707031 336.710938 518.953125 336.917969 C 516.125 337.726562 513.996094 340.039062 513.039062 342.085938 C 511.792969 344.742188 511.277344 348.261719 511.824219 351.898438 C 512.378906 355.519531 513.90625 358.511719 515.824219 360.355469 C 517.734375 362.214844 519.910156 362.824219 522.054688 362.359375 C 525.265625 361.675781 526.855469 361.167969 526.402344 358.183594 L 524.226562 343.703125 C 524.671875 335.863281 528.722656 328.488281 535.515625 323.957031 C 544.589844 317.894531 556.5 318.28125 565.15625 324.929688 C 571.183594 329.550781 574.6875 336.472656 575.089844 343.738281 L 573.570312 353.863281 C 570.175781 363.140625 561.785156 369.558594 552.054688 370.480469 L 545.578125 370.480469 C 543.910156 370.480469 542.5625 371.816406 542.5625 373.492188 L 542.5625 375.082031 C 542.5625 376.746094 543.910156 378.09375 545.578125 378.09375 L 553.746094 378.09375 C 555.410156 378.09375 556.753906 376.746094 556.753906 375.082031 L 556.753906 374.246094 C 564.085938 372.457031 570.488281 367.953125 574.652344 361.667969 L 577.265625 362.359375 C 579.402344 362.910156 581.59375 362.210938 583.503906 360.355469 C 585.425781 358.507812 586.953125 355.519531 587.503906 351.898438 C 588.050781 348.257812 587.515625 344.75 586.285156 342.085938 C 585.058594 339.417969 583.21875 337.71875 581.113281 337.117188 C 580.21875 336.863281 579.257812 336.761719 578.429688 336.746094 C 576.683594 330.761719 573.089844 325.320312 567.914062 321.347656 C 562.820312 317.445312 556.761719 315.371094 550.640625 315.171875 Z M 550.640625 315.171875 " fill-opacity="1" fill-rule="evenodd"/><path fill="#ffffff" d="M 549.453125 324.414062 C 537.980469 324.414062 528.730469 333.355469 528.730469 345.132812 C 528.730469 356.917969 537.980469 365.851562 549.453125 365.851562 C 560.925781 365.851562 570.171875 356.910156 570.171875 345.132812 C 570.171875 333.355469 560.925781 324.414062 549.453125 324.414062 Z M 539.5625 334.671875 C 541.601562 336.617188 545.261719 337.917969 549.453125 337.917969 C 553.640625 337.917969 557.308594 336.617188 559.34375 334.671875 C 562.121094 337.292969 563.859375 341.003906 563.859375 345.132812 C 563.859375 353.109375 557.433594 359.53125 549.453125 359.53125 C 541.472656 359.53125 535.054688 353.109375 535.054688 345.132812 C 535.054688 341.003906 536.789062 337.292969 539.5625 334.671875 Z M 539.5625 334.671875 " fill-opacity="1" fill-rule="evenodd"/><path fill="#ffffff" d="M 607.503906 315.492188 L 608.890625 318.425781 L 610.507812 321.855469 L 617.355469 322.894531 C 619.238281 323.183594 619.355469 324.03125 618.007812 325.402344 L 613.152344 330.359375 L 614.265625 337.121094 C 614.628906 339.332031 613.964844 339.859375 612.453125 339.019531 L 606.242188 335.617188 L 606.242188 335.597656 L 606.234375 335.617188 L 600.027344 339.03125 C 598.511719 339.867188 597.84375 339.332031 598.210938 337.121094 L 599.320312 330.359375 L 594.472656 325.402344 C 593.128906 324.03125 593.234375 323.183594 595.117188 322.902344 L 601.964844 321.867188 L 604.96875 315.492188 C 605.722656 313.898438 606.75 313.890625 607.503906 315.492188 Z M 607.503906 315.492188 " fill-opacity="1" fill-rule="nonzero"/><g clip-path="url(#f5524b953f)"><path fill="#ffffff" d="M 273.976562 36.175781 C 271.597656 47.3125 269.203125 58.445312 266.753906 69.566406 C 266.136719 72.378906 265.109375 72.707031 262.960938 70.792969 C 260.679688 68.761719 258.535156 66.578125 256.320312 64.46875 C 256.15625 64.316406 255.996094 64.164062 255.824219 64.011719 L 254.648438 62.832031 L 253.710938 63.769531 C 253.652344 63.824219 253.589844 63.882812 253.527344 63.941406 C 238.789062 78.582031 224.046875 93.222656 209.308594 107.867188 C 204.742188 112.414062 200.1875 116.976562 195.625 121.527344 C 194.398438 122.753906 193.082031 122.898438 191.652344 121.863281 C 190.804688 121.246094 190.015625 120.542969 189.265625 119.804688 C 185.050781 115.652344 180.859375 111.472656 176.660156 107.304688 C 176.40625 107.050781 176.140625 106.8125 175.820312 106.503906 C 175.507812 106.800781 175.222656 107.0625 174.953125 107.335938 C 161.195312 121.054688 147.4375 134.78125 133.664062 148.480469 C 133.265625 148.878906 132.859375 149.265625 132.453125 149.652344 L 125.910156 156.191406 C 125.378906 156.726562 124.511719 156.726562 123.976562 156.191406 L 115.171875 147.394531 C 114.636719 146.859375 114.636719 145.992188 115.171875 145.457031 L 116.835938 143.800781 C 116.953125 143.636719 117.085938 143.480469 117.234375 143.335938 C 134.113281 126.511719 150.992188 109.671875 167.894531 92.871094 C 170.015625 90.769531 172.261719 88.78125 174.550781 86.859375 C 176.042969 85.605469 176.644531 85.6875 178.035156 87.035156 C 182.945312 91.792969 187.832031 96.578125 192.722656 101.355469 C 192.933594 101.5625 193.09375 101.816406 193.242188 102.003906 C 210.039062 85.164062 226.746094 68.421875 243.722656 51.40625 C 241.417969 49.195312 238.980469 46.886719 236.585938 44.546875 C 235.953125 43.933594 235.386719 43.230469 234.878906 42.511719 C 234.019531 41.296875 234.265625 40.507812 235.707031 40.070312 C 237.339844 39.578125 239 39.1875 240.664062 38.8125 C 250.152344 36.707031 259.636719 34.617188 269.125 32.539062 C 269.695312 32.414062 270.296875 32.386719 270.882812 32.394531 C 273.144531 32.425781 274.449219 33.957031 273.976562 36.175781 " fill-opacity="1" fill-rule="nonzero"/></g><g clip-path="url(#150730cce1)"><path fill="#ffffff" d="M 223.753906 104.320312 C 223.316406 104.726562 223.074219 104.941406 222.851562 105.164062 C 215.5625 112.425781 208.277344 119.695312 200.972656 126.941406 C 200.441406 127.472656 200.207031 127.984375 200.210938 128.738281 C 200.234375 137.417969 200.210938 146.101562 200.25 154.78125 C 200.25 155.421875 200.261719 156.0625 200.269531 156.703125 C 200.242188 156.8125 200.226562 156.925781 200.226562 157.042969 L 200.226562 166.480469 C 200.226562 167.34375 200.925781 168.042969 201.789062 168.042969 L 222.175781 168.042969 C 223.039062 168.042969 223.742188 167.34375 223.742188 166.480469 L 223.742188 164.445312 C 223.75 164.320312 223.753906 164.191406 223.753906 164.066406 C 223.765625 144.539062 223.757812 125.011719 223.753906 105.480469 C 223.753906 105.191406 223.753906 104.898438 223.753906 104.320312 " fill-opacity="1" fill-rule="nonzero"/></g><g clip-path="url(#303d050dd2)"><path fill="#ffffff" d="M 254.660156 152.847656 C 254.632812 126.832031 254.589844 100.820312 254.546875 74.804688 L 254.546875 73.375 L 253.964844 73.972656 C 246.453125 81.46875 238.945312 88.96875 231.453125 96.476562 C 231.210938 96.71875 231.054688 97.160156 231.054688 97.507812 C 231.035156 120.03125 231.035156 142.558594 231.039062 165.082031 C 231.039062 165.195312 231.0625 165.3125 231.089844 165.4375 L 231.089844 166.480469 C 231.089844 167.34375 231.789062 168.042969 232.65625 168.042969 L 253.042969 168.042969 C 253.90625 168.042969 254.605469 167.34375 254.605469 166.480469 L 254.605469 159.097656 C 254.636719 157.015625 254.660156 154.929688 254.660156 152.847656 " fill-opacity="1" fill-rule="nonzero"/></g><g clip-path="url(#a8842a3288)"><path fill="#ffffff" d="M 160.828125 130.644531 C 153.433594 138.007812 146.039062 145.367188 138.664062 152.75 C 138.417969 152.992188 138.257812 153.433594 138.257812 153.785156 C 138.246094 154.839844 138.246094 155.890625 138.242188 156.949219 C 138.242188 156.984375 138.234375 157.011719 138.234375 157.050781 L 138.234375 166.472656 C 138.234375 167.34375 138.9375 168.042969 139.804688 168.042969 L 160.382812 168.042969 C 161.25 168.042969 161.953125 167.34375 161.953125 166.472656 L 161.953125 157.050781 C 161.953125 157.023438 161.949219 157 161.949219 156.980469 C 161.941406 149.757812 161.933594 142.535156 161.925781 135.3125 C 161.925781 133.902344 161.925781 132.488281 161.925781 131.074219 L 161.953125 129.460938 L 160.828125 130.644531 " fill-opacity="1" fill-rule="nonzero"/></g><g clip-path="url(#c087b0c38d)"><path fill="#ffffff" d="M 192.753906 131.109375 L 192.753906 129.59375 L 192.664062 129.59375 C 188.875 129.871094 186.269531 127.710938 183.777344 125.351562 C 182.085938 123.742188 180.421875 122.109375 178.742188 120.492188 C 178.230469 120 177.710938 119.507812 177.199219 119.015625 L 174.777344 116.636719 L 174.046875 117.375 C 174.03125 117.390625 174.011719 117.402344 173.996094 117.417969 C 172.605469 118.8125 171.242188 120.238281 169.820312 121.605469 C 169.257812 122.144531 169.035156 122.703125 169.039062 123.5 C 169.078125 132.964844 169.054688 142.425781 169.09375 151.894531 C 169.105469 155.152344 169.160156 158.414062 169.238281 161.671875 L 169.238281 166.480469 C 169.238281 167.34375 169.941406 168.042969 170.804688 168.042969 L 191.191406 168.042969 C 192.054688 168.042969 192.753906 167.34375 192.753906 166.480469 L 192.753906 157.042969 C 192.753906 156.914062 192.734375 156.792969 192.707031 156.675781 C 192.730469 148.15625 192.742188 139.632812 192.753906 131.109375 " fill-opacity="1" fill-rule="nonzero"/></g><g fill="#ffffff" fill-opacity="1"><g transform="translate(74.650532, 202.440086)"><g><path d="M 4.59375 0.140625 C 3.800781 0.140625 3.03125 0.03125 2.28125 -0.1875 C 1.539062 -0.414062 0.953125 -0.71875 0.515625 -1.09375 L 1.1875 -2.59375 C 1.601562 -2.25 2.117188 -1.972656 2.734375 -1.765625 C 3.359375 -1.554688 3.976562 -1.453125 4.59375 -1.453125 C 5.363281 -1.453125 5.9375 -1.570312 6.3125 -1.8125 C 6.695312 -2.0625 6.890625 -2.390625 6.890625 -2.796875 C 6.890625 -3.085938 6.78125 -3.328125 6.5625 -3.515625 C 6.351562 -3.710938 6.085938 -3.863281 5.765625 -3.96875 C 5.441406 -4.082031 5 -4.207031 4.4375 -4.34375 C 3.644531 -4.53125 3.003906 -4.71875 2.515625 -4.90625 C 2.023438 -5.09375 1.601562 -5.382812 1.25 -5.78125 C 0.90625 -6.1875 0.734375 -6.726562 0.734375 -7.40625 C 0.734375 -7.976562 0.890625 -8.5 1.203125 -8.96875 C 1.515625 -9.4375 1.984375 -9.804688 2.609375 -10.078125 C 3.234375 -10.359375 4 -10.5 4.90625 -10.5 C 5.539062 -10.5 6.160156 -10.414062 6.765625 -10.25 C 7.378906 -10.09375 7.90625 -9.867188 8.34375 -9.578125 L 7.75 -8.078125 C 7.289062 -8.347656 6.816406 -8.550781 6.328125 -8.6875 C 5.835938 -8.820312 5.359375 -8.890625 4.890625 -8.890625 C 4.128906 -8.890625 3.5625 -8.757812 3.1875 -8.5 C 2.820312 -8.25 2.640625 -7.914062 2.640625 -7.5 C 2.640625 -7.195312 2.742188 -6.953125 2.953125 -6.765625 C 3.171875 -6.578125 3.441406 -6.425781 3.765625 -6.3125 C 4.085938 -6.207031 4.53125 -6.085938 5.09375 -5.953125 C 5.863281 -5.773438 6.492188 -5.585938 6.984375 -5.390625 C 7.484375 -5.203125 7.90625 -4.910156 8.25 -4.515625 C 8.601562 -4.128906 8.78125 -3.597656 8.78125 -2.921875 C 8.78125 -2.347656 8.625 -1.832031 8.3125 -1.375 C 8 -0.914062 7.523438 -0.546875 6.890625 -0.265625 C 6.265625 0.00390625 5.5 0.140625 4.59375 0.140625 Z M 4.59375 0.140625 "/></g></g></g><g fill="#ffffff" fill-opacity="1"><g transform="translate(83.946766, 202.440086)"><g><path d="M 1.390625 -10.34375 L 3.3125 -10.34375 L 3.3125 0 L 1.390625 0 Z M 1.390625 -10.34375 "/></g></g></g><g fill="#ffffff" fill-opacity="1"><g transform="translate(88.661391, 202.440086)"><g><path d="M 10.578125 -10.34375 L 10.578125 0 L 9 0 L 3.296875 -7 L 3.296875 0 L 1.390625 0 L 1.390625 -10.34375 L 2.96875 -10.34375 L 8.671875 -3.34375 L 8.671875 -10.34375 Z M 10.578125 -10.34375 "/></g></g></g><g fill="#ffffff" fill-opacity="1"><g transform="translate(100.632702, 202.440086)"><g><path d="M 8.453125 -5.296875 L 10.265625 -5.296875 L 10.265625 -1.171875 C 9.734375 -0.742188 9.113281 -0.414062 8.40625 -0.1875 C 7.695312 0.03125 6.96875 0.140625 6.21875 0.140625 C 5.164062 0.140625 4.210938 -0.0859375 3.359375 -0.546875 C 2.515625 -1.003906 1.851562 -1.632812 1.375 -2.4375 C 0.894531 -3.25 0.65625 -4.160156 0.65625 -5.171875 C 0.65625 -6.191406 0.894531 -7.101562 1.375 -7.90625 C 1.851562 -8.71875 2.519531 -9.351562 3.375 -9.8125 C 4.226562 -10.269531 5.1875 -10.5 6.25 -10.5 C 7.113281 -10.5 7.898438 -10.351562 8.609375 -10.0625 C 9.328125 -9.78125 9.925781 -9.363281 10.40625 -8.8125 L 9.1875 -7.625 C 8.40625 -8.414062 7.457031 -8.8125 6.34375 -8.8125 C 5.613281 -8.8125 4.960938 -8.65625 4.390625 -8.34375 C 3.828125 -8.039062 3.382812 -7.613281 3.0625 -7.0625 C 2.75 -6.507812 2.59375 -5.878906 2.59375 -5.171875 C 2.59375 -4.484375 2.75 -3.863281 3.0625 -3.3125 C 3.382812 -2.757812 3.828125 -2.320312 4.390625 -2 C 4.960938 -1.6875 5.609375 -1.53125 6.328125 -1.53125 C 7.128906 -1.53125 7.835938 -1.707031 8.453125 -2.0625 Z M 8.453125 -5.296875 "/></g></g></g><g fill="#ffffff" fill-opacity="1"><g transform="translate(112.042397, 202.440086)"><g><path d="M 1.390625 -10.34375 L 3.3125 -10.34375 L 3.3125 -1.625 L 8.71875 -1.625 L 8.71875 0 L 1.390625 0 Z M 1.390625 -10.34375 "/></g></g></g><g fill="#ffffff" fill-opacity="1"><g transform="translate(120.895252, 202.440086)"><g><path d="M 9.15625 -1.609375 L 9.15625 0 L 1.390625 0 L 1.390625 -10.34375 L 8.9375 -10.34375 L 8.9375 -8.734375 L 3.3125 -8.734375 L 3.3125 -6.046875 L 8.3125 -6.046875 L 8.3125 -4.46875 L 3.3125 -4.46875 L 3.3125 -1.609375 Z M 9.15625 -1.609375 "/></g></g></g><g fill="#ffffff" fill-opacity="1"><g transform="translate(130.797443, 202.440086)"><g/></g></g><g fill="#ffffff" fill-opacity="1"><g transform="translate(134.87656, 202.440086)"><g><path d="M 8.09375 -2.390625 L 2.921875 -2.390625 L 1.90625 0 L -0.078125 0 L 4.578125 -10.34375 L 6.46875 -10.34375 L 11.140625 0 L 9.140625 0 Z M 7.46875 -3.90625 L 5.515625 -8.421875 L 3.578125 -3.90625 Z M 7.46875 -3.90625 "/></g></g></g><g fill="#ffffff" fill-opacity="1"><g transform="translate(145.946321, 202.440086)"><g><path d="M 6.171875 0.140625 C 5.128906 0.140625 4.1875 -0.0859375 3.34375 -0.546875 C 2.5 -1.003906 1.835938 -1.632812 1.359375 -2.4375 C 0.890625 -3.25 0.65625 -4.160156 0.65625 -5.171875 C 0.65625 -6.191406 0.894531 -7.101562 1.375 -7.90625 C 1.851562 -8.71875 2.515625 -9.351562 3.359375 -9.8125 C 4.203125 -10.269531 5.144531 -10.5 6.1875 -10.5 C 7.039062 -10.5 7.816406 -10.347656 8.515625 -10.046875 C 9.210938 -9.753906 9.800781 -9.328125 10.28125 -8.765625 L 9.046875 -7.59375 C 8.296875 -8.40625 7.375 -8.8125 6.28125 -8.8125 C 5.570312 -8.8125 4.9375 -8.65625 4.375 -8.34375 C 3.8125 -8.03125 3.375 -7.597656 3.0625 -7.046875 C 2.75 -6.492188 2.59375 -5.867188 2.59375 -5.171875 C 2.59375 -4.472656 2.75 -3.847656 3.0625 -3.296875 C 3.375 -2.742188 3.8125 -2.3125 4.375 -2 C 4.9375 -1.6875 5.570312 -1.53125 6.28125 -1.53125 C 7.375 -1.53125 8.296875 -1.941406 9.046875 -2.765625 L 10.28125 -1.578125 C 9.800781 -1.015625 9.207031 -0.585938 8.5 -0.296875 C 7.800781 -0.00390625 7.023438 0.140625 6.171875 0.140625 Z M 6.171875 0.140625 "/></g></g></g><g fill="#ffffff" fill-opacity="1"><g transform="translate(156.690938, 202.440086)"><g><path d="M 9.15625 -1.609375 L 9.15625 0 L 1.390625 0 L 1.390625 -10.34375 L 8.9375 -10.34375 L 8.9375 -8.734375 L 3.3125 -8.734375 L 3.3125 -6.046875 L 8.3125 -6.046875 L 8.3125 -4.46875 L 3.3125 -4.46875 L 3.3125 -1.609375 Z M 9.15625 -1.609375 "/></g></g></g><g fill="#ffffff" fill-opacity="1"><g transform="translate(166.593129, 202.440086)"><g><path d="M 9.15625 -1.609375 L 9.15625 0 L 1.390625 0 L 1.390625 -10.34375 L 8.9375 -10.34375 L 8.9375 -8.734375 L 3.3125 -8.734375 L 3.3125 -6.046875 L 8.3125 -6.046875 L 8.3125 -4.46875 L 3.3125 -4.46875 L 3.3125 -1.609375 Z M 9.15625 -1.609375 "/></g></g></g><g fill="#ffffff" fill-opacity="1"><g transform="translate(176.495319, 202.440086)"><g><path d="M 4.59375 0.140625 C 3.800781 0.140625 3.03125 0.03125 2.28125 -0.1875 C 1.539062 -0.414062 0.953125 -0.71875 0.515625 -1.09375 L 1.1875 -2.59375 C 1.601562 -2.25 2.117188 -1.972656 2.734375 -1.765625 C 3.359375 -1.554688 3.976562 -1.453125 4.59375 -1.453125 C 5.363281 -1.453125 5.9375 -1.570312 6.3125 -1.8125 C 6.695312 -2.0625 6.890625 -2.390625 6.890625 -2.796875 C 6.890625 -3.085938 6.78125 -3.328125 6.5625 -3.515625 C 6.351562 -3.710938 6.085938 -3.863281 5.765625 -3.96875 C 5.441406 -4.082031 5 -4.207031 4.4375 -4.34375 C 3.644531 -4.53125 3.003906 -4.71875 2.515625 -4.90625 C 2.023438 -5.09375 1.601562 -5.382812 1.25 -5.78125 C 0.90625 -6.1875 0.734375 -6.726562 0.734375 -7.40625 C 0.734375 -7.976562 0.890625 -8.5 1.203125 -8.96875 C 1.515625 -9.4375 1.984375 -9.804688 2.609375 -10.078125 C 3.234375 -10.359375 4 -10.5 4.90625 -10.5 C 5.539062 -10.5 6.160156 -10.414062 6.765625 -10.25 C 7.378906 -10.09375 7.90625 -9.867188 8.34375 -9.578125 L 7.75 -8.078125 C 7.289062 -8.347656 6.816406 -8.550781 6.328125 -8.6875 C 5.835938 -8.820312 5.359375 -8.890625 4.890625 -8.890625 C 4.128906 -8.890625 3.5625 -8.757812 3.1875 -8.5 C 2.820312 -8.25 2.640625 -7.914062 2.640625 -7.5 C 2.640625 -7.195312 2.742188 -6.953125 2.953125 -6.765625 C 3.171875 -6.578125 3.441406 -6.425781 3.765625 -6.3125 C 4.085938 -6.207031 4.53125 -6.085938 5.09375 -5.953125 C 5.863281 -5.773438 6.492188 -5.585938 6.984375 -5.390625 C 7.484375 -5.203125 7.90625 -4.910156 8.25 -4.515625 C 8.601562 -4.128906 8.78125 -3.597656 8.78125 -2.921875 C 8.78125 -2.347656 8.625 -1.832031 8.3125 -1.375 C 8 -0.914062 7.523438 -0.546875 6.890625 -0.265625 C 6.265625 0.00390625 5.5 0.140625 4.59375 0.140625 Z M 4.59375 0.140625 "/></g></g></g><g fill="#ffffff" fill-opacity="1"><g transform="translate(185.791553, 202.440086)"><g/></g></g><g fill="#ffffff" fill-opacity="1"><g transform="translate(189.870671, 202.440086)"><g><path d="M 3.484375 -8.71875 L 0.0625 -8.71875 L 0.0625 -10.34375 L 8.84375 -10.34375 L 8.84375 -8.71875 L 5.40625 -8.71875 L 5.40625 0 L 3.484375 0 Z M 3.484375 -8.71875 "/></g></g></g><g fill="#ffffff" fill-opacity="1"><g transform="translate(198.767867, 202.440086)"><g><path d="M 6.21875 0.140625 C 5.164062 0.140625 4.210938 -0.0859375 3.359375 -0.546875 C 2.515625 -1.003906 1.851562 -1.640625 1.375 -2.453125 C 0.894531 -3.265625 0.65625 -4.171875 0.65625 -5.171875 C 0.65625 -6.179688 0.894531 -7.09375 1.375 -7.90625 C 1.851562 -8.71875 2.515625 -9.351562 3.359375 -9.8125 C 4.210938 -10.269531 5.164062 -10.5 6.21875 -10.5 C 7.269531 -10.5 8.21875 -10.269531 9.0625 -9.8125 C 9.914062 -9.351562 10.582031 -8.71875 11.0625 -7.90625 C 11.550781 -7.101562 11.796875 -6.191406 11.796875 -5.171875 C 11.796875 -4.160156 11.550781 -3.25 11.0625 -2.4375 C 10.582031 -1.632812 9.914062 -1.003906 9.0625 -0.546875 C 8.21875 -0.0859375 7.269531 0.140625 6.21875 0.140625 Z M 6.21875 -1.53125 C 6.90625 -1.53125 7.523438 -1.6875 8.078125 -2 C 8.628906 -2.3125 9.0625 -2.742188 9.375 -3.296875 C 9.695312 -3.859375 9.859375 -4.484375 9.859375 -5.171875 C 9.859375 -5.859375 9.695312 -6.476562 9.375 -7.03125 C 9.0625 -7.59375 8.628906 -8.03125 8.078125 -8.34375 C 7.523438 -8.65625 6.90625 -8.8125 6.21875 -8.8125 C 5.53125 -8.8125 4.910156 -8.65625 4.359375 -8.34375 C 3.804688 -8.03125 3.375 -7.59375 3.0625 -7.03125 C 2.75 -6.476562 2.59375 -5.859375 2.59375 -5.171875 C 2.59375 -4.484375 2.75 -3.859375 3.0625 -3.296875 C 3.375 -2.742188 3.804688 -2.3125 4.359375 -2 C 4.910156 -1.6875 5.53125 -1.53125 6.21875 -1.53125 Z M 6.21875 -1.53125 "/></g></g></g><g fill="#ffffff" fill-opacity="1"><g transform="translate(211.212118, 202.440086)"><g/></g></g><g fill="#ffffff" fill-opacity="1"><g transform="translate(215.291235, 202.440086)"><g><path d="M 8.09375 -2.390625 L 2.921875 -2.390625 L 1.90625 0 L -0.078125 0 L 4.578125 -10.34375 L 6.46875 -10.34375 L 11.140625 0 L 9.140625 0 Z M 7.46875 -3.90625 L 5.515625 -8.421875 L 3.578125 -3.90625 Z M 7.46875 -3.90625 "/></g></g></g><g fill="#ffffff" fill-opacity="1"><g transform="translate(226.360996, 202.440086)"><g><path d="M 1.390625 -10.34375 L 3.3125 -10.34375 L 3.3125 -1.625 L 8.71875 -1.625 L 8.71875 0 L 1.390625 0 Z M 1.390625 -10.34375 "/></g></g></g><g fill="#ffffff" fill-opacity="1"><g transform="translate(235.213851, 202.440086)"><g><path d="M 1.390625 -10.34375 L 3.3125 -10.34375 L 3.3125 -1.625 L 8.71875 -1.625 L 8.71875 0 L 1.390625 0 Z M 1.390625 -10.34375 "/></g></g></g><g fill="#ffffff" fill-opacity="1"><g transform="translate(244.066706, 202.440086)"><g/></g></g><g fill="#ffffff" fill-opacity="1"><g transform="translate(248.145823, 202.440086)"><g><path d="M 10.890625 0 L 10.875 -6.859375 L 7.484375 -1.1875 L 6.625 -1.1875 L 3.21875 -6.765625 L 3.21875 0 L 1.390625 0 L 1.390625 -10.34375 L 2.96875 -10.34375 L 7.078125 -3.484375 L 11.109375 -10.34375 L 12.703125 -10.34375 L 12.71875 0 Z M 10.890625 0 "/></g></g></g><g fill="#ffffff" fill-opacity="1"><g transform="translate(262.260147, 202.440086)"><g><path d="M 8.09375 -2.390625 L 2.921875 -2.390625 L 1.90625 0 L -0.078125 0 L 4.578125 -10.34375 L 6.46875 -10.34375 L 11.140625 0 L 9.140625 0 Z M 7.46875 -3.90625 L 5.515625 -8.421875 L 3.578125 -3.90625 Z M 7.46875 -3.90625 "/></g></g></g><g fill="#ffffff" fill-opacity="1"><g transform="translate(273.329899, 202.440086)"><g><path d="M 8.15625 0 L 6.046875 -3.03125 C 5.953125 -3.019531 5.816406 -3.015625 5.640625 -3.015625 L 3.3125 -3.015625 L 3.3125 0 L 1.390625 0 L 1.390625 -10.34375 L 5.640625 -10.34375 C 6.535156 -10.34375 7.316406 -10.191406 7.984375 -9.890625 C 8.648438 -9.597656 9.160156 -9.175781 9.515625 -8.625 C 9.867188 -8.070312 10.046875 -7.421875 10.046875 -6.671875 C 10.046875 -5.890625 9.851562 -5.21875 9.46875 -4.65625 C 9.09375 -4.09375 8.550781 -3.675781 7.84375 -3.40625 L 10.234375 0 Z M 8.109375 -6.671875 C 8.109375 -7.328125 7.890625 -7.832031 7.453125 -8.1875 C 7.023438 -8.539062 6.394531 -8.71875 5.5625 -8.71875 L 3.3125 -8.71875 L 3.3125 -4.59375 L 5.5625 -4.59375 C 6.394531 -4.59375 7.023438 -4.769531 7.453125 -5.125 C 7.890625 -5.488281 8.109375 -6.003906 8.109375 -6.671875 Z M 8.109375 -6.671875 "/></g></g></g><g fill="#ffffff" fill-opacity="1"><g transform="translate(284.133638, 202.440086)"><g><path d="M 4.953125 -4.328125 L 3.3125 -2.640625 L 3.3125 0 L 1.390625 0 L 1.390625 -10.34375 L 3.3125 -10.34375 L 3.3125 -5.046875 L 8.421875 -10.34375 L 10.578125 -10.34375 L 6.234375 -5.71875 L 10.84375 0 L 8.609375 0 Z M 4.953125 -4.328125 "/></g></g></g><g fill="#ffffff" fill-opacity="1"><g transform="translate(294.907817, 202.440086)"><g><path d="M 9.15625 -1.609375 L 9.15625 0 L 1.390625 0 L 1.390625 -10.34375 L 8.9375 -10.34375 L 8.9375 -8.734375 L 3.3125 -8.734375 L 3.3125 -6.046875 L 8.3125 -6.046875 L 8.3125 -4.46875 L 3.3125 -4.46875 L 3.3125 -1.609375 Z M 9.15625 -1.609375 "/></g></g></g><g fill="#ffffff" fill-opacity="1"><g transform="translate(304.810007, 202.440086)"><g><path d="M 3.484375 -8.71875 L 0.0625 -8.71875 L 0.0625 -10.34375 L 8.84375 -10.34375 L 8.84375 -8.71875 L 5.40625 -8.71875 L 5.40625 0 L 3.484375 0 Z M 3.484375 -8.71875 "/></g></g></g><g fill="#ffffff" fill-opacity="1"><g transform="translate(90.088403, 440.901651)"><g><path d="M 3.484375 -8.71875 L 0.0625 -8.71875 L 0.0625 -10.34375 L 8.84375 -10.34375 L 8.84375 -8.71875 L 5.40625 -8.71875 L 5.40625 0 L 3.484375 0 Z M 3.484375 -8.71875 "/></g></g></g><g fill="#ffffff" fill-opacity="1"><g transform="translate(98.985599, 440.901651)"><g><path d="M 8.15625 0 L 6.046875 -3.03125 C 5.953125 -3.019531 5.816406 -3.015625 5.640625 -3.015625 L 3.3125 -3.015625 L 3.3125 0 L 1.390625 0 L 1.390625 -10.34375 L 5.640625 -10.34375 C 6.535156 -10.34375 7.316406 -10.191406 7.984375 -9.890625 C 8.648438 -9.597656 9.160156 -9.175781 9.515625 -8.625 C 9.867188 -8.070312 10.046875 -7.421875 10.046875 -6.671875 C 10.046875 -5.890625 9.851562 -5.21875 9.46875 -4.65625 C 9.09375 -4.09375 8.550781 -3.675781 7.84375 -3.40625 L 10.234375 0 Z M 8.109375 -6.671875 C 8.109375 -7.328125 7.890625 -7.832031 7.453125 -8.1875 C 7.023438 -8.539062 6.394531 -8.71875 5.5625 -8.71875 L 3.3125 -8.71875 L 3.3125 -4.59375 L 5.5625 -4.59375 C 6.394531 -4.59375 7.023438 -4.769531 7.453125 -5.125 C 7.890625 -5.488281 8.109375 -6.003906 8.109375 -6.671875 Z M 8.109375 -6.671875 "/></g></g></g><g fill="#ffffff" fill-opacity="1"><g transform="translate(109.789339, 440.901651)"><g><path d="M 8.09375 -2.390625 L 2.921875 -2.390625 L 1.90625 0 L -0.078125 0 L 4.578125 -10.34375 L 6.46875 -10.34375 L 11.140625 0 L 9.140625 0 Z M 7.46875 -3.90625 L 5.515625 -8.421875 L 3.578125 -3.90625 Z M 7.46875 -3.90625 "/></g></g></g><g fill="#ffffff" fill-opacity="1"><g transform="translate(120.8591, 440.901651)"><g><path d="M 1.390625 -10.34375 L 5.90625 -10.34375 C 7.007812 -10.34375 7.988281 -10.128906 8.84375 -9.703125 C 9.707031 -9.273438 10.375 -8.664062 10.84375 -7.875 C 11.320312 -7.09375 11.5625 -6.191406 11.5625 -5.171875 C 11.5625 -4.148438 11.320312 -3.242188 10.84375 -2.453125 C 10.375 -1.671875 9.707031 -1.066406 8.84375 -0.640625 C 7.988281 -0.210938 7.007812 0 5.90625 0 L 1.390625 0 Z M 5.828125 -1.625 C 6.585938 -1.625 7.253906 -1.769531 7.828125 -2.0625 C 8.398438 -2.351562 8.84375 -2.765625 9.15625 -3.296875 C 9.46875 -3.835938 9.625 -4.460938 9.625 -5.171875 C 9.625 -5.878906 9.46875 -6.5 9.15625 -7.03125 C 8.84375 -7.570312 8.398438 -7.988281 7.828125 -8.28125 C 7.253906 -8.570312 6.585938 -8.71875 5.828125 -8.71875 L 3.3125 -8.71875 L 3.3125 -1.625 Z M 5.828125 -1.625 "/></g></g></g><g fill="#ffffff" fill-opacity="1"><g transform="translate(133.066881, 440.901651)"><g><path d="M 9.15625 -1.609375 L 9.15625 0 L 1.390625 0 L 1.390625 -10.34375 L 8.9375 -10.34375 L 8.9375 -8.734375 L 3.3125 -8.734375 L 3.3125 -6.046875 L 8.3125 -6.046875 L 8.3125 -4.46875 L 3.3125 -4.46875 L 3.3125 -1.609375 Z M 9.15625 -1.609375 "/></g></g></g><g fill="#ffffff" fill-opacity="1"><g transform="translate(142.969072, 440.901651)"><g/></g></g><g fill="#ffffff" fill-opacity="1"><g transform="translate(147.048189, 440.901651)"><g><path d="M 8.09375 -2.390625 L 2.921875 -2.390625 L 1.90625 0 L -0.078125 0 L 4.578125 -10.34375 L 6.46875 -10.34375 L 11.140625 0 L 9.140625 0 Z M 7.46875 -3.90625 L 5.515625 -8.421875 L 3.578125 -3.90625 Z M 7.46875 -3.90625 "/></g></g></g><g fill="#ffffff" fill-opacity="1"><g transform="translate(158.11795, 440.901651)"><g><path d="M 10.578125 -10.34375 L 10.578125 0 L 9 0 L 3.296875 -7 L 3.296875 0 L 1.390625 0 L 1.390625 -10.34375 L 2.96875 -10.34375 L 8.671875 -3.34375 L 8.671875 -10.34375 Z M 10.578125 -10.34375 "/></g></g></g><g fill="#ffffff" fill-opacity="1"><g transform="translate(170.089261, 440.901651)"><g><path d="M 5.859375 -3.65625 L 5.859375 0 L 3.9375 0 L 3.9375 -3.625 L -0.140625 -10.34375 L 1.921875 -10.34375 L 4.953125 -5.3125 L 8.015625 -10.34375 L 9.90625 -10.34375 Z M 5.859375 -3.65625 "/></g></g></g><g fill="#ffffff" fill-opacity="1"><g transform="translate(179.858436, 440.901651)"><g><path d="M 3.484375 -8.71875 L 0.0625 -8.71875 L 0.0625 -10.34375 L 8.84375 -10.34375 L 8.84375 -8.71875 L 5.40625 -8.71875 L 5.40625 0 L 3.484375 0 Z M 3.484375 -8.71875 "/></g></g></g><g fill="#ffffff" fill-opacity="1"><g transform="translate(188.755632, 440.901651)"><g><path d="M 1.390625 -10.34375 L 3.3125 -10.34375 L 3.3125 0 L 1.390625 0 Z M 1.390625 -10.34375 "/></g></g></g><g fill="#ffffff" fill-opacity="1"><g transform="translate(193.470257, 440.901651)"><g><path d="M 10.890625 0 L 10.875 -6.859375 L 7.484375 -1.1875 L 6.625 -1.1875 L 3.21875 -6.765625 L 3.21875 0 L 1.390625 0 L 1.390625 -10.34375 L 2.96875 -10.34375 L 7.078125 -3.484375 L 11.109375 -10.34375 L 12.703125 -10.34375 L 12.71875 0 Z M 10.890625 0 "/></g></g></g><g fill="#ffffff" fill-opacity="1"><g transform="translate(207.584581, 440.901651)"><g><path d="M 9.15625 -1.609375 L 9.15625 0 L 1.390625 0 L 1.390625 -10.34375 L 8.9375 -10.34375 L 8.9375 -8.734375 L 3.3125 -8.734375 L 3.3125 -6.046875 L 8.3125 -6.046875 L 8.3125 -4.46875 L 3.3125 -4.46875 L 3.3125 -1.609375 Z M 9.15625 -1.609375 "/></g></g></g><g fill="#ffffff" fill-opacity="1"><g transform="translate(217.486771, 440.901651)"><g/></g></g><g fill="#ffffff" fill-opacity="1"><g transform="translate(221.565888, 440.901651)"><g><path d="M 8.09375 -2.390625 L 2.921875 -2.390625 L 1.90625 0 L -0.078125 0 L 4.578125 -10.34375 L 6.46875 -10.34375 L 11.140625 0 L 9.140625 0 Z M 7.46875 -3.90625 L 5.515625 -8.421875 L 3.578125 -3.90625 Z M 7.46875 -3.90625 "/></g></g></g><g fill="#ffffff" fill-opacity="1"><g transform="translate(232.63565, 440.901651)"><g><path d="M 10.578125 -10.34375 L 10.578125 0 L 9 0 L 3.296875 -7 L 3.296875 0 L 1.390625 0 L 1.390625 -10.34375 L 2.96875 -10.34375 L 8.671875 -3.34375 L 8.671875 -10.34375 Z M 10.578125 -10.34375 "/></g></g></g><g fill="#ffffff" fill-opacity="1"><g transform="translate(244.60696, 440.901651)"><g><path d="M 5.859375 -3.65625 L 5.859375 0 L 3.9375 0 L 3.9375 -3.625 L -0.140625 -10.34375 L 1.921875 -10.34375 L 4.953125 -5.3125 L 8.015625 -10.34375 L 9.90625 -10.34375 Z M 5.859375 -3.65625 "/></g></g></g><g fill="#ffffff" fill-opacity="1"><g transform="translate(254.376145, 440.901651)"><g><path d="M 16.515625 -10.34375 L 13.078125 0 L 11.046875 0 L 8.484375 -7.65625 L 5.890625 0 L 3.828125 0 L 0.40625 -10.34375 L 2.390625 -10.34375 L 4.96875 -2.484375 L 7.640625 -10.34375 L 9.421875 -10.34375 L 12.03125 -2.4375 L 14.671875 -10.34375 Z M 16.515625 -10.34375 "/></g></g></g><g fill="#ffffff" fill-opacity="1"><g transform="translate(271.28376, 440.901651)"><g><path d="M 10.578125 -10.34375 L 10.578125 0 L 8.65625 0 L 8.65625 -4.4375 L 3.3125 -4.4375 L 3.3125 0 L 1.390625 0 L 1.390625 -10.34375 L 3.3125 -10.34375 L 3.3125 -6.078125 L 8.65625 -6.078125 L 8.65625 -10.34375 Z M 10.578125 -10.34375 "/></g></g></g><g fill="#ffffff" fill-opacity="1"><g transform="translate(283.255061, 440.901651)"><g><path d="M 9.15625 -1.609375 L 9.15625 0 L 1.390625 0 L 1.390625 -10.34375 L 8.9375 -10.34375 L 8.9375 -8.734375 L 3.3125 -8.734375 L 3.3125 -6.046875 L 8.3125 -6.046875 L 8.3125 -4.46875 L 3.3125 -4.46875 L 3.3125 -1.609375 Z M 9.15625 -1.609375 "/></g></g></g><g fill="#ffffff" fill-opacity="1"><g transform="translate(293.157251, 440.901651)"><g><path d="M 8.15625 0 L 6.046875 -3.03125 C 5.953125 -3.019531 5.816406 -3.015625 5.640625 -3.015625 L 3.3125 -3.015625 L 3.3125 0 L 1.390625 0 L 1.390625 -10.34375 L 5.640625 -10.34375 C 6.535156 -10.34375 7.316406 -10.191406 7.984375 -9.890625 C 8.648438 -9.597656 9.160156 -9.175781 9.515625 -8.625 C 9.867188 -8.070312 10.046875 -7.421875 10.046875 -6.671875 C 10.046875 -5.890625 9.851562 -5.21875 9.46875 -4.65625 C 9.09375 -4.09375 8.550781 -3.675781 7.84375 -3.40625 L 10.234375 0 Z M 8.109375 -6.671875 C 8.109375 -7.328125 7.890625 -7.832031 7.453125 -8.1875 C 7.023438 -8.539062 6.394531 -8.71875 5.5625 -8.71875 L 3.3125 -8.71875 L 3.3125 -4.59375 L 5.5625 -4.59375 C 6.394531 -4.59375 7.023438 -4.769531 7.453125 -5.125 C 7.890625 -5.488281 8.109375 -6.003906 8.109375 -6.671875 Z M 8.109375 -6.671875 "/></g></g></g><g fill="#ffffff" fill-opacity="1"><g transform="translate(303.960991, 440.901651)"><g><path d="M 9.15625 -1.609375 L 9.15625 0 L 1.390625 0 L 1.390625 -10.34375 L 8.9375 -10.34375 L 8.9375 -8.734375 L 3.3125 -8.734375 L 3.3125 -6.046875 L 8.3125 -6.046875 L 8.3125 -4.46875 L 3.3125 -4.46875 L 3.3125 -1.609375 Z M 9.15625 -1.609375 "/></g></g></g><g fill="#ffffff" fill-opacity="1"><g transform="translate(431.498553, 202.440086)"><g><path d="M 1.390625 -10.34375 L 3.3125 -10.34375 L 3.3125 0 L 1.390625 0 Z M 1.390625 -10.34375 "/></g></g></g><g fill="#ffffff" fill-opacity="1"><g transform="translate(436.213178, 202.440086)"><g><path d="M 10.578125 -10.34375 L 10.578125 0 L 9 0 L 3.296875 -7 L 3.296875 0 L 1.390625 0 L 1.390625 -10.34375 L 2.96875 -10.34375 L 8.671875 -3.34375 L 8.671875 -10.34375 Z M 10.578125 -10.34375 "/></g></g></g><g fill="#ffffff" fill-opacity="1"><g transform="translate(448.184488, 202.440086)"><g><path d="M 0.8125 -4.875 L 4.875 -4.875 L 4.875 -3.34375 L 0.8125 -3.34375 Z M 0.8125 -4.875 "/></g></g></g><g fill="#ffffff" fill-opacity="1"><g transform="translate(453.874556, 202.440086)"><g><path d="M 1.390625 -10.34375 L 5.90625 -10.34375 C 7.007812 -10.34375 7.988281 -10.128906 8.84375 -9.703125 C 9.707031 -9.273438 10.375 -8.664062 10.84375 -7.875 C 11.320312 -7.09375 11.5625 -6.191406 11.5625 -5.171875 C 11.5625 -4.148438 11.320312 -3.242188 10.84375 -2.453125 C 10.375 -1.671875 9.707031 -1.066406 8.84375 -0.640625 C 7.988281 -0.210938 7.007812 0 5.90625 0 L 1.390625 0 Z M 5.828125 -1.625 C 6.585938 -1.625 7.253906 -1.769531 7.828125 -2.0625 C 8.398438 -2.351562 8.84375 -2.765625 9.15625 -3.296875 C 9.46875 -3.835938 9.625 -4.460938 9.625 -5.171875 C 9.625 -5.878906 9.46875 -6.5 9.15625 -7.03125 C 8.84375 -7.570312 8.398438 -7.988281 7.828125 -8.28125 C 7.253906 -8.570312 6.585938 -8.71875 5.828125 -8.71875 L 3.3125 -8.71875 L 3.3125 -1.625 Z M 5.828125 -1.625 "/></g></g></g><g fill="#ffffff" fill-opacity="1"><g transform="translate(466.082336, 202.440086)"><g><path d="M 9.15625 -1.609375 L 9.15625 0 L 1.390625 0 L 1.390625 -10.34375 L 8.9375 -10.34375 L 8.9375 -8.734375 L 3.3125 -8.734375 L 3.3125 -6.046875 L 8.3125 -6.046875 L 8.3125 -4.46875 L 3.3125 -4.46875 L 3.3125 -1.609375 Z M 9.15625 -1.609375 "/></g></g></g><g fill="#ffffff" fill-opacity="1"><g transform="translate(475.984527, 202.440086)"><g><path d="M 5.640625 -10.34375 C 6.535156 -10.34375 7.316406 -10.191406 7.984375 -9.890625 C 8.648438 -9.597656 9.160156 -9.175781 9.515625 -8.625 C 9.867188 -8.070312 10.046875 -7.421875 10.046875 -6.671875 C 10.046875 -5.921875 9.867188 -5.265625 9.515625 -4.703125 C 9.160156 -4.148438 8.648438 -3.722656 7.984375 -3.421875 C 7.316406 -3.128906 6.535156 -2.984375 5.640625 -2.984375 L 3.3125 -2.984375 L 3.3125 0 L 1.390625 0 L 1.390625 -10.34375 Z M 5.5625 -4.609375 C 6.394531 -4.609375 7.023438 -4.785156 7.453125 -5.140625 C 7.890625 -5.492188 8.109375 -6.003906 8.109375 -6.671875 C 8.109375 -7.328125 7.890625 -7.832031 7.453125 -8.1875 C 7.023438 -8.539062 6.394531 -8.71875 5.5625 -8.71875 L 3.3125 -8.71875 L 3.3125 -4.609375 Z M 5.5625 -4.609375 "/></g></g></g><g fill="#ffffff" fill-opacity="1"><g transform="translate(486.714363, 202.440086)"><g><path d="M 3.484375 -8.71875 L 0.0625 -8.71875 L 0.0625 -10.34375 L 8.84375 -10.34375 L 8.84375 -8.71875 L 5.40625 -8.71875 L 5.40625 0 L 3.484375 0 Z M 3.484375 -8.71875 "/></g></g></g><g fill="#ffffff" fill-opacity="1"><g transform="translate(495.61156, 202.440086)"><g><path d="M 10.578125 -10.34375 L 10.578125 0 L 8.65625 0 L 8.65625 -4.4375 L 3.3125 -4.4375 L 3.3125 0 L 1.390625 0 L 1.390625 -10.34375 L 3.3125 -10.34375 L 3.3125 -6.078125 L 8.65625 -6.078125 L 8.65625 -10.34375 Z M 10.578125 -10.34375 "/></g></g></g><g fill="#ffffff" fill-opacity="1"><g transform="translate(507.582871, 202.440086)"><g/></g></g><g fill="#ffffff" fill-opacity="1"><g transform="translate(511.661988, 202.440086)"><g><path d="M 12.3125 1.03125 C 11.96875 1.4375 11.566406 1.742188 11.109375 1.953125 C 10.648438 2.160156 10.148438 2.265625 9.609375 2.265625 C 8.898438 2.265625 8.25 2.101562 7.65625 1.78125 C 7.0625 1.457031 6.382812 0.90625 5.625 0.125 C 4.675781 0.0390625 3.820312 -0.238281 3.0625 -0.71875 C 2.300781 -1.195312 1.707031 -1.820312 1.28125 -2.59375 C 0.863281 -3.363281 0.65625 -4.222656 0.65625 -5.171875 C 0.65625 -6.179688 0.894531 -7.09375 1.375 -7.90625 C 1.851562 -8.71875 2.515625 -9.351562 3.359375 -9.8125 C 4.210938 -10.269531 5.164062 -10.5 6.21875 -10.5 C 7.269531 -10.5 8.21875 -10.269531 9.0625 -9.8125 C 9.914062 -9.351562 10.582031 -8.71875 11.0625 -7.90625 C 11.550781 -7.101562 11.796875 -6.191406 11.796875 -5.171875 C 11.796875 -4.359375 11.628906 -3.601562 11.296875 -2.90625 C 10.972656 -2.207031 10.519531 -1.613281 9.9375 -1.125 C 9.363281 -0.644531 8.691406 -0.296875 7.921875 -0.078125 C 8.203125 0.234375 8.476562 0.457031 8.75 0.59375 C 9.03125 0.726562 9.332031 0.796875 9.65625 0.796875 C 10.332031 0.796875 10.921875 0.519531 11.421875 -0.03125 Z M 2.59375 -5.171875 C 2.59375 -4.484375 2.75 -3.859375 3.0625 -3.296875 C 3.375 -2.742188 3.804688 -2.3125 4.359375 -2 C 4.910156 -1.6875 5.53125 -1.53125 6.21875 -1.53125 C 6.90625 -1.53125 7.523438 -1.6875 8.078125 -2 C 8.628906 -2.3125 9.0625 -2.742188 9.375 -3.296875 C 9.695312 -3.859375 9.859375 -4.484375 9.859375 -5.171875 C 9.859375 -5.859375 9.695312 -6.476562 9.375 -7.03125 C 9.0625 -7.59375 8.628906 -8.03125 8.078125 -8.34375 C 7.523438 -8.65625 6.90625 -8.8125 6.21875 -8.8125 C 5.53125 -8.8125 4.910156 -8.65625 4.359375 -8.34375 C 3.804688 -8.03125 3.375 -7.59375 3.0625 -7.03125 C 2.75 -6.476562 2.59375 -5.859375 2.59375 -5.171875 Z M 2.59375 -5.171875 "/></g></g></g><g fill="#ffffff" fill-opacity="1"><g transform="translate(524.106238, 202.440086)"><g><path d="M 5.84375 0.140625 C 4.40625 0.140625 3.285156 -0.257812 2.484375 -1.0625 C 1.691406 -1.863281 1.296875 -3.015625 1.296875 -4.515625 L 1.296875 -10.34375 L 3.21875 -10.34375 L 3.21875 -4.578125 C 3.21875 -2.546875 4.097656 -1.53125 5.859375 -1.53125 C 7.597656 -1.53125 8.46875 -2.546875 8.46875 -4.578125 L 8.46875 -10.34375 L 10.359375 -10.34375 L 10.359375 -4.515625 C 10.359375 -3.015625 9.960938 -1.863281 9.171875 -1.0625 C 8.378906 -0.257812 7.269531 0.140625 5.84375 0.140625 Z M 5.84375 0.140625 "/></g></g></g><g fill="#ffffff" fill-opacity="1"><g transform="translate(535.767175, 202.440086)"><g><path d="M 8.09375 -2.390625 L 2.921875 -2.390625 L 1.90625 0 L -0.078125 0 L 4.578125 -10.34375 L 6.46875 -10.34375 L 11.140625 0 L 9.140625 0 Z M 7.46875 -3.90625 L 5.515625 -8.421875 L 3.578125 -3.90625 Z M 7.46875 -3.90625 "/></g></g></g><g fill="#ffffff" fill-opacity="1"><g transform="translate(546.836937, 202.440086)"><g><path d="M 1.390625 -10.34375 L 3.3125 -10.34375 L 3.3125 -1.625 L 8.71875 -1.625 L 8.71875 0 L 1.390625 0 Z M 1.390625 -10.34375 "/></g></g></g><g fill="#ffffff" fill-opacity="1"><g transform="translate(555.689792, 202.440086)"><g><path d="M 1.390625 -10.34375 L 3.3125 -10.34375 L 3.3125 0 L 1.390625 0 Z M 1.390625 -10.34375 "/></g></g></g><g fill="#ffffff" fill-opacity="1"><g transform="translate(560.404417, 202.440086)"><g><path d="M 3.484375 -8.71875 L 0.0625 -8.71875 L 0.0625 -10.34375 L 8.84375 -10.34375 L 8.84375 -8.71875 L 5.40625 -8.71875 L 5.40625 0 L 3.484375 0 Z M 3.484375 -8.71875 "/></g></g></g><g fill="#ffffff" fill-opacity="1"><g transform="translate(569.301613, 202.440086)"><g><path d="M 5.859375 -3.65625 L 5.859375 0 L 3.9375 0 L 3.9375 -3.625 L -0.140625 -10.34375 L 1.921875 -10.34375 L 4.953125 -5.3125 L 8.015625 -10.34375 L 9.90625 -10.34375 Z M 5.859375 -3.65625 "/></g></g></g><g fill="#ffffff" fill-opacity="1"><g transform="translate(579.070788, 202.440086)"><g/></g></g><g fill="#ffffff" fill-opacity="1"><g transform="translate(583.149905, 202.440086)"><g><path d="M 8.15625 0 L 6.046875 -3.03125 C 5.953125 -3.019531 5.816406 -3.015625 5.640625 -3.015625 L 3.3125 -3.015625 L 3.3125 0 L 1.390625 0 L 1.390625 -10.34375 L 5.640625 -10.34375 C 6.535156 -10.34375 7.316406 -10.191406 7.984375 -9.890625 C 8.648438 -9.597656 9.160156 -9.175781 9.515625 -8.625 C 9.867188 -8.070312 10.046875 -7.421875 10.046875 -6.671875 C 10.046875 -5.890625 9.851562 -5.21875 9.46875 -4.65625 C 9.09375 -4.09375 8.550781 -3.675781 7.84375 -3.40625 L 10.234375 0 Z M 8.109375 -6.671875 C 8.109375 -7.328125 7.890625 -7.832031 7.453125 -8.1875 C 7.023438 -8.539062 6.394531 -8.71875 5.5625 -8.71875 L 3.3125 -8.71875 L 3.3125 -4.59375 L 5.5625 -4.59375 C 6.394531 -4.59375 7.023438 -4.769531 7.453125 -5.125 C 7.890625 -5.488281 8.109375 -6.003906 8.109375 -6.671875 Z M 8.109375 -6.671875 "/></g></g></g><g fill="#ffffff" fill-opacity="1"><g transform="translate(593.953654, 202.440086)"><g><path d="M 9.15625 -1.609375 L 9.15625 0 L 1.390625 0 L 1.390625 -10.34375 L 8.9375 -10.34375 L 8.9375 -8.734375 L 3.3125 -8.734375 L 3.3125 -6.046875 L 8.3125 -6.046875 L 8.3125 -4.46875 L 3.3125 -4.46875 L 3.3125 -1.609375 Z M 9.15625 -1.609375 "/></g></g></g><g fill="#ffffff" fill-opacity="1"><g transform="translate(603.855845, 202.440086)"><g><path d="M 4.59375 0.140625 C 3.800781 0.140625 3.03125 0.03125 2.28125 -0.1875 C 1.539062 -0.414062 0.953125 -0.71875 0.515625 -1.09375 L 1.1875 -2.59375 C 1.601562 -2.25 2.117188 -1.972656 2.734375 -1.765625 C 3.359375 -1.554688 3.976562 -1.453125 4.59375 -1.453125 C 5.363281 -1.453125 5.9375 -1.570312 6.3125 -1.8125 C 6.695312 -2.0625 6.890625 -2.390625 6.890625 -2.796875 C 6.890625 -3.085938 6.78125 -3.328125 6.5625 -3.515625 C 6.351562 -3.710938 6.085938 -3.863281 5.765625 -3.96875 C 5.441406 -4.082031 5 -4.207031 4.4375 -4.34375 C 3.644531 -4.53125 3.003906 -4.71875 2.515625 -4.90625 C 2.023438 -5.09375 1.601562 -5.382812 1.25 -5.78125 C 0.90625 -6.1875 0.734375 -6.726562 0.734375 -7.40625 C 0.734375 -7.976562 0.890625 -8.5 1.203125 -8.96875 C 1.515625 -9.4375 1.984375 -9.804688 2.609375 -10.078125 C 3.234375 -10.359375 4 -10.5 4.90625 -10.5 C 5.539062 -10.5 6.160156 -10.414062 6.765625 -10.25 C 7.378906 -10.09375 7.90625 -9.867188 8.34375 -9.578125 L 7.75 -8.078125 C 7.289062 -8.347656 6.816406 -8.550781 6.328125 -8.6875 C 5.835938 -8.820312 5.359375 -8.890625 4.890625 -8.890625 C 4.128906 -8.890625 3.5625 -8.757812 3.1875 -8.5 C 2.820312 -8.25 2.640625 -7.914062 2.640625 -7.5 C 2.640625 -7.195312 2.742188 -6.953125 2.953125 -6.765625 C 3.171875 -6.578125 3.441406 -6.425781 3.765625 -6.3125 C 4.085938 -6.207031 4.53125 -6.085938 5.09375 -5.953125 C 5.863281 -5.773438 6.492188 -5.585938 6.984375 -5.390625 C 7.484375 -5.203125 7.90625 -4.910156 8.25 -4.515625 C 8.601562 -4.128906 8.78125 -3.597656 8.78125 -2.921875 C 8.78125 -2.347656 8.625 -1.832031 8.3125 -1.375 C 8 -0.914062 7.523438 -0.546875 6.890625 -0.265625 C 6.265625 0.00390625 5.5 0.140625 4.59375 0.140625 Z M 4.59375 0.140625 "/></g></g></g><g fill="#ffffff" fill-opacity="1"><g transform="translate(613.152079, 202.440086)"><g><path d="M 9.15625 -1.609375 L 9.15625 0 L 1.390625 0 L 1.390625 -10.34375 L 8.9375 -10.34375 L 8.9375 -8.734375 L 3.3125 -8.734375 L 3.3125 -6.046875 L 8.3125 -6.046875 L 8.3125 -4.46875 L 3.3125 -4.46875 L 3.3125 -1.609375 Z M 9.15625 -1.609375 "/></g></g></g><g fill="#ffffff" fill-opacity="1"><g transform="translate(623.05427, 202.440086)"><g><path d="M 8.09375 -2.390625 L 2.921875 -2.390625 L 1.90625 0 L -0.078125 0 L 4.578125 -10.34375 L 6.46875 -10.34375 L 11.140625 0 L 9.140625 0 Z M 7.46875 -3.90625 L 5.515625 -8.421875 L 3.578125 -3.90625 Z M 7.46875 -3.90625 "/></g></g></g><g fill="#ffffff" fill-opacity="1"><g transform="translate(634.124021, 202.440086)"><g><path d="M 8.15625 0 L 6.046875 -3.03125 C 5.953125 -3.019531 5.816406 -3.015625 5.640625 -3.015625 L 3.3125 -3.015625 L 3.3125 0 L 1.390625 0 L 1.390625 -10.34375 L 5.640625 -10.34375 C 6.535156 -10.34375 7.316406 -10.191406 7.984375 -9.890625 C 8.648438 -9.597656 9.160156 -9.175781 9.515625 -8.625 C 9.867188 -8.070312 10.046875 -7.421875 10.046875 -6.671875 C 10.046875 -5.890625 9.851562 -5.21875 9.46875 -4.65625 C 9.09375 -4.09375 8.550781 -3.675781 7.84375 -3.40625 L 10.234375 0 Z M 8.109375 -6.671875 C 8.109375 -7.328125 7.890625 -7.832031 7.453125 -8.1875 C 7.023438 -8.539062 6.394531 -8.71875 5.5625 -8.71875 L 3.3125 -8.71875 L 3.3125 -4.59375 L 5.5625 -4.59375 C 6.394531 -4.59375 7.023438 -4.769531 7.453125 -5.125 C 7.890625 -5.488281 8.109375 -6.003906 8.109375 -6.671875 Z M 8.109375 -6.671875 "/></g></g></g><g fill="#ffffff" fill-opacity="1"><g transform="translate(644.927761, 202.440086)"><g><path d="M 6.171875 0.140625 C 5.128906 0.140625 4.1875 -0.0859375 3.34375 -0.546875 C 2.5 -1.003906 1.835938 -1.632812 1.359375 -2.4375 C 0.890625 -3.25 0.65625 -4.160156 0.65625 -5.171875 C 0.65625 -6.191406 0.894531 -7.101562 1.375 -7.90625 C 1.851562 -8.71875 2.515625 -9.351562 3.359375 -9.8125 C 4.203125 -10.269531 5.144531 -10.5 6.1875 -10.5 C 7.039062 -10.5 7.816406 -10.347656 8.515625 -10.046875 C 9.210938 -9.753906 9.800781 -9.328125 10.28125 -8.765625 L 9.046875 -7.59375 C 8.296875 -8.40625 7.375 -8.8125 6.28125 -8.8125 C 5.570312 -8.8125 4.9375 -8.65625 4.375 -8.34375 C 3.8125 -8.03125 3.375 -7.597656 3.0625 -7.046875 C 2.75 -6.492188 2.59375 -5.867188 2.59375 -5.171875 C 2.59375 -4.472656 2.75 -3.847656 3.0625 -3.296875 C 3.375 -2.742188 3.8125 -2.3125 4.375 -2 C 4.9375 -1.6875 5.570312 -1.53125 6.28125 -1.53125 C 7.375 -1.53125 8.296875 -1.941406 9.046875 -2.765625 L 10.28125 -1.578125 C 9.800781 -1.015625 9.207031 -0.585938 8.5 -0.296875 C 7.800781 -0.00390625 7.023438 0.140625 6.171875 0.140625 Z M 6.171875 0.140625 "/></g></g></g><g fill="#ffffff" fill-opacity="1"><g transform="translate(655.672378, 202.440086)"><g><path d="M 10.578125 -10.34375 L 10.578125 0 L 8.65625 0 L 8.65625 -4.4375 L 3.3125 -4.4375 L 3.3125 0 L 1.390625 0 L 1.390625 -10.34375 L 3.3125 -10.34375 L 3.3125 -6.078125 L 8.65625 -6.078125 L 8.65625 -10.34375 Z M 10.578125 -10.34375 "/></g></g></g><g fill="#ffffff" fill-opacity="1"><g transform="translate(392.3287, 440.901651)"><g><path d="M 5.640625 -10.34375 C 6.535156 -10.34375 7.316406 -10.191406 7.984375 -9.890625 C 8.648438 -9.597656 9.160156 -9.175781 9.515625 -8.625 C 9.867188 -8.070312 10.046875 -7.421875 10.046875 -6.671875 C 10.046875 -5.921875 9.867188 -5.265625 9.515625 -4.703125 C 9.160156 -4.148438 8.648438 -3.722656 7.984375 -3.421875 C 7.316406 -3.128906 6.535156 -2.984375 5.640625 -2.984375 L 3.3125 -2.984375 L 3.3125 0 L 1.390625 0 L 1.390625 -10.34375 Z M 5.5625 -4.609375 C 6.394531 -4.609375 7.023438 -4.785156 7.453125 -5.140625 C 7.890625 -5.492188 8.109375 -6.003906 8.109375 -6.671875 C 8.109375 -7.328125 7.890625 -7.832031 7.453125 -8.1875 C 7.023438 -8.539062 6.394531 -8.71875 5.5625 -8.71875 L 3.3125 -8.71875 L 3.3125 -4.609375 Z M 5.5625 -4.609375 "/></g></g></g><g fill="#ffffff" fill-opacity="1"><g transform="translate(403.058536, 440.901651)"><g><path d="M 9.15625 -1.609375 L 9.15625 0 L 1.390625 0 L 1.390625 -10.34375 L 8.9375 -10.34375 L 8.9375 -8.734375 L 3.3125 -8.734375 L 3.3125 -6.046875 L 8.3125 -6.046875 L 8.3125 -4.46875 L 3.3125 -4.46875 L 3.3125 -1.609375 Z M 9.15625 -1.609375 "/></g></g></g><g fill="#ffffff" fill-opacity="1"><g transform="translate(412.960727, 440.901651)"><g><path d="M 8.15625 0 L 6.046875 -3.03125 C 5.953125 -3.019531 5.816406 -3.015625 5.640625 -3.015625 L 3.3125 -3.015625 L 3.3125 0 L 1.390625 0 L 1.390625 -10.34375 L 5.640625 -10.34375 C 6.535156 -10.34375 7.316406 -10.191406 7.984375 -9.890625 C 8.648438 -9.597656 9.160156 -9.175781 9.515625 -8.625 C 9.867188 -8.070312 10.046875 -7.421875 10.046875 -6.671875 C 10.046875 -5.890625 9.851562 -5.21875 9.46875 -4.65625 C 9.09375 -4.09375 8.550781 -3.675781 7.84375 -3.40625 L 10.234375 0 Z M 8.109375 -6.671875 C 8.109375 -7.328125 7.890625 -7.832031 7.453125 -8.1875 C 7.023438 -8.539062 6.394531 -8.71875 5.5625 -8.71875 L 3.3125 -8.71875 L 3.3125 -4.59375 L 5.5625 -4.59375 C 6.394531 -4.59375 7.023438 -4.769531 7.453125 -5.125 C 7.890625 -5.488281 8.109375 -6.003906 8.109375 -6.671875 Z M 8.109375 -6.671875 "/></g></g></g><g fill="#ffffff" fill-opacity="1"><g transform="translate(423.764466, 440.901651)"><g><path d="M 4.59375 0.140625 C 3.800781 0.140625 3.03125 0.03125 2.28125 -0.1875 C 1.539062 -0.414062 0.953125 -0.71875 0.515625 -1.09375 L 1.1875 -2.59375 C 1.601562 -2.25 2.117188 -1.972656 2.734375 -1.765625 C 3.359375 -1.554688 3.976562 -1.453125 4.59375 -1.453125 C 5.363281 -1.453125 5.9375 -1.570312 6.3125 -1.8125 C 6.695312 -2.0625 6.890625 -2.390625 6.890625 -2.796875 C 6.890625 -3.085938 6.78125 -3.328125 6.5625 -3.515625 C 6.351562 -3.710938 6.085938 -3.863281 5.765625 -3.96875 C 5.441406 -4.082031 5 -4.207031 4.4375 -4.34375 C 3.644531 -4.53125 3.003906 -4.71875 2.515625 -4.90625 C 2.023438 -5.09375 1.601562 -5.382812 1.25 -5.78125 C 0.90625 -6.1875 0.734375 -6.726562 0.734375 -7.40625 C 0.734375 -7.976562 0.890625 -8.5 1.203125 -8.96875 C 1.515625 -9.4375 1.984375 -9.804688 2.609375 -10.078125 C 3.234375 -10.359375 4 -10.5 4.90625 -10.5 C 5.539062 -10.5 6.160156 -10.414062 6.765625 -10.25 C 7.378906 -10.09375 7.90625 -9.867188 8.34375 -9.578125 L 7.75 -8.078125 C 7.289062 -8.347656 6.816406 -8.550781 6.328125 -8.6875 C 5.835938 -8.820312 5.359375 -8.890625 4.890625 -8.890625 C 4.128906 -8.890625 3.5625 -8.757812 3.1875 -8.5 C 2.820312 -8.25 2.640625 -7.914062 2.640625 -7.5 C 2.640625 -7.195312 2.742188 -6.953125 2.953125 -6.765625 C 3.171875 -6.578125 3.441406 -6.425781 3.765625 -6.3125 C 4.085938 -6.207031 4.53125 -6.085938 5.09375 -5.953125 C 5.863281 -5.773438 6.492188 -5.585938 6.984375 -5.390625 C 7.484375 -5.203125 7.90625 -4.910156 8.25 -4.515625 C 8.601562 -4.128906 8.78125 -3.597656 8.78125 -2.921875 C 8.78125 -2.347656 8.625 -1.832031 8.3125 -1.375 C 8 -0.914062 7.523438 -0.546875 6.890625 -0.265625 C 6.265625 0.00390625 5.5 0.140625 4.59375 0.140625 Z M 4.59375 0.140625 "/></g></g></g><g fill="#ffffff" fill-opacity="1"><g transform="translate(433.0607, 440.901651)"><g><path d="M 6.21875 0.140625 C 5.164062 0.140625 4.210938 -0.0859375 3.359375 -0.546875 C 2.515625 -1.003906 1.851562 -1.640625 1.375 -2.453125 C 0.894531 -3.265625 0.65625 -4.171875 0.65625 -5.171875 C 0.65625 -6.179688 0.894531 -7.09375 1.375 -7.90625 C 1.851562 -8.71875 2.515625 -9.351562 3.359375 -9.8125 C 4.210938 -10.269531 5.164062 -10.5 6.21875 -10.5 C 7.269531 -10.5 8.21875 -10.269531 9.0625 -9.8125 C 9.914062 -9.351562 10.582031 -8.71875 11.0625 -7.90625 C 11.550781 -7.101562 11.796875 -6.191406 11.796875 -5.171875 C 11.796875 -4.160156 11.550781 -3.25 11.0625 -2.4375 C 10.582031 -1.632812 9.914062 -1.003906 9.0625 -0.546875 C 8.21875 -0.0859375 7.269531 0.140625 6.21875 0.140625 Z M 6.21875 -1.53125 C 6.90625 -1.53125 7.523438 -1.6875 8.078125 -2 C 8.628906 -2.3125 9.0625 -2.742188 9.375 -3.296875 C 9.695312 -3.859375 9.859375 -4.484375 9.859375 -5.171875 C 9.859375 -5.859375 9.695312 -6.476562 9.375 -7.03125 C 9.0625 -7.59375 8.628906 -8.03125 8.078125 -8.34375 C 7.523438 -8.65625 6.90625 -8.8125 6.21875 -8.8125 C 5.53125 -8.8125 4.910156 -8.65625 4.359375 -8.34375 C 3.804688 -8.03125 3.375 -7.59375 3.0625 -7.03125 C 2.75 -6.476562 2.59375 -5.859375 2.59375 -5.171875 C 2.59375 -4.484375 2.75 -3.859375 3.0625 -3.296875 C 3.375 -2.742188 3.804688 -2.3125 4.359375 -2 C 4.910156 -1.6875 5.53125 -1.53125 6.21875 -1.53125 Z M 6.21875 -1.53125 "/></g></g></g><g fill="#ffffff" fill-opacity="1"><g transform="translate(445.504951, 440.901651)"><g><path d="M 10.578125 -10.34375 L 10.578125 0 L 9 0 L 3.296875 -7 L 3.296875 0 L 1.390625 0 L 1.390625 -10.34375 L 2.96875 -10.34375 L 8.671875 -3.34375 L 8.671875 -10.34375 Z M 10.578125 -10.34375 "/></g></g></g><g fill="#ffffff" fill-opacity="1"><g transform="translate(457.476261, 440.901651)"><g><path d="M 8.09375 -2.390625 L 2.921875 -2.390625 L 1.90625 0 L -0.078125 0 L 4.578125 -10.34375 L 6.46875 -10.34375 L 11.140625 0 L 9.140625 0 Z M 7.46875 -3.90625 L 5.515625 -8.421875 L 3.578125 -3.90625 Z M 7.46875 -3.90625 "/></g></g></g><g fill="#ffffff" fill-opacity="1"><g transform="translate(468.546023, 440.901651)"><g><path d="M 1.390625 -10.34375 L 3.3125 -10.34375 L 3.3125 -1.625 L 8.71875 -1.625 L 8.71875 0 L 1.390625 0 Z M 1.390625 -10.34375 "/></g></g></g><g fill="#ffffff" fill-opacity="1"><g transform="translate(477.398878, 440.901651)"><g><path d="M 1.390625 -10.34375 L 3.3125 -10.34375 L 3.3125 0 L 1.390625 0 Z M 1.390625 -10.34375 "/></g></g></g><g fill="#ffffff" fill-opacity="1"><g transform="translate(482.113503, 440.901651)"><g><path d="M 9.4375 -1.625 L 9.4375 0 L 0.609375 0 L 0.609375 -1.28125 L 6.703125 -8.71875 L 0.703125 -8.71875 L 0.703125 -10.34375 L 9.234375 -10.34375 L 9.234375 -9.0625 L 3.140625 -1.625 Z M 9.4375 -1.625 "/></g></g></g><g fill="#ffffff" fill-opacity="1"><g transform="translate(491.912239, 440.901651)"><g><path d="M 9.15625 -1.609375 L 9.15625 0 L 1.390625 0 L 1.390625 -10.34375 L 8.9375 -10.34375 L 8.9375 -8.734375 L 3.3125 -8.734375 L 3.3125 -6.046875 L 8.3125 -6.046875 L 8.3125 -4.46875 L 3.3125 -4.46875 L 3.3125 -1.609375 Z M 9.15625 -1.609375 "/></g></g></g><g fill="#ffffff" fill-opacity="1"><g transform="translate(501.814429, 440.901651)"><g><path d="M 1.390625 -10.34375 L 5.90625 -10.34375 C 7.007812 -10.34375 7.988281 -10.128906 8.84375 -9.703125 C 9.707031 -9.273438 10.375 -8.664062 10.84375 -7.875 C 11.320312 -7.09375 11.5625 -6.191406 11.5625 -5.171875 C 11.5625 -4.148438 11.320312 -3.242188 10.84375 -2.453125 C 10.375 -1.671875 9.707031 -1.066406 8.84375 -0.640625 C 7.988281 -0.210938 7.007812 0 5.90625 0 L 1.390625 0 Z M 5.828125 -1.625 C 6.585938 -1.625 7.253906 -1.769531 7.828125 -2.0625 C 8.398438 -2.351562 8.84375 -2.765625 9.15625 -3.296875 C 9.46875 -3.835938 9.625 -4.460938 9.625 -5.171875 C 9.625 -5.878906 9.46875 -6.5 9.15625 -7.03125 C 8.84375 -7.570312 8.398438 -7.988281 7.828125 -8.28125 C 7.253906 -8.570312 6.585938 -8.71875 5.828125 -8.71875 L 3.3125 -8.71875 L 3.3125 -1.625 Z M 5.828125 -1.625 "/></g></g></g><g fill="#ffffff" fill-opacity="1"><g transform="translate(514.02221, 440.901651)"><g/></g></g><g fill="#ffffff" fill-opacity="1"><g transform="translate(518.101327, 440.901651)"><g><path d="M 6.171875 0.140625 C 5.128906 0.140625 4.1875 -0.0859375 3.34375 -0.546875 C 2.5 -1.003906 1.835938 -1.632812 1.359375 -2.4375 C 0.890625 -3.25 0.65625 -4.160156 0.65625 -5.171875 C 0.65625 -6.191406 0.894531 -7.101562 1.375 -7.90625 C 1.851562 -8.71875 2.515625 -9.351562 3.359375 -9.8125 C 4.203125 -10.269531 5.144531 -10.5 6.1875 -10.5 C 7.039062 -10.5 7.816406 -10.347656 8.515625 -10.046875 C 9.210938 -9.753906 9.800781 -9.328125 10.28125 -8.765625 L 9.046875 -7.59375 C 8.296875 -8.40625 7.375 -8.8125 6.28125 -8.8125 C 5.570312 -8.8125 4.9375 -8.65625 4.375 -8.34375 C 3.8125 -8.03125 3.375 -7.597656 3.0625 -7.046875 C 2.75 -6.492188 2.59375 -5.867188 2.59375 -5.171875 C 2.59375 -4.472656 2.75 -3.847656 3.0625 -3.296875 C 3.375 -2.742188 3.8125 -2.3125 4.375 -2 C 4.9375 -1.6875 5.570312 -1.53125 6.28125 -1.53125 C 7.375 -1.53125 8.296875 -1.941406 9.046875 -2.765625 L 10.28125 -1.578125 C 9.800781 -1.015625 9.207031 -0.585938 8.5 -0.296875 C 7.800781 -0.00390625 7.023438 0.140625 6.171875 0.140625 Z M 6.171875 0.140625 "/></g></g></g><g fill="#ffffff" fill-opacity="1"><g transform="translate(528.845944, 440.901651)"><g><path d="M 5.84375 0.140625 C 4.40625 0.140625 3.285156 -0.257812 2.484375 -1.0625 C 1.691406 -1.863281 1.296875 -3.015625 1.296875 -4.515625 L 1.296875 -10.34375 L 3.21875 -10.34375 L 3.21875 -4.578125 C 3.21875 -2.546875 4.097656 -1.53125 5.859375 -1.53125 C 7.597656 -1.53125 8.46875 -2.546875 8.46875 -4.578125 L 8.46875 -10.34375 L 10.359375 -10.34375 L 10.359375 -4.515625 C 10.359375 -3.015625 9.960938 -1.863281 9.171875 -1.0625 C 8.378906 -0.257812 7.269531 0.140625 5.84375 0.140625 Z M 5.84375 0.140625 "/></g></g></g><g fill="#ffffff" fill-opacity="1"><g transform="translate(540.506881, 440.901651)"><g><path d="M 4.59375 0.140625 C 3.800781 0.140625 3.03125 0.03125 2.28125 -0.1875 C 1.539062 -0.414062 0.953125 -0.71875 0.515625 -1.09375 L 1.1875 -2.59375 C 1.601562 -2.25 2.117188 -1.972656 2.734375 -1.765625 C 3.359375 -1.554688 3.976562 -1.453125 4.59375 -1.453125 C 5.363281 -1.453125 5.9375 -1.570312 6.3125 -1.8125 C 6.695312 -2.0625 6.890625 -2.390625 6.890625 -2.796875 C 6.890625 -3.085938 6.78125 -3.328125 6.5625 -3.515625 C 6.351562 -3.710938 6.085938 -3.863281 5.765625 -3.96875 C 5.441406 -4.082031 5 -4.207031 4.4375 -4.34375 C 3.644531 -4.53125 3.003906 -4.71875 2.515625 -4.90625 C 2.023438 -5.09375 1.601562 -5.382812 1.25 -5.78125 C 0.90625 -6.1875 0.734375 -6.726562 0.734375 -7.40625 C 0.734375 -7.976562 0.890625 -8.5 1.203125 -8.96875 C 1.515625 -9.4375 1.984375 -9.804688 2.609375 -10.078125 C 3.234375 -10.359375 4 -10.5 4.90625 -10.5 C 5.539062 -10.5 6.160156 -10.414062 6.765625 -10.25 C 7.378906 -10.09375 7.90625 -9.867188 8.34375 -9.578125 L 7.75 -8.078125 C 7.289062 -8.347656 6.816406 -8.550781 6.328125 -8.6875 C 5.835938 -8.820312 5.359375 -8.890625 4.890625 -8.890625 C 4.128906 -8.890625 3.5625 -8.757812 3.1875 -8.5 C 2.820312 -8.25 2.640625 -7.914062 2.640625 -7.5 C 2.640625 -7.195312 2.742188 -6.953125 2.953125 -6.765625 C 3.171875 -6.578125 3.441406 -6.425781 3.765625 -6.3125 C 4.085938 -6.207031 4.53125 -6.085938 5.09375 -5.953125 C 5.863281 -5.773438 6.492188 -5.585938 6.984375 -5.390625 C 7.484375 -5.203125 7.90625 -4.910156 8.25 -4.515625 C 8.601562 -4.128906 8.78125 -3.597656 8.78125 -2.921875 C 8.78125 -2.347656 8.625 -1.832031 8.3125 -1.375 C 8 -0.914062 7.523438 -0.546875 6.890625 -0.265625 C 6.265625 0.00390625 5.5 0.140625 4.59375 0.140625 Z M 4.59375 0.140625 "/></g></g></g><g fill="#ffffff" fill-opacity="1"><g transform="translate(549.803116, 440.901651)"><g><path d="M 3.484375 -8.71875 L 0.0625 -8.71875 L 0.0625 -10.34375 L 8.84375 -10.34375 L 8.84375 -8.71875 L 5.40625 -8.71875 L 5.40625 0 L 3.484375 0 Z M 3.484375 -8.71875 "/></g></g></g><g fill="#ffffff" fill-opacity="1"><g transform="translate(558.700322, 440.901651)"><g><path d="M 6.21875 0.140625 C 5.164062 0.140625 4.210938 -0.0859375 3.359375 -0.546875 C 2.515625 -1.003906 1.851562 -1.640625 1.375 -2.453125 C 0.894531 -3.265625 0.65625 -4.171875 0.65625 -5.171875 C 0.65625 -6.179688 0.894531 -7.09375 1.375 -7.90625 C 1.851562 -8.71875 2.515625 -9.351562 3.359375 -9.8125 C 4.210938 -10.269531 5.164062 -10.5 6.21875 -10.5 C 7.269531 -10.5 8.21875 -10.269531 9.0625 -9.8125 C 9.914062 -9.351562 10.582031 -8.71875 11.0625 -7.90625 C 11.550781 -7.101562 11.796875 -6.191406 11.796875 -5.171875 C 11.796875 -4.160156 11.550781 -3.25 11.0625 -2.4375 C 10.582031 -1.632812 9.914062 -1.003906 9.0625 -0.546875 C 8.21875 -0.0859375 7.269531 0.140625 6.21875 0.140625 Z M 6.21875 -1.53125 C 6.90625 -1.53125 7.523438 -1.6875 8.078125 -2 C 8.628906 -2.3125 9.0625 -2.742188 9.375 -3.296875 C 9.695312 -3.859375 9.859375 -4.484375 9.859375 -5.171875 C 9.859375 -5.859375 9.695312 -6.476562 9.375 -7.03125 C 9.0625 -7.59375 8.628906 -8.03125 8.078125 -8.34375 C 7.523438 -8.65625 6.90625 -8.8125 6.21875 -8.8125 C 5.53125 -8.8125 4.910156 -8.65625 4.359375 -8.34375 C 3.804688 -8.03125 3.375 -7.59375 3.0625 -7.03125 C 2.75 -6.476562 2.59375 -5.859375 2.59375 -5.171875 C 2.59375 -4.484375 2.75 -3.859375 3.0625 -3.296875 C 3.375 -2.742188 3.804688 -2.3125 4.359375 -2 C 4.910156 -1.6875 5.53125 -1.53125 6.21875 -1.53125 Z M 6.21875 -1.53125 "/></g></g></g><g fill="#ffffff" fill-opacity="1"><g transform="translate(571.144563, 440.901651)"><g><path d="M 10.890625 0 L 10.875 -6.859375 L 7.484375 -1.1875 L 6.625 -1.1875 L 3.21875 -6.765625 L 3.21875 0 L 1.390625 0 L 1.390625 -10.34375 L 2.96875 -10.34375 L 7.078125 -3.484375 L 11.109375 -10.34375 L 12.703125 -10.34375 L 12.71875 0 Z M 10.890625 0 "/></g></g></g><g fill="#ffffff" fill-opacity="1"><g transform="translate(585.258887, 440.901651)"><g><path d="M 9.15625 -1.609375 L 9.15625 0 L 1.390625 0 L 1.390625 -10.34375 L 8.9375 -10.34375 L 8.9375 -8.734375 L 3.3125 -8.734375 L 3.3125 -6.046875 L 8.3125 -6.046875 L 8.3125 -4.46875 L 3.3125 -4.46875 L 3.3125 -1.609375 Z M 9.15625 -1.609375 "/></g></g></g><g fill="#ffffff" fill-opacity="1"><g transform="translate(595.161077, 440.901651)"><g><path d="M 8.15625 0 L 6.046875 -3.03125 C 5.953125 -3.019531 5.816406 -3.015625 5.640625 -3.015625 L 3.3125 -3.015625 L 3.3125 0 L 1.390625 0 L 1.390625 -10.34375 L 5.640625 -10.34375 C 6.535156 -10.34375 7.316406 -10.191406 7.984375 -9.890625 C 8.648438 -9.597656 9.160156 -9.175781 9.515625 -8.625 C 9.867188 -8.070312 10.046875 -7.421875 10.046875 -6.671875 C 10.046875 -5.890625 9.851562 -5.21875 9.46875 -4.65625 C 9.09375 -4.09375 8.550781 -3.675781 7.84375 -3.40625 L 10.234375 0 Z M 8.109375 -6.671875 C 8.109375 -7.328125 7.890625 -7.832031 7.453125 -8.1875 C 7.023438 -8.539062 6.394531 -8.71875 5.5625 -8.71875 L 3.3125 -8.71875 L 3.3125 -4.59375 L 5.5625 -4.59375 C 6.394531 -4.59375 7.023438 -4.769531 7.453125 -5.125 C 7.890625 -5.488281 8.109375 -6.003906 8.109375 -6.671875 Z M 8.109375 -6.671875 "/></g></g></g><g fill="#ffffff" fill-opacity="1"><g transform="translate(605.964817, 440.901651)"><g/></g></g><g fill="#ffffff" fill-opacity="1"><g transform="translate(610.043934, 440.901651)"><g><path d="M 4.59375 0.140625 C 3.800781 0.140625 3.03125 0.03125 2.28125 -0.1875 C 1.539062 -0.414062 0.953125 -0.71875 0.515625 -1.09375 L 1.1875 -2.59375 C 1.601562 -2.25 2.117188 -1.972656 2.734375 -1.765625 C 3.359375 -1.554688 3.976562 -1.453125 4.59375 -1.453125 C 5.363281 -1.453125 5.9375 -1.570312 6.3125 -1.8125 C 6.695312 -2.0625 6.890625 -2.390625 6.890625 -2.796875 C 6.890625 -3.085938 6.78125 -3.328125 6.5625 -3.515625 C 6.351562 -3.710938 6.085938 -3.863281 5.765625 -3.96875 C 5.441406 -4.082031 5 -4.207031 4.4375 -4.34375 C 3.644531 -4.53125 3.003906 -4.71875 2.515625 -4.90625 C 2.023438 -5.09375 1.601562 -5.382812 1.25 -5.78125 C 0.90625 -6.1875 0.734375 -6.726562 0.734375 -7.40625 C 0.734375 -7.976562 0.890625 -8.5 1.203125 -8.96875 C 1.515625 -9.4375 1.984375 -9.804688 2.609375 -10.078125 C 3.234375 -10.359375 4 -10.5 4.90625 -10.5 C 5.539062 -10.5 6.160156 -10.414062 6.765625 -10.25 C 7.378906 -10.09375 7.90625 -9.867188 8.34375 -9.578125 L 7.75 -8.078125 C 7.289062 -8.347656 6.816406 -8.550781 6.328125 -8.6875 C 5.835938 -8.820312 5.359375 -8.890625 4.890625 -8.890625 C 4.128906 -8.890625 3.5625 -8.757812 3.1875 -8.5 C 2.820312 -8.25 2.640625 -7.914062 2.640625 -7.5 C 2.640625 -7.195312 2.742188 -6.953125 2.953125 -6.765625 C 3.171875 -6.578125 3.441406 -6.425781 3.765625 -6.3125 C 4.085938 -6.207031 4.53125 -6.085938 5.09375 -5.953125 C 5.863281 -5.773438 6.492188 -5.585938 6.984375 -5.390625 C 7.484375 -5.203125 7.90625 -4.910156 8.25 -4.515625 C 8.601562 -4.128906 8.78125 -3.597656 8.78125 -2.921875 C 8.78125 -2.347656 8.625 -1.832031 8.3125 -1.375 C 8 -0.914062 7.523438 -0.546875 6.890625 -0.265625 C 6.265625 0.00390625 5.5 0.140625 4.59375 0.140625 Z M 4.59375 0.140625 "/></g></g></g><g fill="#ffffff" fill-opacity="1"><g transform="translate(619.340168, 440.901651)"><g><path d="M 5.84375 0.140625 C 4.40625 0.140625 3.285156 -0.257812 2.484375 -1.0625 C 1.691406 -1.863281 1.296875 -3.015625 1.296875 -4.515625 L 1.296875 -10.34375 L 3.21875 -10.34375 L 3.21875 -4.578125 C 3.21875 -2.546875 4.097656 -1.53125 5.859375 -1.53125 C 7.597656 -1.53125 8.46875 -2.546875 8.46875 -4.578125 L 8.46875 -10.34375 L 10.359375 -10.34375 L 10.359375 -4.515625 C 10.359375 -3.015625 9.960938 -1.863281 9.171875 -1.0625 C 8.378906 -0.257812 7.269531 0.140625 5.84375 0.140625 Z M 5.84375 0.140625 "/></g></g></g><g fill="#ffffff" fill-opacity="1"><g transform="translate(631.001105, 440.901651)"><g><path d="M 5.640625 -10.34375 C 6.535156 -10.34375 7.316406 -10.191406 7.984375 -9.890625 C 8.648438 -9.597656 9.160156 -9.175781 9.515625 -8.625 C 9.867188 -8.070312 10.046875 -7.421875 10.046875 -6.671875 C 10.046875 -5.921875 9.867188 -5.265625 9.515625 -4.703125 C 9.160156 -4.148438 8.648438 -3.722656 7.984375 -3.421875 C 7.316406 -3.128906 6.535156 -2.984375 5.640625 -2.984375 L 3.3125 -2.984375 L 3.3125 0 L 1.390625 0 L 1.390625 -10.34375 Z M 5.5625 -4.609375 C 6.394531 -4.609375 7.023438 -4.785156 7.453125 -5.140625 C 7.890625 -5.492188 8.109375 -6.003906 8.109375 -6.671875 C 8.109375 -7.328125 7.890625 -7.832031 7.453125 -8.1875 C 7.023438 -8.539062 6.394531 -8.71875 5.5625 -8.71875 L 3.3125 -8.71875 L 3.3125 -4.609375 Z M 5.5625 -4.609375 "/></g></g></g><g fill="#ffffff" fill-opacity="1"><g transform="translate(641.730951, 440.901651)"><g><path d="M 5.640625 -10.34375 C 6.535156 -10.34375 7.316406 -10.191406 7.984375 -9.890625 C 8.648438 -9.597656 9.160156 -9.175781 9.515625 -8.625 C 9.867188 -8.070312 10.046875 -7.421875 10.046875 -6.671875 C 10.046875 -5.921875 9.867188 -5.265625 9.515625 -4.703125 C 9.160156 -4.148438 8.648438 -3.722656 7.984375 -3.421875 C 7.316406 -3.128906 6.535156 -2.984375 5.640625 -2.984375 L 3.3125 -2.984375 L 3.3125 0 L 1.390625 0 L 1.390625 -10.34375 Z M 5.5625 -4.609375 C 6.394531 -4.609375 7.023438 -4.785156 7.453125 -5.140625 C 7.890625 -5.492188 8.109375 -6.003906 8.109375 -6.671875 C 8.109375 -7.328125 7.890625 -7.832031 7.453125 -8.1875 C 7.023438 -8.539062 6.394531 -8.71875 5.5625 -8.71875 L 3.3125 -8.71875 L 3.3125 -4.609375 Z M 5.5625 -4.609375 "/></g></g></g><g fill="#ffffff" fill-opacity="1"><g transform="translate(652.460797, 440.901651)"><g><path d="M 6.21875 0.140625 C 5.164062 0.140625 4.210938 -0.0859375 3.359375 -0.546875 C 2.515625 -1.003906 1.851562 -1.640625 1.375 -2.453125 C 0.894531 -3.265625 0.65625 -4.171875 0.65625 -5.171875 C 0.65625 -6.179688 0.894531 -7.09375 1.375 -7.90625 C 1.851562 -8.71875 2.515625 -9.351562 3.359375 -9.8125 C 4.210938 -10.269531 5.164062 -10.5 6.21875 -10.5 C 7.269531 -10.5 8.21875 -10.269531 9.0625 -9.8125 C 9.914062 -9.351562 10.582031 -8.71875 11.0625 -7.90625 C 11.550781 -7.101562 11.796875 -6.191406 11.796875 -5.171875 C 11.796875 -4.160156 11.550781 -3.25 11.0625 -2.4375 C 10.582031 -1.632812 9.914062 -1.003906 9.0625 -0.546875 C 8.21875 -0.0859375 7.269531 0.140625 6.21875 0.140625 Z M 6.21875 -1.53125 C 6.90625 -1.53125 7.523438 -1.6875 8.078125 -2 C 8.628906 -2.3125 9.0625 -2.742188 9.375 -3.296875 C 9.695312 -3.859375 9.859375 -4.484375 9.859375 -5.171875 C 9.859375 -5.859375 9.695312 -6.476562 9.375 -7.03125 C 9.0625 -7.59375 8.628906 -8.03125 8.078125 -8.34375 C 7.523438 -8.65625 6.90625 -8.8125 6.21875 -8.8125 C 5.53125 -8.8125 4.910156 -8.65625 4.359375 -8.34375 C 3.804688 -8.03125 3.375 -7.59375 3.0625 -7.03125 C 2.75 -6.476562 2.59375 -5.859375 2.59375 -5.171875 C 2.59375 -4.484375 2.75 -3.859375 3.0625 -3.296875 C 3.375 -2.742188 3.804688 -2.3125 4.359375 -2 C 4.910156 -1.6875 5.53125 -1.53125 6.21875 -1.53125 Z M 6.21875 -1.53125 "/></g></g></g><g fill="#ffffff" fill-opacity="1"><g transform="translate(664.905038, 440.901651)"><g><path d="M 8.15625 0 L 6.046875 -3.03125 C 5.953125 -3.019531 5.816406 -3.015625 5.640625 -3.015625 L 3.3125 -3.015625 L 3.3125 0 L 1.390625 0 L 1.390625 -10.34375 L 5.640625 -10.34375 C 6.535156 -10.34375 7.316406 -10.191406 7.984375 -9.890625 C 8.648438 -9.597656 9.160156 -9.175781 9.515625 -8.625 C 9.867188 -8.070312 10.046875 -7.421875 10.046875 -6.671875 C 10.046875 -5.890625 9.851562 -5.21875 9.46875 -4.65625 C 9.09375 -4.09375 8.550781 -3.675781 7.84375 -3.40625 L 10.234375 0 Z M 8.109375 -6.671875 C 8.109375 -7.328125 7.890625 -7.832031 7.453125 -8.1875 C 7.023438 -8.539062 6.394531 -8.71875 5.5625 -8.71875 L 3.3125 -8.71875 L 3.3125 -4.59375 L 5.5625 -4.59375 C 6.394531 -4.59375 7.023438 -4.769531 7.453125 -5.125 C 7.890625 -5.488281 8.109375 -6.003906 8.109375 -6.671875 Z M 8.109375 -6.671875 "/></g></g></g><g fill="#ffffff" fill-opacity="1"><g transform="translate(675.708778, 440.901651)"><g><path d="M 3.484375 -8.71875 L 0.0625 -8.71875 L 0.0625 -10.34375 L 8.84375 -10.34375 L 8.84375 -8.71875 L 5.40625 -8.71875 L 5.40625 0 L 3.484375 0 Z M 3.484375 -8.71875 "/></g></g></g></svg>