<svg xmlns="http://www.w3.org/2000/svg" xmlns:xlink="http://www.w3.org/1999/xlink" width="973" zoomAndPan="magnify" viewBox="0 0 729.75 477.749988" height="637" preserveAspectRatio="xMidYMid meet" version="1.0"><defs><g/><clipPath id="2bd6449965"><path d="M 0.0664062 0 L 729.433594 0 L 729.433594 477.5 L 0.0664062 477.5 Z M 0.0664062 0 " clip-rule="nonzero"/></clipPath><clipPath id="5967eb77a6"><path d="M 0.0664062 246 L 729.433594 246 L 729.433594 248 L 0.0664062 248 Z M 0.0664062 246 " clip-rule="nonzero"/></clipPath><clipPath id="67fb66dcc2"><path d="M 354 0 L 372 0 L 372 477.5 L 354 477.5 Z M 354 0 " clip-rule="nonzero"/></clipPath><clipPath id="958881861e"><path d="M 459.386719 38.203125 L 616.550781 38.203125 L 616.550781 173.539062 L 459.386719 173.539062 Z M 459.386719 38.203125 " clip-rule="nonzero"/></clipPath><clipPath id="626145dd1f"><path d="M 459.300781 59 L 617 59 L 617 66 L 459.300781 66 Z M 459.300781 59 " clip-rule="nonzero"/></clipPath><clipPath id="d4c3f7b1dc"><path d="M 605.359375 127 L 638.457031 127 L 638.457031 160.332031 L 605.359375 160.332031 Z M 605.359375 127 " clip-rule="nonzero"/></clipPath><clipPath id="03ce1df6e7"><path d="M 131.117188 282 L 262 282 L 262 410.777344 L 131.117188 410.777344 Z M 131.117188 282 " clip-rule="nonzero"/></clipPath><clipPath id="ec60f72014"><path d="M 479.089844 314 L 505 314 L 505 340 L 479.089844 340 Z M 479.089844 314 " clip-rule="nonzero"/></clipPath><clipPath id="be2c0c021b"><path d="M 504 372 L 594 372 L 594 410.730469 L 504 410.730469 Z M 504 372 " clip-rule="nonzero"/></clipPath><clipPath id="051e506614"><path d="M 114.070312 32.371094 L 274 32.371094 L 274 157 L 114.070312 157 Z M 114.070312 32.371094 " clip-rule="nonzero"/></clipPath><clipPath id="b8a813e00e"><path d="M 199 104 L 224 104 L 224 168.050781 L 199 168.050781 Z M 199 104 " clip-rule="nonzero"/></clipPath><clipPath id="eb2d4be465"><path d="M 230 73 L 255 73 L 255 168.050781 L 230 168.050781 Z M 230 73 " clip-rule="nonzero"/></clipPath><clipPath id="0f7513da30"><path d="M 137 129 L 162 129 L 162 168.050781 L 137 168.050781 Z M 137 129 " clip-rule="nonzero"/></clipPath><clipPath id="55792c8488"><path d="M 168 116 L 193 116 L 193 168.050781 L 168 168.050781 Z M 168 116 " clip-rule="nonzero"/></clipPath></defs><g clip-path="url(#2bd6449965)"><path fill="#ffffff" d="M 0.0664062 0 L 729.433594 0 L 729.433594 477.5 L 0.0664062 477.5 Z M 0.0664062 0 " fill-opacity="1" fill-rule="nonzero"/><path fill="#f9f5f2" d="M 0.0664062 0 L 729.433594 0 L 729.433594 477.5 L 0.0664062 477.5 Z M 0.0664062 0 " fill-opacity="1" fill-rule="nonzero"/><rect x="-72.975" width="875.7" fill="#f9f5f2" y="-47.774999" height="573.299985" fill-opacity="1"/></g><g clip-path="url(#5967eb77a6)"><path stroke-linecap="round" transform="matrix(0.749608, 0, 0, 0.749608, -31.272356, 246.398653)" fill="none" stroke-linejoin="miter" d="M 0.99908 1.000236 L 1143.878147 1.000236 " stroke="#1673ff" stroke-width="2" stroke-opacity="1" stroke-miterlimit="4"/></g><g clip-path="url(#67fb66dcc2)"><path stroke-linecap="round" transform="matrix(-0.000974541, -0.749607, 0.749607, -0.000974541, 362.390573, 489.805107)" fill="none" stroke-linejoin="miter" d="M 0.999781 1.001893 L 648.114857 0.998995 " stroke="#1673ff" stroke-width="2" stroke-opacity="1" stroke-miterlimit="4"/></g><g clip-path="url(#958881861e)"><path fill="#1673ff" d="M 607.460938 173.539062 L 468.292969 173.539062 C 463.382812 173.539062 459.386719 169.542969 459.386719 164.632812 L 459.386719 47.109375 C 459.386719 42.199219 463.382812 38.203125 468.292969 38.203125 L 607.460938 38.203125 C 612.371094 38.203125 616.367188 42.199219 616.367188 47.109375 L 616.367188 99.949219 C 616.367188 101.496094 615.113281 102.753906 613.566406 102.753906 C 612.019531 102.753906 610.761719 101.496094 610.761719 99.949219 L 610.761719 47.109375 C 610.761719 45.289062 609.28125 43.808594 607.460938 43.808594 L 468.292969 43.808594 C 466.472656 43.808594 464.992188 45.289062 464.992188 47.109375 L 464.992188 164.632812 C 464.992188 166.453125 466.472656 167.933594 468.292969 167.933594 L 607.460938 167.933594 C 609.28125 167.933594 610.761719 166.453125 610.761719 164.632812 L 610.761719 142.019531 C 610.761719 140.472656 612.019531 139.214844 613.566406 139.214844 C 615.113281 139.214844 616.367188 140.472656 616.367188 142.019531 L 616.367188 164.632812 C 616.367188 169.542969 612.371094 173.539062 607.460938 173.539062 " fill-opacity="1" fill-rule="evenodd"/></g><g clip-path="url(#626145dd1f)"><path fill="#1673ff" d="M 613.566406 65.324219 L 462.191406 65.324219 C 460.640625 65.324219 459.386719 64.070312 459.386719 62.523438 C 459.386719 60.976562 460.640625 59.722656 462.191406 59.722656 L 613.566406 59.722656 C 615.113281 59.722656 616.367188 60.976562 616.367188 62.523438 C 616.367188 64.070312 615.113281 65.324219 613.566406 65.324219 " fill-opacity="1" fill-rule="evenodd"/></g><path fill="#1673ff" d="M 599.820312 54.566406 L 539.085938 54.566406 C 537.539062 54.566406 536.285156 53.3125 536.285156 51.765625 C 536.285156 50.21875 537.539062 48.964844 539.085938 48.964844 L 599.820312 48.964844 C 601.367188 48.964844 602.621094 50.21875 602.621094 51.765625 C 602.621094 53.3125 601.367188 54.566406 599.820312 54.566406 " fill-opacity="1" fill-rule="evenodd"/><path fill="#1673ff" d="M 481.210938 51.765625 C 481.210938 49.992188 479.765625 48.546875 477.992188 48.546875 C 476.222656 48.546875 474.777344 49.992188 474.777344 51.765625 C 474.777344 53.539062 476.222656 54.980469 477.992188 54.980469 C 479.765625 54.980469 481.210938 53.539062 481.210938 51.765625 " fill-opacity="1" fill-rule="evenodd"/><path fill="#1673ff" d="M 494.671875 51.765625 C 494.671875 49.992188 493.226562 48.546875 491.457031 48.546875 C 489.683594 48.546875 488.238281 49.992188 488.238281 51.765625 C 488.238281 53.539062 489.683594 54.980469 491.457031 54.980469 C 493.226562 54.980469 494.671875 53.539062 494.671875 51.765625 " fill-opacity="1" fill-rule="evenodd"/><path fill="#1673ff" d="M 508.132812 51.765625 C 508.132812 49.992188 506.691406 48.546875 504.917969 48.546875 C 503.144531 48.546875 501.699219 49.992188 501.699219 51.765625 C 501.699219 53.539062 503.144531 54.980469 504.917969 54.980469 C 506.691406 54.980469 508.132812 53.539062 508.132812 51.765625 " fill-opacity="1" fill-rule="evenodd"/><path fill="#1673ff" d="M 490.925781 156.609375 L 479.125 156.609375 C 477.578125 156.609375 476.324219 155.351562 476.324219 153.804688 L 476.324219 125.113281 C 476.324219 123.5625 477.578125 122.308594 479.125 122.308594 L 490.925781 122.308594 C 492.472656 122.308594 493.726562 123.5625 493.726562 125.113281 L 493.726562 153.804688 C 493.726562 155.351562 492.472656 156.609375 490.925781 156.609375 Z M 481.929688 151.003906 L 488.121094 151.003906 L 488.121094 127.914062 L 481.929688 127.914062 L 481.929688 151.003906 " fill-opacity="1" fill-rule="evenodd"/><path fill="#1673ff" d="M 513.449219 156.605469 L 501.652344 156.605469 C 500.105469 156.605469 498.851562 155.351562 498.851562 153.804688 L 498.851562 133.882812 C 498.851562 132.335938 500.105469 131.078125 501.652344 131.078125 L 513.449219 131.078125 C 515 131.078125 516.253906 132.335938 516.253906 133.882812 L 516.253906 153.804688 C 516.253906 155.351562 515 156.605469 513.449219 156.605469 Z M 504.457031 151 L 510.648438 151 L 510.648438 136.683594 L 504.457031 136.683594 L 504.457031 151 " fill-opacity="1" fill-rule="evenodd"/><path fill="#1673ff" d="M 535.976562 156.609375 L 524.179688 156.609375 C 522.632812 156.609375 521.375 155.351562 521.375 153.804688 L 521.375 115.410156 C 521.375 113.859375 522.632812 112.605469 524.179688 112.605469 L 535.976562 112.605469 C 537.527344 112.605469 538.78125 113.859375 538.78125 115.410156 L 538.78125 153.804688 C 538.78125 155.351562 537.527344 156.609375 535.976562 156.609375 Z M 526.984375 151.003906 L 533.175781 151.003906 L 533.175781 118.210938 L 526.984375 118.210938 L 526.984375 151.003906 " fill-opacity="1" fill-rule="evenodd"/><path fill="#1673ff" d="M 558.503906 156.609375 L 546.707031 156.609375 C 545.15625 156.609375 543.902344 155.351562 543.902344 153.804688 L 543.902344 131.710938 C 543.902344 130.160156 545.15625 128.90625 546.707031 128.90625 L 558.503906 128.90625 C 560.050781 128.90625 561.308594 130.160156 561.308594 131.710938 L 561.308594 153.804688 C 561.308594 155.351562 560.050781 156.609375 558.503906 156.609375 Z M 549.507812 151.003906 L 555.699219 151.003906 L 555.699219 134.511719 L 549.507812 134.511719 L 549.507812 151.003906 " fill-opacity="1" fill-rule="evenodd"/><path fill="#1673ff" d="M 502.242188 112.109375 C 501.867188 112.109375 501.488281 112.035156 501.125 111.878906 L 487.707031 106.035156 C 486.285156 105.421875 485.636719 103.769531 486.253906 102.347656 C 486.871094 100.929688 488.523438 100.28125 489.941406 100.898438 L 503.363281 106.738281 C 504.78125 107.355469 505.433594 109.007812 504.8125 110.425781 C 504.355469 111.480469 503.324219 112.109375 502.242188 112.109375 " fill-opacity="1" fill-rule="evenodd"/><path fill="#1673ff" d="M 510.679688 110.699219 C 509.921875 110.699219 509.164062 110.394531 508.613281 109.789062 C 507.566406 108.648438 507.644531 106.875 508.785156 105.832031 L 524.425781 91.492188 C 525.566406 90.445312 527.339844 90.523438 528.386719 91.664062 C 529.433594 92.804688 529.355469 94.578125 528.214844 95.625 L 512.574219 109.964844 C 512.035156 110.457031 511.355469 110.699219 510.679688 110.699219 " fill-opacity="1" fill-rule="evenodd"/><path fill="#1673ff" d="M 549.273438 108.441406 C 548.652344 108.441406 548.03125 108.238281 547.511719 107.816406 L 532.28125 95.5 C 531.078125 94.527344 530.890625 92.761719 531.863281 91.558594 C 532.839844 90.355469 534.601562 90.167969 535.804688 91.140625 L 551.035156 103.460938 C 552.238281 104.433594 552.425781 106.199219 551.453125 107.402344 C 550.898438 108.085938 550.089844 108.441406 549.273438 108.441406 " fill-opacity="1" fill-rule="evenodd"/><path fill="#1673ff" d="M 484.226562 109.164062 C 479.871094 109.164062 476.328125 105.621094 476.328125 101.265625 C 476.328125 96.90625 479.871094 93.359375 484.226562 93.359375 C 488.585938 93.359375 492.128906 96.90625 492.128906 101.265625 C 492.128906 105.621094 488.585938 109.164062 484.226562 109.164062 Z M 484.226562 98.96875 C 482.960938 98.96875 481.933594 99.996094 481.933594 101.261719 C 481.933594 102.527344 482.960938 103.558594 484.226562 103.558594 C 485.492188 103.558594 486.523438 102.527344 486.523438 101.261719 C 486.523438 99.996094 485.492188 98.96875 484.226562 98.96875 " fill-opacity="1" fill-rule="evenodd"/><path fill="#1673ff" d="M 506.921875 119.246094 C 502.5625 119.246094 499.019531 115.699219 499.019531 111.34375 C 499.019531 106.988281 502.5625 103.441406 506.921875 103.441406 C 511.277344 103.441406 514.820312 106.988281 514.820312 111.34375 C 514.820312 115.699219 511.277344 119.246094 506.921875 119.246094 Z M 506.921875 109.046875 C 505.652344 109.046875 504.625 110.078125 504.625 111.34375 C 504.625 112.609375 505.652344 113.640625 506.921875 113.640625 C 508.1875 113.640625 509.214844 112.609375 509.214844 111.34375 C 509.214844 110.078125 508.1875 109.046875 506.921875 109.046875 " fill-opacity="1" fill-rule="evenodd"/><path fill="#1673ff" d="M 530.078125 98.015625 C 525.722656 98.015625 522.175781 94.472656 522.175781 90.113281 C 522.175781 85.757812 525.722656 82.214844 530.078125 82.214844 C 534.433594 82.214844 537.980469 85.757812 537.980469 90.113281 C 537.980469 94.472656 534.433594 98.015625 530.078125 98.015625 Z M 530.078125 87.820312 C 528.8125 87.820312 527.78125 88.847656 527.78125 90.113281 C 527.78125 91.378906 528.8125 92.410156 530.078125 92.410156 C 531.34375 92.410156 532.375 91.378906 532.375 90.113281 C 532.375 88.847656 531.34375 87.820312 530.078125 87.820312 " fill-opacity="1" fill-rule="evenodd"/><path fill="#1673ff" d="M 553.238281 116.746094 C 548.882812 116.746094 545.339844 113.203125 545.339844 108.84375 C 545.339844 104.488281 548.882812 100.945312 553.238281 100.945312 C 557.597656 100.945312 561.136719 104.488281 561.136719 108.84375 C 561.140625 113.203125 557.597656 116.746094 553.238281 116.746094 Z M 553.238281 106.550781 C 551.972656 106.550781 550.945312 107.578125 550.945312 108.84375 C 550.945312 110.113281 551.972656 111.140625 553.238281 111.140625 C 554.503906 111.140625 555.535156 110.113281 555.535156 108.84375 C 555.535156 107.578125 554.503906 106.550781 553.238281 106.550781 " fill-opacity="1" fill-rule="evenodd"/><path fill="#1673ff" d="M 595.152344 143.875 C 587.8125 143.875 580.910156 141.015625 575.71875 135.824219 C 570.527344 130.632812 567.667969 123.730469 567.667969 116.390625 C 567.667969 109.046875 570.527344 102.144531 575.71875 96.953125 C 580.910156 91.761719 587.8125 88.902344 595.152344 88.902344 C 602.492188 88.902344 609.398438 91.761719 614.585938 96.953125 C 619.78125 102.144531 622.640625 109.046875 622.640625 116.390625 C 622.640625 123.730469 619.78125 130.632812 614.585938 135.824219 C 609.398438 141.015625 602.492188 143.875 595.152344 143.875 Z M 595.152344 94.507812 C 583.085938 94.507812 573.273438 104.324219 573.273438 116.390625 C 573.273438 128.453125 583.085938 138.269531 595.152344 138.269531 C 607.214844 138.269531 617.035156 128.453125 617.035156 116.390625 C 617.035156 104.324219 607.214844 94.507812 595.152344 94.507812 " fill-opacity="1" fill-rule="evenodd"/><path fill="#1673ff" d="M 595.152344 134.070312 C 585.402344 134.070312 577.46875 126.140625 577.46875 116.390625 C 577.46875 106.640625 585.402344 98.707031 595.152344 98.707031 C 604.902344 98.707031 612.835938 106.640625 612.835938 116.390625 C 612.835938 126.140625 604.902344 134.070312 595.152344 134.070312 Z M 595.152344 104.3125 C 588.492188 104.3125 583.074219 109.730469 583.074219 116.390625 C 583.074219 123.046875 588.492188 128.464844 595.152344 128.464844 C 601.8125 128.464844 607.230469 123.046875 607.230469 116.390625 C 607.230469 109.730469 601.8125 104.3125 595.152344 104.3125 " fill-opacity="1" fill-rule="evenodd"/><g clip-path="url(#d4c3f7b1dc)"><path fill="#1673ff" d="M 630.863281 160.007812 C 628.75 160.007812 626.765625 159.183594 625.273438 157.691406 L 606.640625 139.058594 C 605.546875 137.964844 605.546875 136.1875 606.640625 135.09375 C 607.734375 134 609.507812 134 610.605469 135.09375 L 629.238281 153.726562 C 629.671875 154.164062 630.25 154.402344 630.863281 154.402344 C 631.453125 154.402344 632.007812 154.183594 632.4375 153.785156 C 632.886719 153.363281 633.140625 152.785156 633.148438 152.160156 C 633.160156 151.507812 632.910156 150.890625 632.445312 150.429688 L 613.859375 131.839844 C 612.765625 130.746094 612.765625 128.972656 613.859375 127.878906 C 614.953125 126.78125 616.726562 126.78125 617.824219 127.878906 L 636.410156 146.464844 C 637.933594 147.988281 638.789062 150.101562 638.753906 152.253906 C 638.71875 154.410156 637.835938 156.40625 636.269531 157.875 C 634.800781 159.25 632.882812 160.007812 630.863281 160.007812 " fill-opacity="1" fill-rule="evenodd"/></g><g clip-path="url(#03ce1df6e7)"><path fill="#1673ff" d="M 169.34375 289.140625 C 162.921875 289.320312 162.921875 298.710938 169.34375 298.863281 C 175.765625 298.710938 175.765625 289.320312 169.34375 289.140625 Z M 169.34375 291.980469 C 172.003906 292.03125 172.003906 295.996094 169.34375 296.046875 C 166.679688 295.996094 166.679688 292.03125 169.34375 291.980469 Z M 224.253906 328.675781 C 217.832031 328.851562 217.832031 338.242188 224.253906 338.398438 C 230.652344 338.242188 230.652344 328.851562 224.253906 328.675781 Z M 224.253906 331.515625 C 226.917969 331.566406 226.917969 335.53125 224.253906 335.582031 C 221.570312 335.53125 221.570312 331.566406 224.253906 331.515625 Z M 254.195312 305.464844 C 238.816406 280.15625 203.066406 274.347656 180.371094 293.3125 C 179.9375 278.621094 158.878906 278.546875 158.3125 293.234375 C 158.3125 297.125 162.535156 305.542969 166.222656 312.167969 C 164.558594 315.980469 163.40625 320 162.765625 324.117188 C 155.089844 325.628906 149.308594 332.613281 148.359375 341.210938 C 147.898438 343.796875 149.589844 349.886719 149.996094 352.523438 C 149.996094 360.429688 154.65625 368.15625 161.5625 371.304688 L 160.695312 374.757812 L 146.160156 379.671875 C 141.679688 381.207031 138.125 384.789062 136.640625 389.320312 C 136.539062 389.546875 132.519531 403.980469 131.292969 408.636719 C 131.191406 409.074219 131.265625 409.535156 131.546875 409.867188 C 131.828125 410.222656 132.238281 410.402344 132.675781 410.402344 C 137.585938 410.328125 170.007812 410.148438 170.339844 410.148438 L 222.082031 410.148438 C 222.746094 410.148438 223.308594 409.6875 223.460938 409.046875 L 224.332031 405.132812 C 224.535156 404.289062 223.820312 403.390625 222.949219 403.417969 L 220.902344 403.417969 L 225.175781 379.851562 C 256.957031 371.457031 271.851562 333.332031 254.195312 305.464844 Z M 252.992188 309.023438 C 256.472656 315.34375 258.519531 322.457031 258.824219 329.671875 C 255.601562 330.953125 252.429688 331.054688 251.019531 329.875 C 250.101562 329.109375 249.972656 327.625 249.84375 326.039062 C 249.820312 323.148438 248.617188 319.792969 245.085938 319.847656 C 243.34375 319.847656 241.578125 320.664062 240.042969 321.382812 C 239.226562 321.765625 237.332031 322.636719 237 322.378906 C 236.460938 321.945312 236.5625 318.925781 238.355469 316.671875 C 239.660156 315.035156 241.195312 314.753906 243.320312 314.371094 C 246.515625 314.0625 250.945312 312.167969 252.992188 309.023438 Z M 179.246094 298.09375 C 181.472656 295.894531 184.03125 293.949219 186.667969 292.234375 C 198.691406 284.484375 214.351562 282.71875 227.761719 287.605469 C 221.3125 291.570312 221.875 297.046875 226.636719 301.78125 C 220.570312 298.914062 213.839844 299.503906 208.980469 304.390625 C 206.984375 306.105469 205.78125 307.050781 203.886719 306.820312 C 202.351562 306.640625 201.480469 305.746094 200.355469 304.570312 C 199.050781 303.214844 197.4375 301.550781 194.523438 301.320312 C 192.117188 301.0625 190.042969 302.265625 188.609375 303.316406 C 185.15625 306.105469 181.394531 305.132812 177.480469 302.292969 C 178.121094 300.9375 178.734375 299.503906 179.246094 298.09375 Z M 161.128906 293.207031 C 161.128906 288.679688 164.8125 284.996094 169.34375 284.996094 C 173.871094 284.996094 177.53125 288.679688 177.53125 293.207031 C 176.890625 298.734375 171.644531 307.589844 169.34375 311.964844 C 164.558594 303.597656 161.027344 295.589844 161.128906 293.207031 Z M 151.175781 341.519531 C 152.683594 328.339844 165.402344 322.761719 174.996094 329.621094 C 175.714844 330.054688 175.917969 330.492188 176.660156 330.515625 C 177.582031 330.542969 178.757812 330.695312 179.679688 330.976562 C 186.257812 332.769531 188.816406 340.007812 186.949219 346.484375 C 185.847656 344.332031 183.1875 342.925781 181.011719 342.875 C 178.324219 342.824219 176.125 340.828125 175.226562 338.21875 C 174.894531 337.246094 173.488281 336.988281 172.847656 337.785156 C 170.160156 340.777344 167.578125 342.644531 164.070312 343.566406 C 159.746094 344.539062 154.859375 343.363281 151.917969 347.660156 C 151.585938 345.921875 150.894531 343.207031 151.175781 341.519531 Z M 153.015625 355.183594 C 152.453125 352.625 153.195312 349.9375 155.21875 348.25 C 156.625 347.125 158.109375 347.046875 160.207031 346.917969 C 165.042969 346.867188 169.753906 344.972656 173.511719 341.210938 C 174.792969 343.769531 178.144531 345.714844 180.652344 345.714844 C 182.214844 345.84375 183.46875 346.304688 184.3125 347.6875 C 187.203125 352.574219 185.285156 358.96875 182.238281 363.371094 C 173.308594 375.832031 155.0625 370.074219 153.015625 355.183594 Z M 184.183594 373.121094 C 182.445312 372.941406 180.703125 373.8125 180.167969 375.5 L 177.914062 374.757812 L 177.042969 371.304688 C 177.992188 370.871094 178.886719 370.332031 179.730469 369.742188 C 181.140625 370.972656 182.625 372.097656 184.183594 373.121094 Z M 175.175781 375.449219 C 174.996094 375.601562 174.765625 375.757812 174.539062 375.910156 C 171.234375 377.703125 166.503906 377.703125 163.433594 375.449219 L 164.226562 372.328125 C 167.527344 373.273438 171.082031 373.273438 174.410156 372.328125 Z M 169.804688 404.492188 L 169.1875 407.308594 C 163.945312 407.332031 141.964844 407.460938 134.492188 407.539062 C 136 401.960938 139.148438 390.828125 139.328125 390.164062 C 140.53125 386.503906 143.421875 383.585938 147.054688 382.359375 L 161.488281 377.496094 C 165.710938 380.949219 173.027344 380.875 177.171875 377.496094 L 179.628906 378.316406 C 178.785156 382.972656 175.96875 398.480469 175.101562 403.390625 L 171.210938 403.390625 C 170.519531 403.390625 169.929688 403.851562 169.804688 404.492188 Z M 221.132812 406.234375 L 220.902344 407.308594 L 172.082031 407.308594 L 172.3125 406.234375 Z M 222.488281 378.445312 C 222.488281 378.46875 222.488281 378.46875 222.488281 378.496094 L 217.988281 403.390625 L 177.964844 403.390625 L 181.035156 386.351562 L 182.828125 376.5 C 182.878906 376.191406 183.160156 375.960938 183.46875 375.960938 C 186.460938 375.960938 218.292969 375.960938 222.183594 375.960938 C 222.4375 375.960938 222.59375 376.113281 222.667969 376.191406 C 222.746094 376.269531 222.824219 376.5 222.824219 376.730469 Z M 225.816406 376.679688 C 225.765625 376.703125 225.714844 376.703125 225.664062 376.730469 C 225.714844 374.808594 224.101562 373.09375 222.183594 373.121094 C 222.183594 373.121094 217.320312 373.121094 217.320312 373.121094 C 217.246094 367.824219 212.460938 362.578125 208.417969 360.710938 C 206.140625 359.355469 204.320312 358.304688 203.246094 355.542969 C 202.429688 353.417969 202.734375 352.085938 203.171875 350.246094 C 205.78125 341.75 200.125 333.484375 195.160156 329.03125 C 194.164062 328.035156 192.808594 326.679688 192.628906 326.113281 C 195.441406 324.886719 199.820312 326.011719 202.785156 328.339844 C 204.859375 330.054688 205.628906 332.179688 206.371094 334.253906 C 207.46875 338.398438 210.695312 341.597656 215.144531 339.703125 C 217.269531 344.71875 219.855469 349.527344 222.566406 354.261719 C 223.128906 355.210938 223.257812 355.667969 224.253906 355.773438 C 224.765625 355.773438 225.226562 355.515625 225.484375 355.082031 C 225.765625 354.59375 229.960938 347.175781 230.984375 344.871094 C 238.023438 351.625 248.359375 349.683594 256.191406 347.480469 C 251.429688 361.324219 239.8125 372.457031 225.816406 376.679688 Z M 216.042969 332.769531 C 216.375 321.945312 232.109375 321.917969 232.445312 332.769531 C 232.445312 333.664062 232.035156 336.070312 229.269531 341.902344 C 227.53125 345.585938 225.816406 348.710938 224.253906 351.5 C 221.695312 346.738281 216.65625 338.21875 216.042969 332.769531 Z M 232.265625 342.183594 C 234.285156 337.785156 235.285156 334.6875 235.285156 332.769531 C 235.285156 326.679688 230.34375 321.738281 224.253906 321.738281 C 216.476562 321.738281 210.976562 329.699219 214.148438 337.09375 C 211.257812 338.21875 210.078125 336.476562 209.054688 333.332031 C 208.261719 331.128906 207.289062 328.417969 204.628906 326.191406 C 200.636719 322.941406 192.882812 321.101562 190.121094 324.808594 C 188.996094 326.855469 190.835938 328.726562 193.191406 331.078125 C 197.59375 335.019531 202.785156 342.339844 200.433594 349.628906 C 198.566406 355.335938 201.96875 360.761719 206.984375 363.167969 C 210.414062 364.832031 214.277344 368.746094 214.457031 373.148438 L 189.632812 373.148438 C 186.894531 371.664062 184.3125 369.921875 181.984375 367.976562 C 185.105469 365.0625 187.304688 361.121094 188.203125 356.691406 C 192.5 355.773438 193.421875 349.964844 189.582031 347.789062 C 192.5 338.191406 187.382812 328.238281 177.199219 327.726562 C 173.871094 325.347656 169.828125 323.785156 165.65625 323.835938 C 166.167969 320.921875 166.9375 318.054688 167.988281 315.292969 C 168.242188 315.855469 168.730469 316.238281 169.34375 316.238281 C 169.855469 316.238281 170.316406 315.980469 170.570312 315.546875 C 170.597656 315.496094 173.640625 310.351562 176.277344 304.953125 C 180.910156 308.304688 186.308594 308.972656 190.25 305.722656 C 191.578125 304.800781 192.652344 304.082031 194.34375 304.210938 C 196.183594 304.363281 197.132812 305.335938 198.335938 306.589844 C 201.96875 310.964844 206.882812 310.507812 210.820312 306.566406 C 212.664062 305.003906 214.558594 303.367188 217.628906 302.984375 C 220.980469 302.546875 223.921875 303.777344 226.097656 304.644531 C 227.964844 305.414062 229.707031 306.128906 230.730469 304.699219 C 231.753906 303.214844 230.421875 301.78125 229.039062 300.246094 C 224.332031 295.484375 224.691406 292.339844 231.011719 288.984375 C 239.378906 292.671875 246.390625 298.660156 251.355469 306.335938 C 249.714844 309.558594 246.082031 311.25 242.832031 311.605469 C 240.503906 312.015625 238.097656 312.449219 236.152344 314.933594 C 233.851562 317.851562 232.929688 322.710938 235.207031 324.578125 C 236.894531 326.011719 239.121094 324.964844 241.246094 323.992188 C 242.960938 323.199219 244.90625 322.300781 245.980469 322.941406 C 246.746094 323.402344 246.902344 324.503906 247.027344 326.292969 C 246.976562 333.355469 252.761719 334.738281 258.851562 332.664062 C 258.773438 336.582031 258.238281 340.496094 257.164062 344.28125 C 248.898438 346.585938 238.839844 349.117188 232.265625 342.183594 Z M 188.585938 353.390625 C 188.558594 352.597656 188.765625 351.804688 188.917969 351.039062 C 189.25 351.550781 189.25 352.214844 189.019531 352.753906 C 188.917969 352.984375 188.789062 353.214844 188.585938 353.390625 Z M 200.894531 385.503906 C 193.34375 385.480469 191.273438 396.382812 199.613281 396.839844 C 207.164062 396.867188 209.234375 385.964844 200.894531 385.503906 Z M 197.054688 391.367188 C 197.386719 388.117188 203.707031 386.8125 203.476562 390.980469 C 203.121094 394.230469 196.824219 395.535156 197.054688 391.367188 Z M 197.054688 391.367188 " fill-opacity="1" fill-rule="nonzero"/></g><path fill="#1673ff" d="M 550.648438 272.953125 L 552.523438 276.949219 L 554.714844 281.636719 L 563.980469 283.054688 C 566.527344 283.4375 566.679688 284.589844 564.863281 286.464844 L 558.289062 293.230469 L 559.796875 302.449219 C 560.289062 305.460938 559.390625 306.1875 557.332031 305.050781 L 548.941406 300.402344 L 548.941406 300.375 L 548.929688 300.402344 L 540.527344 305.058594 C 538.46875 306.195312 537.578125 305.46875 538.074219 302.460938 L 539.570312 293.242188 L 533.007812 286.472656 C 531.1875 284.601562 531.34375 283.445312 533.886719 283.054688 L 543.15625 281.636719 L 547.210938 272.945312 C 548.234375 270.777344 549.625 270.757812 550.648438 272.953125 Z M 550.648438 272.953125 " fill-opacity="1" fill-rule="nonzero"/><path fill="#1673ff" d="M 517.804688 289.78125 L 519.425781 293.246094 L 521.324219 297.292969 L 529.335938 298.519531 C 531.539062 298.847656 531.675781 299.847656 530.101562 301.476562 L 524.417969 307.320312 L 525.71875 315.289062 C 526.144531 317.898438 525.363281 318.523438 523.589844 317.542969 L 516.332031 313.523438 L 516.324219 313.496094 L 516.316406 313.523438 L 509.058594 317.542969 C 507.277344 318.527344 506.503906 317.90625 506.933594 315.296875 L 508.230469 307.324219 L 502.546875 301.476562 C 500.976562 299.855469 501.109375 298.859375 503.3125 298.523438 L 511.324219 297.292969 L 514.84375 289.785156 C 515.714844 287.902344 516.921875 287.882812 517.804688 289.78125 Z M 517.804688 289.78125 " fill-opacity="1" fill-rule="nonzero"/><path fill="#1673ff" d="M 583.019531 289.738281 L 584.640625 293.195312 L 586.539062 297.238281 L 594.554688 298.46875 C 596.753906 298.804688 596.890625 299.804688 595.320312 301.421875 L 589.632812 307.269531 L 590.933594 315.246094 C 591.363281 317.847656 590.589844 318.484375 588.804688 317.492188 L 581.550781 313.472656 L 581.542969 313.453125 L 581.53125 313.480469 L 574.277344 317.5 C 572.503906 318.480469 571.722656 317.855469 572.148438 315.246094 L 573.445312 307.277344 L 567.765625 301.429688 C 566.191406 299.8125 566.328125 298.8125 568.53125 298.476562 L 576.539062 297.246094 L 580.058594 289.726562 C 580.929688 287.855469 582.140625 287.835938 583.019531 289.738281 Z M 583.019531 289.738281 " fill-opacity="1" fill-rule="nonzero"/><g clip-path="url(#ec60f72014)"><path fill="#1673ff" d="M 493.425781 315.433594 L 494.808594 318.371094 L 496.429688 321.800781 L 503.277344 322.835938 C 505.15625 323.128906 505.273438 323.972656 503.929688 325.347656 L 499.074219 330.300781 L 500.183594 337.058594 C 500.550781 339.269531 499.882812 339.796875 498.375 338.960938 L 492.164062 335.558594 L 492.164062 335.539062 L 492.152344 335.558594 L 485.953125 338.96875 C 484.433594 339.804688 483.769531 339.269531 484.132812 337.058594 L 485.242188 330.300781 L 480.386719 325.34375 C 479.050781 323.972656 479.160156 323.125 481.042969 322.84375 L 487.890625 321.808594 L 490.890625 315.433594 C 491.644531 313.84375 492.667969 313.832031 493.425781 315.433594 Z M 493.425781 315.433594 " fill-opacity="1" fill-rule="nonzero"/></g><g clip-path="url(#be2c0c021b)"><path fill="#1673ff" d="M 534.910156 372.449219 C 518.378906 375.878906 507.996094 385.660156 504.765625 399.757812 C 503.875 403.566406 505.246094 404.679688 506.957031 405.203125 C 518.6875 408.8125 540.410156 410.097656 548.933594 410.097656 C 557.453125 410.097656 579.175781 408.816406 590.90625 405.203125 C 592.617188 404.679688 593.988281 403.566406 593.109375 399.757812 C 590.136719 386.78125 581.085938 377.46875 566.773438 373.394531 C 564.4375 374.824219 561.9375 375.976562 559.300781 376.824219 C 558.414062 379.585938 556.242188 381.84375 553.226562 381.84375 L 545.058594 381.84375 C 541.347656 381.84375 538.238281 378.734375 538.238281 375.011719 L 538.238281 374.304688 Z M 534.910156 372.449219 " fill-opacity="1" fill-rule="nonzero"/></g><path fill="#1673ff" d="M 550.121094 315.117188 C 544.003906 314.917969 537.820312 316.582031 532.480469 320.144531 C 526.488281 324.15625 522.296875 330.066406 520.367188 336.675781 C 519.832031 336.621094 519.195312 336.648438 518.441406 336.859375 C 515.609375 337.667969 513.484375 339.980469 512.527344 342.023438 C 511.28125 344.679688 510.765625 348.199219 511.3125 351.835938 C 511.867188 355.457031 513.394531 358.449219 515.3125 360.292969 C 517.21875 362.148438 519.394531 362.757812 521.539062 362.296875 C 524.75 361.613281 526.339844 361.101562 525.886719 358.121094 L 523.710938 343.644531 C 524.160156 335.804688 528.207031 328.429688 535 323.902344 C 544.074219 317.835938 555.976562 318.226562 564.632812 324.875 C 570.660156 329.492188 574.164062 336.414062 574.5625 343.679688 L 573.046875 353.800781 C 569.65625 363.074219 561.261719 369.492188 551.535156 370.414062 L 545.058594 370.414062 C 543.394531 370.414062 542.046875 371.75 542.046875 373.425781 L 542.046875 375.015625 C 542.046875 376.679688 543.390625 378.023438 545.058594 378.023438 L 553.226562 378.023438 C 554.890625 378.023438 556.234375 376.679688 556.234375 375.015625 L 556.234375 374.179688 C 563.566406 372.390625 569.964844 367.886719 574.128906 361.601562 L 576.742188 362.292969 C 578.875 362.847656 581.070312 362.148438 582.976562 360.292969 C 584.898438 358.445312 586.425781 355.453125 586.976562 351.832031 C 587.523438 348.195312 586.988281 344.6875 585.761719 342.023438 C 584.53125 339.359375 582.695312 337.660156 580.585938 337.058594 C 579.695312 336.804688 578.730469 336.703125 577.902344 336.6875 C 576.15625 330.703125 572.566406 325.261719 567.390625 321.289062 C 562.296875 317.390625 556.242188 315.316406 550.121094 315.117188 Z M 550.121094 315.117188 " fill-opacity="1" fill-rule="evenodd"/><path fill="#1673ff" d="M 548.933594 324.355469 C 537.464844 324.355469 528.214844 333.296875 528.214844 345.070312 C 528.214844 356.855469 537.464844 365.785156 548.933594 365.785156 C 560.40625 365.785156 569.648438 356.847656 569.648438 345.070312 C 569.648438 333.296875 560.40625 324.355469 548.933594 324.355469 Z M 539.046875 334.613281 C 541.085938 336.558594 544.742188 337.859375 548.933594 337.859375 C 553.121094 337.859375 556.789062 336.558594 558.824219 334.613281 C 561.601562 337.234375 563.335938 340.941406 563.335938 345.070312 C 563.335938 353.046875 556.914062 359.464844 548.933594 359.464844 C 540.957031 359.464844 534.539062 353.046875 534.539062 345.070312 C 534.539062 340.941406 536.273438 337.234375 539.046875 334.613281 Z M 539.046875 334.613281 " fill-opacity="1" fill-rule="evenodd"/><path fill="#1673ff" d="M 606.972656 315.433594 L 608.359375 318.371094 L 609.976562 321.800781 L 616.824219 322.835938 C 618.703125 323.128906 618.824219 323.972656 617.476562 325.347656 L 612.621094 330.300781 L 613.734375 337.058594 C 614.09375 339.269531 613.433594 339.796875 611.921875 338.960938 L 605.714844 335.558594 L 605.714844 335.539062 L 605.703125 335.558594 L 599.5 338.96875 C 597.980469 339.804688 597.316406 339.269531 597.683594 337.058594 L 598.789062 330.300781 L 593.945312 325.347656 C 592.597656 323.972656 592.707031 323.128906 594.589844 322.847656 L 601.4375 321.8125 L 604.4375 315.4375 C 605.195312 313.84375 606.21875 313.832031 606.972656 315.433594 Z M 606.972656 315.433594 " fill-opacity="1" fill-rule="nonzero"/><g clip-path="url(#051e506614)"><path fill="#1673ff" d="M 273.496094 36.171875 C 271.121094 47.304688 268.726562 58.4375 266.277344 69.554688 C 265.660156 72.363281 264.632812 72.695312 262.488281 70.78125 C 260.207031 68.75 258.0625 66.5625 255.847656 64.457031 C 255.683594 64.304688 255.523438 64.152344 255.351562 64 L 254.175781 62.820312 L 253.238281 63.757812 C 253.179688 63.8125 253.117188 63.871094 253.054688 63.929688 C 238.320312 78.566406 223.578125 93.207031 208.84375 107.847656 C 204.277344 112.390625 199.726562 116.953125 195.164062 121.503906 C 193.9375 122.730469 192.621094 122.875 191.191406 121.835938 C 190.34375 121.222656 189.554688 120.519531 188.804688 119.78125 C 184.59375 115.628906 180.402344 111.453125 176.203125 107.285156 C 175.949219 107.03125 175.683594 106.789062 175.363281 106.480469 C 175.050781 106.777344 174.765625 107.042969 174.496094 107.3125 C 160.738281 121.027344 146.988281 134.753906 133.214844 148.449219 C 132.816406 148.847656 132.410156 149.238281 132.003906 149.621094 L 125.464844 156.160156 C 124.929688 156.695312 124.0625 156.695312 123.527344 156.160156 L 114.726562 147.363281 C 114.195312 146.828125 114.195312 145.960938 114.726562 145.425781 L 116.390625 143.773438 C 116.507812 143.609375 116.640625 143.453125 116.789062 143.308594 C 133.667969 126.484375 150.539062 109.652344 167.441406 92.855469 C 169.558594 90.75 171.804688 88.761719 174.09375 86.839844 C 175.585938 85.589844 176.1875 85.671875 177.578125 87.015625 C 182.488281 91.773438 187.375 96.558594 192.261719 101.335938 C 192.472656 101.542969 192.632812 101.796875 192.78125 101.984375 C 209.578125 85.148438 226.277344 68.410156 243.25 51.394531 C 240.945312 49.183594 238.507812 46.878906 236.117188 44.539062 C 235.484375 43.925781 234.917969 43.222656 234.410156 42.503906 C 233.550781 41.289062 233.796875 40.5 235.238281 40.066406 C 236.871094 39.570312 238.53125 39.179688 240.191406 38.804688 C 249.679688 36.703125 259.164062 34.613281 268.648438 32.535156 C 269.21875 32.410156 269.820312 32.378906 270.40625 32.386719 C 272.667969 32.421875 273.96875 33.949219 273.496094 36.171875 " fill-opacity="1" fill-rule="nonzero"/></g><g clip-path="url(#b8a813e00e)"><path fill="#1673ff" d="M 223.285156 104.300781 C 222.851562 104.707031 222.609375 104.917969 222.386719 105.144531 C 215.09375 112.402344 207.8125 119.671875 200.511719 126.917969 C 199.976562 127.449219 199.742188 127.960938 199.746094 128.714844 C 199.773438 137.390625 199.75 146.070312 199.785156 154.75 C 199.785156 155.390625 199.796875 156.027344 199.804688 156.667969 C 199.78125 156.78125 199.765625 156.894531 199.765625 157.011719 L 199.765625 166.449219 C 199.765625 167.3125 200.464844 168.011719 201.328125 168.011719 L 221.707031 168.011719 C 222.570312 168.011719 223.273438 167.3125 223.273438 166.449219 L 223.273438 164.414062 C 223.28125 164.285156 223.285156 164.15625 223.285156 164.03125 C 223.300781 144.507812 223.289062 124.984375 223.285156 105.457031 C 223.285156 105.167969 223.285156 104.875 223.285156 104.300781 " fill-opacity="1" fill-rule="nonzero"/></g><g clip-path="url(#eb2d4be465)"><path fill="#1673ff" d="M 254.1875 152.816406 C 254.160156 126.808594 254.117188 100.800781 254.074219 74.789062 L 254.074219 73.359375 L 253.492188 73.960938 C 245.980469 81.453125 238.476562 88.949219 230.984375 96.457031 C 230.742188 96.699219 230.585938 97.140625 230.585938 97.488281 C 230.566406 120.007812 230.566406 142.527344 230.570312 165.050781 C 230.570312 165.164062 230.59375 165.28125 230.621094 165.40625 L 230.621094 166.449219 C 230.621094 167.3125 231.320312 168.011719 232.1875 168.011719 L 252.570312 168.011719 C 253.433594 168.011719 254.132812 167.3125 254.132812 166.449219 L 254.132812 159.066406 C 254.164062 156.984375 254.1875 154.898438 254.1875 152.816406 " fill-opacity="1" fill-rule="nonzero"/></g><g clip-path="url(#0f7513da30)"><path fill="#1673ff" d="M 160.375 130.617188 C 152.980469 137.980469 145.589844 145.339844 138.214844 152.722656 C 137.96875 152.960938 137.808594 153.402344 137.808594 153.753906 C 137.796875 154.808594 137.796875 155.859375 137.792969 156.917969 C 137.792969 156.953125 137.785156 156.980469 137.785156 157.015625 L 137.785156 166.441406 C 137.785156 167.308594 138.488281 168.011719 139.355469 168.011719 L 159.925781 168.011719 C 160.792969 168.011719 161.496094 167.308594 161.496094 166.441406 L 161.496094 157.015625 C 161.496094 156.992188 161.492188 156.96875 161.492188 156.949219 C 161.484375 149.726562 161.480469 142.507812 161.472656 135.285156 C 161.472656 133.875 161.472656 132.460938 161.472656 131.050781 L 161.496094 129.433594 L 160.375 130.617188 " fill-opacity="1" fill-rule="nonzero"/></g><g clip-path="url(#55792c8488)"><path fill="#1673ff" d="M 192.292969 131.082031 L 192.292969 129.566406 L 192.203125 129.566406 C 188.417969 129.84375 185.8125 127.6875 183.320312 125.324219 C 181.628906 123.71875 179.964844 122.082031 178.285156 120.46875 C 177.769531 119.976562 177.253906 119.484375 176.742188 118.992188 L 174.320312 116.613281 L 173.589844 117.351562 C 173.574219 117.367188 173.554688 117.378906 173.539062 117.394531 C 172.148438 118.789062 170.785156 120.214844 169.363281 121.582031 C 168.800781 122.121094 168.578125 122.679688 168.582031 123.472656 C 168.621094 132.9375 168.601562 142.398438 168.636719 151.863281 C 168.652344 155.121094 168.703125 158.382812 168.785156 161.640625 L 168.785156 166.449219 C 168.785156 167.3125 169.484375 168.011719 170.347656 168.011719 L 190.730469 168.011719 C 191.59375 168.011719 192.292969 167.3125 192.292969 166.449219 L 192.292969 157.011719 C 192.292969 156.882812 192.273438 156.761719 192.246094 156.644531 C 192.269531 148.125 192.28125 139.605469 192.292969 131.082031 " fill-opacity="1" fill-rule="nonzero"/></g><g fill="#1673ff" fill-opacity="1"><g transform="translate(74.215176, 202.404918)"><g><path d="M 4.59375 0.140625 C 3.800781 0.140625 3.03125 0.03125 2.28125 -0.1875 C 1.539062 -0.414062 0.953125 -0.71875 0.515625 -1.09375 L 1.1875 -2.59375 C 1.601562 -2.25 2.117188 -1.972656 2.734375 -1.765625 C 3.359375 -1.554688 3.976562 -1.453125 4.59375 -1.453125 C 5.363281 -1.453125 5.9375 -1.570312 6.3125 -1.8125 C 6.695312 -2.0625 6.890625 -2.390625 6.890625 -2.796875 C 6.890625 -3.085938 6.78125 -3.328125 6.5625 -3.515625 C 6.351562 -3.710938 6.085938 -3.863281 5.765625 -3.96875 C 5.441406 -4.082031 5 -4.207031 4.4375 -4.34375 C 3.644531 -4.53125 3.003906 -4.71875 2.515625 -4.90625 C 2.023438 -5.09375 1.601562 -5.382812 1.25 -5.78125 C 0.90625 -6.1875 0.734375 -6.726562 0.734375 -7.40625 C 0.734375 -7.976562 0.890625 -8.5 1.203125 -8.96875 C 1.515625 -9.4375 1.984375 -9.804688 2.609375 -10.078125 C 3.234375 -10.359375 4 -10.5 4.90625 -10.5 C 5.539062 -10.5 6.160156 -10.414062 6.765625 -10.25 C 7.378906 -10.09375 7.90625 -9.867188 8.34375 -9.578125 L 7.75 -8.078125 C 7.289062 -8.347656 6.816406 -8.550781 6.328125 -8.6875 C 5.835938 -8.820312 5.359375 -8.890625 4.890625 -8.890625 C 4.128906 -8.890625 3.5625 -8.757812 3.1875 -8.5 C 2.820312 -8.25 2.640625 -7.914062 2.640625 -7.5 C 2.640625 -7.195312 2.742188 -6.953125 2.953125 -6.765625 C 3.171875 -6.578125 3.441406 -6.425781 3.765625 -6.3125 C 4.085938 -6.207031 4.53125 -6.085938 5.09375 -5.953125 C 5.863281 -5.773438 6.492188 -5.585938 6.984375 -5.390625 C 7.484375 -5.203125 7.90625 -4.910156 8.25 -4.515625 C 8.601562 -4.128906 8.78125 -3.597656 8.78125 -2.921875 C 8.78125 -2.347656 8.625 -1.832031 8.3125 -1.375 C 8 -0.914062 7.523438 -0.546875 6.890625 -0.265625 C 6.265625 0.00390625 5.5 0.140625 4.59375 0.140625 Z M 4.59375 0.140625 "/></g></g></g><g fill="#1673ff" fill-opacity="1"><g transform="translate(83.509796, 202.404918)"><g><path d="M 1.390625 -10.34375 L 3.3125 -10.34375 L 3.3125 0 L 1.390625 0 Z M 1.390625 -10.34375 "/></g></g></g><g fill="#1673ff" fill-opacity="1"><g transform="translate(88.223602, 202.404918)"><g><path d="M 10.578125 -10.34375 L 10.578125 0 L 9 0 L 3.296875 -7 L 3.296875 0 L 1.390625 0 L 1.390625 -10.34375 L 2.96875 -10.34375 L 8.671875 -3.34375 L 8.671875 -10.34375 Z M 10.578125 -10.34375 "/></g></g></g><g fill="#1673ff" fill-opacity="1"><g transform="translate(100.192834, 202.404918)"><g><path d="M 8.453125 -5.296875 L 10.265625 -5.296875 L 10.265625 -1.171875 C 9.734375 -0.742188 9.113281 -0.414062 8.40625 -0.1875 C 7.695312 0.03125 6.96875 0.140625 6.21875 0.140625 C 5.164062 0.140625 4.210938 -0.0859375 3.359375 -0.546875 C 2.515625 -1.003906 1.851562 -1.632812 1.375 -2.4375 C 0.894531 -3.25 0.65625 -4.160156 0.65625 -5.171875 C 0.65625 -6.191406 0.894531 -7.101562 1.375 -7.90625 C 1.851562 -8.71875 2.519531 -9.351562 3.375 -9.8125 C 4.226562 -10.269531 5.1875 -10.5 6.25 -10.5 C 7.113281 -10.5 7.898438 -10.351562 8.609375 -10.0625 C 9.328125 -9.78125 9.925781 -9.363281 10.40625 -8.8125 L 9.1875 -7.625 C 8.40625 -8.414062 7.457031 -8.8125 6.34375 -8.8125 C 5.613281 -8.8125 4.960938 -8.65625 4.390625 -8.34375 C 3.828125 -8.039062 3.382812 -7.613281 3.0625 -7.0625 C 2.75 -6.507812 2.59375 -5.878906 2.59375 -5.171875 C 2.59375 -4.484375 2.75 -3.863281 3.0625 -3.3125 C 3.382812 -2.757812 3.828125 -2.320312 4.390625 -2 C 4.960938 -1.6875 5.609375 -1.53125 6.328125 -1.53125 C 7.128906 -1.53125 7.835938 -1.707031 8.453125 -2.0625 Z M 8.453125 -5.296875 "/></g></g></g><g fill="#1673ff" fill-opacity="1"><g transform="translate(111.600548, 202.404918)"><g><path d="M 1.390625 -10.34375 L 3.3125 -10.34375 L 3.3125 -1.625 L 8.71875 -1.625 L 8.71875 0 L 1.390625 0 Z M 1.390625 -10.34375 "/></g></g></g><g fill="#1673ff" fill-opacity="1"><g transform="translate(120.451866, 202.404918)"><g><path d="M 9.15625 -1.609375 L 9.15625 0 L 1.390625 0 L 1.390625 -10.34375 L 8.9375 -10.34375 L 8.9375 -8.734375 L 3.3125 -8.734375 L 3.3125 -6.046875 L 8.3125 -6.046875 L 8.3125 -4.46875 L 3.3125 -4.46875 L 3.3125 -1.609375 Z M 9.15625 -1.609375 "/></g></g></g><g fill="#1673ff" fill-opacity="1"><g transform="translate(130.352337, 202.404918)"><g/></g></g><g fill="#1673ff" fill-opacity="1"><g transform="translate(134.430746, 202.404918)"><g><path d="M 8.09375 -2.390625 L 2.921875 -2.390625 L 1.90625 0 L -0.078125 0 L 4.578125 -10.34375 L 6.46875 -10.34375 L 11.140625 0 L 9.140625 0 Z M 7.46875 -3.90625 L 5.515625 -8.421875 L 3.578125 -3.90625 Z M 7.46875 -3.90625 "/></g></g></g><g fill="#1673ff" fill-opacity="1"><g transform="translate(145.498585, 202.404918)"><g><path d="M 6.171875 0.140625 C 5.128906 0.140625 4.1875 -0.0859375 3.34375 -0.546875 C 2.5 -1.003906 1.835938 -1.632812 1.359375 -2.4375 C 0.890625 -3.25 0.65625 -4.160156 0.65625 -5.171875 C 0.65625 -6.191406 0.894531 -7.101562 1.375 -7.90625 C 1.851562 -8.71875 2.515625 -9.351562 3.359375 -9.8125 C 4.203125 -10.269531 5.144531 -10.5 6.1875 -10.5 C 7.039062 -10.5 7.816406 -10.347656 8.515625 -10.046875 C 9.210938 -9.753906 9.800781 -9.328125 10.28125 -8.765625 L 9.046875 -7.59375 C 8.296875 -8.40625 7.375 -8.8125 6.28125 -8.8125 C 5.570312 -8.8125 4.9375 -8.65625 4.375 -8.34375 C 3.8125 -8.03125 3.375 -7.597656 3.0625 -7.046875 C 2.75 -6.492188 2.59375 -5.867188 2.59375 -5.171875 C 2.59375 -4.472656 2.75 -3.847656 3.0625 -3.296875 C 3.375 -2.742188 3.8125 -2.3125 4.375 -2 C 4.9375 -1.6875 5.570312 -1.53125 6.28125 -1.53125 C 7.375 -1.53125 8.296875 -1.941406 9.046875 -2.765625 L 10.28125 -1.578125 C 9.800781 -1.015625 9.207031 -0.585938 8.5 -0.296875 C 7.800781 -0.00390625 7.023438 0.140625 6.171875 0.140625 Z M 6.171875 0.140625 "/></g></g></g><g fill="#1673ff" fill-opacity="1"><g transform="translate(156.241336, 202.404918)"><g><path d="M 9.15625 -1.609375 L 9.15625 0 L 1.390625 0 L 1.390625 -10.34375 L 8.9375 -10.34375 L 8.9375 -8.734375 L 3.3125 -8.734375 L 3.3125 -6.046875 L 8.3125 -6.046875 L 8.3125 -4.46875 L 3.3125 -4.46875 L 3.3125 -1.609375 Z M 9.15625 -1.609375 "/></g></g></g><g fill="#1673ff" fill-opacity="1"><g transform="translate(166.141807, 202.404918)"><g><path d="M 9.15625 -1.609375 L 9.15625 0 L 1.390625 0 L 1.390625 -10.34375 L 8.9375 -10.34375 L 8.9375 -8.734375 L 3.3125 -8.734375 L 3.3125 -6.046875 L 8.3125 -6.046875 L 8.3125 -4.46875 L 3.3125 -4.46875 L 3.3125 -1.609375 Z M 9.15625 -1.609375 "/></g></g></g><g fill="#1673ff" fill-opacity="1"><g transform="translate(176.042279, 202.404918)"><g><path d="M 4.59375 0.140625 C 3.800781 0.140625 3.03125 0.03125 2.28125 -0.1875 C 1.539062 -0.414062 0.953125 -0.71875 0.515625 -1.09375 L 1.1875 -2.59375 C 1.601562 -2.25 2.117188 -1.972656 2.734375 -1.765625 C 3.359375 -1.554688 3.976562 -1.453125 4.59375 -1.453125 C 5.363281 -1.453125 5.9375 -1.570312 6.3125 -1.8125 C 6.695312 -2.0625 6.890625 -2.390625 6.890625 -2.796875 C 6.890625 -3.085938 6.78125 -3.328125 6.5625 -3.515625 C 6.351562 -3.710938 6.085938 -3.863281 5.765625 -3.96875 C 5.441406 -4.082031 5 -4.207031 4.4375 -4.34375 C 3.644531 -4.53125 3.003906 -4.71875 2.515625 -4.90625 C 2.023438 -5.09375 1.601562 -5.382812 1.25 -5.78125 C 0.90625 -6.1875 0.734375 -6.726562 0.734375 -7.40625 C 0.734375 -7.976562 0.890625 -8.5 1.203125 -8.96875 C 1.515625 -9.4375 1.984375 -9.804688 2.609375 -10.078125 C 3.234375 -10.359375 4 -10.5 4.90625 -10.5 C 5.539062 -10.5 6.160156 -10.414062 6.765625 -10.25 C 7.378906 -10.09375 7.90625 -9.867188 8.34375 -9.578125 L 7.75 -8.078125 C 7.289062 -8.347656 6.816406 -8.550781 6.328125 -8.6875 C 5.835938 -8.820312 5.359375 -8.890625 4.890625 -8.890625 C 4.128906 -8.890625 3.5625 -8.757812 3.1875 -8.5 C 2.820312 -8.25 2.640625 -7.914062 2.640625 -7.5 C 2.640625 -7.195312 2.742188 -6.953125 2.953125 -6.765625 C 3.171875 -6.578125 3.441406 -6.425781 3.765625 -6.3125 C 4.085938 -6.207031 4.53125 -6.085938 5.09375 -5.953125 C 5.863281 -5.773438 6.492188 -5.585938 6.984375 -5.390625 C 7.484375 -5.203125 7.90625 -4.910156 8.25 -4.515625 C 8.601562 -4.128906 8.78125 -3.597656 8.78125 -2.921875 C 8.78125 -2.347656 8.625 -1.832031 8.3125 -1.375 C 8 -0.914062 7.523438 -0.546875 6.890625 -0.265625 C 6.265625 0.00390625 5.5 0.140625 4.59375 0.140625 Z M 4.59375 0.140625 "/></g></g></g><g fill="#1673ff" fill-opacity="1"><g transform="translate(185.336899, 202.404918)"><g/></g></g><g fill="#1673ff" fill-opacity="1"><g transform="translate(189.415307, 202.404918)"><g><path d="M 3.484375 -8.71875 L 0.0625 -8.71875 L 0.0625 -10.34375 L 8.84375 -10.34375 L 8.84375 -8.71875 L 5.40625 -8.71875 L 5.40625 0 L 3.484375 0 Z M 3.484375 -8.71875 "/></g></g></g><g fill="#1673ff" fill-opacity="1"><g transform="translate(198.310959, 202.404918)"><g><path d="M 6.21875 0.140625 C 5.164062 0.140625 4.210938 -0.0859375 3.359375 -0.546875 C 2.515625 -1.003906 1.851562 -1.640625 1.375 -2.453125 C 0.894531 -3.265625 0.65625 -4.171875 0.65625 -5.171875 C 0.65625 -6.179688 0.894531 -7.09375 1.375 -7.90625 C 1.851562 -8.71875 2.515625 -9.351562 3.359375 -9.8125 C 4.210938 -10.269531 5.164062 -10.5 6.21875 -10.5 C 7.269531 -10.5 8.21875 -10.269531 9.0625 -9.8125 C 9.914062 -9.351562 10.582031 -8.71875 11.0625 -7.90625 C 11.550781 -7.101562 11.796875 -6.191406 11.796875 -5.171875 C 11.796875 -4.160156 11.550781 -3.25 11.0625 -2.4375 C 10.582031 -1.632812 9.914062 -1.003906 9.0625 -0.546875 C 8.21875 -0.0859375 7.269531 0.140625 6.21875 0.140625 Z M 6.21875 -1.53125 C 6.90625 -1.53125 7.523438 -1.6875 8.078125 -2 C 8.628906 -2.3125 9.0625 -2.742188 9.375 -3.296875 C 9.695312 -3.859375 9.859375 -4.484375 9.859375 -5.171875 C 9.859375 -5.859375 9.695312 -6.476562 9.375 -7.03125 C 9.0625 -7.59375 8.628906 -8.03125 8.078125 -8.34375 C 7.523438 -8.65625 6.90625 -8.8125 6.21875 -8.8125 C 5.53125 -8.8125 4.910156 -8.65625 4.359375 -8.34375 C 3.804688 -8.03125 3.375 -7.59375 3.0625 -7.03125 C 2.75 -6.476562 2.59375 -5.859375 2.59375 -5.171875 C 2.59375 -4.484375 2.75 -3.859375 3.0625 -3.296875 C 3.375 -2.742188 3.804688 -2.3125 4.359375 -2 C 4.910156 -1.6875 5.53125 -1.53125 6.21875 -1.53125 Z M 6.21875 -1.53125 "/></g></g></g><g fill="#1673ff" fill-opacity="1"><g transform="translate(210.753049, 202.404918)"><g/></g></g><g fill="#1673ff" fill-opacity="1"><g transform="translate(214.831458, 202.404918)"><g><path d="M 8.09375 -2.390625 L 2.921875 -2.390625 L 1.90625 0 L -0.078125 0 L 4.578125 -10.34375 L 6.46875 -10.34375 L 11.140625 0 L 9.140625 0 Z M 7.46875 -3.90625 L 5.515625 -8.421875 L 3.578125 -3.90625 Z M 7.46875 -3.90625 "/></g></g></g><g fill="#1673ff" fill-opacity="1"><g transform="translate(225.899297, 202.404918)"><g><path d="M 1.390625 -10.34375 L 3.3125 -10.34375 L 3.3125 -1.625 L 8.71875 -1.625 L 8.71875 0 L 1.390625 0 Z M 1.390625 -10.34375 "/></g></g></g><g fill="#1673ff" fill-opacity="1"><g transform="translate(234.750615, 202.404918)"><g><path d="M 1.390625 -10.34375 L 3.3125 -10.34375 L 3.3125 -1.625 L 8.71875 -1.625 L 8.71875 0 L 1.390625 0 Z M 1.390625 -10.34375 "/></g></g></g><g fill="#1673ff" fill-opacity="1"><g transform="translate(243.601932, 202.404918)"><g/></g></g><g fill="#1673ff" fill-opacity="1"><g transform="translate(247.680341, 202.404918)"><g><path d="M 10.890625 0 L 10.875 -6.859375 L 7.484375 -1.1875 L 6.625 -1.1875 L 3.21875 -6.765625 L 3.21875 0 L 1.390625 0 L 1.390625 -10.34375 L 2.96875 -10.34375 L 7.078125 -3.484375 L 11.109375 -10.34375 L 12.703125 -10.34375 L 12.71875 0 Z M 10.890625 0 "/></g></g></g><g fill="#1673ff" fill-opacity="1"><g transform="translate(261.792214, 202.404918)"><g><path d="M 8.09375 -2.390625 L 2.921875 -2.390625 L 1.90625 0 L -0.078125 0 L 4.578125 -10.34375 L 6.46875 -10.34375 L 11.140625 0 L 9.140625 0 Z M 7.46875 -3.90625 L 5.515625 -8.421875 L 3.578125 -3.90625 Z M 7.46875 -3.90625 "/></g></g></g><g fill="#1673ff" fill-opacity="1"><g transform="translate(272.860044, 202.404918)"><g><path d="M 8.15625 0 L 6.046875 -3.03125 C 5.953125 -3.019531 5.816406 -3.015625 5.640625 -3.015625 L 3.3125 -3.015625 L 3.3125 0 L 1.390625 0 L 1.390625 -10.34375 L 5.640625 -10.34375 C 6.535156 -10.34375 7.316406 -10.191406 7.984375 -9.890625 C 8.648438 -9.597656 9.160156 -9.175781 9.515625 -8.625 C 9.867188 -8.070312 10.046875 -7.421875 10.046875 -6.671875 C 10.046875 -5.890625 9.851562 -5.21875 9.46875 -4.65625 C 9.09375 -4.09375 8.550781 -3.675781 7.84375 -3.40625 L 10.234375 0 Z M 8.109375 -6.671875 C 8.109375 -7.328125 7.890625 -7.832031 7.453125 -8.1875 C 7.023438 -8.539062 6.394531 -8.71875 5.5625 -8.71875 L 3.3125 -8.71875 L 3.3125 -4.59375 L 5.5625 -4.59375 C 6.394531 -4.59375 7.023438 -4.769531 7.453125 -5.125 C 7.890625 -5.488281 8.109375 -6.003906 8.109375 -6.671875 Z M 8.109375 -6.671875 "/></g></g></g><g fill="#1673ff" fill-opacity="1"><g transform="translate(283.661907, 202.404918)"><g><path d="M 4.953125 -4.328125 L 3.3125 -2.640625 L 3.3125 0 L 1.390625 0 L 1.390625 -10.34375 L 3.3125 -10.34375 L 3.3125 -5.046875 L 8.421875 -10.34375 L 10.578125 -10.34375 L 6.234375 -5.71875 L 10.84375 0 L 8.609375 0 Z M 4.953125 -4.328125 "/></g></g></g><g fill="#1673ff" fill-opacity="1"><g transform="translate(294.434215, 202.404918)"><g><path d="M 9.15625 -1.609375 L 9.15625 0 L 1.390625 0 L 1.390625 -10.34375 L 8.9375 -10.34375 L 8.9375 -8.734375 L 3.3125 -8.734375 L 3.3125 -6.046875 L 8.3125 -6.046875 L 8.3125 -4.46875 L 3.3125 -4.46875 L 3.3125 -1.609375 Z M 9.15625 -1.609375 "/></g></g></g><g fill="#1673ff" fill-opacity="1"><g transform="translate(304.334686, 202.404918)"><g><path d="M 3.484375 -8.71875 L 0.0625 -8.71875 L 0.0625 -10.34375 L 8.84375 -10.34375 L 8.84375 -8.71875 L 5.40625 -8.71875 L 5.40625 0 L 3.484375 0 Z M 3.484375 -8.71875 "/></g></g></g><g fill="#1673ff" fill-opacity="1"><g transform="translate(89.650362, 440.825061)"><g><path d="M 3.484375 -8.71875 L 0.0625 -8.71875 L 0.0625 -10.34375 L 8.84375 -10.34375 L 8.84375 -8.71875 L 5.40625 -8.71875 L 5.40625 0 L 3.484375 0 Z M 3.484375 -8.71875 "/></g></g></g><g fill="#1673ff" fill-opacity="1"><g transform="translate(98.546014, 440.825061)"><g><path d="M 8.15625 0 L 6.046875 -3.03125 C 5.953125 -3.019531 5.816406 -3.015625 5.640625 -3.015625 L 3.3125 -3.015625 L 3.3125 0 L 1.390625 0 L 1.390625 -10.34375 L 5.640625 -10.34375 C 6.535156 -10.34375 7.316406 -10.191406 7.984375 -9.890625 C 8.648438 -9.597656 9.160156 -9.175781 9.515625 -8.625 C 9.867188 -8.070312 10.046875 -7.421875 10.046875 -6.671875 C 10.046875 -5.890625 9.851562 -5.21875 9.46875 -4.65625 C 9.09375 -4.09375 8.550781 -3.675781 7.84375 -3.40625 L 10.234375 0 Z M 8.109375 -6.671875 C 8.109375 -7.328125 7.890625 -7.832031 7.453125 -8.1875 C 7.023438 -8.539062 6.394531 -8.71875 5.5625 -8.71875 L 3.3125 -8.71875 L 3.3125 -4.59375 L 5.5625 -4.59375 C 6.394531 -4.59375 7.023438 -4.769531 7.453125 -5.125 C 7.890625 -5.488281 8.109375 -6.003906 8.109375 -6.671875 Z M 8.109375 -6.671875 "/></g></g></g><g fill="#1673ff" fill-opacity="1"><g transform="translate(109.347877, 440.825061)"><g><path d="M 8.09375 -2.390625 L 2.921875 -2.390625 L 1.90625 0 L -0.078125 0 L 4.578125 -10.34375 L 6.46875 -10.34375 L 11.140625 0 L 9.140625 0 Z M 7.46875 -3.90625 L 5.515625 -8.421875 L 3.578125 -3.90625 Z M 7.46875 -3.90625 "/></g></g></g><g fill="#1673ff" fill-opacity="1"><g transform="translate(120.415716, 440.825061)"><g><path d="M 1.390625 -10.34375 L 5.90625 -10.34375 C 7.007812 -10.34375 7.988281 -10.128906 8.84375 -9.703125 C 9.707031 -9.273438 10.375 -8.664062 10.84375 -7.875 C 11.320312 -7.09375 11.5625 -6.191406 11.5625 -5.171875 C 11.5625 -4.148438 11.320312 -3.242188 10.84375 -2.453125 C 10.375 -1.671875 9.707031 -1.066406 8.84375 -0.640625 C 7.988281 -0.210938 7.007812 0 5.90625 0 L 1.390625 0 Z M 5.828125 -1.625 C 6.585938 -1.625 7.253906 -1.769531 7.828125 -2.0625 C 8.398438 -2.351562 8.84375 -2.765625 9.15625 -3.296875 C 9.46875 -3.835938 9.625 -4.460938 9.625 -5.171875 C 9.625 -5.878906 9.46875 -6.5 9.15625 -7.03125 C 8.84375 -7.570312 8.398438 -7.988281 7.828125 -8.28125 C 7.253906 -8.570312 6.585938 -8.71875 5.828125 -8.71875 L 3.3125 -8.71875 L 3.3125 -1.625 Z M 5.828125 -1.625 "/></g></g></g><g fill="#1673ff" fill-opacity="1"><g transform="translate(132.621377, 440.825061)"><g><path d="M 9.15625 -1.609375 L 9.15625 0 L 1.390625 0 L 1.390625 -10.34375 L 8.9375 -10.34375 L 8.9375 -8.734375 L 3.3125 -8.734375 L 3.3125 -6.046875 L 8.3125 -6.046875 L 8.3125 -4.46875 L 3.3125 -4.46875 L 3.3125 -1.609375 Z M 9.15625 -1.609375 "/></g></g></g><g fill="#1673ff" fill-opacity="1"><g transform="translate(142.521848, 440.825061)"><g/></g></g><g fill="#1673ff" fill-opacity="1"><g transform="translate(146.600257, 440.825061)"><g><path d="M 8.09375 -2.390625 L 2.921875 -2.390625 L 1.90625 0 L -0.078125 0 L 4.578125 -10.34375 L 6.46875 -10.34375 L 11.140625 0 L 9.140625 0 Z M 7.46875 -3.90625 L 5.515625 -8.421875 L 3.578125 -3.90625 Z M 7.46875 -3.90625 "/></g></g></g><g fill="#1673ff" fill-opacity="1"><g transform="translate(157.668096, 440.825061)"><g><path d="M 10.578125 -10.34375 L 10.578125 0 L 9 0 L 3.296875 -7 L 3.296875 0 L 1.390625 0 L 1.390625 -10.34375 L 2.96875 -10.34375 L 8.671875 -3.34375 L 8.671875 -10.34375 Z M 10.578125 -10.34375 "/></g></g></g><g fill="#1673ff" fill-opacity="1"><g transform="translate(169.637328, 440.825061)"><g><path d="M 5.859375 -3.65625 L 5.859375 0 L 3.9375 0 L 3.9375 -3.625 L -0.140625 -10.34375 L 1.921875 -10.34375 L 4.953125 -5.3125 L 8.015625 -10.34375 L 9.90625 -10.34375 Z M 5.859375 -3.65625 "/></g></g></g><g fill="#1673ff" fill-opacity="1"><g transform="translate(179.404807, 440.825061)"><g><path d="M 3.484375 -8.71875 L 0.0625 -8.71875 L 0.0625 -10.34375 L 8.84375 -10.34375 L 8.84375 -8.71875 L 5.40625 -8.71875 L 5.40625 0 L 3.484375 0 Z M 3.484375 -8.71875 "/></g></g></g><g fill="#1673ff" fill-opacity="1"><g transform="translate(188.300458, 440.825061)"><g><path d="M 1.390625 -10.34375 L 3.3125 -10.34375 L 3.3125 0 L 1.390625 0 Z M 1.390625 -10.34375 "/></g></g></g><g fill="#1673ff" fill-opacity="1"><g transform="translate(193.014265, 440.825061)"><g><path d="M 10.890625 0 L 10.875 -6.859375 L 7.484375 -1.1875 L 6.625 -1.1875 L 3.21875 -6.765625 L 3.21875 0 L 1.390625 0 L 1.390625 -10.34375 L 2.96875 -10.34375 L 7.078125 -3.484375 L 11.109375 -10.34375 L 12.703125 -10.34375 L 12.71875 0 Z M 10.890625 0 "/></g></g></g><g fill="#1673ff" fill-opacity="1"><g transform="translate(207.126137, 440.825061)"><g><path d="M 9.15625 -1.609375 L 9.15625 0 L 1.390625 0 L 1.390625 -10.34375 L 8.9375 -10.34375 L 8.9375 -8.734375 L 3.3125 -8.734375 L 3.3125 -6.046875 L 8.3125 -6.046875 L 8.3125 -4.46875 L 3.3125 -4.46875 L 3.3125 -1.609375 Z M 9.15625 -1.609375 "/></g></g></g><g fill="#1673ff" fill-opacity="1"><g transform="translate(217.026609, 440.825061)"><g/></g></g><g fill="#1673ff" fill-opacity="1"><g transform="translate(221.105017, 440.825061)"><g><path d="M 8.09375 -2.390625 L 2.921875 -2.390625 L 1.90625 0 L -0.078125 0 L 4.578125 -10.34375 L 6.46875 -10.34375 L 11.140625 0 L 9.140625 0 Z M 7.46875 -3.90625 L 5.515625 -8.421875 L 3.578125 -3.90625 Z M 7.46875 -3.90625 "/></g></g></g><g fill="#1673ff" fill-opacity="1"><g transform="translate(232.172857, 440.825061)"><g><path d="M 10.578125 -10.34375 L 10.578125 0 L 9 0 L 3.296875 -7 L 3.296875 0 L 1.390625 0 L 1.390625 -10.34375 L 2.96875 -10.34375 L 8.671875 -3.34375 L 8.671875 -10.34375 Z M 10.578125 -10.34375 "/></g></g></g><g fill="#1673ff" fill-opacity="1"><g transform="translate(244.142088, 440.825061)"><g><path d="M 5.859375 -3.65625 L 5.859375 0 L 3.9375 0 L 3.9375 -3.625 L -0.140625 -10.34375 L 1.921875 -10.34375 L 4.953125 -5.3125 L 8.015625 -10.34375 L 9.90625 -10.34375 Z M 5.859375 -3.65625 "/></g></g></g><g fill="#1673ff" fill-opacity="1"><g transform="translate(253.909576, 440.825061)"><g><path d="M 16.515625 -10.34375 L 13.078125 0 L 11.046875 0 L 8.484375 -7.65625 L 5.890625 0 L 3.828125 0 L 0.40625 -10.34375 L 2.390625 -10.34375 L 4.96875 -2.484375 L 7.640625 -10.34375 L 9.421875 -10.34375 L 12.03125 -2.4375 L 14.671875 -10.34375 Z M 16.515625 -10.34375 "/></g></g></g><g fill="#1673ff" fill-opacity="1"><g transform="translate(270.814256, 440.825061)"><g><path d="M 10.578125 -10.34375 L 10.578125 0 L 8.65625 0 L 8.65625 -4.4375 L 3.3125 -4.4375 L 3.3125 0 L 1.390625 0 L 1.390625 -10.34375 L 3.3125 -10.34375 L 3.3125 -6.078125 L 8.65625 -6.078125 L 8.65625 -10.34375 Z M 10.578125 -10.34375 "/></g></g></g><g fill="#1673ff" fill-opacity="1"><g transform="translate(282.783478, 440.825061)"><g><path d="M 9.15625 -1.609375 L 9.15625 0 L 1.390625 0 L 1.390625 -10.34375 L 8.9375 -10.34375 L 8.9375 -8.734375 L 3.3125 -8.734375 L 3.3125 -6.046875 L 8.3125 -6.046875 L 8.3125 -4.46875 L 3.3125 -4.46875 L 3.3125 -1.609375 Z M 9.15625 -1.609375 "/></g></g></g><g fill="#1673ff" fill-opacity="1"><g transform="translate(292.683949, 440.825061)"><g><path d="M 8.15625 0 L 6.046875 -3.03125 C 5.953125 -3.019531 5.816406 -3.015625 5.640625 -3.015625 L 3.3125 -3.015625 L 3.3125 0 L 1.390625 0 L 1.390625 -10.34375 L 5.640625 -10.34375 C 6.535156 -10.34375 7.316406 -10.191406 7.984375 -9.890625 C 8.648438 -9.597656 9.160156 -9.175781 9.515625 -8.625 C 9.867188 -8.070312 10.046875 -7.421875 10.046875 -6.671875 C 10.046875 -5.890625 9.851562 -5.21875 9.46875 -4.65625 C 9.09375 -4.09375 8.550781 -3.675781 7.84375 -3.40625 L 10.234375 0 Z M 8.109375 -6.671875 C 8.109375 -7.328125 7.890625 -7.832031 7.453125 -8.1875 C 7.023438 -8.539062 6.394531 -8.71875 5.5625 -8.71875 L 3.3125 -8.71875 L 3.3125 -4.59375 L 5.5625 -4.59375 C 6.394531 -4.59375 7.023438 -4.769531 7.453125 -5.125 C 7.890625 -5.488281 8.109375 -6.003906 8.109375 -6.671875 Z M 8.109375 -6.671875 "/></g></g></g><g fill="#1673ff" fill-opacity="1"><g transform="translate(303.485813, 440.825061)"><g><path d="M 9.15625 -1.609375 L 9.15625 0 L 1.390625 0 L 1.390625 -10.34375 L 8.9375 -10.34375 L 8.9375 -8.734375 L 3.3125 -8.734375 L 3.3125 -6.046875 L 8.3125 -6.046875 L 8.3125 -4.46875 L 3.3125 -4.46875 L 3.3125 -1.609375 Z M 9.15625 -1.609375 "/></g></g></g><g fill="#1673ff" fill-opacity="1"><g transform="translate(431.00126, 202.404918)"><g><path d="M 1.390625 -10.34375 L 3.3125 -10.34375 L 3.3125 0 L 1.390625 0 Z M 1.390625 -10.34375 "/></g></g></g><g fill="#1673ff" fill-opacity="1"><g transform="translate(435.715067, 202.404918)"><g><path d="M 10.578125 -10.34375 L 10.578125 0 L 9 0 L 3.296875 -7 L 3.296875 0 L 1.390625 0 L 1.390625 -10.34375 L 2.96875 -10.34375 L 8.671875 -3.34375 L 8.671875 -10.34375 Z M 10.578125 -10.34375 "/></g></g></g><g fill="#1673ff" fill-opacity="1"><g transform="translate(447.684299, 202.404918)"><g><path d="M 0.8125 -4.875 L 4.875 -4.875 L 4.875 -3.34375 L 0.8125 -3.34375 Z M 0.8125 -4.875 "/></g></g></g><g fill="#1673ff" fill-opacity="1"><g transform="translate(453.373378, 202.404918)"><g><path d="M 1.390625 -10.34375 L 5.90625 -10.34375 C 7.007812 -10.34375 7.988281 -10.128906 8.84375 -9.703125 C 9.707031 -9.273438 10.375 -8.664062 10.84375 -7.875 C 11.320312 -7.09375 11.5625 -6.191406 11.5625 -5.171875 C 11.5625 -4.148438 11.320312 -3.242188 10.84375 -2.453125 C 10.375 -1.671875 9.707031 -1.066406 8.84375 -0.640625 C 7.988281 -0.210938 7.007812 0 5.90625 0 L 1.390625 0 Z M 5.828125 -1.625 C 6.585938 -1.625 7.253906 -1.769531 7.828125 -2.0625 C 8.398438 -2.351562 8.84375 -2.765625 9.15625 -3.296875 C 9.46875 -3.835938 9.625 -4.460938 9.625 -5.171875 C 9.625 -5.878906 9.46875 -6.5 9.15625 -7.03125 C 8.84375 -7.570312 8.398438 -7.988281 7.828125 -8.28125 C 7.253906 -8.570312 6.585938 -8.71875 5.828125 -8.71875 L 3.3125 -8.71875 L 3.3125 -1.625 Z M 5.828125 -1.625 "/></g></g></g><g fill="#1673ff" fill-opacity="1"><g transform="translate(465.579039, 202.404918)"><g><path d="M 9.15625 -1.609375 L 9.15625 0 L 1.390625 0 L 1.390625 -10.34375 L 8.9375 -10.34375 L 8.9375 -8.734375 L 3.3125 -8.734375 L 3.3125 -6.046875 L 8.3125 -6.046875 L 8.3125 -4.46875 L 3.3125 -4.46875 L 3.3125 -1.609375 Z M 9.15625 -1.609375 "/></g></g></g><g fill="#1673ff" fill-opacity="1"><g transform="translate(475.47951, 202.404918)"><g><path d="M 5.640625 -10.34375 C 6.535156 -10.34375 7.316406 -10.191406 7.984375 -9.890625 C 8.648438 -9.597656 9.160156 -9.175781 9.515625 -8.625 C 9.867188 -8.070312 10.046875 -7.421875 10.046875 -6.671875 C 10.046875 -5.921875 9.867188 -5.265625 9.515625 -4.703125 C 9.160156 -4.148438 8.648438 -3.722656 7.984375 -3.421875 C 7.316406 -3.128906 6.535156 -2.984375 5.640625 -2.984375 L 3.3125 -2.984375 L 3.3125 0 L 1.390625 0 L 1.390625 -10.34375 Z M 5.5625 -4.609375 C 6.394531 -4.609375 7.023438 -4.785156 7.453125 -5.140625 C 7.890625 -5.492188 8.109375 -6.003906 8.109375 -6.671875 C 8.109375 -7.328125 7.890625 -7.832031 7.453125 -8.1875 C 7.023438 -8.539062 6.394531 -8.71875 5.5625 -8.71875 L 3.3125 -8.71875 L 3.3125 -4.609375 Z M 5.5625 -4.609375 "/></g></g></g><g fill="#1673ff" fill-opacity="1"><g transform="translate(486.207483, 202.404918)"><g><path d="M 3.484375 -8.71875 L 0.0625 -8.71875 L 0.0625 -10.34375 L 8.84375 -10.34375 L 8.84375 -8.71875 L 5.40625 -8.71875 L 5.40625 0 L 3.484375 0 Z M 3.484375 -8.71875 "/></g></g></g><g fill="#1673ff" fill-opacity="1"><g transform="translate(495.103135, 202.404918)"><g><path d="M 10.578125 -10.34375 L 10.578125 0 L 8.65625 0 L 8.65625 -4.4375 L 3.3125 -4.4375 L 3.3125 0 L 1.390625 0 L 1.390625 -10.34375 L 3.3125 -10.34375 L 3.3125 -6.078125 L 8.65625 -6.078125 L 8.65625 -10.34375 Z M 10.578125 -10.34375 "/></g></g></g><g fill="#1673ff" fill-opacity="1"><g transform="translate(507.072367, 202.404918)"><g/></g></g><g fill="#1673ff" fill-opacity="1"><g transform="translate(511.150776, 202.404918)"><g><path d="M 12.3125 1.03125 C 11.96875 1.4375 11.566406 1.742188 11.109375 1.953125 C 10.648438 2.160156 10.148438 2.265625 9.609375 2.265625 C 8.898438 2.265625 8.25 2.101562 7.65625 1.78125 C 7.0625 1.457031 6.382812 0.90625 5.625 0.125 C 4.675781 0.0390625 3.820312 -0.238281 3.0625 -0.71875 C 2.300781 -1.195312 1.707031 -1.820312 1.28125 -2.59375 C 0.863281 -3.363281 0.65625 -4.222656 0.65625 -5.171875 C 0.65625 -6.179688 0.894531 -7.09375 1.375 -7.90625 C 1.851562 -8.71875 2.515625 -9.351562 3.359375 -9.8125 C 4.210938 -10.269531 5.164062 -10.5 6.21875 -10.5 C 7.269531 -10.5 8.21875 -10.269531 9.0625 -9.8125 C 9.914062 -9.351562 10.582031 -8.71875 11.0625 -7.90625 C 11.550781 -7.101562 11.796875 -6.191406 11.796875 -5.171875 C 11.796875 -4.359375 11.628906 -3.601562 11.296875 -2.90625 C 10.972656 -2.207031 10.519531 -1.613281 9.9375 -1.125 C 9.363281 -0.644531 8.691406 -0.296875 7.921875 -0.078125 C 8.203125 0.234375 8.476562 0.457031 8.75 0.59375 C 9.03125 0.726562 9.332031 0.796875 9.65625 0.796875 C 10.332031 0.796875 10.921875 0.519531 11.421875 -0.03125 Z M 2.59375 -5.171875 C 2.59375 -4.484375 2.75 -3.859375 3.0625 -3.296875 C 3.375 -2.742188 3.804688 -2.3125 4.359375 -2 C 4.910156 -1.6875 5.53125 -1.53125 6.21875 -1.53125 C 6.90625 -1.53125 7.523438 -1.6875 8.078125 -2 C 8.628906 -2.3125 9.0625 -2.742188 9.375 -3.296875 C 9.695312 -3.859375 9.859375 -4.484375 9.859375 -5.171875 C 9.859375 -5.859375 9.695312 -6.476562 9.375 -7.03125 C 9.0625 -7.59375 8.628906 -8.03125 8.078125 -8.34375 C 7.523438 -8.65625 6.90625 -8.8125 6.21875 -8.8125 C 5.53125 -8.8125 4.910156 -8.65625 4.359375 -8.34375 C 3.804688 -8.03125 3.375 -7.59375 3.0625 -7.03125 C 2.75 -6.476562 2.59375 -5.859375 2.59375 -5.171875 Z M 2.59375 -5.171875 "/></g></g></g><g fill="#1673ff" fill-opacity="1"><g transform="translate(523.592866, 202.404918)"><g><path d="M 5.84375 0.140625 C 4.40625 0.140625 3.285156 -0.257812 2.484375 -1.0625 C 1.691406 -1.863281 1.296875 -3.015625 1.296875 -4.515625 L 1.296875 -10.34375 L 3.21875 -10.34375 L 3.21875 -4.578125 C 3.21875 -2.546875 4.097656 -1.53125 5.859375 -1.53125 C 7.597656 -1.53125 8.46875 -2.546875 8.46875 -4.578125 L 8.46875 -10.34375 L 10.359375 -10.34375 L 10.359375 -4.515625 C 10.359375 -3.015625 9.960938 -1.863281 9.171875 -1.0625 C 8.378906 -0.257812 7.269531 0.140625 5.84375 0.140625 Z M 5.84375 0.140625 "/></g></g></g><g fill="#1673ff" fill-opacity="1"><g transform="translate(535.251778, 202.404918)"><g><path d="M 8.09375 -2.390625 L 2.921875 -2.390625 L 1.90625 0 L -0.078125 0 L 4.578125 -10.34375 L 6.46875 -10.34375 L 11.140625 0 L 9.140625 0 Z M 7.46875 -3.90625 L 5.515625 -8.421875 L 3.578125 -3.90625 Z M 7.46875 -3.90625 "/></g></g></g><g fill="#1673ff" fill-opacity="1"><g transform="translate(546.319617, 202.404918)"><g><path d="M 1.390625 -10.34375 L 3.3125 -10.34375 L 3.3125 -1.625 L 8.71875 -1.625 L 8.71875 0 L 1.390625 0 Z M 1.390625 -10.34375 "/></g></g></g><g fill="#1673ff" fill-opacity="1"><g transform="translate(555.170935, 202.404918)"><g><path d="M 1.390625 -10.34375 L 3.3125 -10.34375 L 3.3125 0 L 1.390625 0 Z M 1.390625 -10.34375 "/></g></g></g><g fill="#1673ff" fill-opacity="1"><g transform="translate(559.884741, 202.404918)"><g><path d="M 3.484375 -8.71875 L 0.0625 -8.71875 L 0.0625 -10.34375 L 8.84375 -10.34375 L 8.84375 -8.71875 L 5.40625 -8.71875 L 5.40625 0 L 3.484375 0 Z M 3.484375 -8.71875 "/></g></g></g><g fill="#1673ff" fill-opacity="1"><g transform="translate(568.780393, 202.404918)"><g><path d="M 5.859375 -3.65625 L 5.859375 0 L 3.9375 0 L 3.9375 -3.625 L -0.140625 -10.34375 L 1.921875 -10.34375 L 4.953125 -5.3125 L 8.015625 -10.34375 L 9.90625 -10.34375 Z M 5.859375 -3.65625 "/></g></g></g><g fill="#1673ff" fill-opacity="1"><g transform="translate(578.547871, 202.404918)"><g/></g></g><g fill="#1673ff" fill-opacity="1"><g transform="translate(582.62628, 202.404918)"><g><path d="M 8.15625 0 L 6.046875 -3.03125 C 5.953125 -3.019531 5.816406 -3.015625 5.640625 -3.015625 L 3.3125 -3.015625 L 3.3125 0 L 1.390625 0 L 1.390625 -10.34375 L 5.640625 -10.34375 C 6.535156 -10.34375 7.316406 -10.191406 7.984375 -9.890625 C 8.648438 -9.597656 9.160156 -9.175781 9.515625 -8.625 C 9.867188 -8.070312 10.046875 -7.421875 10.046875 -6.671875 C 10.046875 -5.890625 9.851562 -5.21875 9.46875 -4.65625 C 9.09375 -4.09375 8.550781 -3.675781 7.84375 -3.40625 L 10.234375 0 Z M 8.109375 -6.671875 C 8.109375 -7.328125 7.890625 -7.832031 7.453125 -8.1875 C 7.023438 -8.539062 6.394531 -8.71875 5.5625 -8.71875 L 3.3125 -8.71875 L 3.3125 -4.59375 L 5.5625 -4.59375 C 6.394531 -4.59375 7.023438 -4.769531 7.453125 -5.125 C 7.890625 -5.488281 8.109375 -6.003906 8.109375 -6.671875 Z M 8.109375 -6.671875 "/></g></g></g><g fill="#1673ff" fill-opacity="1"><g transform="translate(593.428153, 202.404918)"><g><path d="M 9.15625 -1.609375 L 9.15625 0 L 1.390625 0 L 1.390625 -10.34375 L 8.9375 -10.34375 L 8.9375 -8.734375 L 3.3125 -8.734375 L 3.3125 -6.046875 L 8.3125 -6.046875 L 8.3125 -4.46875 L 3.3125 -4.46875 L 3.3125 -1.609375 Z M 9.15625 -1.609375 "/></g></g></g><g fill="#1673ff" fill-opacity="1"><g transform="translate(603.328624, 202.404918)"><g><path d="M 4.59375 0.140625 C 3.800781 0.140625 3.03125 0.03125 2.28125 -0.1875 C 1.539062 -0.414062 0.953125 -0.71875 0.515625 -1.09375 L 1.1875 -2.59375 C 1.601562 -2.25 2.117188 -1.972656 2.734375 -1.765625 C 3.359375 -1.554688 3.976562 -1.453125 4.59375 -1.453125 C 5.363281 -1.453125 5.9375 -1.570312 6.3125 -1.8125 C 6.695312 -2.0625 6.890625 -2.390625 6.890625 -2.796875 C 6.890625 -3.085938 6.78125 -3.328125 6.5625 -3.515625 C 6.351562 -3.710938 6.085938 -3.863281 5.765625 -3.96875 C 5.441406 -4.082031 5 -4.207031 4.4375 -4.34375 C 3.644531 -4.53125 3.003906 -4.71875 2.515625 -4.90625 C 2.023438 -5.09375 1.601562 -5.382812 1.25 -5.78125 C 0.90625 -6.1875 0.734375 -6.726562 0.734375 -7.40625 C 0.734375 -7.976562 0.890625 -8.5 1.203125 -8.96875 C 1.515625 -9.4375 1.984375 -9.804688 2.609375 -10.078125 C 3.234375 -10.359375 4 -10.5 4.90625 -10.5 C 5.539062 -10.5 6.160156 -10.414062 6.765625 -10.25 C 7.378906 -10.09375 7.90625 -9.867188 8.34375 -9.578125 L 7.75 -8.078125 C 7.289062 -8.347656 6.816406 -8.550781 6.328125 -8.6875 C 5.835938 -8.820312 5.359375 -8.890625 4.890625 -8.890625 C 4.128906 -8.890625 3.5625 -8.757812 3.1875 -8.5 C 2.820312 -8.25 2.640625 -7.914062 2.640625 -7.5 C 2.640625 -7.195312 2.742188 -6.953125 2.953125 -6.765625 C 3.171875 -6.578125 3.441406 -6.425781 3.765625 -6.3125 C 4.085938 -6.207031 4.53125 -6.085938 5.09375 -5.953125 C 5.863281 -5.773438 6.492188 -5.585938 6.984375 -5.390625 C 7.484375 -5.203125 7.90625 -4.910156 8.25 -4.515625 C 8.601562 -4.128906 8.78125 -3.597656 8.78125 -2.921875 C 8.78125 -2.347656 8.625 -1.832031 8.3125 -1.375 C 8 -0.914062 7.523438 -0.546875 6.890625 -0.265625 C 6.265625 0.00390625 5.5 0.140625 4.59375 0.140625 Z M 4.59375 0.140625 "/></g></g></g><g fill="#1673ff" fill-opacity="1"><g transform="translate(612.623244, 202.404918)"><g><path d="M 9.15625 -1.609375 L 9.15625 0 L 1.390625 0 L 1.390625 -10.34375 L 8.9375 -10.34375 L 8.9375 -8.734375 L 3.3125 -8.734375 L 3.3125 -6.046875 L 8.3125 -6.046875 L 8.3125 -4.46875 L 3.3125 -4.46875 L 3.3125 -1.609375 Z M 9.15625 -1.609375 "/></g></g></g><g fill="#1673ff" fill-opacity="1"><g transform="translate(622.523715, 202.404918)"><g><path d="M 8.09375 -2.390625 L 2.921875 -2.390625 L 1.90625 0 L -0.078125 0 L 4.578125 -10.34375 L 6.46875 -10.34375 L 11.140625 0 L 9.140625 0 Z M 7.46875 -3.90625 L 5.515625 -8.421875 L 3.578125 -3.90625 Z M 7.46875 -3.90625 "/></g></g></g><g fill="#1673ff" fill-opacity="1"><g transform="translate(633.591545, 202.404918)"><g><path d="M 8.15625 0 L 6.046875 -3.03125 C 5.953125 -3.019531 5.816406 -3.015625 5.640625 -3.015625 L 3.3125 -3.015625 L 3.3125 0 L 1.390625 0 L 1.390625 -10.34375 L 5.640625 -10.34375 C 6.535156 -10.34375 7.316406 -10.191406 7.984375 -9.890625 C 8.648438 -9.597656 9.160156 -9.175781 9.515625 -8.625 C 9.867188 -8.070312 10.046875 -7.421875 10.046875 -6.671875 C 10.046875 -5.890625 9.851562 -5.21875 9.46875 -4.65625 C 9.09375 -4.09375 8.550781 -3.675781 7.84375 -3.40625 L 10.234375 0 Z M 8.109375 -6.671875 C 8.109375 -7.328125 7.890625 -7.832031 7.453125 -8.1875 C 7.023438 -8.539062 6.394531 -8.71875 5.5625 -8.71875 L 3.3125 -8.71875 L 3.3125 -4.59375 L 5.5625 -4.59375 C 6.394531 -4.59375 7.023438 -4.769531 7.453125 -5.125 C 7.890625 -5.488281 8.109375 -6.003906 8.109375 -6.671875 Z M 8.109375 -6.671875 "/></g></g></g><g fill="#1673ff" fill-opacity="1"><g transform="translate(644.393409, 202.404918)"><g><path d="M 6.171875 0.140625 C 5.128906 0.140625 4.1875 -0.0859375 3.34375 -0.546875 C 2.5 -1.003906 1.835938 -1.632812 1.359375 -2.4375 C 0.890625 -3.25 0.65625 -4.160156 0.65625 -5.171875 C 0.65625 -6.191406 0.894531 -7.101562 1.375 -7.90625 C 1.851562 -8.71875 2.515625 -9.351562 3.359375 -9.8125 C 4.203125 -10.269531 5.144531 -10.5 6.1875 -10.5 C 7.039062 -10.5 7.816406 -10.347656 8.515625 -10.046875 C 9.210938 -9.753906 9.800781 -9.328125 10.28125 -8.765625 L 9.046875 -7.59375 C 8.296875 -8.40625 7.375 -8.8125 6.28125 -8.8125 C 5.570312 -8.8125 4.9375 -8.65625 4.375 -8.34375 C 3.8125 -8.03125 3.375 -7.597656 3.0625 -7.046875 C 2.75 -6.492188 2.59375 -5.867188 2.59375 -5.171875 C 2.59375 -4.472656 2.75 -3.847656 3.0625 -3.296875 C 3.375 -2.742188 3.8125 -2.3125 4.375 -2 C 4.9375 -1.6875 5.570312 -1.53125 6.28125 -1.53125 C 7.375 -1.53125 8.296875 -1.941406 9.046875 -2.765625 L 10.28125 -1.578125 C 9.800781 -1.015625 9.207031 -0.585938 8.5 -0.296875 C 7.800781 -0.00390625 7.023438 0.140625 6.171875 0.140625 Z M 6.171875 0.140625 "/></g></g></g><g fill="#1673ff" fill-opacity="1"><g transform="translate(655.13616, 202.404918)"><g><path d="M 10.578125 -10.34375 L 10.578125 0 L 8.65625 0 L 8.65625 -4.4375 L 3.3125 -4.4375 L 3.3125 0 L 1.390625 0 L 1.390625 -10.34375 L 3.3125 -10.34375 L 3.3125 -6.078125 L 8.65625 -6.078125 L 8.65625 -10.34375 Z M 10.578125 -10.34375 "/></g></g></g><g fill="#1673ff" fill-opacity="1"><g transform="translate(391.838189, 440.825061)"><g><path d="M 5.640625 -10.34375 C 6.535156 -10.34375 7.316406 -10.191406 7.984375 -9.890625 C 8.648438 -9.597656 9.160156 -9.175781 9.515625 -8.625 C 9.867188 -8.070312 10.046875 -7.421875 10.046875 -6.671875 C 10.046875 -5.921875 9.867188 -5.265625 9.515625 -4.703125 C 9.160156 -4.148438 8.648438 -3.722656 7.984375 -3.421875 C 7.316406 -3.128906 6.535156 -2.984375 5.640625 -2.984375 L 3.3125 -2.984375 L 3.3125 0 L 1.390625 0 L 1.390625 -10.34375 Z M 5.5625 -4.609375 C 6.394531 -4.609375 7.023438 -4.785156 7.453125 -5.140625 C 7.890625 -5.492188 8.109375 -6.003906 8.109375 -6.671875 C 8.109375 -7.328125 7.890625 -7.832031 7.453125 -8.1875 C 7.023438 -8.539062 6.394531 -8.71875 5.5625 -8.71875 L 3.3125 -8.71875 L 3.3125 -4.609375 Z M 5.5625 -4.609375 "/></g></g></g><g fill="#1673ff" fill-opacity="1"><g transform="translate(402.566162, 440.825061)"><g><path d="M 9.15625 -1.609375 L 9.15625 0 L 1.390625 0 L 1.390625 -10.34375 L 8.9375 -10.34375 L 8.9375 -8.734375 L 3.3125 -8.734375 L 3.3125 -6.046875 L 8.3125 -6.046875 L 8.3125 -4.46875 L 3.3125 -4.46875 L 3.3125 -1.609375 Z M 9.15625 -1.609375 "/></g></g></g><g fill="#1673ff" fill-opacity="1"><g transform="translate(412.466633, 440.825061)"><g><path d="M 8.15625 0 L 6.046875 -3.03125 C 5.953125 -3.019531 5.816406 -3.015625 5.640625 -3.015625 L 3.3125 -3.015625 L 3.3125 0 L 1.390625 0 L 1.390625 -10.34375 L 5.640625 -10.34375 C 6.535156 -10.34375 7.316406 -10.191406 7.984375 -9.890625 C 8.648438 -9.597656 9.160156 -9.175781 9.515625 -8.625 C 9.867188 -8.070312 10.046875 -7.421875 10.046875 -6.671875 C 10.046875 -5.890625 9.851562 -5.21875 9.46875 -4.65625 C 9.09375 -4.09375 8.550781 -3.675781 7.84375 -3.40625 L 10.234375 0 Z M 8.109375 -6.671875 C 8.109375 -7.328125 7.890625 -7.832031 7.453125 -8.1875 C 7.023438 -8.539062 6.394531 -8.71875 5.5625 -8.71875 L 3.3125 -8.71875 L 3.3125 -4.59375 L 5.5625 -4.59375 C 6.394531 -4.59375 7.023438 -4.769531 7.453125 -5.125 C 7.890625 -5.488281 8.109375 -6.003906 8.109375 -6.671875 Z M 8.109375 -6.671875 "/></g></g></g><g fill="#1673ff" fill-opacity="1"><g transform="translate(423.268497, 440.825061)"><g><path d="M 4.59375 0.140625 C 3.800781 0.140625 3.03125 0.03125 2.28125 -0.1875 C 1.539062 -0.414062 0.953125 -0.71875 0.515625 -1.09375 L 1.1875 -2.59375 C 1.601562 -2.25 2.117188 -1.972656 2.734375 -1.765625 C 3.359375 -1.554688 3.976562 -1.453125 4.59375 -1.453125 C 5.363281 -1.453125 5.9375 -1.570312 6.3125 -1.8125 C 6.695312 -2.0625 6.890625 -2.390625 6.890625 -2.796875 C 6.890625 -3.085938 6.78125 -3.328125 6.5625 -3.515625 C 6.351562 -3.710938 6.085938 -3.863281 5.765625 -3.96875 C 5.441406 -4.082031 5 -4.207031 4.4375 -4.34375 C 3.644531 -4.53125 3.003906 -4.71875 2.515625 -4.90625 C 2.023438 -5.09375 1.601562 -5.382812 1.25 -5.78125 C 0.90625 -6.1875 0.734375 -6.726562 0.734375 -7.40625 C 0.734375 -7.976562 0.890625 -8.5 1.203125 -8.96875 C 1.515625 -9.4375 1.984375 -9.804688 2.609375 -10.078125 C 3.234375 -10.359375 4 -10.5 4.90625 -10.5 C 5.539062 -10.5 6.160156 -10.414062 6.765625 -10.25 C 7.378906 -10.09375 7.90625 -9.867188 8.34375 -9.578125 L 7.75 -8.078125 C 7.289062 -8.347656 6.816406 -8.550781 6.328125 -8.6875 C 5.835938 -8.820312 5.359375 -8.890625 4.890625 -8.890625 C 4.128906 -8.890625 3.5625 -8.757812 3.1875 -8.5 C 2.820312 -8.25 2.640625 -7.914062 2.640625 -7.5 C 2.640625 -7.195312 2.742188 -6.953125 2.953125 -6.765625 C 3.171875 -6.578125 3.441406 -6.425781 3.765625 -6.3125 C 4.085938 -6.207031 4.53125 -6.085938 5.09375 -5.953125 C 5.863281 -5.773438 6.492188 -5.585938 6.984375 -5.390625 C 7.484375 -5.203125 7.90625 -4.910156 8.25 -4.515625 C 8.601562 -4.128906 8.78125 -3.597656 8.78125 -2.921875 C 8.78125 -2.347656 8.625 -1.832031 8.3125 -1.375 C 8 -0.914062 7.523438 -0.546875 6.890625 -0.265625 C 6.265625 0.00390625 5.5 0.140625 4.59375 0.140625 Z M 4.59375 0.140625 "/></g></g></g><g fill="#1673ff" fill-opacity="1"><g transform="translate(432.563117, 440.825061)"><g><path d="M 6.21875 0.140625 C 5.164062 0.140625 4.210938 -0.0859375 3.359375 -0.546875 C 2.515625 -1.003906 1.851562 -1.640625 1.375 -2.453125 C 0.894531 -3.265625 0.65625 -4.171875 0.65625 -5.171875 C 0.65625 -6.179688 0.894531 -7.09375 1.375 -7.90625 C 1.851562 -8.71875 2.515625 -9.351562 3.359375 -9.8125 C 4.210938 -10.269531 5.164062 -10.5 6.21875 -10.5 C 7.269531 -10.5 8.21875 -10.269531 9.0625 -9.8125 C 9.914062 -9.351562 10.582031 -8.71875 11.0625 -7.90625 C 11.550781 -7.101562 11.796875 -6.191406 11.796875 -5.171875 C 11.796875 -4.160156 11.550781 -3.25 11.0625 -2.4375 C 10.582031 -1.632812 9.914062 -1.003906 9.0625 -0.546875 C 8.21875 -0.0859375 7.269531 0.140625 6.21875 0.140625 Z M 6.21875 -1.53125 C 6.90625 -1.53125 7.523438 -1.6875 8.078125 -2 C 8.628906 -2.3125 9.0625 -2.742188 9.375 -3.296875 C 9.695312 -3.859375 9.859375 -4.484375 9.859375 -5.171875 C 9.859375 -5.859375 9.695312 -6.476562 9.375 -7.03125 C 9.0625 -7.59375 8.628906 -8.03125 8.078125 -8.34375 C 7.523438 -8.65625 6.90625 -8.8125 6.21875 -8.8125 C 5.53125 -8.8125 4.910156 -8.65625 4.359375 -8.34375 C 3.804688 -8.03125 3.375 -7.59375 3.0625 -7.03125 C 2.75 -6.476562 2.59375 -5.859375 2.59375 -5.171875 C 2.59375 -4.484375 2.75 -3.859375 3.0625 -3.296875 C 3.375 -2.742188 3.804688 -2.3125 4.359375 -2 C 4.910156 -1.6875 5.53125 -1.53125 6.21875 -1.53125 Z M 6.21875 -1.53125 "/></g></g></g><g fill="#1673ff" fill-opacity="1"><g transform="translate(445.005207, 440.825061)"><g><path d="M 10.578125 -10.34375 L 10.578125 0 L 9 0 L 3.296875 -7 L 3.296875 0 L 1.390625 0 L 1.390625 -10.34375 L 2.96875 -10.34375 L 8.671875 -3.34375 L 8.671875 -10.34375 Z M 10.578125 -10.34375 "/></g></g></g><g fill="#1673ff" fill-opacity="1"><g transform="translate(456.974438, 440.825061)"><g><path d="M 8.09375 -2.390625 L 2.921875 -2.390625 L 1.90625 0 L -0.078125 0 L 4.578125 -10.34375 L 6.46875 -10.34375 L 11.140625 0 L 9.140625 0 Z M 7.46875 -3.90625 L 5.515625 -8.421875 L 3.578125 -3.90625 Z M 7.46875 -3.90625 "/></g></g></g><g fill="#1673ff" fill-opacity="1"><g transform="translate(468.042278, 440.825061)"><g><path d="M 1.390625 -10.34375 L 3.3125 -10.34375 L 3.3125 -1.625 L 8.71875 -1.625 L 8.71875 0 L 1.390625 0 Z M 1.390625 -10.34375 "/></g></g></g><g fill="#1673ff" fill-opacity="1"><g transform="translate(476.893595, 440.825061)"><g><path d="M 1.390625 -10.34375 L 3.3125 -10.34375 L 3.3125 0 L 1.390625 0 Z M 1.390625 -10.34375 "/></g></g></g><g fill="#1673ff" fill-opacity="1"><g transform="translate(481.607402, 440.825061)"><g><path d="M 9.4375 -1.625 L 9.4375 0 L 0.609375 0 L 0.609375 -1.28125 L 6.703125 -8.71875 L 0.703125 -8.71875 L 0.703125 -10.34375 L 9.234375 -10.34375 L 9.234375 -9.0625 L 3.140625 -1.625 Z M 9.4375 -1.625 "/></g></g></g><g fill="#1673ff" fill-opacity="1"><g transform="translate(491.404436, 440.825061)"><g><path d="M 9.15625 -1.609375 L 9.15625 0 L 1.390625 0 L 1.390625 -10.34375 L 8.9375 -10.34375 L 8.9375 -8.734375 L 3.3125 -8.734375 L 3.3125 -6.046875 L 8.3125 -6.046875 L 8.3125 -4.46875 L 3.3125 -4.46875 L 3.3125 -1.609375 Z M 9.15625 -1.609375 "/></g></g></g><g fill="#1673ff" fill-opacity="1"><g transform="translate(501.304907, 440.825061)"><g><path d="M 1.390625 -10.34375 L 5.90625 -10.34375 C 7.007812 -10.34375 7.988281 -10.128906 8.84375 -9.703125 C 9.707031 -9.273438 10.375 -8.664062 10.84375 -7.875 C 11.320312 -7.09375 11.5625 -6.191406 11.5625 -5.171875 C 11.5625 -4.148438 11.320312 -3.242188 10.84375 -2.453125 C 10.375 -1.671875 9.707031 -1.066406 8.84375 -0.640625 C 7.988281 -0.210938 7.007812 0 5.90625 0 L 1.390625 0 Z M 5.828125 -1.625 C 6.585938 -1.625 7.253906 -1.769531 7.828125 -2.0625 C 8.398438 -2.351562 8.84375 -2.765625 9.15625 -3.296875 C 9.46875 -3.835938 9.625 -4.460938 9.625 -5.171875 C 9.625 -5.878906 9.46875 -6.5 9.15625 -7.03125 C 8.84375 -7.570312 8.398438 -7.988281 7.828125 -8.28125 C 7.253906 -8.570312 6.585938 -8.71875 5.828125 -8.71875 L 3.3125 -8.71875 L 3.3125 -1.625 Z M 5.828125 -1.625 "/></g></g></g><g fill="#1673ff" fill-opacity="1"><g transform="translate(513.510568, 440.825061)"><g/></g></g><g fill="#1673ff" fill-opacity="1"><g transform="translate(517.588977, 440.825061)"><g><path d="M 6.171875 0.140625 C 5.128906 0.140625 4.1875 -0.0859375 3.34375 -0.546875 C 2.5 -1.003906 1.835938 -1.632812 1.359375 -2.4375 C 0.890625 -3.25 0.65625 -4.160156 0.65625 -5.171875 C 0.65625 -6.191406 0.894531 -7.101562 1.375 -7.90625 C 1.851562 -8.71875 2.515625 -9.351562 3.359375 -9.8125 C 4.203125 -10.269531 5.144531 -10.5 6.1875 -10.5 C 7.039062 -10.5 7.816406 -10.347656 8.515625 -10.046875 C 9.210938 -9.753906 9.800781 -9.328125 10.28125 -8.765625 L 9.046875 -7.59375 C 8.296875 -8.40625 7.375 -8.8125 6.28125 -8.8125 C 5.570312 -8.8125 4.9375 -8.65625 4.375 -8.34375 C 3.8125 -8.03125 3.375 -7.597656 3.0625 -7.046875 C 2.75 -6.492188 2.59375 -5.867188 2.59375 -5.171875 C 2.59375 -4.472656 2.75 -3.847656 3.0625 -3.296875 C 3.375 -2.742188 3.8125 -2.3125 4.375 -2 C 4.9375 -1.6875 5.570312 -1.53125 6.28125 -1.53125 C 7.375 -1.53125 8.296875 -1.941406 9.046875 -2.765625 L 10.28125 -1.578125 C 9.800781 -1.015625 9.207031 -0.585938 8.5 -0.296875 C 7.800781 -0.00390625 7.023438 0.140625 6.171875 0.140625 Z M 6.171875 0.140625 "/></g></g></g><g fill="#1673ff" fill-opacity="1"><g transform="translate(528.331728, 440.825061)"><g><path d="M 5.84375 0.140625 C 4.40625 0.140625 3.285156 -0.257812 2.484375 -1.0625 C 1.691406 -1.863281 1.296875 -3.015625 1.296875 -4.515625 L 1.296875 -10.34375 L 3.21875 -10.34375 L 3.21875 -4.578125 C 3.21875 -2.546875 4.097656 -1.53125 5.859375 -1.53125 C 7.597656 -1.53125 8.46875 -2.546875 8.46875 -4.578125 L 8.46875 -10.34375 L 10.359375 -10.34375 L 10.359375 -4.515625 C 10.359375 -3.015625 9.960938 -1.863281 9.171875 -1.0625 C 8.378906 -0.257812 7.269531 0.140625 5.84375 0.140625 Z M 5.84375 0.140625 "/></g></g></g><g fill="#1673ff" fill-opacity="1"><g transform="translate(539.990641, 440.825061)"><g><path d="M 4.59375 0.140625 C 3.800781 0.140625 3.03125 0.03125 2.28125 -0.1875 C 1.539062 -0.414062 0.953125 -0.71875 0.515625 -1.09375 L 1.1875 -2.59375 C 1.601562 -2.25 2.117188 -1.972656 2.734375 -1.765625 C 3.359375 -1.554688 3.976562 -1.453125 4.59375 -1.453125 C 5.363281 -1.453125 5.9375 -1.570312 6.3125 -1.8125 C 6.695312 -2.0625 6.890625 -2.390625 6.890625 -2.796875 C 6.890625 -3.085938 6.78125 -3.328125 6.5625 -3.515625 C 6.351562 -3.710938 6.085938 -3.863281 5.765625 -3.96875 C 5.441406 -4.082031 5 -4.207031 4.4375 -4.34375 C 3.644531 -4.53125 3.003906 -4.71875 2.515625 -4.90625 C 2.023438 -5.09375 1.601562 -5.382812 1.25 -5.78125 C 0.90625 -6.1875 0.734375 -6.726562 0.734375 -7.40625 C 0.734375 -7.976562 0.890625 -8.5 1.203125 -8.96875 C 1.515625 -9.4375 1.984375 -9.804688 2.609375 -10.078125 C 3.234375 -10.359375 4 -10.5 4.90625 -10.5 C 5.539062 -10.5 6.160156 -10.414062 6.765625 -10.25 C 7.378906 -10.09375 7.90625 -9.867188 8.34375 -9.578125 L 7.75 -8.078125 C 7.289062 -8.347656 6.816406 -8.550781 6.328125 -8.6875 C 5.835938 -8.820312 5.359375 -8.890625 4.890625 -8.890625 C 4.128906 -8.890625 3.5625 -8.757812 3.1875 -8.5 C 2.820312 -8.25 2.640625 -7.914062 2.640625 -7.5 C 2.640625 -7.195312 2.742188 -6.953125 2.953125 -6.765625 C 3.171875 -6.578125 3.441406 -6.425781 3.765625 -6.3125 C 4.085938 -6.207031 4.53125 -6.085938 5.09375 -5.953125 C 5.863281 -5.773438 6.492188 -5.585938 6.984375 -5.390625 C 7.484375 -5.203125 7.90625 -4.910156 8.25 -4.515625 C 8.601562 -4.128906 8.78125 -3.597656 8.78125 -2.921875 C 8.78125 -2.347656 8.625 -1.832031 8.3125 -1.375 C 8 -0.914062 7.523438 -0.546875 6.890625 -0.265625 C 6.265625 0.00390625 5.5 0.140625 4.59375 0.140625 Z M 4.59375 0.140625 "/></g></g></g><g fill="#1673ff" fill-opacity="1"><g transform="translate(549.285261, 440.825061)"><g><path d="M 3.484375 -8.71875 L 0.0625 -8.71875 L 0.0625 -10.34375 L 8.84375 -10.34375 L 8.84375 -8.71875 L 5.40625 -8.71875 L 5.40625 0 L 3.484375 0 Z M 3.484375 -8.71875 "/></g></g></g><g fill="#1673ff" fill-opacity="1"><g transform="translate(558.180922, 440.825061)"><g><path d="M 6.21875 0.140625 C 5.164062 0.140625 4.210938 -0.0859375 3.359375 -0.546875 C 2.515625 -1.003906 1.851562 -1.640625 1.375 -2.453125 C 0.894531 -3.265625 0.65625 -4.171875 0.65625 -5.171875 C 0.65625 -6.179688 0.894531 -7.09375 1.375 -7.90625 C 1.851562 -8.71875 2.515625 -9.351562 3.359375 -9.8125 C 4.210938 -10.269531 5.164062 -10.5 6.21875 -10.5 C 7.269531 -10.5 8.21875 -10.269531 9.0625 -9.8125 C 9.914062 -9.351562 10.582031 -8.71875 11.0625 -7.90625 C 11.550781 -7.101562 11.796875 -6.191406 11.796875 -5.171875 C 11.796875 -4.160156 11.550781 -3.25 11.0625 -2.4375 C 10.582031 -1.632812 9.914062 -1.003906 9.0625 -0.546875 C 8.21875 -0.0859375 7.269531 0.140625 6.21875 0.140625 Z M 6.21875 -1.53125 C 6.90625 -1.53125 7.523438 -1.6875 8.078125 -2 C 8.628906 -2.3125 9.0625 -2.742188 9.375 -3.296875 C 9.695312 -3.859375 9.859375 -4.484375 9.859375 -5.171875 C 9.859375 -5.859375 9.695312 -6.476562 9.375 -7.03125 C 9.0625 -7.59375 8.628906 -8.03125 8.078125 -8.34375 C 7.523438 -8.65625 6.90625 -8.8125 6.21875 -8.8125 C 5.53125 -8.8125 4.910156 -8.65625 4.359375 -8.34375 C 3.804688 -8.03125 3.375 -7.59375 3.0625 -7.03125 C 2.75 -6.476562 2.59375 -5.859375 2.59375 -5.171875 C 2.59375 -4.484375 2.75 -3.859375 3.0625 -3.296875 C 3.375 -2.742188 3.804688 -2.3125 4.359375 -2 C 4.910156 -1.6875 5.53125 -1.53125 6.21875 -1.53125 Z M 6.21875 -1.53125 "/></g></g></g><g fill="#1673ff" fill-opacity="1"><g transform="translate(570.623002, 440.825061)"><g><path d="M 10.890625 0 L 10.875 -6.859375 L 7.484375 -1.1875 L 6.625 -1.1875 L 3.21875 -6.765625 L 3.21875 0 L 1.390625 0 L 1.390625 -10.34375 L 2.96875 -10.34375 L 7.078125 -3.484375 L 11.109375 -10.34375 L 12.703125 -10.34375 L 12.71875 0 Z M 10.890625 0 "/></g></g></g><g fill="#1673ff" fill-opacity="1"><g transform="translate(584.734875, 440.825061)"><g><path d="M 9.15625 -1.609375 L 9.15625 0 L 1.390625 0 L 1.390625 -10.34375 L 8.9375 -10.34375 L 8.9375 -8.734375 L 3.3125 -8.734375 L 3.3125 -6.046875 L 8.3125 -6.046875 L 8.3125 -4.46875 L 3.3125 -4.46875 L 3.3125 -1.609375 Z M 9.15625 -1.609375 "/></g></g></g><g fill="#1673ff" fill-opacity="1"><g transform="translate(594.635346, 440.825061)"><g><path d="M 8.15625 0 L 6.046875 -3.03125 C 5.953125 -3.019531 5.816406 -3.015625 5.640625 -3.015625 L 3.3125 -3.015625 L 3.3125 0 L 1.390625 0 L 1.390625 -10.34375 L 5.640625 -10.34375 C 6.535156 -10.34375 7.316406 -10.191406 7.984375 -9.890625 C 8.648438 -9.597656 9.160156 -9.175781 9.515625 -8.625 C 9.867188 -8.070312 10.046875 -7.421875 10.046875 -6.671875 C 10.046875 -5.890625 9.851562 -5.21875 9.46875 -4.65625 C 9.09375 -4.09375 8.550781 -3.675781 7.84375 -3.40625 L 10.234375 0 Z M 8.109375 -6.671875 C 8.109375 -7.328125 7.890625 -7.832031 7.453125 -8.1875 C 7.023438 -8.539062 6.394531 -8.71875 5.5625 -8.71875 L 3.3125 -8.71875 L 3.3125 -4.59375 L 5.5625 -4.59375 C 6.394531 -4.59375 7.023438 -4.769531 7.453125 -5.125 C 7.890625 -5.488281 8.109375 -6.003906 8.109375 -6.671875 Z M 8.109375 -6.671875 "/></g></g></g><g fill="#1673ff" fill-opacity="1"><g transform="translate(605.43721, 440.825061)"><g/></g></g><g fill="#1673ff" fill-opacity="1"><g transform="translate(609.515619, 440.825061)"><g><path d="M 4.59375 0.140625 C 3.800781 0.140625 3.03125 0.03125 2.28125 -0.1875 C 1.539062 -0.414062 0.953125 -0.71875 0.515625 -1.09375 L 1.1875 -2.59375 C 1.601562 -2.25 2.117188 -1.972656 2.734375 -1.765625 C 3.359375 -1.554688 3.976562 -1.453125 4.59375 -1.453125 C 5.363281 -1.453125 5.9375 -1.570312 6.3125 -1.8125 C 6.695312 -2.0625 6.890625 -2.390625 6.890625 -2.796875 C 6.890625 -3.085938 6.78125 -3.328125 6.5625 -3.515625 C 6.351562 -3.710938 6.085938 -3.863281 5.765625 -3.96875 C 5.441406 -4.082031 5 -4.207031 4.4375 -4.34375 C 3.644531 -4.53125 3.003906 -4.71875 2.515625 -4.90625 C 2.023438 -5.09375 1.601562 -5.382812 1.25 -5.78125 C 0.90625 -6.1875 0.734375 -6.726562 0.734375 -7.40625 C 0.734375 -7.976562 0.890625 -8.5 1.203125 -8.96875 C 1.515625 -9.4375 1.984375 -9.804688 2.609375 -10.078125 C 3.234375 -10.359375 4 -10.5 4.90625 -10.5 C 5.539062 -10.5 6.160156 -10.414062 6.765625 -10.25 C 7.378906 -10.09375 7.90625 -9.867188 8.34375 -9.578125 L 7.75 -8.078125 C 7.289062 -8.347656 6.816406 -8.550781 6.328125 -8.6875 C 5.835938 -8.820312 5.359375 -8.890625 4.890625 -8.890625 C 4.128906 -8.890625 3.5625 -8.757812 3.1875 -8.5 C 2.820312 -8.25 2.640625 -7.914062 2.640625 -7.5 C 2.640625 -7.195312 2.742188 -6.953125 2.953125 -6.765625 C 3.171875 -6.578125 3.441406 -6.425781 3.765625 -6.3125 C 4.085938 -6.207031 4.53125 -6.085938 5.09375 -5.953125 C 5.863281 -5.773438 6.492188 -5.585938 6.984375 -5.390625 C 7.484375 -5.203125 7.90625 -4.910156 8.25 -4.515625 C 8.601562 -4.128906 8.78125 -3.597656 8.78125 -2.921875 C 8.78125 -2.347656 8.625 -1.832031 8.3125 -1.375 C 8 -0.914062 7.523438 -0.546875 6.890625 -0.265625 C 6.265625 0.00390625 5.5 0.140625 4.59375 0.140625 Z M 4.59375 0.140625 "/></g></g></g><g fill="#1673ff" fill-opacity="1"><g transform="translate(618.810239, 440.825061)"><g><path d="M 5.84375 0.140625 C 4.40625 0.140625 3.285156 -0.257812 2.484375 -1.0625 C 1.691406 -1.863281 1.296875 -3.015625 1.296875 -4.515625 L 1.296875 -10.34375 L 3.21875 -10.34375 L 3.21875 -4.578125 C 3.21875 -2.546875 4.097656 -1.53125 5.859375 -1.53125 C 7.597656 -1.53125 8.46875 -2.546875 8.46875 -4.578125 L 8.46875 -10.34375 L 10.359375 -10.34375 L 10.359375 -4.515625 C 10.359375 -3.015625 9.960938 -1.863281 9.171875 -1.0625 C 8.378906 -0.257812 7.269531 0.140625 5.84375 0.140625 Z M 5.84375 0.140625 "/></g></g></g><g fill="#1673ff" fill-opacity="1"><g transform="translate(630.469151, 440.825061)"><g><path d="M 5.640625 -10.34375 C 6.535156 -10.34375 7.316406 -10.191406 7.984375 -9.890625 C 8.648438 -9.597656 9.160156 -9.175781 9.515625 -8.625 C 9.867188 -8.070312 10.046875 -7.421875 10.046875 -6.671875 C 10.046875 -5.921875 9.867188 -5.265625 9.515625 -4.703125 C 9.160156 -4.148438 8.648438 -3.722656 7.984375 -3.421875 C 7.316406 -3.128906 6.535156 -2.984375 5.640625 -2.984375 L 3.3125 -2.984375 L 3.3125 0 L 1.390625 0 L 1.390625 -10.34375 Z M 5.5625 -4.609375 C 6.394531 -4.609375 7.023438 -4.785156 7.453125 -5.140625 C 7.890625 -5.492188 8.109375 -6.003906 8.109375 -6.671875 C 8.109375 -7.328125 7.890625 -7.832031 7.453125 -8.1875 C 7.023438 -8.539062 6.394531 -8.71875 5.5625 -8.71875 L 3.3125 -8.71875 L 3.3125 -4.609375 Z M 5.5625 -4.609375 "/></g></g></g><g fill="#1673ff" fill-opacity="1"><g transform="translate(641.197134, 440.825061)"><g><path d="M 5.640625 -10.34375 C 6.535156 -10.34375 7.316406 -10.191406 7.984375 -9.890625 C 8.648438 -9.597656 9.160156 -9.175781 9.515625 -8.625 C 9.867188 -8.070312 10.046875 -7.421875 10.046875 -6.671875 C 10.046875 -5.921875 9.867188 -5.265625 9.515625 -4.703125 C 9.160156 -4.148438 8.648438 -3.722656 7.984375 -3.421875 C 7.316406 -3.128906 6.535156 -2.984375 5.640625 -2.984375 L 3.3125 -2.984375 L 3.3125 0 L 1.390625 0 L 1.390625 -10.34375 Z M 5.5625 -4.609375 C 6.394531 -4.609375 7.023438 -4.785156 7.453125 -5.140625 C 7.890625 -5.492188 8.109375 -6.003906 8.109375 -6.671875 C 8.109375 -7.328125 7.890625 -7.832031 7.453125 -8.1875 C 7.023438 -8.539062 6.394531 -8.71875 5.5625 -8.71875 L 3.3125 -8.71875 L 3.3125 -4.609375 Z M 5.5625 -4.609375 "/></g></g></g><g fill="#1673ff" fill-opacity="1"><g transform="translate(651.925117, 440.825061)"><g><path d="M 6.21875 0.140625 C 5.164062 0.140625 4.210938 -0.0859375 3.359375 -0.546875 C 2.515625 -1.003906 1.851562 -1.640625 1.375 -2.453125 C 0.894531 -3.265625 0.65625 -4.171875 0.65625 -5.171875 C 0.65625 -6.179688 0.894531 -7.09375 1.375 -7.90625 C 1.851562 -8.71875 2.515625 -9.351562 3.359375 -9.8125 C 4.210938 -10.269531 5.164062 -10.5 6.21875 -10.5 C 7.269531 -10.5 8.21875 -10.269531 9.0625 -9.8125 C 9.914062 -9.351562 10.582031 -8.71875 11.0625 -7.90625 C 11.550781 -7.101562 11.796875 -6.191406 11.796875 -5.171875 C 11.796875 -4.160156 11.550781 -3.25 11.0625 -2.4375 C 10.582031 -1.632812 9.914062 -1.003906 9.0625 -0.546875 C 8.21875 -0.0859375 7.269531 0.140625 6.21875 0.140625 Z M 6.21875 -1.53125 C 6.90625 -1.53125 7.523438 -1.6875 8.078125 -2 C 8.628906 -2.3125 9.0625 -2.742188 9.375 -3.296875 C 9.695312 -3.859375 9.859375 -4.484375 9.859375 -5.171875 C 9.859375 -5.859375 9.695312 -6.476562 9.375 -7.03125 C 9.0625 -7.59375 8.628906 -8.03125 8.078125 -8.34375 C 7.523438 -8.65625 6.90625 -8.8125 6.21875 -8.8125 C 5.53125 -8.8125 4.910156 -8.65625 4.359375 -8.34375 C 3.804688 -8.03125 3.375 -7.59375 3.0625 -7.03125 C 2.75 -6.476562 2.59375 -5.859375 2.59375 -5.171875 C 2.59375 -4.484375 2.75 -3.859375 3.0625 -3.296875 C 3.375 -2.742188 3.804688 -2.3125 4.359375 -2 C 4.910156 -1.6875 5.53125 -1.53125 6.21875 -1.53125 Z M 6.21875 -1.53125 "/></g></g></g><g fill="#1673ff" fill-opacity="1"><g transform="translate(664.367197, 440.825061)"><g><path d="M 8.15625 0 L 6.046875 -3.03125 C 5.953125 -3.019531 5.816406 -3.015625 5.640625 -3.015625 L 3.3125 -3.015625 L 3.3125 0 L 1.390625 0 L 1.390625 -10.34375 L 5.640625 -10.34375 C 6.535156 -10.34375 7.316406 -10.191406 7.984375 -9.890625 C 8.648438 -9.597656 9.160156 -9.175781 9.515625 -8.625 C 9.867188 -8.070312 10.046875 -7.421875 10.046875 -6.671875 C 10.046875 -5.890625 9.851562 -5.21875 9.46875 -4.65625 C 9.09375 -4.09375 8.550781 -3.675781 7.84375 -3.40625 L 10.234375 0 Z M 8.109375 -6.671875 C 8.109375 -7.328125 7.890625 -7.832031 7.453125 -8.1875 C 7.023438 -8.539062 6.394531 -8.71875 5.5625 -8.71875 L 3.3125 -8.71875 L 3.3125 -4.59375 L 5.5625 -4.59375 C 6.394531 -4.59375 7.023438 -4.769531 7.453125 -5.125 C 7.890625 -5.488281 8.109375 -6.003906 8.109375 -6.671875 Z M 8.109375 -6.671875 "/></g></g></g><g fill="#1673ff" fill-opacity="1"><g transform="translate(675.16906, 440.825061)"><g><path d="M 3.484375 -8.71875 L 0.0625 -8.71875 L 0.0625 -10.34375 L 8.84375 -10.34375 L 8.84375 -8.71875 L 5.40625 -8.71875 L 5.40625 0 L 3.484375 0 Z M 3.484375 -8.71875 "/></g></g></g></svg>