<svg xmlns="http://www.w3.org/2000/svg" xmlns:xlink="http://www.w3.org/1999/xlink" width="973" zoomAndPan="magnify" viewBox="0 0 729.75 477.749988" height="637" preserveAspectRatio="xMidYMid meet" version="1.0"><defs><g/><clipPath id="a601c5ed91"><path d="M 0.0664062 0 L 729.433594 0 L 729.433594 477.5 L 0.0664062 477.5 Z M 0.0664062 0 " clip-rule="nonzero"/></clipPath><clipPath id="80b1f57699"><path d="M 0.0664062 246 L 729.433594 246 L 729.433594 248 L 0.0664062 248 Z M 0.0664062 246 " clip-rule="nonzero"/></clipPath><clipPath id="d8e7aea509"><path d="M 354 0 L 372 0 L 372 477.5 L 354 477.5 Z M 354 0 " clip-rule="nonzero"/></clipPath><clipPath id="58c579bc8e"><path d="M 477.8125 68.628906 L 625.886719 68.628906 L 625.886719 196.0625 L 477.8125 196.0625 Z M 477.8125 68.628906 " clip-rule="nonzero"/></clipPath><clipPath id="c74d83b650"><path d="M 477.722656 88 L 626 88 L 626 95 L 477.722656 95 Z M 477.722656 88 " clip-rule="nonzero"/></clipPath><clipPath id="5da6484aca"><path d="M 615.34375 152.066406 L 646.808594 152.066406 L 646.808594 183.695312 L 615.34375 183.695312 Z M 615.34375 152.066406 " clip-rule="nonzero"/></clipPath><clipPath id="7d48433096"><path d="M 104.601562 271 L 228 271 L 228 392.570312 L 104.601562 392.570312 Z M 104.601562 271 " clip-rule="nonzero"/></clipPath><clipPath id="09e954bf75"><path d="M 498.550781 304 L 523 304 L 523 328 L 498.550781 328 Z M 498.550781 304 " clip-rule="nonzero"/></clipPath><clipPath id="cd255cb556"><path d="M 521 357 L 603 357 L 603 391.824219 L 521 391.824219 Z M 521 357 " clip-rule="nonzero"/></clipPath><clipPath id="a435638ca9"><path d="M 602 304 L 625.984375 304 L 625.984375 328 L 602 328 Z M 602 304 " clip-rule="nonzero"/></clipPath><clipPath id="a55d7f2230"><path d="M 95.722656 68.628906 L 246 68.628906 L 246 186 L 95.722656 186 Z M 95.722656 68.628906 " clip-rule="nonzero"/></clipPath><clipPath id="41fc1bea13"><path d="M 176 136 L 199 136 L 199 196.0625 L 176 196.0625 Z M 176 136 " clip-rule="nonzero"/></clipPath><clipPath id="2a1798960e"><path d="M 205 107 L 228 107 L 228 196.0625 L 205 196.0625 Z M 205 107 " clip-rule="nonzero"/></clipPath><clipPath id="3c45451cd9"><path d="M 118 159 L 141 159 L 141 196.0625 L 118 196.0625 Z M 118 159 " clip-rule="nonzero"/></clipPath><clipPath id="95fd00db07"><path d="M 146 147 L 170 147 L 170 196.0625 L 146 196.0625 Z M 146 147 " clip-rule="nonzero"/></clipPath></defs><g clip-path="url(#a601c5ed91)"><path fill="#ffffff" d="M 0.0664062 0 L 729.433594 0 L 729.433594 477.5 L 0.0664062 477.5 Z M 0.0664062 0 " fill-opacity="1" fill-rule="nonzero"/><path fill="#f9f5f2" d="M 0.0664062 0 L 729.433594 0 L 729.433594 477.5 L 0.0664062 477.5 Z M 0.0664062 0 " fill-opacity="1" fill-rule="nonzero"/><rect x="-72.975" width="875.7" fill="#f9f5f2" y="-47.774999" height="573.299985" fill-opacity="1"/></g><g clip-path="url(#80b1f57699)"><path stroke-linecap="round" transform="matrix(0.749608, 0, 0, 0.749608, -31.272356, 246.398653)" fill="none" stroke-linejoin="miter" d="M 0.99908 1.000236 L 1143.878147 1.000236 " stroke="#1673ff" stroke-width="2" stroke-opacity="1" stroke-miterlimit="4"/></g><g clip-path="url(#d8e7aea509)"><path stroke-linecap="round" transform="matrix(-0.000974541, -0.749607, 0.749607, -0.000974541, 362.390573, 489.805107)" fill="none" stroke-linejoin="miter" d="M 0.999781 1.001893 L 648.114857 0.998995 " stroke="#1673ff" stroke-width="2" stroke-opacity="1" stroke-miterlimit="4"/></g><g clip-path="url(#58c579bc8e)"><path fill="#1673ff" d="M 617.324219 196.140625 L 486.203125 196.140625 C 481.574219 196.140625 477.8125 192.375 477.8125 187.746094 L 477.8125 77.019531 C 477.8125 72.394531 481.574219 68.628906 486.203125 68.628906 L 617.324219 68.628906 C 621.949219 68.628906 625.714844 72.394531 625.714844 77.019531 L 625.714844 126.804688 C 625.714844 128.261719 624.53125 129.445312 623.074219 129.445312 C 621.617188 129.445312 620.433594 128.261719 620.433594 126.804688 L 620.433594 77.019531 C 620.433594 75.304688 619.039062 73.910156 617.324219 73.910156 L 486.203125 73.910156 C 484.488281 73.910156 483.09375 75.304688 483.09375 77.019531 L 483.09375 187.746094 C 483.09375 189.460938 484.488281 190.859375 486.203125 190.859375 L 617.324219 190.859375 C 619.039062 190.859375 620.433594 189.460938 620.433594 187.746094 L 620.433594 166.441406 C 620.433594 164.984375 621.617188 163.800781 623.074219 163.800781 C 624.53125 163.800781 625.714844 164.984375 625.714844 166.441406 L 625.714844 187.746094 C 625.714844 192.375 621.949219 196.140625 617.324219 196.140625 " fill-opacity="1" fill-rule="evenodd"/></g><g clip-path="url(#c74d83b650)"><path fill="#1673ff" d="M 623.074219 94.183594 L 480.453125 94.183594 C 478.992188 94.183594 477.8125 93 477.8125 91.542969 C 477.8125 90.085938 478.992188 88.902344 480.453125 88.902344 L 623.074219 88.902344 C 624.53125 88.902344 625.714844 90.085938 625.714844 91.542969 C 625.714844 93 624.53125 94.183594 623.074219 94.183594 " fill-opacity="1" fill-rule="evenodd"/></g><path fill="#1673ff" d="M 610.125 84.046875 L 552.902344 84.046875 C 551.445312 84.046875 550.261719 82.867188 550.261719 81.40625 C 550.261719 79.949219 551.445312 78.765625 552.902344 78.765625 L 610.125 78.765625 C 611.582031 78.765625 612.765625 79.949219 612.765625 81.40625 C 612.765625 82.867188 611.582031 84.046875 610.125 84.046875 " fill-opacity="1" fill-rule="evenodd"/><path fill="#1673ff" d="M 498.371094 81.40625 C 498.371094 79.738281 497.011719 78.375 495.34375 78.375 C 493.671875 78.375 492.3125 79.738281 492.3125 81.40625 C 492.3125 83.078125 493.671875 84.4375 495.34375 84.4375 C 497.011719 84.4375 498.371094 83.078125 498.371094 81.40625 " fill-opacity="1" fill-rule="evenodd"/><path fill="#1673ff" d="M 511.058594 81.40625 C 511.058594 79.738281 509.695312 78.375 508.027344 78.375 C 506.359375 78.375 504.996094 79.738281 504.996094 81.40625 C 504.996094 83.078125 506.359375 84.4375 508.027344 84.4375 C 509.695312 84.4375 511.058594 83.078125 511.058594 81.40625 " fill-opacity="1" fill-rule="evenodd"/><path fill="#1673ff" d="M 523.742188 81.40625 C 523.742188 79.738281 522.378906 78.375 520.710938 78.375 C 519.039062 78.375 517.679688 79.738281 517.679688 81.40625 C 517.679688 83.078125 519.039062 84.4375 520.710938 84.4375 C 522.378906 84.4375 523.742188 83.078125 523.742188 81.40625 " fill-opacity="1" fill-rule="evenodd"/><path fill="#1673ff" d="M 507.527344 180.1875 L 496.410156 180.1875 C 494.953125 180.1875 493.769531 179.003906 493.769531 177.546875 L 493.769531 150.511719 C 493.769531 149.050781 494.953125 147.871094 496.410156 147.871094 L 507.527344 147.871094 C 508.984375 147.871094 510.167969 149.050781 510.167969 150.511719 L 510.167969 177.546875 C 510.167969 179.003906 508.984375 180.1875 507.527344 180.1875 Z M 499.050781 174.90625 L 504.886719 174.90625 L 504.886719 153.152344 L 499.050781 153.152344 L 499.050781 174.90625 " fill-opacity="1" fill-rule="evenodd"/><path fill="#1673ff" d="M 528.75 180.183594 L 517.632812 180.183594 C 516.175781 180.183594 514.996094 179.003906 514.996094 177.546875 L 514.996094 158.773438 C 514.996094 157.316406 516.175781 156.136719 517.632812 156.136719 L 528.75 156.136719 C 530.210938 156.136719 531.390625 157.316406 531.390625 158.773438 L 531.390625 177.546875 C 531.390625 179.003906 530.210938 180.183594 528.75 180.183594 Z M 520.277344 174.902344 L 526.109375 174.902344 L 526.109375 161.414062 L 520.277344 161.414062 L 520.277344 174.902344 " fill-opacity="1" fill-rule="evenodd"/><path fill="#1673ff" d="M 549.972656 180.1875 L 538.859375 180.1875 C 537.402344 180.1875 536.21875 179.003906 536.21875 177.546875 L 536.21875 141.371094 C 536.21875 139.910156 537.402344 138.730469 538.859375 138.730469 L 549.972656 138.730469 C 551.433594 138.730469 552.617188 139.910156 552.617188 141.371094 L 552.617188 177.546875 C 552.617188 179.003906 551.433594 180.1875 549.972656 180.1875 Z M 541.5 174.90625 L 547.335938 174.90625 L 547.335938 144.007812 L 541.5 144.007812 L 541.5 174.90625 " fill-opacity="1" fill-rule="evenodd"/><path fill="#1673ff" d="M 571.199219 180.1875 L 560.082031 180.1875 C 558.625 180.1875 557.441406 179.003906 557.441406 177.546875 L 557.441406 156.730469 C 557.441406 155.269531 558.625 154.089844 560.082031 154.089844 L 571.199219 154.089844 C 572.65625 154.089844 573.839844 155.269531 573.839844 156.730469 L 573.839844 177.546875 C 573.839844 179.003906 572.65625 180.1875 571.199219 180.1875 Z M 562.722656 174.90625 L 568.558594 174.90625 L 568.558594 159.367188 L 562.722656 159.367188 L 562.722656 174.90625 " fill-opacity="1" fill-rule="evenodd"/><path fill="#1673ff" d="M 518.1875 138.261719 C 517.835938 138.261719 517.480469 138.191406 517.136719 138.042969 L 504.492188 132.539062 C 503.15625 131.960938 502.546875 130.402344 503.125 129.066406 C 503.707031 127.726562 505.261719 127.117188 506.601562 127.699219 L 519.242188 133.199219 C 520.582031 133.78125 521.195312 135.339844 520.613281 136.675781 C 520.179688 137.671875 519.207031 138.261719 518.1875 138.261719 " fill-opacity="1" fill-rule="evenodd"/><path fill="#1673ff" d="M 526.136719 136.933594 C 525.425781 136.933594 524.710938 136.644531 524.191406 136.078125 C 523.207031 135.003906 523.277344 133.332031 524.351562 132.347656 L 539.089844 118.835938 C 540.164062 117.851562 541.835938 117.925781 542.820312 119 C 543.808594 120.074219 543.734375 121.746094 542.660156 122.730469 L 527.921875 136.238281 C 527.414062 136.703125 526.777344 136.933594 526.136719 136.933594 " fill-opacity="1" fill-rule="evenodd"/><path fill="#1673ff" d="M 562.5 134.804688 C 561.917969 134.804688 561.332031 134.613281 560.839844 134.21875 L 546.492188 122.613281 C 545.355469 121.695312 545.183594 120.03125 546.097656 118.898438 C 547.015625 117.765625 548.679688 117.589844 549.8125 118.503906 L 564.164062 130.113281 C 565.296875 131.027344 565.472656 132.691406 564.554688 133.824219 C 564.035156 134.46875 563.269531 134.804688 562.5 134.804688 " fill-opacity="1" fill-rule="evenodd"/><path fill="#1673ff" d="M 501.214844 135.488281 C 497.109375 135.488281 493.773438 132.148438 493.773438 128.042969 C 493.773438 123.9375 497.109375 120.597656 501.214844 120.597656 C 505.320312 120.597656 508.660156 123.9375 508.660156 128.042969 C 508.660156 132.148438 505.320312 135.488281 501.214844 135.488281 Z M 501.214844 125.878906 C 500.023438 125.878906 499.054688 126.847656 499.054688 128.042969 C 499.054688 129.234375 500.023438 130.203125 501.214844 130.203125 C 502.410156 130.203125 503.378906 129.234375 503.378906 128.042969 C 503.378906 126.847656 502.410156 125.878906 501.214844 125.878906 " fill-opacity="1" fill-rule="evenodd"/><path fill="#1673ff" d="M 522.597656 144.984375 C 518.492188 144.984375 515.152344 141.644531 515.152344 137.539062 C 515.152344 133.433594 518.492188 130.09375 522.597656 130.09375 C 526.699219 130.09375 530.039062 133.433594 530.039062 137.539062 C 530.039062 141.644531 526.699219 144.984375 522.597656 144.984375 Z M 522.597656 135.375 C 521.402344 135.375 520.433594 136.347656 520.433594 137.539062 C 520.433594 138.730469 521.402344 139.703125 522.597656 139.703125 C 523.789062 139.703125 524.757812 138.730469 524.757812 137.539062 C 524.757812 136.347656 523.789062 135.375 522.597656 135.375 " fill-opacity="1" fill-rule="evenodd"/><path fill="#1673ff" d="M 544.414062 124.984375 C 540.3125 124.984375 536.972656 121.644531 536.972656 117.539062 C 536.972656 113.433594 540.3125 110.09375 544.414062 110.09375 C 548.519531 110.09375 551.859375 113.433594 551.859375 117.539062 C 551.859375 121.644531 548.519531 124.984375 544.414062 124.984375 Z M 544.414062 115.375 C 543.222656 115.375 542.253906 116.34375 542.253906 117.539062 C 542.253906 118.730469 543.222656 119.703125 544.414062 119.703125 C 545.609375 119.703125 546.578125 118.730469 546.578125 117.539062 C 546.578125 116.34375 545.609375 115.375 544.414062 115.375 " fill-opacity="1" fill-rule="evenodd"/><path fill="#1673ff" d="M 566.238281 142.628906 C 562.132812 142.628906 558.792969 139.292969 558.792969 135.1875 C 558.792969 131.082031 562.132812 127.742188 566.238281 127.742188 C 570.34375 127.742188 573.679688 131.082031 573.679688 135.1875 C 573.683594 139.292969 570.34375 142.628906 566.238281 142.628906 Z M 566.238281 133.023438 C 565.042969 133.023438 564.074219 133.992188 564.074219 135.1875 C 564.074219 136.378906 565.042969 137.351562 566.238281 137.351562 C 567.429688 137.351562 568.402344 136.378906 568.402344 135.1875 C 568.402344 133.992188 567.429688 133.023438 566.238281 133.023438 " fill-opacity="1" fill-rule="evenodd"/><path fill="#1673ff" d="M 605.726562 168.191406 C 598.808594 168.191406 592.308594 165.496094 587.414062 160.605469 C 582.523438 155.714844 579.832031 149.210938 579.832031 142.292969 C 579.832031 135.375 582.523438 128.871094 587.414062 123.980469 C 592.308594 119.089844 598.808594 116.398438 605.726562 116.398438 C 612.644531 116.398438 619.148438 119.089844 624.039062 123.980469 C 628.929688 128.875 631.625 135.375 631.625 142.292969 C 631.625 149.210938 628.929688 155.714844 624.039062 160.605469 C 619.148438 165.496094 612.644531 168.191406 605.726562 168.191406 Z M 605.726562 121.679688 C 594.359375 121.679688 585.113281 130.925781 585.113281 142.292969 C 585.113281 153.660156 594.359375 162.910156 605.726562 162.910156 C 617.09375 162.910156 626.34375 153.660156 626.34375 142.292969 C 626.34375 130.925781 617.09375 121.679688 605.726562 121.679688 " fill-opacity="1" fill-rule="evenodd"/><path fill="#1673ff" d="M 605.726562 158.953125 C 596.542969 158.953125 589.066406 151.480469 589.066406 142.292969 C 589.066406 133.105469 596.542969 125.632812 605.726562 125.632812 C 614.914062 125.632812 622.386719 133.105469 622.386719 142.292969 C 622.386719 151.480469 614.914062 158.953125 605.726562 158.953125 Z M 605.726562 130.914062 C 599.453125 130.914062 594.347656 136.019531 594.347656 142.292969 C 594.347656 148.566406 599.453125 153.671875 605.726562 153.671875 C 612.003906 153.671875 617.105469 148.566406 617.105469 142.292969 C 617.105469 136.019531 612.003906 130.914062 605.726562 130.914062 " fill-opacity="1" fill-rule="evenodd"/><g clip-path="url(#5da6484aca)"><path fill="#1673ff" d="M 639.375 183.390625 C 637.382812 183.390625 635.511719 182.613281 634.109375 181.207031 L 616.550781 163.652344 C 615.519531 162.621094 615.519531 160.949219 616.550781 159.917969 C 617.582031 158.886719 619.253906 158.886719 620.285156 159.917969 L 637.84375 177.472656 C 638.253906 177.882812 638.796875 178.109375 639.375 178.109375 C 639.929688 178.109375 640.453125 177.902344 640.855469 177.527344 C 641.28125 177.128906 641.519531 176.585938 641.527344 175.996094 C 641.539062 175.382812 641.304688 174.800781 640.863281 174.363281 L 623.351562 156.851562 C 622.320312 155.820312 622.320312 154.148438 623.351562 153.117188 C 624.382812 152.085938 626.054688 152.085938 627.085938 153.117188 L 644.597656 170.628906 C 646.035156 172.066406 646.84375 174.054688 646.808594 176.085938 C 646.773438 178.113281 645.945312 179.996094 644.464844 181.378906 C 643.082031 182.675781 641.273438 183.390625 639.375 183.390625 " fill-opacity="1" fill-rule="evenodd"/></g><g clip-path="url(#7d48433096)"><path fill="#1673ff" d="M 140.671875 278.34375 C 134.609375 278.515625 134.609375 287.375 140.671875 287.519531 C 146.730469 287.375 146.730469 278.515625 140.671875 278.34375 Z M 140.671875 281.027344 C 143.183594 281.074219 143.183594 284.816406 140.671875 284.863281 C 138.160156 284.816406 138.160156 281.074219 140.671875 281.027344 Z M 192.488281 315.648438 C 186.425781 315.820312 186.425781 324.679688 192.488281 324.824219 C 198.523438 324.679688 198.523438 315.820312 192.488281 315.648438 Z M 192.488281 318.332031 C 195 318.378906 195 322.121094 192.488281 322.167969 C 189.953125 322.121094 189.953125 318.378906 192.488281 318.332031 Z M 220.738281 293.75 C 206.226562 269.871094 172.496094 264.390625 151.078125 282.28125 C 150.667969 268.421875 130.796875 268.347656 130.265625 282.207031 C 130.265625 285.878906 134.25 293.824219 137.726562 300.078125 C 136.15625 303.675781 135.070312 307.464844 134.464844 311.351562 C 127.222656 312.777344 121.765625 319.367188 120.871094 327.480469 C 120.4375 329.921875 122.03125 335.667969 122.417969 338.152344 C 122.417969 345.613281 126.8125 352.90625 133.332031 355.875 L 132.511719 359.136719 L 118.796875 363.773438 C 114.570312 365.222656 111.214844 368.601562 109.8125 372.875 C 109.71875 373.09375 105.925781 386.710938 104.765625 391.105469 C 104.671875 391.515625 104.742188 391.949219 105.007812 392.265625 C 105.273438 392.601562 105.660156 392.769531 106.070312 392.769531 C 110.707031 392.699219 141.300781 392.53125 141.613281 392.53125 L 190.4375 392.53125 C 191.0625 392.53125 191.59375 392.09375 191.738281 391.492188 L 192.5625 387.796875 C 192.753906 387 192.078125 386.15625 191.257812 386.179688 L 189.324219 386.179688 L 193.355469 363.941406 C 223.347656 356.023438 237.398438 320.042969 220.738281 293.75 Z M 219.605469 297.105469 C 222.886719 303.070312 224.820312 309.78125 225.109375 316.59375 C 222.066406 317.800781 219.074219 317.894531 217.746094 316.785156 C 216.875 316.0625 216.753906 314.660156 216.632812 313.164062 C 216.609375 310.433594 215.476562 307.273438 212.144531 307.320312 C 210.5 307.320312 208.835938 308.09375 207.386719 308.769531 C 206.613281 309.132812 204.828125 309.953125 204.511719 309.710938 C 204.003906 309.300781 204.101562 306.449219 205.792969 304.324219 C 207.023438 302.78125 208.472656 302.515625 210.476562 302.152344 C 213.496094 301.863281 217.671875 300.078125 219.605469 297.105469 Z M 150.015625 286.796875 C 152.117188 284.71875 154.53125 282.882812 157.019531 281.265625 C 168.367188 273.949219 183.144531 272.285156 195.796875 276.898438 C 189.710938 280.640625 190.242188 285.804688 194.734375 290.273438 C 189.011719 287.570312 182.660156 288.125 178.074219 292.734375 C 176.191406 294.355469 175.054688 295.246094 173.269531 295.03125 C 171.820312 294.859375 171 294.015625 169.9375 292.90625 C 168.703125 291.625 167.183594 290.054688 164.429688 289.839844 C 162.160156 289.597656 160.207031 290.730469 158.851562 291.722656 C 155.59375 294.355469 152.042969 293.4375 148.351562 290.757812 C 148.953125 289.476562 149.53125 288.125 150.015625 286.796875 Z M 132.921875 282.183594 C 132.921875 277.910156 136.398438 274.433594 140.671875 274.433594 C 144.945312 274.433594 148.398438 277.910156 148.398438 282.183594 C 147.792969 287.398438 142.84375 295.753906 140.671875 299.882812 C 136.15625 291.988281 132.824219 284.429688 132.921875 282.183594 Z M 123.527344 327.769531 C 124.953125 315.335938 136.953125 310.074219 146.007812 316.542969 C 146.683594 316.953125 146.878906 317.363281 147.578125 317.390625 C 148.445312 317.414062 149.558594 317.558594 150.425781 317.824219 C 156.632812 319.511719 159.046875 326.347656 157.285156 332.457031 C 156.246094 330.425781 153.734375 329.097656 151.683594 329.050781 C 149.148438 329.003906 147.070312 327.121094 146.226562 324.65625 C 145.910156 323.738281 144.582031 323.496094 143.980469 324.246094 C 141.445312 327.070312 139.003906 328.832031 135.699219 329.703125 C 131.617188 330.621094 127.003906 329.511719 124.230469 333.566406 C 123.914062 331.925781 123.261719 329.363281 123.527344 327.769531 Z M 125.265625 340.664062 C 124.734375 338.25 125.4375 335.714844 127.34375 334.121094 C 128.671875 333.058594 130.070312 332.988281 132.050781 332.867188 C 136.617188 332.816406 141.058594 331.03125 144.609375 327.480469 C 145.816406 329.894531 148.976562 331.730469 151.34375 331.730469 C 152.816406 331.851562 154 332.285156 154.796875 333.589844 C 157.523438 338.203125 155.714844 344.238281 152.839844 348.390625 C 144.414062 360.152344 127.199219 354.71875 125.265625 340.664062 Z M 154.675781 357.589844 C 153.035156 357.421875 151.390625 358.242188 150.886719 359.835938 L 148.761719 359.136719 L 147.941406 355.875 C 148.832031 355.464844 149.679688 354.960938 150.476562 354.402344 C 151.804688 355.5625 153.203125 356.625 154.675781 357.589844 Z M 146.175781 359.789062 C 146.007812 359.933594 145.789062 360.078125 145.574219 360.222656 C 142.457031 361.914062 137.992188 361.914062 135.09375 359.789062 L 135.84375 356.84375 C 138.957031 357.734375 142.3125 357.734375 145.453125 356.84375 Z M 141.105469 387.195312 L 140.527344 389.851562 C 135.578125 389.875 114.835938 389.996094 107.785156 390.066406 C 109.210938 384.804688 112.179688 374.300781 112.347656 373.671875 C 113.484375 370.21875 116.210938 367.464844 119.640625 366.308594 L 133.257812 361.71875 C 137.242188 364.980469 144.148438 364.90625 148.058594 361.71875 L 150.378906 362.492188 C 149.582031 366.886719 146.925781 381.519531 146.105469 386.15625 L 142.433594 386.15625 C 141.78125 386.15625 141.226562 386.589844 141.105469 387.195312 Z M 189.542969 388.835938 L 189.324219 389.851562 L 143.253906 389.851562 L 143.472656 388.835938 Z M 190.820312 362.613281 C 190.820312 362.636719 190.820312 362.636719 190.820312 362.660156 L 186.574219 386.15625 L 148.808594 386.15625 L 151.707031 370.074219 L 153.394531 360.777344 C 153.445312 360.488281 153.710938 360.269531 154 360.269531 C 156.824219 360.269531 186.863281 360.269531 190.53125 360.269531 C 190.773438 360.269531 190.917969 360.417969 190.992188 360.488281 C 191.0625 360.5625 191.136719 360.777344 191.136719 360.996094 Z M 193.960938 360.949219 C 193.914062 360.972656 193.863281 360.972656 193.816406 360.996094 C 193.863281 359.183594 192.34375 357.566406 190.53125 357.589844 C 190.53125 357.589844 185.945312 357.589844 185.945312 357.589844 C 185.871094 352.59375 181.355469 347.644531 177.542969 345.878906 C 175.394531 344.601562 173.679688 343.609375 172.664062 341.003906 C 171.890625 339 172.183594 337.742188 172.59375 336.003906 C 175.054688 327.988281 169.71875 320.191406 165.035156 315.988281 C 164.09375 315.046875 162.8125 313.765625 162.644531 313.234375 C 165.300781 312.078125 169.429688 313.140625 172.230469 315.335938 C 174.1875 316.953125 174.910156 318.957031 175.609375 320.914062 C 176.648438 324.824219 179.691406 327.84375 183.890625 326.058594 C 185.894531 330.789062 188.335938 335.328125 190.894531 339.796875 C 191.425781 340.6875 191.546875 341.125 192.488281 341.21875 C 192.972656 341.21875 193.40625 340.980469 193.648438 340.570312 C 193.914062 340.109375 197.871094 333.109375 198.839844 330.933594 C 205.476562 337.308594 215.234375 335.472656 222.621094 333.398438 C 218.128906 346.460938 207.167969 356.964844 193.960938 360.949219 Z M 184.738281 319.511719 C 185.050781 309.300781 199.902344 309.277344 200.214844 319.511719 C 200.214844 320.359375 199.828125 322.628906 197.21875 328.132812 C 195.578125 331.609375 193.960938 334.554688 192.488281 337.1875 C 190.074219 332.695312 185.316406 324.65625 184.738281 319.511719 Z M 200.046875 328.398438 C 201.953125 324.246094 202.894531 321.324219 202.894531 319.511719 C 202.894531 313.765625 198.234375 309.105469 192.488281 309.105469 C 185.148438 309.105469 179.957031 316.617188 182.949219 323.59375 C 180.222656 324.65625 179.113281 323.015625 178.144531 320.042969 C 177.398438 317.96875 176.480469 315.410156 173.96875 313.308594 C 170.203125 310.242188 162.886719 308.503906 160.277344 312.003906 C 159.214844 313.9375 160.953125 315.699219 163.175781 317.921875 C 167.328125 321.636719 172.230469 328.542969 170.007812 335.425781 C 168.246094 340.808594 171.457031 345.929688 176.191406 348.199219 C 179.425781 349.769531 183.070312 353.460938 183.242188 357.617188 L 159.820312 357.617188 C 157.234375 356.214844 154.796875 354.574219 152.601562 352.738281 C 155.546875 349.984375 157.621094 346.265625 158.46875 342.089844 C 162.523438 341.21875 163.394531 335.738281 159.769531 333.6875 C 162.523438 324.632812 157.695312 315.238281 148.085938 314.757812 C 144.945312 312.511719 141.128906 311.039062 137.195312 311.085938 C 137.675781 308.335938 138.402344 305.628906 139.390625 303.023438 C 139.632812 303.554688 140.09375 303.914062 140.671875 303.914062 C 141.15625 303.914062 141.589844 303.675781 141.832031 303.261719 C 141.855469 303.214844 144.726562 298.363281 147.214844 293.265625 C 151.585938 296.429688 156.679688 297.058594 160.398438 293.992188 C 161.652344 293.121094 162.667969 292.445312 164.261719 292.566406 C 166 292.710938 166.894531 293.628906 168.027344 294.8125 C 171.457031 298.941406 176.09375 298.507812 179.8125 294.789062 C 181.550781 293.316406 183.335938 291.769531 186.234375 291.40625 C 189.398438 290.996094 192.175781 292.15625 194.226562 292.976562 C 195.988281 293.703125 197.632812 294.378906 198.597656 293.027344 C 199.5625 291.625 198.308594 290.273438 197.003906 288.824219 C 192.5625 284.332031 192.898438 281.363281 198.863281 278.199219 C 206.757812 281.675781 213.375 287.328125 218.058594 294.570312 C 216.511719 297.613281 213.085938 299.207031 210.019531 299.546875 C 207.820312 299.929688 205.550781 300.34375 203.714844 302.683594 C 201.542969 305.4375 200.671875 310.023438 202.824219 311.785156 C 204.417969 313.140625 206.515625 312.148438 208.519531 311.230469 C 210.136719 310.484375 211.972656 309.636719 212.988281 310.242188 C 213.710938 310.675781 213.855469 311.714844 213.976562 313.40625 C 213.929688 320.070312 219.386719 321.371094 225.132812 319.417969 C 225.058594 323.109375 224.554688 326.804688 223.539062 330.378906 C 215.742188 332.550781 206.25 334.941406 200.046875 328.398438 Z M 158.828125 338.976562 C 158.804688 338.226562 159 337.476562 159.144531 336.753906 C 159.457031 337.238281 159.457031 337.863281 159.238281 338.371094 C 159.144531 338.589844 159.023438 338.804688 158.828125 338.976562 Z M 170.441406 369.277344 C 163.320312 369.253906 161.363281 379.539062 169.234375 379.972656 C 176.359375 380 178.316406 369.710938 170.441406 369.277344 Z M 166.820312 374.808594 C 167.136719 371.742188 173.097656 370.507812 172.882812 374.445312 C 172.542969 377.511719 166.605469 378.742188 166.820312 374.808594 Z M 166.820312 374.808594 " fill-opacity="1" fill-rule="nonzero"/></g><path fill="#1673ff" d="M 563.789062 266.574219 L 565.492188 270.222656 L 567.492188 274.492188 L 575.941406 275.785156 C 578.261719 276.132812 578.402344 277.183594 576.746094 278.890625 L 570.75 285.0625 L 572.128906 293.46875 C 572.574219 296.210938 571.753906 296.875 569.878906 295.835938 L 562.230469 291.601562 L 562.230469 291.578125 L 562.21875 291.601562 L 554.558594 295.847656 C 552.683594 296.882812 551.871094 296.21875 552.320312 293.476562 L 553.6875 285.070312 L 547.703125 278.902344 C 546.042969 277.195312 546.1875 276.140625 548.507812 275.785156 L 556.957031 274.492188 L 560.652344 266.566406 C 561.585938 264.59375 562.851562 264.574219 563.789062 266.574219 Z M 563.789062 266.574219 " fill-opacity="1" fill-rule="nonzero"/><path fill="#1673ff" d="M 533.84375 281.917969 L 535.324219 285.074219 L 537.054688 288.765625 L 544.355469 289.882812 C 546.367188 290.183594 546.488281 291.09375 545.054688 292.578125 L 539.875 297.90625 L 541.058594 305.171875 C 541.445312 307.546875 540.734375 308.121094 539.117188 307.226562 L 532.503906 303.5625 L 532.492188 303.539062 L 532.488281 303.5625 L 525.871094 307.226562 C 524.246094 308.125 523.539062 307.558594 523.933594 305.179688 L 525.117188 297.910156 L 519.933594 292.582031 C 518.5 291.101562 518.625 290.191406 520.632812 289.886719 L 527.9375 288.765625 L 531.144531 281.917969 C 531.941406 280.203125 533.039062 280.1875 533.84375 281.917969 Z M 533.84375 281.917969 " fill-opacity="1" fill-rule="nonzero"/><path fill="#1673ff" d="M 593.296875 281.878906 L 594.777344 285.027344 L 596.507812 288.714844 L 603.8125 289.839844 C 605.820312 290.144531 605.941406 291.054688 604.511719 292.53125 L 599.328125 297.863281 L 600.511719 305.132812 C 600.902344 307.503906 600.199219 308.082031 598.570312 307.179688 L 591.957031 303.515625 L 591.949219 303.496094 L 591.941406 303.523438 L 585.324219 307.1875 C 583.707031 308.082031 582.996094 307.511719 583.386719 305.132812 L 584.570312 297.867188 L 579.390625 292.539062 C 577.953125 291.0625 578.078125 290.148438 580.085938 289.84375 L 587.390625 288.722656 L 590.597656 281.867188 C 591.394531 280.160156 592.496094 280.144531 593.296875 281.878906 Z M 593.296875 281.878906 " fill-opacity="1" fill-rule="nonzero"/><g clip-path="url(#09e954bf75)"><path fill="#1673ff" d="M 511.621094 305.304688 L 512.878906 307.980469 L 514.355469 311.109375 L 520.597656 312.050781 C 522.316406 312.316406 522.421875 313.089844 521.195312 314.339844 L 516.769531 318.855469 L 517.78125 325.019531 C 518.113281 327.035156 517.507812 327.515625 516.128906 326.75 L 510.46875 323.648438 L 510.46875 323.632812 L 510.460938 323.648438 L 504.808594 326.757812 C 503.421875 327.519531 502.816406 327.03125 503.148438 325.015625 L 504.160156 318.855469 L 499.734375 314.339844 C 498.515625 313.085938 498.617188 312.316406 500.332031 312.058594 L 506.574219 311.117188 L 509.308594 305.304688 C 509.996094 303.855469 510.929688 303.84375 511.621094 305.304688 Z M 511.621094 305.304688 " fill-opacity="1" fill-rule="nonzero"/></g><g clip-path="url(#cd255cb556)"><path fill="#1673ff" d="M 549.4375 357.28125 C 534.367188 360.40625 524.902344 369.324219 521.957031 382.175781 C 521.144531 385.648438 522.394531 386.660156 523.957031 387.140625 C 534.652344 390.433594 554.453125 391.601562 562.222656 391.601562 C 569.988281 391.601562 589.792969 390.433594 600.488281 387.140625 C 602.046875 386.660156 603.296875 385.648438 602.496094 382.175781 C 599.785156 370.347656 591.535156 361.859375 578.488281 358.144531 C 576.355469 359.445312 574.074219 360.5 571.671875 361.269531 C 570.867188 363.789062 568.886719 365.84375 566.136719 365.84375 L 558.691406 365.84375 C 555.308594 365.84375 552.472656 363.011719 552.472656 359.617188 L 552.472656 358.972656 Z M 549.4375 357.28125 " fill-opacity="1" fill-rule="nonzero"/></g><path fill="#1673ff" d="M 563.308594 305.015625 C 557.730469 304.832031 552.089844 306.351562 547.226562 309.597656 C 541.761719 313.253906 537.9375 318.640625 536.183594 324.671875 C 535.691406 324.621094 535.113281 324.644531 534.425781 324.835938 C 531.84375 325.574219 529.90625 327.679688 529.035156 329.546875 C 527.898438 331.964844 527.425781 335.171875 527.925781 338.488281 C 528.429688 341.789062 529.824219 344.515625 531.570312 346.199219 C 533.3125 347.890625 535.296875 348.445312 537.25 348.023438 C 540.175781 347.402344 541.625 346.9375 541.214844 344.21875 L 539.230469 331.019531 C 539.636719 323.875 543.328125 317.152344 549.519531 313.023438 C 557.792969 307.496094 568.644531 307.847656 576.535156 313.910156 C 582.03125 318.121094 585.222656 324.429688 585.589844 331.050781 L 584.207031 340.28125 C 581.113281 348.734375 573.460938 354.585938 564.59375 355.425781 L 558.691406 355.425781 C 557.171875 355.425781 555.945312 356.644531 555.945312 358.167969 L 555.945312 359.621094 C 555.945312 361.136719 557.171875 362.363281 558.691406 362.363281 L 566.136719 362.363281 C 567.652344 362.363281 568.878906 361.136719 568.878906 359.621094 L 568.878906 358.855469 C 575.5625 357.226562 581.394531 353.121094 585.191406 347.394531 L 587.574219 348.023438 C 589.519531 348.527344 591.519531 347.890625 593.257812 346.199219 C 595.007812 344.515625 596.402344 341.789062 596.90625 338.488281 C 597.402344 335.171875 596.914062 331.972656 595.796875 329.542969 C 594.675781 327.113281 593 325.566406 591.078125 325.015625 C 590.265625 324.785156 589.386719 324.691406 588.632812 324.679688 C 587.042969 319.222656 583.769531 314.265625 579.050781 310.640625 C 574.40625 307.085938 568.886719 305.195312 563.308594 305.015625 Z M 563.308594 305.015625 " fill-opacity="1" fill-rule="evenodd"/><path fill="#1673ff" d="M 562.222656 313.4375 C 551.765625 313.4375 543.335938 321.585938 543.335938 332.320312 C 543.335938 343.066406 551.765625 351.207031 562.222656 351.207031 C 572.683594 351.207031 581.105469 343.058594 581.105469 332.320312 C 581.105469 321.585938 572.683594 313.4375 562.222656 313.4375 Z M 553.210938 322.789062 C 555.070312 324.5625 558.402344 325.746094 562.222656 325.746094 C 566.042969 325.746094 569.382812 324.5625 571.238281 322.789062 C 573.769531 325.175781 575.351562 328.558594 575.351562 332.320312 C 575.351562 339.59375 569.5 345.445312 562.222656 345.445312 C 554.949219 345.445312 549.101562 339.59375 549.101562 332.320312 C 549.101562 328.558594 550.683594 325.175781 553.210938 322.789062 Z M 553.210938 322.789062 " fill-opacity="1" fill-rule="evenodd"/><g clip-path="url(#a435638ca9)"><path fill="#1673ff" d="M 615.132812 305.304688 L 616.398438 307.980469 L 617.871094 311.109375 L 624.113281 312.050781 C 625.828125 312.316406 625.9375 313.089844 624.710938 314.339844 L 620.285156 318.855469 L 621.296875 325.019531 C 621.625 327.035156 621.023438 327.515625 619.648438 326.75 L 613.984375 323.648438 L 613.984375 323.632812 L 613.976562 323.648438 L 608.320312 326.761719 C 606.9375 327.523438 606.332031 327.035156 606.664062 325.019531 L 607.675781 318.855469 L 603.257812 314.339844 C 602.03125 313.089844 602.128906 312.316406 603.84375 312.0625 L 610.085938 311.117188 L 612.824219 305.304688 C 613.511719 303.855469 614.445312 303.84375 615.132812 305.304688 Z M 615.132812 305.304688 " fill-opacity="1" fill-rule="nonzero"/></g><g clip-path="url(#a55d7f2230)"><path fill="#1673ff" d="M 245.558594 72.199219 C 243.324219 82.664062 241.074219 93.125 238.773438 103.574219 C 238.191406 106.214844 237.230469 106.523438 235.210938 104.726562 C 233.066406 102.816406 231.054688 100.761719 228.972656 98.78125 C 228.816406 98.640625 228.664062 98.496094 228.503906 98.351562 L 227.398438 97.246094 L 226.519531 98.125 C 226.464844 98.175781 226.40625 98.230469 226.347656 98.289062 C 212.496094 112.042969 198.644531 125.800781 184.796875 139.5625 C 180.503906 143.835938 176.226562 148.121094 171.941406 152.398438 C 170.789062 153.550781 169.550781 153.683594 168.207031 152.710938 C 167.410156 152.132812 166.667969 151.472656 165.964844 150.777344 C 162.003906 146.875 158.066406 142.949219 154.117188 139.03125 C 153.882812 138.796875 153.632812 138.570312 153.332031 138.28125 C 153.039062 138.558594 152.769531 138.804688 152.515625 139.0625 C 139.585938 151.953125 126.664062 164.847656 113.71875 177.722656 C 113.34375 178.097656 112.964844 178.460938 112.582031 178.824219 L 106.4375 184.96875 C 105.933594 185.472656 105.117188 185.472656 104.617188 184.96875 L 96.34375 176.699219 C 95.84375 176.199219 95.84375 175.382812 96.34375 174.882812 L 97.90625 173.328125 C 98.015625 173.171875 98.144531 173.023438 98.28125 172.890625 C 114.144531 157.078125 130 141.257812 145.882812 125.472656 C 147.875 123.496094 149.988281 121.625 152.136719 119.820312 C 153.539062 118.644531 154.105469 118.71875 155.410156 119.984375 C 160.027344 124.457031 164.617188 128.953125 169.214844 133.445312 C 169.410156 133.636719 169.5625 133.878906 169.703125 134.054688 C 185.484375 118.230469 201.183594 102.496094 217.132812 86.507812 C 214.96875 84.429688 212.675781 82.261719 210.425781 80.066406 C 209.832031 79.488281 209.300781 78.828125 208.824219 78.148438 C 208.015625 77.011719 208.246094 76.269531 209.601562 75.859375 C 211.136719 75.394531 212.695312 75.027344 214.257812 74.675781 C 223.171875 72.699219 232.089844 70.734375 241.003906 68.78125 C 241.539062 68.664062 242.101562 68.636719 242.652344 68.644531 C 244.777344 68.675781 246.003906 70.113281 245.558594 72.199219 " fill-opacity="1" fill-rule="nonzero"/></g><g clip-path="url(#41fc1bea13)"><path fill="#1673ff" d="M 198.367188 136.230469 C 197.960938 136.613281 197.734375 136.8125 197.523438 137.019531 C 190.671875 143.84375 183.828125 150.675781 176.964844 157.484375 C 176.464844 157.984375 176.242188 158.464844 176.246094 159.171875 C 176.269531 167.328125 176.25 175.488281 176.285156 183.640625 C 176.285156 184.242188 176.296875 184.84375 176.300781 185.445312 C 176.277344 185.550781 176.265625 185.65625 176.265625 185.765625 L 176.265625 194.636719 C 176.265625 195.449219 176.921875 196.105469 177.734375 196.105469 L 196.886719 196.105469 C 197.699219 196.105469 198.359375 195.449219 198.359375 194.636719 L 198.359375 192.722656 C 198.367188 192.605469 198.367188 192.484375 198.367188 192.367188 C 198.382812 174.019531 198.371094 155.667969 198.367188 137.316406 C 198.367188 137.046875 198.367188 136.769531 198.367188 136.230469 " fill-opacity="1" fill-rule="nonzero"/></g><g clip-path="url(#2a1798960e)"><path fill="#1673ff" d="M 227.410156 181.824219 C 227.386719 157.382812 227.34375 132.9375 227.304688 108.496094 L 227.304688 107.152344 L 226.757812 107.714844 C 219.699219 114.757812 212.644531 121.800781 205.605469 128.859375 C 205.378906 129.085938 205.230469 129.5 205.230469 129.824219 C 205.214844 150.992188 205.214844 172.15625 205.214844 193.324219 C 205.214844 193.429688 205.238281 193.539062 205.265625 193.65625 L 205.265625 194.636719 C 205.265625 195.449219 205.921875 196.105469 206.738281 196.105469 L 225.890625 196.105469 C 226.703125 196.105469 227.359375 195.449219 227.359375 194.636719 L 227.359375 187.699219 C 227.390625 185.742188 227.410156 183.78125 227.410156 181.824219 " fill-opacity="1" fill-rule="nonzero"/></g><g clip-path="url(#3c45451cd9)"><path fill="#1673ff" d="M 139.242188 160.960938 C 132.296875 167.882812 125.347656 174.796875 118.417969 181.734375 C 118.1875 181.960938 118.035156 182.375 118.035156 182.707031 C 118.027344 183.695312 118.027344 184.6875 118.023438 185.679688 C 118.023438 185.710938 118.015625 185.738281 118.015625 185.773438 L 118.015625 194.628906 C 118.015625 195.445312 118.675781 196.105469 119.492188 196.105469 L 138.824219 196.105469 C 139.640625 196.105469 140.300781 195.445312 140.300781 194.628906 L 140.300781 185.773438 C 140.300781 185.75 140.296875 185.730469 140.296875 185.707031 C 140.289062 178.921875 140.28125 172.136719 140.273438 165.351562 C 140.273438 164.023438 140.273438 162.695312 140.273438 161.367188 L 140.300781 159.851562 L 139.242188 160.960938 " fill-opacity="1" fill-rule="nonzero"/></g><g clip-path="url(#95fd00db07)"><path fill="#1673ff" d="M 169.242188 161.398438 L 169.242188 159.976562 L 169.160156 159.976562 C 165.597656 160.238281 163.148438 158.207031 160.808594 155.988281 C 159.21875 154.480469 157.652344 152.941406 156.074219 151.425781 C 155.59375 150.960938 155.109375 150.5 154.628906 150.035156 L 152.351562 147.800781 L 151.664062 148.496094 C 151.648438 148.507812 151.632812 148.523438 151.617188 148.535156 C 150.3125 149.847656 149.027344 151.183594 147.695312 152.46875 C 147.164062 152.976562 146.953125 153.503906 146.957031 154.25 C 146.996094 163.144531 146.976562 172.035156 147.007812 180.929688 C 147.023438 183.992188 147.070312 187.054688 147.148438 190.117188 L 147.148438 194.636719 C 147.148438 195.449219 147.808594 196.105469 148.617188 196.105469 L 167.773438 196.105469 C 168.585938 196.105469 169.242188 195.449219 169.242188 194.636719 L 169.242188 185.765625 C 169.242188 185.644531 169.222656 185.53125 169.195312 185.421875 C 169.21875 177.414062 169.230469 169.410156 169.242188 161.398438 " fill-opacity="1" fill-rule="nonzero"/></g><g fill="#1673ff" fill-opacity="1"><g transform="translate(59.314215, 226.325091)"><g><path d="M 4.59375 0.140625 C 3.800781 0.140625 3.03125 0.03125 2.28125 -0.1875 C 1.539062 -0.414062 0.953125 -0.71875 0.515625 -1.09375 L 1.1875 -2.59375 C 1.601562 -2.25 2.117188 -1.972656 2.734375 -1.765625 C 3.359375 -1.554688 3.976562 -1.453125 4.59375 -1.453125 C 5.363281 -1.453125 5.9375 -1.570312 6.3125 -1.8125 C 6.695312 -2.0625 6.890625 -2.390625 6.890625 -2.796875 C 6.890625 -3.085938 6.78125 -3.328125 6.5625 -3.515625 C 6.351562 -3.710938 6.085938 -3.863281 5.765625 -3.96875 C 5.441406 -4.082031 5 -4.207031 4.4375 -4.34375 C 3.644531 -4.53125 3.003906 -4.71875 2.515625 -4.90625 C 2.023438 -5.09375 1.601562 -5.382812 1.25 -5.78125 C 0.90625 -6.1875 0.734375 -6.726562 0.734375 -7.40625 C 0.734375 -7.976562 0.890625 -8.5 1.203125 -8.96875 C 1.515625 -9.4375 1.984375 -9.804688 2.609375 -10.078125 C 3.234375 -10.359375 4 -10.5 4.90625 -10.5 C 5.539062 -10.5 6.160156 -10.414062 6.765625 -10.25 C 7.378906 -10.09375 7.90625 -9.867188 8.34375 -9.578125 L 7.75 -8.078125 C 7.289062 -8.347656 6.816406 -8.550781 6.328125 -8.6875 C 5.835938 -8.820312 5.359375 -8.890625 4.890625 -8.890625 C 4.128906 -8.890625 3.5625 -8.757812 3.1875 -8.5 C 2.820312 -8.25 2.640625 -7.914062 2.640625 -7.5 C 2.640625 -7.195312 2.742188 -6.953125 2.953125 -6.765625 C 3.171875 -6.578125 3.441406 -6.425781 3.765625 -6.3125 C 4.085938 -6.207031 4.53125 -6.085938 5.09375 -5.953125 C 5.863281 -5.773438 6.492188 -5.585938 6.984375 -5.390625 C 7.484375 -5.203125 7.90625 -4.910156 8.25 -4.515625 C 8.601562 -4.128906 8.78125 -3.597656 8.78125 -2.921875 C 8.78125 -2.347656 8.625 -1.832031 8.3125 -1.375 C 8 -0.914062 7.523438 -0.546875 6.890625 -0.265625 C 6.265625 0.00390625 5.5 0.140625 4.59375 0.140625 Z M 4.59375 0.140625 "/></g></g></g><g fill="#1673ff" fill-opacity="1"><g transform="translate(68.608835, 226.325091)"><g><path d="M 1.390625 -10.34375 L 3.3125 -10.34375 L 3.3125 0 L 1.390625 0 Z M 1.390625 -10.34375 "/></g></g></g><g fill="#1673ff" fill-opacity="1"><g transform="translate(73.322641, 226.325091)"><g><path d="M 10.578125 -10.34375 L 10.578125 0 L 9 0 L 3.296875 -7 L 3.296875 0 L 1.390625 0 L 1.390625 -10.34375 L 2.96875 -10.34375 L 8.671875 -3.34375 L 8.671875 -10.34375 Z M 10.578125 -10.34375 "/></g></g></g><g fill="#1673ff" fill-opacity="1"><g transform="translate(85.291873, 226.325091)"><g><path d="M 8.453125 -5.296875 L 10.265625 -5.296875 L 10.265625 -1.171875 C 9.734375 -0.742188 9.113281 -0.414062 8.40625 -0.1875 C 7.695312 0.03125 6.96875 0.140625 6.21875 0.140625 C 5.164062 0.140625 4.210938 -0.0859375 3.359375 -0.546875 C 2.515625 -1.003906 1.851562 -1.632812 1.375 -2.4375 C 0.894531 -3.25 0.65625 -4.160156 0.65625 -5.171875 C 0.65625 -6.191406 0.894531 -7.101562 1.375 -7.90625 C 1.851562 -8.71875 2.519531 -9.351562 3.375 -9.8125 C 4.226562 -10.269531 5.1875 -10.5 6.25 -10.5 C 7.113281 -10.5 7.898438 -10.351562 8.609375 -10.0625 C 9.328125 -9.78125 9.925781 -9.363281 10.40625 -8.8125 L 9.1875 -7.625 C 8.40625 -8.414062 7.457031 -8.8125 6.34375 -8.8125 C 5.613281 -8.8125 4.960938 -8.65625 4.390625 -8.34375 C 3.828125 -8.039062 3.382812 -7.613281 3.0625 -7.0625 C 2.75 -6.507812 2.59375 -5.878906 2.59375 -5.171875 C 2.59375 -4.484375 2.75 -3.863281 3.0625 -3.3125 C 3.382812 -2.757812 3.828125 -2.320312 4.390625 -2 C 4.960938 -1.6875 5.609375 -1.53125 6.328125 -1.53125 C 7.128906 -1.53125 7.835938 -1.707031 8.453125 -2.0625 Z M 8.453125 -5.296875 "/></g></g></g><g fill="#1673ff" fill-opacity="1"><g transform="translate(96.699588, 226.325091)"><g><path d="M 1.390625 -10.34375 L 3.3125 -10.34375 L 3.3125 -1.625 L 8.71875 -1.625 L 8.71875 0 L 1.390625 0 Z M 1.390625 -10.34375 "/></g></g></g><g fill="#1673ff" fill-opacity="1"><g transform="translate(105.550905, 226.325091)"><g><path d="M 9.15625 -1.609375 L 9.15625 0 L 1.390625 0 L 1.390625 -10.34375 L 8.9375 -10.34375 L 8.9375 -8.734375 L 3.3125 -8.734375 L 3.3125 -6.046875 L 8.3125 -6.046875 L 8.3125 -4.46875 L 3.3125 -4.46875 L 3.3125 -1.609375 Z M 9.15625 -1.609375 "/></g></g></g><g fill="#1673ff" fill-opacity="1"><g transform="translate(115.451376, 226.325091)"><g/></g></g><g fill="#1673ff" fill-opacity="1"><g transform="translate(119.529785, 226.325091)"><g><path d="M 8.09375 -2.390625 L 2.921875 -2.390625 L 1.90625 0 L -0.078125 0 L 4.578125 -10.34375 L 6.46875 -10.34375 L 11.140625 0 L 9.140625 0 Z M 7.46875 -3.90625 L 5.515625 -8.421875 L 3.578125 -3.90625 Z M 7.46875 -3.90625 "/></g></g></g><g fill="#1673ff" fill-opacity="1"><g transform="translate(130.597624, 226.325091)"><g><path d="M 6.171875 0.140625 C 5.128906 0.140625 4.1875 -0.0859375 3.34375 -0.546875 C 2.5 -1.003906 1.835938 -1.632812 1.359375 -2.4375 C 0.890625 -3.25 0.65625 -4.160156 0.65625 -5.171875 C 0.65625 -6.191406 0.894531 -7.101562 1.375 -7.90625 C 1.851562 -8.71875 2.515625 -9.351562 3.359375 -9.8125 C 4.203125 -10.269531 5.144531 -10.5 6.1875 -10.5 C 7.039062 -10.5 7.816406 -10.347656 8.515625 -10.046875 C 9.210938 -9.753906 9.800781 -9.328125 10.28125 -8.765625 L 9.046875 -7.59375 C 8.296875 -8.40625 7.375 -8.8125 6.28125 -8.8125 C 5.570312 -8.8125 4.9375 -8.65625 4.375 -8.34375 C 3.8125 -8.03125 3.375 -7.597656 3.0625 -7.046875 C 2.75 -6.492188 2.59375 -5.867188 2.59375 -5.171875 C 2.59375 -4.472656 2.75 -3.847656 3.0625 -3.296875 C 3.375 -2.742188 3.8125 -2.3125 4.375 -2 C 4.9375 -1.6875 5.570312 -1.53125 6.28125 -1.53125 C 7.375 -1.53125 8.296875 -1.941406 9.046875 -2.765625 L 10.28125 -1.578125 C 9.800781 -1.015625 9.207031 -0.585938 8.5 -0.296875 C 7.800781 -0.00390625 7.023438 0.140625 6.171875 0.140625 Z M 6.171875 0.140625 "/></g></g></g><g fill="#1673ff" fill-opacity="1"><g transform="translate(141.340376, 226.325091)"><g><path d="M 9.15625 -1.609375 L 9.15625 0 L 1.390625 0 L 1.390625 -10.34375 L 8.9375 -10.34375 L 8.9375 -8.734375 L 3.3125 -8.734375 L 3.3125 -6.046875 L 8.3125 -6.046875 L 8.3125 -4.46875 L 3.3125 -4.46875 L 3.3125 -1.609375 Z M 9.15625 -1.609375 "/></g></g></g><g fill="#1673ff" fill-opacity="1"><g transform="translate(151.240847, 226.325091)"><g><path d="M 9.15625 -1.609375 L 9.15625 0 L 1.390625 0 L 1.390625 -10.34375 L 8.9375 -10.34375 L 8.9375 -8.734375 L 3.3125 -8.734375 L 3.3125 -6.046875 L 8.3125 -6.046875 L 8.3125 -4.46875 L 3.3125 -4.46875 L 3.3125 -1.609375 Z M 9.15625 -1.609375 "/></g></g></g><g fill="#1673ff" fill-opacity="1"><g transform="translate(161.141318, 226.325091)"><g><path d="M 4.59375 0.140625 C 3.800781 0.140625 3.03125 0.03125 2.28125 -0.1875 C 1.539062 -0.414062 0.953125 -0.71875 0.515625 -1.09375 L 1.1875 -2.59375 C 1.601562 -2.25 2.117188 -1.972656 2.734375 -1.765625 C 3.359375 -1.554688 3.976562 -1.453125 4.59375 -1.453125 C 5.363281 -1.453125 5.9375 -1.570312 6.3125 -1.8125 C 6.695312 -2.0625 6.890625 -2.390625 6.890625 -2.796875 C 6.890625 -3.085938 6.78125 -3.328125 6.5625 -3.515625 C 6.351562 -3.710938 6.085938 -3.863281 5.765625 -3.96875 C 5.441406 -4.082031 5 -4.207031 4.4375 -4.34375 C 3.644531 -4.53125 3.003906 -4.71875 2.515625 -4.90625 C 2.023438 -5.09375 1.601562 -5.382812 1.25 -5.78125 C 0.90625 -6.1875 0.734375 -6.726562 0.734375 -7.40625 C 0.734375 -7.976562 0.890625 -8.5 1.203125 -8.96875 C 1.515625 -9.4375 1.984375 -9.804688 2.609375 -10.078125 C 3.234375 -10.359375 4 -10.5 4.90625 -10.5 C 5.539062 -10.5 6.160156 -10.414062 6.765625 -10.25 C 7.378906 -10.09375 7.90625 -9.867188 8.34375 -9.578125 L 7.75 -8.078125 C 7.289062 -8.347656 6.816406 -8.550781 6.328125 -8.6875 C 5.835938 -8.820312 5.359375 -8.890625 4.890625 -8.890625 C 4.128906 -8.890625 3.5625 -8.757812 3.1875 -8.5 C 2.820312 -8.25 2.640625 -7.914062 2.640625 -7.5 C 2.640625 -7.195312 2.742188 -6.953125 2.953125 -6.765625 C 3.171875 -6.578125 3.441406 -6.425781 3.765625 -6.3125 C 4.085938 -6.207031 4.53125 -6.085938 5.09375 -5.953125 C 5.863281 -5.773438 6.492188 -5.585938 6.984375 -5.390625 C 7.484375 -5.203125 7.90625 -4.910156 8.25 -4.515625 C 8.601562 -4.128906 8.78125 -3.597656 8.78125 -2.921875 C 8.78125 -2.347656 8.625 -1.832031 8.3125 -1.375 C 8 -0.914062 7.523438 -0.546875 6.890625 -0.265625 C 6.265625 0.00390625 5.5 0.140625 4.59375 0.140625 Z M 4.59375 0.140625 "/></g></g></g><g fill="#1673ff" fill-opacity="1"><g transform="translate(170.435938, 226.325091)"><g/></g></g><g fill="#1673ff" fill-opacity="1"><g transform="translate(174.514347, 226.325091)"><g><path d="M 3.484375 -8.71875 L 0.0625 -8.71875 L 0.0625 -10.34375 L 8.84375 -10.34375 L 8.84375 -8.71875 L 5.40625 -8.71875 L 5.40625 0 L 3.484375 0 Z M 3.484375 -8.71875 "/></g></g></g><g fill="#1673ff" fill-opacity="1"><g transform="translate(183.409998, 226.325091)"><g><path d="M 6.21875 0.140625 C 5.164062 0.140625 4.210938 -0.0859375 3.359375 -0.546875 C 2.515625 -1.003906 1.851562 -1.640625 1.375 -2.453125 C 0.894531 -3.265625 0.65625 -4.171875 0.65625 -5.171875 C 0.65625 -6.179688 0.894531 -7.09375 1.375 -7.90625 C 1.851562 -8.71875 2.515625 -9.351562 3.359375 -9.8125 C 4.210938 -10.269531 5.164062 -10.5 6.21875 -10.5 C 7.269531 -10.5 8.21875 -10.269531 9.0625 -9.8125 C 9.914062 -9.351562 10.582031 -8.71875 11.0625 -7.90625 C 11.550781 -7.101562 11.796875 -6.191406 11.796875 -5.171875 C 11.796875 -4.160156 11.550781 -3.25 11.0625 -2.4375 C 10.582031 -1.632812 9.914062 -1.003906 9.0625 -0.546875 C 8.21875 -0.0859375 7.269531 0.140625 6.21875 0.140625 Z M 6.21875 -1.53125 C 6.90625 -1.53125 7.523438 -1.6875 8.078125 -2 C 8.628906 -2.3125 9.0625 -2.742188 9.375 -3.296875 C 9.695312 -3.859375 9.859375 -4.484375 9.859375 -5.171875 C 9.859375 -5.859375 9.695312 -6.476562 9.375 -7.03125 C 9.0625 -7.59375 8.628906 -8.03125 8.078125 -8.34375 C 7.523438 -8.65625 6.90625 -8.8125 6.21875 -8.8125 C 5.53125 -8.8125 4.910156 -8.65625 4.359375 -8.34375 C 3.804688 -8.03125 3.375 -7.59375 3.0625 -7.03125 C 2.75 -6.476562 2.59375 -5.859375 2.59375 -5.171875 C 2.59375 -4.484375 2.75 -3.859375 3.0625 -3.296875 C 3.375 -2.742188 3.804688 -2.3125 4.359375 -2 C 4.910156 -1.6875 5.53125 -1.53125 6.21875 -1.53125 Z M 6.21875 -1.53125 "/></g></g></g><g fill="#1673ff" fill-opacity="1"><g transform="translate(195.852088, 226.325091)"><g/></g></g><g fill="#1673ff" fill-opacity="1"><g transform="translate(199.930497, 226.325091)"><g><path d="M 8.09375 -2.390625 L 2.921875 -2.390625 L 1.90625 0 L -0.078125 0 L 4.578125 -10.34375 L 6.46875 -10.34375 L 11.140625 0 L 9.140625 0 Z M 7.46875 -3.90625 L 5.515625 -8.421875 L 3.578125 -3.90625 Z M 7.46875 -3.90625 "/></g></g></g><g fill="#1673ff" fill-opacity="1"><g transform="translate(210.998336, 226.325091)"><g><path d="M 1.390625 -10.34375 L 3.3125 -10.34375 L 3.3125 -1.625 L 8.71875 -1.625 L 8.71875 0 L 1.390625 0 Z M 1.390625 -10.34375 "/></g></g></g><g fill="#1673ff" fill-opacity="1"><g transform="translate(219.849654, 226.325091)"><g><path d="M 1.390625 -10.34375 L 3.3125 -10.34375 L 3.3125 -1.625 L 8.71875 -1.625 L 8.71875 0 L 1.390625 0 Z M 1.390625 -10.34375 "/></g></g></g><g fill="#1673ff" fill-opacity="1"><g transform="translate(228.700972, 226.325091)"><g/></g></g><g fill="#1673ff" fill-opacity="1"><g transform="translate(232.779381, 226.325091)"><g><path d="M 10.890625 0 L 10.875 -6.859375 L 7.484375 -1.1875 L 6.625 -1.1875 L 3.21875 -6.765625 L 3.21875 0 L 1.390625 0 L 1.390625 -10.34375 L 2.96875 -10.34375 L 7.078125 -3.484375 L 11.109375 -10.34375 L 12.703125 -10.34375 L 12.71875 0 Z M 10.890625 0 "/></g></g></g><g fill="#1673ff" fill-opacity="1"><g transform="translate(246.891253, 226.325091)"><g><path d="M 8.09375 -2.390625 L 2.921875 -2.390625 L 1.90625 0 L -0.078125 0 L 4.578125 -10.34375 L 6.46875 -10.34375 L 11.140625 0 L 9.140625 0 Z M 7.46875 -3.90625 L 5.515625 -8.421875 L 3.578125 -3.90625 Z M 7.46875 -3.90625 "/></g></g></g><g fill="#1673ff" fill-opacity="1"><g transform="translate(257.959083, 226.325091)"><g><path d="M 8.15625 0 L 6.046875 -3.03125 C 5.953125 -3.019531 5.816406 -3.015625 5.640625 -3.015625 L 3.3125 -3.015625 L 3.3125 0 L 1.390625 0 L 1.390625 -10.34375 L 5.640625 -10.34375 C 6.535156 -10.34375 7.316406 -10.191406 7.984375 -9.890625 C 8.648438 -9.597656 9.160156 -9.175781 9.515625 -8.625 C 9.867188 -8.070312 10.046875 -7.421875 10.046875 -6.671875 C 10.046875 -5.890625 9.851562 -5.21875 9.46875 -4.65625 C 9.09375 -4.09375 8.550781 -3.675781 7.84375 -3.40625 L 10.234375 0 Z M 8.109375 -6.671875 C 8.109375 -7.328125 7.890625 -7.832031 7.453125 -8.1875 C 7.023438 -8.539062 6.394531 -8.71875 5.5625 -8.71875 L 3.3125 -8.71875 L 3.3125 -4.59375 L 5.5625 -4.59375 C 6.394531 -4.59375 7.023438 -4.769531 7.453125 -5.125 C 7.890625 -5.488281 8.109375 -6.003906 8.109375 -6.671875 Z M 8.109375 -6.671875 "/></g></g></g><g fill="#1673ff" fill-opacity="1"><g transform="translate(268.760946, 226.325091)"><g><path d="M 4.953125 -4.328125 L 3.3125 -2.640625 L 3.3125 0 L 1.390625 0 L 1.390625 -10.34375 L 3.3125 -10.34375 L 3.3125 -5.046875 L 8.421875 -10.34375 L 10.578125 -10.34375 L 6.234375 -5.71875 L 10.84375 0 L 8.609375 0 Z M 4.953125 -4.328125 "/></g></g></g><g fill="#1673ff" fill-opacity="1"><g transform="translate(279.533254, 226.325091)"><g><path d="M 9.15625 -1.609375 L 9.15625 0 L 1.390625 0 L 1.390625 -10.34375 L 8.9375 -10.34375 L 8.9375 -8.734375 L 3.3125 -8.734375 L 3.3125 -6.046875 L 8.3125 -6.046875 L 8.3125 -4.46875 L 3.3125 -4.46875 L 3.3125 -1.609375 Z M 9.15625 -1.609375 "/></g></g></g><g fill="#1673ff" fill-opacity="1"><g transform="translate(289.433725, 226.325091)"><g><path d="M 3.484375 -8.71875 L 0.0625 -8.71875 L 0.0625 -10.34375 L 8.84375 -10.34375 L 8.84375 -8.71875 L 5.40625 -8.71875 L 5.40625 0 L 3.484375 0 Z M 3.484375 -8.71875 "/></g></g></g><g fill="#1673ff" fill-opacity="1"><g transform="translate(74.749391, 422.973699)"><g><path d="M 3.484375 -8.71875 L 0.0625 -8.71875 L 0.0625 -10.34375 L 8.84375 -10.34375 L 8.84375 -8.71875 L 5.40625 -8.71875 L 5.40625 0 L 3.484375 0 Z M 3.484375 -8.71875 "/></g></g></g><g fill="#1673ff" fill-opacity="1"><g transform="translate(83.645043, 422.973699)"><g><path d="M 8.15625 0 L 6.046875 -3.03125 C 5.953125 -3.019531 5.816406 -3.015625 5.640625 -3.015625 L 3.3125 -3.015625 L 3.3125 0 L 1.390625 0 L 1.390625 -10.34375 L 5.640625 -10.34375 C 6.535156 -10.34375 7.316406 -10.191406 7.984375 -9.890625 C 8.648438 -9.597656 9.160156 -9.175781 9.515625 -8.625 C 9.867188 -8.070312 10.046875 -7.421875 10.046875 -6.671875 C 10.046875 -5.890625 9.851562 -5.21875 9.46875 -4.65625 C 9.09375 -4.09375 8.550781 -3.675781 7.84375 -3.40625 L 10.234375 0 Z M 8.109375 -6.671875 C 8.109375 -7.328125 7.890625 -7.832031 7.453125 -8.1875 C 7.023438 -8.539062 6.394531 -8.71875 5.5625 -8.71875 L 3.3125 -8.71875 L 3.3125 -4.59375 L 5.5625 -4.59375 C 6.394531 -4.59375 7.023438 -4.769531 7.453125 -5.125 C 7.890625 -5.488281 8.109375 -6.003906 8.109375 -6.671875 Z M 8.109375 -6.671875 "/></g></g></g><g fill="#1673ff" fill-opacity="1"><g transform="translate(94.446907, 422.973699)"><g><path d="M 8.09375 -2.390625 L 2.921875 -2.390625 L 1.90625 0 L -0.078125 0 L 4.578125 -10.34375 L 6.46875 -10.34375 L 11.140625 0 L 9.140625 0 Z M 7.46875 -3.90625 L 5.515625 -8.421875 L 3.578125 -3.90625 Z M 7.46875 -3.90625 "/></g></g></g><g fill="#1673ff" fill-opacity="1"><g transform="translate(105.514746, 422.973699)"><g><path d="M 1.390625 -10.34375 L 5.90625 -10.34375 C 7.007812 -10.34375 7.988281 -10.128906 8.84375 -9.703125 C 9.707031 -9.273438 10.375 -8.664062 10.84375 -7.875 C 11.320312 -7.09375 11.5625 -6.191406 11.5625 -5.171875 C 11.5625 -4.148438 11.320312 -3.242188 10.84375 -2.453125 C 10.375 -1.671875 9.707031 -1.066406 8.84375 -0.640625 C 7.988281 -0.210938 7.007812 0 5.90625 0 L 1.390625 0 Z M 5.828125 -1.625 C 6.585938 -1.625 7.253906 -1.769531 7.828125 -2.0625 C 8.398438 -2.351562 8.84375 -2.765625 9.15625 -3.296875 C 9.46875 -3.835938 9.625 -4.460938 9.625 -5.171875 C 9.625 -5.878906 9.46875 -6.5 9.15625 -7.03125 C 8.84375 -7.570312 8.398438 -7.988281 7.828125 -8.28125 C 7.253906 -8.570312 6.585938 -8.71875 5.828125 -8.71875 L 3.3125 -8.71875 L 3.3125 -1.625 Z M 5.828125 -1.625 "/></g></g></g><g fill="#1673ff" fill-opacity="1"><g transform="translate(117.720407, 422.973699)"><g><path d="M 9.15625 -1.609375 L 9.15625 0 L 1.390625 0 L 1.390625 -10.34375 L 8.9375 -10.34375 L 8.9375 -8.734375 L 3.3125 -8.734375 L 3.3125 -6.046875 L 8.3125 -6.046875 L 8.3125 -4.46875 L 3.3125 -4.46875 L 3.3125 -1.609375 Z M 9.15625 -1.609375 "/></g></g></g><g fill="#1673ff" fill-opacity="1"><g transform="translate(127.620878, 422.973699)"><g/></g></g><g fill="#1673ff" fill-opacity="1"><g transform="translate(131.699287, 422.973699)"><g><path d="M 8.09375 -2.390625 L 2.921875 -2.390625 L 1.90625 0 L -0.078125 0 L 4.578125 -10.34375 L 6.46875 -10.34375 L 11.140625 0 L 9.140625 0 Z M 7.46875 -3.90625 L 5.515625 -8.421875 L 3.578125 -3.90625 Z M 7.46875 -3.90625 "/></g></g></g><g fill="#1673ff" fill-opacity="1"><g transform="translate(142.767126, 422.973699)"><g><path d="M 10.578125 -10.34375 L 10.578125 0 L 9 0 L 3.296875 -7 L 3.296875 0 L 1.390625 0 L 1.390625 -10.34375 L 2.96875 -10.34375 L 8.671875 -3.34375 L 8.671875 -10.34375 Z M 10.578125 -10.34375 "/></g></g></g><g fill="#1673ff" fill-opacity="1"><g transform="translate(154.736358, 422.973699)"><g><path d="M 5.859375 -3.65625 L 5.859375 0 L 3.9375 0 L 3.9375 -3.625 L -0.140625 -10.34375 L 1.921875 -10.34375 L 4.953125 -5.3125 L 8.015625 -10.34375 L 9.90625 -10.34375 Z M 5.859375 -3.65625 "/></g></g></g><g fill="#1673ff" fill-opacity="1"><g transform="translate(164.503836, 422.973699)"><g><path d="M 3.484375 -8.71875 L 0.0625 -8.71875 L 0.0625 -10.34375 L 8.84375 -10.34375 L 8.84375 -8.71875 L 5.40625 -8.71875 L 5.40625 0 L 3.484375 0 Z M 3.484375 -8.71875 "/></g></g></g><g fill="#1673ff" fill-opacity="1"><g transform="translate(173.399488, 422.973699)"><g><path d="M 1.390625 -10.34375 L 3.3125 -10.34375 L 3.3125 0 L 1.390625 0 Z M 1.390625 -10.34375 "/></g></g></g><g fill="#1673ff" fill-opacity="1"><g transform="translate(178.113294, 422.973699)"><g><path d="M 10.890625 0 L 10.875 -6.859375 L 7.484375 -1.1875 L 6.625 -1.1875 L 3.21875 -6.765625 L 3.21875 0 L 1.390625 0 L 1.390625 -10.34375 L 2.96875 -10.34375 L 7.078125 -3.484375 L 11.109375 -10.34375 L 12.703125 -10.34375 L 12.71875 0 Z M 10.890625 0 "/></g></g></g><g fill="#1673ff" fill-opacity="1"><g transform="translate(192.225167, 422.973699)"><g><path d="M 9.15625 -1.609375 L 9.15625 0 L 1.390625 0 L 1.390625 -10.34375 L 8.9375 -10.34375 L 8.9375 -8.734375 L 3.3125 -8.734375 L 3.3125 -6.046875 L 8.3125 -6.046875 L 8.3125 -4.46875 L 3.3125 -4.46875 L 3.3125 -1.609375 Z M 9.15625 -1.609375 "/></g></g></g><g fill="#1673ff" fill-opacity="1"><g transform="translate(202.125638, 422.973699)"><g/></g></g><g fill="#1673ff" fill-opacity="1"><g transform="translate(206.204047, 422.973699)"><g><path d="M 8.09375 -2.390625 L 2.921875 -2.390625 L 1.90625 0 L -0.078125 0 L 4.578125 -10.34375 L 6.46875 -10.34375 L 11.140625 0 L 9.140625 0 Z M 7.46875 -3.90625 L 5.515625 -8.421875 L 3.578125 -3.90625 Z M 7.46875 -3.90625 "/></g></g></g><g fill="#1673ff" fill-opacity="1"><g transform="translate(217.271886, 422.973699)"><g><path d="M 10.578125 -10.34375 L 10.578125 0 L 9 0 L 3.296875 -7 L 3.296875 0 L 1.390625 0 L 1.390625 -10.34375 L 2.96875 -10.34375 L 8.671875 -3.34375 L 8.671875 -10.34375 Z M 10.578125 -10.34375 "/></g></g></g><g fill="#1673ff" fill-opacity="1"><g transform="translate(229.241118, 422.973699)"><g><path d="M 5.859375 -3.65625 L 5.859375 0 L 3.9375 0 L 3.9375 -3.625 L -0.140625 -10.34375 L 1.921875 -10.34375 L 4.953125 -5.3125 L 8.015625 -10.34375 L 9.90625 -10.34375 Z M 5.859375 -3.65625 "/></g></g></g><g fill="#1673ff" fill-opacity="1"><g transform="translate(239.008606, 422.973699)"><g><path d="M 16.515625 -10.34375 L 13.078125 0 L 11.046875 0 L 8.484375 -7.65625 L 5.890625 0 L 3.828125 0 L 0.40625 -10.34375 L 2.390625 -10.34375 L 4.96875 -2.484375 L 7.640625 -10.34375 L 9.421875 -10.34375 L 12.03125 -2.4375 L 14.671875 -10.34375 Z M 16.515625 -10.34375 "/></g></g></g><g fill="#1673ff" fill-opacity="1"><g transform="translate(255.913285, 422.973699)"><g><path d="M 10.578125 -10.34375 L 10.578125 0 L 8.65625 0 L 8.65625 -4.4375 L 3.3125 -4.4375 L 3.3125 0 L 1.390625 0 L 1.390625 -10.34375 L 3.3125 -10.34375 L 3.3125 -6.078125 L 8.65625 -6.078125 L 8.65625 -10.34375 Z M 10.578125 -10.34375 "/></g></g></g><g fill="#1673ff" fill-opacity="1"><g transform="translate(267.882508, 422.973699)"><g><path d="M 9.15625 -1.609375 L 9.15625 0 L 1.390625 0 L 1.390625 -10.34375 L 8.9375 -10.34375 L 8.9375 -8.734375 L 3.3125 -8.734375 L 3.3125 -6.046875 L 8.3125 -6.046875 L 8.3125 -4.46875 L 3.3125 -4.46875 L 3.3125 -1.609375 Z M 9.15625 -1.609375 "/></g></g></g><g fill="#1673ff" fill-opacity="1"><g transform="translate(277.782979, 422.973699)"><g><path d="M 8.15625 0 L 6.046875 -3.03125 C 5.953125 -3.019531 5.816406 -3.015625 5.640625 -3.015625 L 3.3125 -3.015625 L 3.3125 0 L 1.390625 0 L 1.390625 -10.34375 L 5.640625 -10.34375 C 6.535156 -10.34375 7.316406 -10.191406 7.984375 -9.890625 C 8.648438 -9.597656 9.160156 -9.175781 9.515625 -8.625 C 9.867188 -8.070312 10.046875 -7.421875 10.046875 -6.671875 C 10.046875 -5.890625 9.851562 -5.21875 9.46875 -4.65625 C 9.09375 -4.09375 8.550781 -3.675781 7.84375 -3.40625 L 10.234375 0 Z M 8.109375 -6.671875 C 8.109375 -7.328125 7.890625 -7.832031 7.453125 -8.1875 C 7.023438 -8.539062 6.394531 -8.71875 5.5625 -8.71875 L 3.3125 -8.71875 L 3.3125 -4.59375 L 5.5625 -4.59375 C 6.394531 -4.59375 7.023438 -4.769531 7.453125 -5.125 C 7.890625 -5.488281 8.109375 -6.003906 8.109375 -6.671875 Z M 8.109375 -6.671875 "/></g></g></g><g fill="#1673ff" fill-opacity="1"><g transform="translate(288.584842, 422.973699)"><g><path d="M 9.15625 -1.609375 L 9.15625 0 L 1.390625 0 L 1.390625 -10.34375 L 8.9375 -10.34375 L 8.9375 -8.734375 L 3.3125 -8.734375 L 3.3125 -6.046875 L 8.3125 -6.046875 L 8.3125 -4.46875 L 3.3125 -4.46875 L 3.3125 -1.609375 Z M 9.15625 -1.609375 "/></g></g></g><g fill="#1673ff" fill-opacity="1"><g transform="translate(444.24022, 226.325091)"><g><path d="M 1.390625 -10.34375 L 3.3125 -10.34375 L 3.3125 0 L 1.390625 0 Z M 1.390625 -10.34375 "/></g></g></g><g fill="#1673ff" fill-opacity="1"><g transform="translate(448.954026, 226.325091)"><g><path d="M 10.578125 -10.34375 L 10.578125 0 L 9 0 L 3.296875 -7 L 3.296875 0 L 1.390625 0 L 1.390625 -10.34375 L 2.96875 -10.34375 L 8.671875 -3.34375 L 8.671875 -10.34375 Z M 10.578125 -10.34375 "/></g></g></g><g fill="#1673ff" fill-opacity="1"><g transform="translate(460.923258, 226.325091)"><g><path d="M 0.8125 -4.875 L 4.875 -4.875 L 4.875 -3.34375 L 0.8125 -3.34375 Z M 0.8125 -4.875 "/></g></g></g><g fill="#1673ff" fill-opacity="1"><g transform="translate(466.612337, 226.325091)"><g><path d="M 1.390625 -10.34375 L 5.90625 -10.34375 C 7.007812 -10.34375 7.988281 -10.128906 8.84375 -9.703125 C 9.707031 -9.273438 10.375 -8.664062 10.84375 -7.875 C 11.320312 -7.09375 11.5625 -6.191406 11.5625 -5.171875 C 11.5625 -4.148438 11.320312 -3.242188 10.84375 -2.453125 C 10.375 -1.671875 9.707031 -1.066406 8.84375 -0.640625 C 7.988281 -0.210938 7.007812 0 5.90625 0 L 1.390625 0 Z M 5.828125 -1.625 C 6.585938 -1.625 7.253906 -1.769531 7.828125 -2.0625 C 8.398438 -2.351562 8.84375 -2.765625 9.15625 -3.296875 C 9.46875 -3.835938 9.625 -4.460938 9.625 -5.171875 C 9.625 -5.878906 9.46875 -6.5 9.15625 -7.03125 C 8.84375 -7.570312 8.398438 -7.988281 7.828125 -8.28125 C 7.253906 -8.570312 6.585938 -8.71875 5.828125 -8.71875 L 3.3125 -8.71875 L 3.3125 -1.625 Z M 5.828125 -1.625 "/></g></g></g><g fill="#1673ff" fill-opacity="1"><g transform="translate(478.817998, 226.325091)"><g><path d="M 9.15625 -1.609375 L 9.15625 0 L 1.390625 0 L 1.390625 -10.34375 L 8.9375 -10.34375 L 8.9375 -8.734375 L 3.3125 -8.734375 L 3.3125 -6.046875 L 8.3125 -6.046875 L 8.3125 -4.46875 L 3.3125 -4.46875 L 3.3125 -1.609375 Z M 9.15625 -1.609375 "/></g></g></g><g fill="#1673ff" fill-opacity="1"><g transform="translate(488.718469, 226.325091)"><g><path d="M 5.640625 -10.34375 C 6.535156 -10.34375 7.316406 -10.191406 7.984375 -9.890625 C 8.648438 -9.597656 9.160156 -9.175781 9.515625 -8.625 C 9.867188 -8.070312 10.046875 -7.421875 10.046875 -6.671875 C 10.046875 -5.921875 9.867188 -5.265625 9.515625 -4.703125 C 9.160156 -4.148438 8.648438 -3.722656 7.984375 -3.421875 C 7.316406 -3.128906 6.535156 -2.984375 5.640625 -2.984375 L 3.3125 -2.984375 L 3.3125 0 L 1.390625 0 L 1.390625 -10.34375 Z M 5.5625 -4.609375 C 6.394531 -4.609375 7.023438 -4.785156 7.453125 -5.140625 C 7.890625 -5.492188 8.109375 -6.003906 8.109375 -6.671875 C 8.109375 -7.328125 7.890625 -7.832031 7.453125 -8.1875 C 7.023438 -8.539062 6.394531 -8.71875 5.5625 -8.71875 L 3.3125 -8.71875 L 3.3125 -4.609375 Z M 5.5625 -4.609375 "/></g></g></g><g fill="#1673ff" fill-opacity="1"><g transform="translate(499.446443, 226.325091)"><g><path d="M 3.484375 -8.71875 L 0.0625 -8.71875 L 0.0625 -10.34375 L 8.84375 -10.34375 L 8.84375 -8.71875 L 5.40625 -8.71875 L 5.40625 0 L 3.484375 0 Z M 3.484375 -8.71875 "/></g></g></g><g fill="#1673ff" fill-opacity="1"><g transform="translate(508.342094, 226.325091)"><g><path d="M 10.578125 -10.34375 L 10.578125 0 L 8.65625 0 L 8.65625 -4.4375 L 3.3125 -4.4375 L 3.3125 0 L 1.390625 0 L 1.390625 -10.34375 L 3.3125 -10.34375 L 3.3125 -6.078125 L 8.65625 -6.078125 L 8.65625 -10.34375 Z M 10.578125 -10.34375 "/></g></g></g><g fill="#1673ff" fill-opacity="1"><g transform="translate(520.311326, 226.325091)"><g/></g></g><g fill="#1673ff" fill-opacity="1"><g transform="translate(524.389735, 226.325091)"><g><path d="M 12.3125 1.03125 C 11.96875 1.4375 11.566406 1.742188 11.109375 1.953125 C 10.648438 2.160156 10.148438 2.265625 9.609375 2.265625 C 8.898438 2.265625 8.25 2.101562 7.65625 1.78125 C 7.0625 1.457031 6.382812 0.90625 5.625 0.125 C 4.675781 0.0390625 3.820312 -0.238281 3.0625 -0.71875 C 2.300781 -1.195312 1.707031 -1.820312 1.28125 -2.59375 C 0.863281 -3.363281 0.65625 -4.222656 0.65625 -5.171875 C 0.65625 -6.179688 0.894531 -7.09375 1.375 -7.90625 C 1.851562 -8.71875 2.515625 -9.351562 3.359375 -9.8125 C 4.210938 -10.269531 5.164062 -10.5 6.21875 -10.5 C 7.269531 -10.5 8.21875 -10.269531 9.0625 -9.8125 C 9.914062 -9.351562 10.582031 -8.71875 11.0625 -7.90625 C 11.550781 -7.101562 11.796875 -6.191406 11.796875 -5.171875 C 11.796875 -4.359375 11.628906 -3.601562 11.296875 -2.90625 C 10.972656 -2.207031 10.519531 -1.613281 9.9375 -1.125 C 9.363281 -0.644531 8.691406 -0.296875 7.921875 -0.078125 C 8.203125 0.234375 8.476562 0.457031 8.75 0.59375 C 9.03125 0.726562 9.332031 0.796875 9.65625 0.796875 C 10.332031 0.796875 10.921875 0.519531 11.421875 -0.03125 Z M 2.59375 -5.171875 C 2.59375 -4.484375 2.75 -3.859375 3.0625 -3.296875 C 3.375 -2.742188 3.804688 -2.3125 4.359375 -2 C 4.910156 -1.6875 5.53125 -1.53125 6.21875 -1.53125 C 6.90625 -1.53125 7.523438 -1.6875 8.078125 -2 C 8.628906 -2.3125 9.0625 -2.742188 9.375 -3.296875 C 9.695312 -3.859375 9.859375 -4.484375 9.859375 -5.171875 C 9.859375 -5.859375 9.695312 -6.476562 9.375 -7.03125 C 9.0625 -7.59375 8.628906 -8.03125 8.078125 -8.34375 C 7.523438 -8.65625 6.90625 -8.8125 6.21875 -8.8125 C 5.53125 -8.8125 4.910156 -8.65625 4.359375 -8.34375 C 3.804688 -8.03125 3.375 -7.59375 3.0625 -7.03125 C 2.75 -6.476562 2.59375 -5.859375 2.59375 -5.171875 Z M 2.59375 -5.171875 "/></g></g></g><g fill="#1673ff" fill-opacity="1"><g transform="translate(536.831825, 226.325091)"><g><path d="M 5.84375 0.140625 C 4.40625 0.140625 3.285156 -0.257812 2.484375 -1.0625 C 1.691406 -1.863281 1.296875 -3.015625 1.296875 -4.515625 L 1.296875 -10.34375 L 3.21875 -10.34375 L 3.21875 -4.578125 C 3.21875 -2.546875 4.097656 -1.53125 5.859375 -1.53125 C 7.597656 -1.53125 8.46875 -2.546875 8.46875 -4.578125 L 8.46875 -10.34375 L 10.359375 -10.34375 L 10.359375 -4.515625 C 10.359375 -3.015625 9.960938 -1.863281 9.171875 -1.0625 C 8.378906 -0.257812 7.269531 0.140625 5.84375 0.140625 Z M 5.84375 0.140625 "/></g></g></g><g fill="#1673ff" fill-opacity="1"><g transform="translate(548.490737, 226.325091)"><g><path d="M 8.09375 -2.390625 L 2.921875 -2.390625 L 1.90625 0 L -0.078125 0 L 4.578125 -10.34375 L 6.46875 -10.34375 L 11.140625 0 L 9.140625 0 Z M 7.46875 -3.90625 L 5.515625 -8.421875 L 3.578125 -3.90625 Z M 7.46875 -3.90625 "/></g></g></g><g fill="#1673ff" fill-opacity="1"><g transform="translate(559.558576, 226.325091)"><g><path d="M 1.390625 -10.34375 L 3.3125 -10.34375 L 3.3125 -1.625 L 8.71875 -1.625 L 8.71875 0 L 1.390625 0 Z M 1.390625 -10.34375 "/></g></g></g><g fill="#1673ff" fill-opacity="1"><g transform="translate(568.409894, 226.325091)"><g><path d="M 1.390625 -10.34375 L 3.3125 -10.34375 L 3.3125 0 L 1.390625 0 Z M 1.390625 -10.34375 "/></g></g></g><g fill="#1673ff" fill-opacity="1"><g transform="translate(573.1237, 226.325091)"><g><path d="M 3.484375 -8.71875 L 0.0625 -8.71875 L 0.0625 -10.34375 L 8.84375 -10.34375 L 8.84375 -8.71875 L 5.40625 -8.71875 L 5.40625 0 L 3.484375 0 Z M 3.484375 -8.71875 "/></g></g></g><g fill="#1673ff" fill-opacity="1"><g transform="translate(582.019352, 226.325091)"><g><path d="M 5.859375 -3.65625 L 5.859375 0 L 3.9375 0 L 3.9375 -3.625 L -0.140625 -10.34375 L 1.921875 -10.34375 L 4.953125 -5.3125 L 8.015625 -10.34375 L 9.90625 -10.34375 Z M 5.859375 -3.65625 "/></g></g></g><g fill="#1673ff" fill-opacity="1"><g transform="translate(591.786831, 226.325091)"><g/></g></g><g fill="#1673ff" fill-opacity="1"><g transform="translate(595.865239, 226.325091)"><g><path d="M 8.15625 0 L 6.046875 -3.03125 C 5.953125 -3.019531 5.816406 -3.015625 5.640625 -3.015625 L 3.3125 -3.015625 L 3.3125 0 L 1.390625 0 L 1.390625 -10.34375 L 5.640625 -10.34375 C 6.535156 -10.34375 7.316406 -10.191406 7.984375 -9.890625 C 8.648438 -9.597656 9.160156 -9.175781 9.515625 -8.625 C 9.867188 -8.070312 10.046875 -7.421875 10.046875 -6.671875 C 10.046875 -5.890625 9.851562 -5.21875 9.46875 -4.65625 C 9.09375 -4.09375 8.550781 -3.675781 7.84375 -3.40625 L 10.234375 0 Z M 8.109375 -6.671875 C 8.109375 -7.328125 7.890625 -7.832031 7.453125 -8.1875 C 7.023438 -8.539062 6.394531 -8.71875 5.5625 -8.71875 L 3.3125 -8.71875 L 3.3125 -4.59375 L 5.5625 -4.59375 C 6.394531 -4.59375 7.023438 -4.769531 7.453125 -5.125 C 7.890625 -5.488281 8.109375 -6.003906 8.109375 -6.671875 Z M 8.109375 -6.671875 "/></g></g></g><g fill="#1673ff" fill-opacity="1"><g transform="translate(606.667112, 226.325091)"><g><path d="M 9.15625 -1.609375 L 9.15625 0 L 1.390625 0 L 1.390625 -10.34375 L 8.9375 -10.34375 L 8.9375 -8.734375 L 3.3125 -8.734375 L 3.3125 -6.046875 L 8.3125 -6.046875 L 8.3125 -4.46875 L 3.3125 -4.46875 L 3.3125 -1.609375 Z M 9.15625 -1.609375 "/></g></g></g><g fill="#1673ff" fill-opacity="1"><g transform="translate(616.567584, 226.325091)"><g><path d="M 4.59375 0.140625 C 3.800781 0.140625 3.03125 0.03125 2.28125 -0.1875 C 1.539062 -0.414062 0.953125 -0.71875 0.515625 -1.09375 L 1.1875 -2.59375 C 1.601562 -2.25 2.117188 -1.972656 2.734375 -1.765625 C 3.359375 -1.554688 3.976562 -1.453125 4.59375 -1.453125 C 5.363281 -1.453125 5.9375 -1.570312 6.3125 -1.8125 C 6.695312 -2.0625 6.890625 -2.390625 6.890625 -2.796875 C 6.890625 -3.085938 6.78125 -3.328125 6.5625 -3.515625 C 6.351562 -3.710938 6.085938 -3.863281 5.765625 -3.96875 C 5.441406 -4.082031 5 -4.207031 4.4375 -4.34375 C 3.644531 -4.53125 3.003906 -4.71875 2.515625 -4.90625 C 2.023438 -5.09375 1.601562 -5.382812 1.25 -5.78125 C 0.90625 -6.1875 0.734375 -6.726562 0.734375 -7.40625 C 0.734375 -7.976562 0.890625 -8.5 1.203125 -8.96875 C 1.515625 -9.4375 1.984375 -9.804688 2.609375 -10.078125 C 3.234375 -10.359375 4 -10.5 4.90625 -10.5 C 5.539062 -10.5 6.160156 -10.414062 6.765625 -10.25 C 7.378906 -10.09375 7.90625 -9.867188 8.34375 -9.578125 L 7.75 -8.078125 C 7.289062 -8.347656 6.816406 -8.550781 6.328125 -8.6875 C 5.835938 -8.820312 5.359375 -8.890625 4.890625 -8.890625 C 4.128906 -8.890625 3.5625 -8.757812 3.1875 -8.5 C 2.820312 -8.25 2.640625 -7.914062 2.640625 -7.5 C 2.640625 -7.195312 2.742188 -6.953125 2.953125 -6.765625 C 3.171875 -6.578125 3.441406 -6.425781 3.765625 -6.3125 C 4.085938 -6.207031 4.53125 -6.085938 5.09375 -5.953125 C 5.863281 -5.773438 6.492188 -5.585938 6.984375 -5.390625 C 7.484375 -5.203125 7.90625 -4.910156 8.25 -4.515625 C 8.601562 -4.128906 8.78125 -3.597656 8.78125 -2.921875 C 8.78125 -2.347656 8.625 -1.832031 8.3125 -1.375 C 8 -0.914062 7.523438 -0.546875 6.890625 -0.265625 C 6.265625 0.00390625 5.5 0.140625 4.59375 0.140625 Z M 4.59375 0.140625 "/></g></g></g><g fill="#1673ff" fill-opacity="1"><g transform="translate(625.862204, 226.325091)"><g><path d="M 9.15625 -1.609375 L 9.15625 0 L 1.390625 0 L 1.390625 -10.34375 L 8.9375 -10.34375 L 8.9375 -8.734375 L 3.3125 -8.734375 L 3.3125 -6.046875 L 8.3125 -6.046875 L 8.3125 -4.46875 L 3.3125 -4.46875 L 3.3125 -1.609375 Z M 9.15625 -1.609375 "/></g></g></g><g fill="#1673ff" fill-opacity="1"><g transform="translate(635.762675, 226.325091)"><g><path d="M 8.09375 -2.390625 L 2.921875 -2.390625 L 1.90625 0 L -0.078125 0 L 4.578125 -10.34375 L 6.46875 -10.34375 L 11.140625 0 L 9.140625 0 Z M 7.46875 -3.90625 L 5.515625 -8.421875 L 3.578125 -3.90625 Z M 7.46875 -3.90625 "/></g></g></g><g fill="#1673ff" fill-opacity="1"><g transform="translate(646.830504, 226.325091)"><g><path d="M 8.15625 0 L 6.046875 -3.03125 C 5.953125 -3.019531 5.816406 -3.015625 5.640625 -3.015625 L 3.3125 -3.015625 L 3.3125 0 L 1.390625 0 L 1.390625 -10.34375 L 5.640625 -10.34375 C 6.535156 -10.34375 7.316406 -10.191406 7.984375 -9.890625 C 8.648438 -9.597656 9.160156 -9.175781 9.515625 -8.625 C 9.867188 -8.070312 10.046875 -7.421875 10.046875 -6.671875 C 10.046875 -5.890625 9.851562 -5.21875 9.46875 -4.65625 C 9.09375 -4.09375 8.550781 -3.675781 7.84375 -3.40625 L 10.234375 0 Z M 8.109375 -6.671875 C 8.109375 -7.328125 7.890625 -7.832031 7.453125 -8.1875 C 7.023438 -8.539062 6.394531 -8.71875 5.5625 -8.71875 L 3.3125 -8.71875 L 3.3125 -4.59375 L 5.5625 -4.59375 C 6.394531 -4.59375 7.023438 -4.769531 7.453125 -5.125 C 7.890625 -5.488281 8.109375 -6.003906 8.109375 -6.671875 Z M 8.109375 -6.671875 "/></g></g></g><g fill="#1673ff" fill-opacity="1"><g transform="translate(657.632368, 226.325091)"><g><path d="M 6.171875 0.140625 C 5.128906 0.140625 4.1875 -0.0859375 3.34375 -0.546875 C 2.5 -1.003906 1.835938 -1.632812 1.359375 -2.4375 C 0.890625 -3.25 0.65625 -4.160156 0.65625 -5.171875 C 0.65625 -6.191406 0.894531 -7.101562 1.375 -7.90625 C 1.851562 -8.71875 2.515625 -9.351562 3.359375 -9.8125 C 4.203125 -10.269531 5.144531 -10.5 6.1875 -10.5 C 7.039062 -10.5 7.816406 -10.347656 8.515625 -10.046875 C 9.210938 -9.753906 9.800781 -9.328125 10.28125 -8.765625 L 9.046875 -7.59375 C 8.296875 -8.40625 7.375 -8.8125 6.28125 -8.8125 C 5.570312 -8.8125 4.9375 -8.65625 4.375 -8.34375 C 3.8125 -8.03125 3.375 -7.597656 3.0625 -7.046875 C 2.75 -6.492188 2.59375 -5.867188 2.59375 -5.171875 C 2.59375 -4.472656 2.75 -3.847656 3.0625 -3.296875 C 3.375 -2.742188 3.8125 -2.3125 4.375 -2 C 4.9375 -1.6875 5.570312 -1.53125 6.28125 -1.53125 C 7.375 -1.53125 8.296875 -1.941406 9.046875 -2.765625 L 10.28125 -1.578125 C 9.800781 -1.015625 9.207031 -0.585938 8.5 -0.296875 C 7.800781 -0.00390625 7.023438 0.140625 6.171875 0.140625 Z M 6.171875 0.140625 "/></g></g></g><g fill="#1673ff" fill-opacity="1"><g transform="translate(668.375119, 226.325091)"><g><path d="M 10.578125 -10.34375 L 10.578125 0 L 8.65625 0 L 8.65625 -4.4375 L 3.3125 -4.4375 L 3.3125 0 L 1.390625 0 L 1.390625 -10.34375 L 3.3125 -10.34375 L 3.3125 -6.078125 L 8.65625 -6.078125 L 8.65625 -10.34375 Z M 10.578125 -10.34375 "/></g></g></g><g fill="#1673ff" fill-opacity="1"><g transform="translate(416.180966, 422.973699)"><g><path d="M 5.640625 -10.34375 C 6.535156 -10.34375 7.316406 -10.191406 7.984375 -9.890625 C 8.648438 -9.597656 9.160156 -9.175781 9.515625 -8.625 C 9.867188 -8.070312 10.046875 -7.421875 10.046875 -6.671875 C 10.046875 -5.921875 9.867188 -5.265625 9.515625 -4.703125 C 9.160156 -4.148438 8.648438 -3.722656 7.984375 -3.421875 C 7.316406 -3.128906 6.535156 -2.984375 5.640625 -2.984375 L 3.3125 -2.984375 L 3.3125 0 L 1.390625 0 L 1.390625 -10.34375 Z M 5.5625 -4.609375 C 6.394531 -4.609375 7.023438 -4.785156 7.453125 -5.140625 C 7.890625 -5.492188 8.109375 -6.003906 8.109375 -6.671875 C 8.109375 -7.328125 7.890625 -7.832031 7.453125 -8.1875 C 7.023438 -8.539062 6.394531 -8.71875 5.5625 -8.71875 L 3.3125 -8.71875 L 3.3125 -4.609375 Z M 5.5625 -4.609375 "/></g></g></g><g fill="#1673ff" fill-opacity="1"><g transform="translate(426.908939, 422.973699)"><g><path d="M 9.15625 -1.609375 L 9.15625 0 L 1.390625 0 L 1.390625 -10.34375 L 8.9375 -10.34375 L 8.9375 -8.734375 L 3.3125 -8.734375 L 3.3125 -6.046875 L 8.3125 -6.046875 L 8.3125 -4.46875 L 3.3125 -4.46875 L 3.3125 -1.609375 Z M 9.15625 -1.609375 "/></g></g></g><g fill="#1673ff" fill-opacity="1"><g transform="translate(436.80941, 422.973699)"><g><path d="M 8.15625 0 L 6.046875 -3.03125 C 5.953125 -3.019531 5.816406 -3.015625 5.640625 -3.015625 L 3.3125 -3.015625 L 3.3125 0 L 1.390625 0 L 1.390625 -10.34375 L 5.640625 -10.34375 C 6.535156 -10.34375 7.316406 -10.191406 7.984375 -9.890625 C 8.648438 -9.597656 9.160156 -9.175781 9.515625 -8.625 C 9.867188 -8.070312 10.046875 -7.421875 10.046875 -6.671875 C 10.046875 -5.890625 9.851562 -5.21875 9.46875 -4.65625 C 9.09375 -4.09375 8.550781 -3.675781 7.84375 -3.40625 L 10.234375 0 Z M 8.109375 -6.671875 C 8.109375 -7.328125 7.890625 -7.832031 7.453125 -8.1875 C 7.023438 -8.539062 6.394531 -8.71875 5.5625 -8.71875 L 3.3125 -8.71875 L 3.3125 -4.59375 L 5.5625 -4.59375 C 6.394531 -4.59375 7.023438 -4.769531 7.453125 -5.125 C 7.890625 -5.488281 8.109375 -6.003906 8.109375 -6.671875 Z M 8.109375 -6.671875 "/></g></g></g><g fill="#1673ff" fill-opacity="1"><g transform="translate(447.611274, 422.973699)"><g><path d="M 4.59375 0.140625 C 3.800781 0.140625 3.03125 0.03125 2.28125 -0.1875 C 1.539062 -0.414062 0.953125 -0.71875 0.515625 -1.09375 L 1.1875 -2.59375 C 1.601562 -2.25 2.117188 -1.972656 2.734375 -1.765625 C 3.359375 -1.554688 3.976562 -1.453125 4.59375 -1.453125 C 5.363281 -1.453125 5.9375 -1.570312 6.3125 -1.8125 C 6.695312 -2.0625 6.890625 -2.390625 6.890625 -2.796875 C 6.890625 -3.085938 6.78125 -3.328125 6.5625 -3.515625 C 6.351562 -3.710938 6.085938 -3.863281 5.765625 -3.96875 C 5.441406 -4.082031 5 -4.207031 4.4375 -4.34375 C 3.644531 -4.53125 3.003906 -4.71875 2.515625 -4.90625 C 2.023438 -5.09375 1.601562 -5.382812 1.25 -5.78125 C 0.90625 -6.1875 0.734375 -6.726562 0.734375 -7.40625 C 0.734375 -7.976562 0.890625 -8.5 1.203125 -8.96875 C 1.515625 -9.4375 1.984375 -9.804688 2.609375 -10.078125 C 3.234375 -10.359375 4 -10.5 4.90625 -10.5 C 5.539062 -10.5 6.160156 -10.414062 6.765625 -10.25 C 7.378906 -10.09375 7.90625 -9.867188 8.34375 -9.578125 L 7.75 -8.078125 C 7.289062 -8.347656 6.816406 -8.550781 6.328125 -8.6875 C 5.835938 -8.820312 5.359375 -8.890625 4.890625 -8.890625 C 4.128906 -8.890625 3.5625 -8.757812 3.1875 -8.5 C 2.820312 -8.25 2.640625 -7.914062 2.640625 -7.5 C 2.640625 -7.195312 2.742188 -6.953125 2.953125 -6.765625 C 3.171875 -6.578125 3.441406 -6.425781 3.765625 -6.3125 C 4.085938 -6.207031 4.53125 -6.085938 5.09375 -5.953125 C 5.863281 -5.773438 6.492188 -5.585938 6.984375 -5.390625 C 7.484375 -5.203125 7.90625 -4.910156 8.25 -4.515625 C 8.601562 -4.128906 8.78125 -3.597656 8.78125 -2.921875 C 8.78125 -2.347656 8.625 -1.832031 8.3125 -1.375 C 8 -0.914062 7.523438 -0.546875 6.890625 -0.265625 C 6.265625 0.00390625 5.5 0.140625 4.59375 0.140625 Z M 4.59375 0.140625 "/></g></g></g><g fill="#1673ff" fill-opacity="1"><g transform="translate(456.905894, 422.973699)"><g><path d="M 6.21875 0.140625 C 5.164062 0.140625 4.210938 -0.0859375 3.359375 -0.546875 C 2.515625 -1.003906 1.851562 -1.640625 1.375 -2.453125 C 0.894531 -3.265625 0.65625 -4.171875 0.65625 -5.171875 C 0.65625 -6.179688 0.894531 -7.09375 1.375 -7.90625 C 1.851562 -8.71875 2.515625 -9.351562 3.359375 -9.8125 C 4.210938 -10.269531 5.164062 -10.5 6.21875 -10.5 C 7.269531 -10.5 8.21875 -10.269531 9.0625 -9.8125 C 9.914062 -9.351562 10.582031 -8.71875 11.0625 -7.90625 C 11.550781 -7.101562 11.796875 -6.191406 11.796875 -5.171875 C 11.796875 -4.160156 11.550781 -3.25 11.0625 -2.4375 C 10.582031 -1.632812 9.914062 -1.003906 9.0625 -0.546875 C 8.21875 -0.0859375 7.269531 0.140625 6.21875 0.140625 Z M 6.21875 -1.53125 C 6.90625 -1.53125 7.523438 -1.6875 8.078125 -2 C 8.628906 -2.3125 9.0625 -2.742188 9.375 -3.296875 C 9.695312 -3.859375 9.859375 -4.484375 9.859375 -5.171875 C 9.859375 -5.859375 9.695312 -6.476562 9.375 -7.03125 C 9.0625 -7.59375 8.628906 -8.03125 8.078125 -8.34375 C 7.523438 -8.65625 6.90625 -8.8125 6.21875 -8.8125 C 5.53125 -8.8125 4.910156 -8.65625 4.359375 -8.34375 C 3.804688 -8.03125 3.375 -7.59375 3.0625 -7.03125 C 2.75 -6.476562 2.59375 -5.859375 2.59375 -5.171875 C 2.59375 -4.484375 2.75 -3.859375 3.0625 -3.296875 C 3.375 -2.742188 3.804688 -2.3125 4.359375 -2 C 4.910156 -1.6875 5.53125 -1.53125 6.21875 -1.53125 Z M 6.21875 -1.53125 "/></g></g></g><g fill="#1673ff" fill-opacity="1"><g transform="translate(469.347983, 422.973699)"><g><path d="M 10.578125 -10.34375 L 10.578125 0 L 9 0 L 3.296875 -7 L 3.296875 0 L 1.390625 0 L 1.390625 -10.34375 L 2.96875 -10.34375 L 8.671875 -3.34375 L 8.671875 -10.34375 Z M 10.578125 -10.34375 "/></g></g></g><g fill="#1673ff" fill-opacity="1"><g transform="translate(481.317215, 422.973699)"><g><path d="M 8.09375 -2.390625 L 2.921875 -2.390625 L 1.90625 0 L -0.078125 0 L 4.578125 -10.34375 L 6.46875 -10.34375 L 11.140625 0 L 9.140625 0 Z M 7.46875 -3.90625 L 5.515625 -8.421875 L 3.578125 -3.90625 Z M 7.46875 -3.90625 "/></g></g></g><g fill="#1673ff" fill-opacity="1"><g transform="translate(492.385054, 422.973699)"><g><path d="M 1.390625 -10.34375 L 3.3125 -10.34375 L 3.3125 -1.625 L 8.71875 -1.625 L 8.71875 0 L 1.390625 0 Z M 1.390625 -10.34375 "/></g></g></g><g fill="#1673ff" fill-opacity="1"><g transform="translate(501.236372, 422.973699)"><g><path d="M 1.390625 -10.34375 L 3.3125 -10.34375 L 3.3125 0 L 1.390625 0 Z M 1.390625 -10.34375 "/></g></g></g><g fill="#1673ff" fill-opacity="1"><g transform="translate(505.950178, 422.973699)"><g><path d="M 9.4375 -1.625 L 9.4375 0 L 0.609375 0 L 0.609375 -1.28125 L 6.703125 -8.71875 L 0.703125 -8.71875 L 0.703125 -10.34375 L 9.234375 -10.34375 L 9.234375 -9.0625 L 3.140625 -1.625 Z M 9.4375 -1.625 "/></g></g></g><g fill="#1673ff" fill-opacity="1"><g transform="translate(515.747213, 422.973699)"><g><path d="M 9.15625 -1.609375 L 9.15625 0 L 1.390625 0 L 1.390625 -10.34375 L 8.9375 -10.34375 L 8.9375 -8.734375 L 3.3125 -8.734375 L 3.3125 -6.046875 L 8.3125 -6.046875 L 8.3125 -4.46875 L 3.3125 -4.46875 L 3.3125 -1.609375 Z M 9.15625 -1.609375 "/></g></g></g><g fill="#1673ff" fill-opacity="1"><g transform="translate(525.647684, 422.973699)"><g><path d="M 1.390625 -10.34375 L 5.90625 -10.34375 C 7.007812 -10.34375 7.988281 -10.128906 8.84375 -9.703125 C 9.707031 -9.273438 10.375 -8.664062 10.84375 -7.875 C 11.320312 -7.09375 11.5625 -6.191406 11.5625 -5.171875 C 11.5625 -4.148438 11.320312 -3.242188 10.84375 -2.453125 C 10.375 -1.671875 9.707031 -1.066406 8.84375 -0.640625 C 7.988281 -0.210938 7.007812 0 5.90625 0 L 1.390625 0 Z M 5.828125 -1.625 C 6.585938 -1.625 7.253906 -1.769531 7.828125 -2.0625 C 8.398438 -2.351562 8.84375 -2.765625 9.15625 -3.296875 C 9.46875 -3.835938 9.625 -4.460938 9.625 -5.171875 C 9.625 -5.878906 9.46875 -6.5 9.15625 -7.03125 C 8.84375 -7.570312 8.398438 -7.988281 7.828125 -8.28125 C 7.253906 -8.570312 6.585938 -8.71875 5.828125 -8.71875 L 3.3125 -8.71875 L 3.3125 -1.625 Z M 5.828125 -1.625 "/></g></g></g><g fill="#1673ff" fill-opacity="1"><g transform="translate(537.853345, 422.973699)"><g/></g></g><g fill="#1673ff" fill-opacity="1"><g transform="translate(541.931754, 422.973699)"><g><path d="M 6.171875 0.140625 C 5.128906 0.140625 4.1875 -0.0859375 3.34375 -0.546875 C 2.5 -1.003906 1.835938 -1.632812 1.359375 -2.4375 C 0.890625 -3.25 0.65625 -4.160156 0.65625 -5.171875 C 0.65625 -6.191406 0.894531 -7.101562 1.375 -7.90625 C 1.851562 -8.71875 2.515625 -9.351562 3.359375 -9.8125 C 4.203125 -10.269531 5.144531 -10.5 6.1875 -10.5 C 7.039062 -10.5 7.816406 -10.347656 8.515625 -10.046875 C 9.210938 -9.753906 9.800781 -9.328125 10.28125 -8.765625 L 9.046875 -7.59375 C 8.296875 -8.40625 7.375 -8.8125 6.28125 -8.8125 C 5.570312 -8.8125 4.9375 -8.65625 4.375 -8.34375 C 3.8125 -8.03125 3.375 -7.597656 3.0625 -7.046875 C 2.75 -6.492188 2.59375 -5.867188 2.59375 -5.171875 C 2.59375 -4.472656 2.75 -3.847656 3.0625 -3.296875 C 3.375 -2.742188 3.8125 -2.3125 4.375 -2 C 4.9375 -1.6875 5.570312 -1.53125 6.28125 -1.53125 C 7.375 -1.53125 8.296875 -1.941406 9.046875 -2.765625 L 10.28125 -1.578125 C 9.800781 -1.015625 9.207031 -0.585938 8.5 -0.296875 C 7.800781 -0.00390625 7.023438 0.140625 6.171875 0.140625 Z M 6.171875 0.140625 "/></g></g></g><g fill="#1673ff" fill-opacity="1"><g transform="translate(552.674505, 422.973699)"><g><path d="M 5.84375 0.140625 C 4.40625 0.140625 3.285156 -0.257812 2.484375 -1.0625 C 1.691406 -1.863281 1.296875 -3.015625 1.296875 -4.515625 L 1.296875 -10.34375 L 3.21875 -10.34375 L 3.21875 -4.578125 C 3.21875 -2.546875 4.097656 -1.53125 5.859375 -1.53125 C 7.597656 -1.53125 8.46875 -2.546875 8.46875 -4.578125 L 8.46875 -10.34375 L 10.359375 -10.34375 L 10.359375 -4.515625 C 10.359375 -3.015625 9.960938 -1.863281 9.171875 -1.0625 C 8.378906 -0.257812 7.269531 0.140625 5.84375 0.140625 Z M 5.84375 0.140625 "/></g></g></g><g fill="#1673ff" fill-opacity="1"><g transform="translate(564.333418, 422.973699)"><g><path d="M 4.59375 0.140625 C 3.800781 0.140625 3.03125 0.03125 2.28125 -0.1875 C 1.539062 -0.414062 0.953125 -0.71875 0.515625 -1.09375 L 1.1875 -2.59375 C 1.601562 -2.25 2.117188 -1.972656 2.734375 -1.765625 C 3.359375 -1.554688 3.976562 -1.453125 4.59375 -1.453125 C 5.363281 -1.453125 5.9375 -1.570312 6.3125 -1.8125 C 6.695312 -2.0625 6.890625 -2.390625 6.890625 -2.796875 C 6.890625 -3.085938 6.78125 -3.328125 6.5625 -3.515625 C 6.351562 -3.710938 6.085938 -3.863281 5.765625 -3.96875 C 5.441406 -4.082031 5 -4.207031 4.4375 -4.34375 C 3.644531 -4.53125 3.003906 -4.71875 2.515625 -4.90625 C 2.023438 -5.09375 1.601562 -5.382812 1.25 -5.78125 C 0.90625 -6.1875 0.734375 -6.726562 0.734375 -7.40625 C 0.734375 -7.976562 0.890625 -8.5 1.203125 -8.96875 C 1.515625 -9.4375 1.984375 -9.804688 2.609375 -10.078125 C 3.234375 -10.359375 4 -10.5 4.90625 -10.5 C 5.539062 -10.5 6.160156 -10.414062 6.765625 -10.25 C 7.378906 -10.09375 7.90625 -9.867188 8.34375 -9.578125 L 7.75 -8.078125 C 7.289062 -8.347656 6.816406 -8.550781 6.328125 -8.6875 C 5.835938 -8.820312 5.359375 -8.890625 4.890625 -8.890625 C 4.128906 -8.890625 3.5625 -8.757812 3.1875 -8.5 C 2.820312 -8.25 2.640625 -7.914062 2.640625 -7.5 C 2.640625 -7.195312 2.742188 -6.953125 2.953125 -6.765625 C 3.171875 -6.578125 3.441406 -6.425781 3.765625 -6.3125 C 4.085938 -6.207031 4.53125 -6.085938 5.09375 -5.953125 C 5.863281 -5.773438 6.492188 -5.585938 6.984375 -5.390625 C 7.484375 -5.203125 7.90625 -4.910156 8.25 -4.515625 C 8.601562 -4.128906 8.78125 -3.597656 8.78125 -2.921875 C 8.78125 -2.347656 8.625 -1.832031 8.3125 -1.375 C 8 -0.914062 7.523438 -0.546875 6.890625 -0.265625 C 6.265625 0.00390625 5.5 0.140625 4.59375 0.140625 Z M 4.59375 0.140625 "/></g></g></g><g fill="#1673ff" fill-opacity="1"><g transform="translate(573.628038, 422.973699)"><g><path d="M 3.484375 -8.71875 L 0.0625 -8.71875 L 0.0625 -10.34375 L 8.84375 -10.34375 L 8.84375 -8.71875 L 5.40625 -8.71875 L 5.40625 0 L 3.484375 0 Z M 3.484375 -8.71875 "/></g></g></g><g fill="#1673ff" fill-opacity="1"><g transform="translate(582.523699, 422.973699)"><g><path d="M 6.21875 0.140625 C 5.164062 0.140625 4.210938 -0.0859375 3.359375 -0.546875 C 2.515625 -1.003906 1.851562 -1.640625 1.375 -2.453125 C 0.894531 -3.265625 0.65625 -4.171875 0.65625 -5.171875 C 0.65625 -6.179688 0.894531 -7.09375 1.375 -7.90625 C 1.851562 -8.71875 2.515625 -9.351562 3.359375 -9.8125 C 4.210938 -10.269531 5.164062 -10.5 6.21875 -10.5 C 7.269531 -10.5 8.21875 -10.269531 9.0625 -9.8125 C 9.914062 -9.351562 10.582031 -8.71875 11.0625 -7.90625 C 11.550781 -7.101562 11.796875 -6.191406 11.796875 -5.171875 C 11.796875 -4.160156 11.550781 -3.25 11.0625 -2.4375 C 10.582031 -1.632812 9.914062 -1.003906 9.0625 -0.546875 C 8.21875 -0.0859375 7.269531 0.140625 6.21875 0.140625 Z M 6.21875 -1.53125 C 6.90625 -1.53125 7.523438 -1.6875 8.078125 -2 C 8.628906 -2.3125 9.0625 -2.742188 9.375 -3.296875 C 9.695312 -3.859375 9.859375 -4.484375 9.859375 -5.171875 C 9.859375 -5.859375 9.695312 -6.476562 9.375 -7.03125 C 9.0625 -7.59375 8.628906 -8.03125 8.078125 -8.34375 C 7.523438 -8.65625 6.90625 -8.8125 6.21875 -8.8125 C 5.53125 -8.8125 4.910156 -8.65625 4.359375 -8.34375 C 3.804688 -8.03125 3.375 -7.59375 3.0625 -7.03125 C 2.75 -6.476562 2.59375 -5.859375 2.59375 -5.171875 C 2.59375 -4.484375 2.75 -3.859375 3.0625 -3.296875 C 3.375 -2.742188 3.804688 -2.3125 4.359375 -2 C 4.910156 -1.6875 5.53125 -1.53125 6.21875 -1.53125 Z M 6.21875 -1.53125 "/></g></g></g><g fill="#1673ff" fill-opacity="1"><g transform="translate(594.965779, 422.973699)"><g><path d="M 10.890625 0 L 10.875 -6.859375 L 7.484375 -1.1875 L 6.625 -1.1875 L 3.21875 -6.765625 L 3.21875 0 L 1.390625 0 L 1.390625 -10.34375 L 2.96875 -10.34375 L 7.078125 -3.484375 L 11.109375 -10.34375 L 12.703125 -10.34375 L 12.71875 0 Z M 10.890625 0 "/></g></g></g><g fill="#1673ff" fill-opacity="1"><g transform="translate(609.077652, 422.973699)"><g><path d="M 9.15625 -1.609375 L 9.15625 0 L 1.390625 0 L 1.390625 -10.34375 L 8.9375 -10.34375 L 8.9375 -8.734375 L 3.3125 -8.734375 L 3.3125 -6.046875 L 8.3125 -6.046875 L 8.3125 -4.46875 L 3.3125 -4.46875 L 3.3125 -1.609375 Z M 9.15625 -1.609375 "/></g></g></g><g fill="#1673ff" fill-opacity="1"><g transform="translate(618.978123, 422.973699)"><g><path d="M 8.15625 0 L 6.046875 -3.03125 C 5.953125 -3.019531 5.816406 -3.015625 5.640625 -3.015625 L 3.3125 -3.015625 L 3.3125 0 L 1.390625 0 L 1.390625 -10.34375 L 5.640625 -10.34375 C 6.535156 -10.34375 7.316406 -10.191406 7.984375 -9.890625 C 8.648438 -9.597656 9.160156 -9.175781 9.515625 -8.625 C 9.867188 -8.070312 10.046875 -7.421875 10.046875 -6.671875 C 10.046875 -5.890625 9.851562 -5.21875 9.46875 -4.65625 C 9.09375 -4.09375 8.550781 -3.675781 7.84375 -3.40625 L 10.234375 0 Z M 8.109375 -6.671875 C 8.109375 -7.328125 7.890625 -7.832031 7.453125 -8.1875 C 7.023438 -8.539062 6.394531 -8.71875 5.5625 -8.71875 L 3.3125 -8.71875 L 3.3125 -4.59375 L 5.5625 -4.59375 C 6.394531 -4.59375 7.023438 -4.769531 7.453125 -5.125 C 7.890625 -5.488281 8.109375 -6.003906 8.109375 -6.671875 Z M 8.109375 -6.671875 "/></g></g></g><g fill="#1673ff" fill-opacity="1"><g transform="translate(629.779987, 422.973699)"><g/></g></g><g fill="#1673ff" fill-opacity="1"><g transform="translate(633.858396, 422.973699)"><g><path d="M 4.59375 0.140625 C 3.800781 0.140625 3.03125 0.03125 2.28125 -0.1875 C 1.539062 -0.414062 0.953125 -0.71875 0.515625 -1.09375 L 1.1875 -2.59375 C 1.601562 -2.25 2.117188 -1.972656 2.734375 -1.765625 C 3.359375 -1.554688 3.976562 -1.453125 4.59375 -1.453125 C 5.363281 -1.453125 5.9375 -1.570312 6.3125 -1.8125 C 6.695312 -2.0625 6.890625 -2.390625 6.890625 -2.796875 C 6.890625 -3.085938 6.78125 -3.328125 6.5625 -3.515625 C 6.351562 -3.710938 6.085938 -3.863281 5.765625 -3.96875 C 5.441406 -4.082031 5 -4.207031 4.4375 -4.34375 C 3.644531 -4.53125 3.003906 -4.71875 2.515625 -4.90625 C 2.023438 -5.09375 1.601562 -5.382812 1.25 -5.78125 C 0.90625 -6.1875 0.734375 -6.726562 0.734375 -7.40625 C 0.734375 -7.976562 0.890625 -8.5 1.203125 -8.96875 C 1.515625 -9.4375 1.984375 -9.804688 2.609375 -10.078125 C 3.234375 -10.359375 4 -10.5 4.90625 -10.5 C 5.539062 -10.5 6.160156 -10.414062 6.765625 -10.25 C 7.378906 -10.09375 7.90625 -9.867188 8.34375 -9.578125 L 7.75 -8.078125 C 7.289062 -8.347656 6.816406 -8.550781 6.328125 -8.6875 C 5.835938 -8.820312 5.359375 -8.890625 4.890625 -8.890625 C 4.128906 -8.890625 3.5625 -8.757812 3.1875 -8.5 C 2.820312 -8.25 2.640625 -7.914062 2.640625 -7.5 C 2.640625 -7.195312 2.742188 -6.953125 2.953125 -6.765625 C 3.171875 -6.578125 3.441406 -6.425781 3.765625 -6.3125 C 4.085938 -6.207031 4.53125 -6.085938 5.09375 -5.953125 C 5.863281 -5.773438 6.492188 -5.585938 6.984375 -5.390625 C 7.484375 -5.203125 7.90625 -4.910156 8.25 -4.515625 C 8.601562 -4.128906 8.78125 -3.597656 8.78125 -2.921875 C 8.78125 -2.347656 8.625 -1.832031 8.3125 -1.375 C 8 -0.914062 7.523438 -0.546875 6.890625 -0.265625 C 6.265625 0.00390625 5.5 0.140625 4.59375 0.140625 Z M 4.59375 0.140625 "/></g></g></g><g fill="#1673ff" fill-opacity="1"><g transform="translate(643.153016, 422.973699)"><g><path d="M 5.84375 0.140625 C 4.40625 0.140625 3.285156 -0.257812 2.484375 -1.0625 C 1.691406 -1.863281 1.296875 -3.015625 1.296875 -4.515625 L 1.296875 -10.34375 L 3.21875 -10.34375 L 3.21875 -4.578125 C 3.21875 -2.546875 4.097656 -1.53125 5.859375 -1.53125 C 7.597656 -1.53125 8.46875 -2.546875 8.46875 -4.578125 L 8.46875 -10.34375 L 10.359375 -10.34375 L 10.359375 -4.515625 C 10.359375 -3.015625 9.960938 -1.863281 9.171875 -1.0625 C 8.378906 -0.257812 7.269531 0.140625 5.84375 0.140625 Z M 5.84375 0.140625 "/></g></g></g><g fill="#1673ff" fill-opacity="1"><g transform="translate(654.811928, 422.973699)"><g><path d="M 5.640625 -10.34375 C 6.535156 -10.34375 7.316406 -10.191406 7.984375 -9.890625 C 8.648438 -9.597656 9.160156 -9.175781 9.515625 -8.625 C 9.867188 -8.070312 10.046875 -7.421875 10.046875 -6.671875 C 10.046875 -5.921875 9.867188 -5.265625 9.515625 -4.703125 C 9.160156 -4.148438 8.648438 -3.722656 7.984375 -3.421875 C 7.316406 -3.128906 6.535156 -2.984375 5.640625 -2.984375 L 3.3125 -2.984375 L 3.3125 0 L 1.390625 0 L 1.390625 -10.34375 Z M 5.5625 -4.609375 C 6.394531 -4.609375 7.023438 -4.785156 7.453125 -5.140625 C 7.890625 -5.492188 8.109375 -6.003906 8.109375 -6.671875 C 8.109375 -7.328125 7.890625 -7.832031 7.453125 -8.1875 C 7.023438 -8.539062 6.394531 -8.71875 5.5625 -8.71875 L 3.3125 -8.71875 L 3.3125 -4.609375 Z M 5.5625 -4.609375 "/></g></g></g><g fill="#1673ff" fill-opacity="1"><g transform="translate(665.539911, 422.973699)"><g><path d="M 5.640625 -10.34375 C 6.535156 -10.34375 7.316406 -10.191406 7.984375 -9.890625 C 8.648438 -9.597656 9.160156 -9.175781 9.515625 -8.625 C 9.867188 -8.070312 10.046875 -7.421875 10.046875 -6.671875 C 10.046875 -5.921875 9.867188 -5.265625 9.515625 -4.703125 C 9.160156 -4.148438 8.648438 -3.722656 7.984375 -3.421875 C 7.316406 -3.128906 6.535156 -2.984375 5.640625 -2.984375 L 3.3125 -2.984375 L 3.3125 0 L 1.390625 0 L 1.390625 -10.34375 Z M 5.5625 -4.609375 C 6.394531 -4.609375 7.023438 -4.785156 7.453125 -5.140625 C 7.890625 -5.492188 8.109375 -6.003906 8.109375 -6.671875 C 8.109375 -7.328125 7.890625 -7.832031 7.453125 -8.1875 C 7.023438 -8.539062 6.394531 -8.71875 5.5625 -8.71875 L 3.3125 -8.71875 L 3.3125 -4.609375 Z M 5.5625 -4.609375 "/></g></g></g><g fill="#1673ff" fill-opacity="1"><g transform="translate(676.267894, 422.973699)"><g><path d="M 6.21875 0.140625 C 5.164062 0.140625 4.210938 -0.0859375 3.359375 -0.546875 C 2.515625 -1.003906 1.851562 -1.640625 1.375 -2.453125 C 0.894531 -3.265625 0.65625 -4.171875 0.65625 -5.171875 C 0.65625 -6.179688 0.894531 -7.09375 1.375 -7.90625 C 1.851562 -8.71875 2.515625 -9.351562 3.359375 -9.8125 C 4.210938 -10.269531 5.164062 -10.5 6.21875 -10.5 C 7.269531 -10.5 8.21875 -10.269531 9.0625 -9.8125 C 9.914062 -9.351562 10.582031 -8.71875 11.0625 -7.90625 C 11.550781 -7.101562 11.796875 -6.191406 11.796875 -5.171875 C 11.796875 -4.160156 11.550781 -3.25 11.0625 -2.4375 C 10.582031 -1.632812 9.914062 -1.003906 9.0625 -0.546875 C 8.21875 -0.0859375 7.269531 0.140625 6.21875 0.140625 Z M 6.21875 -1.53125 C 6.90625 -1.53125 7.523438 -1.6875 8.078125 -2 C 8.628906 -2.3125 9.0625 -2.742188 9.375 -3.296875 C 9.695312 -3.859375 9.859375 -4.484375 9.859375 -5.171875 C 9.859375 -5.859375 9.695312 -6.476562 9.375 -7.03125 C 9.0625 -7.59375 8.628906 -8.03125 8.078125 -8.34375 C 7.523438 -8.65625 6.90625 -8.8125 6.21875 -8.8125 C 5.53125 -8.8125 4.910156 -8.65625 4.359375 -8.34375 C 3.804688 -8.03125 3.375 -7.59375 3.0625 -7.03125 C 2.75 -6.476562 2.59375 -5.859375 2.59375 -5.171875 C 2.59375 -4.484375 2.75 -3.859375 3.0625 -3.296875 C 3.375 -2.742188 3.804688 -2.3125 4.359375 -2 C 4.910156 -1.6875 5.53125 -1.53125 6.21875 -1.53125 Z M 6.21875 -1.53125 "/></g></g></g><g fill="#1673ff" fill-opacity="1"><g transform="translate(688.709974, 422.973699)"><g><path d="M 8.15625 0 L 6.046875 -3.03125 C 5.953125 -3.019531 5.816406 -3.015625 5.640625 -3.015625 L 3.3125 -3.015625 L 3.3125 0 L 1.390625 0 L 1.390625 -10.34375 L 5.640625 -10.34375 C 6.535156 -10.34375 7.316406 -10.191406 7.984375 -9.890625 C 8.648438 -9.597656 9.160156 -9.175781 9.515625 -8.625 C 9.867188 -8.070312 10.046875 -7.421875 10.046875 -6.671875 C 10.046875 -5.890625 9.851562 -5.21875 9.46875 -4.65625 C 9.09375 -4.09375 8.550781 -3.675781 7.84375 -3.40625 L 10.234375 0 Z M 8.109375 -6.671875 C 8.109375 -7.328125 7.890625 -7.832031 7.453125 -8.1875 C 7.023438 -8.539062 6.394531 -8.71875 5.5625 -8.71875 L 3.3125 -8.71875 L 3.3125 -4.59375 L 5.5625 -4.59375 C 6.394531 -4.59375 7.023438 -4.769531 7.453125 -5.125 C 7.890625 -5.488281 8.109375 -6.003906 8.109375 -6.671875 Z M 8.109375 -6.671875 "/></g></g></g><g fill="#1673ff" fill-opacity="1"><g transform="translate(699.511837, 422.973699)"><g><path d="M 3.484375 -8.71875 L 0.0625 -8.71875 L 0.0625 -10.34375 L 8.84375 -10.34375 L 8.84375 -8.71875 L 5.40625 -8.71875 L 5.40625 0 L 3.484375 0 Z M 3.484375 -8.71875 "/></g></g></g></svg>