<svg xmlns="http://www.w3.org/2000/svg" xmlns:xlink="http://www.w3.org/1999/xlink" width="1245" zoomAndPan="magnify" viewBox="0 0 933.75 611.249981" height="815" preserveAspectRatio="xMidYMid meet" version="1.0"><defs><g/><clipPath id="734f7bc21e"><path d="M 0.449219 0 L 933.054688 0 L 933.054688 610.5 L 0.449219 610.5 Z M 0.449219 0 " clip-rule="nonzero"/></clipPath><clipPath id="ef61e02a36"><path d="M 0.449219 0 L 931.867188 0 L 931.867188 610.5 L 0.449219 610.5 Z M 0.449219 0 " clip-rule="nonzero"/></clipPath><clipPath id="5931be0c26"><path d="M 0.449219 314 L 933.054688 314 L 933.054688 316 L 0.449219 316 Z M 0.449219 314 " clip-rule="nonzero"/></clipPath><clipPath id="a437f008a3"><path d="M 453 0 L 473 0 L 473 610.5 L 453 610.5 Z M 453 0 " clip-rule="nonzero"/></clipPath><clipPath id="2373cbc940"><path d="M 586.363281 48.691406 L 786.671875 48.691406 L 786.671875 221.179688 L 586.363281 221.179688 Z M 586.363281 48.691406 " clip-rule="nonzero"/></clipPath><clipPath id="e1b296e431"><path d="M 586.257812 76 L 787 76 L 787 84 L 586.257812 84 Z M 586.257812 76 " clip-rule="nonzero"/></clipPath><clipPath id="04488f7d3c"><path d="M 772.40625 161.558594 L 814.972656 161.558594 L 814.972656 204 L 772.40625 204 Z M 772.40625 161.558594 " clip-rule="nonzero"/></clipPath><clipPath id="b1f7b8e751"><path d="M 168 359 L 335 359 L 335 523.011719 L 168 523.011719 Z M 168 359 " clip-rule="nonzero"/></clipPath><clipPath id="028b8e054d"><path d="M 611.480469 400 L 645 400 L 645 433 L 611.480469 433 Z M 611.480469 400 " clip-rule="nonzero"/></clipPath><clipPath id="6f263e9e0e"><path d="M 756 400 L 789.660156 400 L 789.660156 433 L 756 433 Z M 756 400 " clip-rule="nonzero"/></clipPath><clipPath id="427c01ef75"><path d="M 146.246094 41.257812 L 350 41.257812 L 350 200 L 146.246094 200 Z M 146.246094 41.257812 " clip-rule="nonzero"/></clipPath><clipPath id="c71ea31559"><path d="M 255 132 L 286 132 L 286 213.796875 L 255 213.796875 Z M 255 132 " clip-rule="nonzero"/></clipPath><clipPath id="e79b6e4002"><path d="M 294 93 L 325 93 L 325 213.796875 L 294 213.796875 Z M 294 93 " clip-rule="nonzero"/></clipPath><clipPath id="2b343c8702"><path d="M 176 164 L 207 164 L 207 213.796875 L 176 213.796875 Z M 176 164 " clip-rule="nonzero"/></clipPath><clipPath id="e401d3f496"><path d="M 215 148 L 246 148 L 246 213.796875 L 215 213.796875 Z M 215 148 " clip-rule="nonzero"/></clipPath></defs><g clip-path="url(#734f7bc21e)"><path fill="#ffffff" d="M 0.449219 0 L 933.054688 0 L 933.054688 610.5 L 0.449219 610.5 Z M 0.449219 0 " fill-opacity="1" fill-rule="nonzero"/><path fill="#ffffff" d="M 0.449219 0 L 933.054688 0 L 933.054688 610.5 L 0.449219 610.5 Z M 0.449219 0 " fill-opacity="1" fill-rule="nonzero"/></g><g clip-path="url(#ef61e02a36)"><path fill="#1673ff" d="M -1.898438 0 L 931.503906 0 L 931.503906 698.691406 L -1.898438 698.691406 Z M -1.898438 0 " fill-opacity="1" fill-rule="nonzero"/></g><g clip-path="url(#5931be0c26)"><path stroke-linecap="round" transform="matrix(0.806254, 0, 0, 0.806254, -38.99577, 314.191917)" fill="none" stroke-linejoin="miter" d="M 0.997656 1.002269 L 1355.66659 1.002269 " stroke="#ffffff" stroke-width="2" stroke-opacity="1" stroke-miterlimit="4"/></g><g clip-path="url(#a437f008a3)"><path stroke-linecap="round" transform="matrix(-0.00104818, -0.806253, 0.806253, -0.00104818, 462.89027, 624.27284)" fill="none" stroke-linejoin="miter" d="M 1.000862 0.9998 L 768.192682 0.999143 " stroke="#ffffff" stroke-width="2" stroke-opacity="1" stroke-miterlimit="4"/></g><g clip-path="url(#2373cbc940)"><path fill="#ffffff" d="M 775.085938 221.179688 L 597.714844 221.179688 C 591.453125 221.179688 586.363281 216.085938 586.363281 209.828125 L 586.363281 60.042969 C 586.363281 53.785156 591.453125 48.691406 597.714844 48.691406 L 775.085938 48.691406 C 781.347656 48.691406 786.441406 53.785156 786.441406 60.042969 L 786.441406 127.390625 C 786.441406 129.359375 784.839844 130.960938 782.867188 130.960938 C 780.894531 130.960938 779.292969 129.359375 779.292969 127.390625 L 779.292969 60.042969 C 779.292969 57.722656 777.40625 55.835938 775.085938 55.835938 L 597.714844 55.835938 C 595.394531 55.835938 593.507812 57.722656 593.507812 60.042969 L 593.507812 209.828125 C 593.507812 212.144531 595.394531 214.035156 597.714844 214.035156 L 775.085938 214.035156 C 777.40625 214.035156 779.292969 212.144531 779.292969 209.828125 L 779.292969 181.007812 C 779.292969 179.035156 780.894531 177.433594 782.867188 177.433594 C 784.839844 177.433594 786.441406 179.035156 786.441406 181.007812 L 786.441406 209.828125 C 786.441406 216.085938 781.347656 221.179688 775.085938 221.179688 " fill-opacity="1" fill-rule="evenodd"/></g><g clip-path="url(#e1b296e431)"><path fill="#ffffff" d="M 782.867188 83.257812 L 589.9375 83.257812 C 587.960938 83.257812 586.363281 81.660156 586.363281 79.6875 C 586.363281 77.71875 587.960938 76.117188 589.9375 76.117188 L 782.867188 76.117188 C 784.839844 76.117188 786.441406 77.71875 786.441406 79.6875 C 786.441406 81.660156 784.839844 83.257812 782.867188 83.257812 " fill-opacity="1" fill-rule="evenodd"/></g><path fill="#ffffff" d="M 765.347656 69.546875 L 687.941406 69.546875 C 685.96875 69.546875 684.371094 67.949219 684.371094 65.976562 C 684.371094 64.003906 685.96875 62.40625 687.941406 62.40625 L 765.347656 62.40625 C 767.320312 62.40625 768.921875 64.003906 768.921875 65.976562 C 768.921875 67.949219 767.320312 69.546875 765.347656 69.546875 " fill-opacity="1" fill-rule="evenodd"/><path fill="#ffffff" d="M 614.175781 65.976562 C 614.175781 63.71875 612.335938 61.875 610.078125 61.875 C 607.820312 61.875 605.976562 63.71875 605.976562 65.976562 C 605.976562 68.234375 607.820312 70.078125 610.078125 70.078125 C 612.335938 70.078125 614.175781 68.234375 614.175781 65.976562 " fill-opacity="1" fill-rule="evenodd"/><path fill="#ffffff" d="M 631.335938 65.976562 C 631.335938 63.71875 629.496094 61.875 627.238281 61.875 C 624.980469 61.875 623.136719 63.71875 623.136719 65.976562 C 623.136719 68.234375 624.980469 70.078125 627.238281 70.078125 C 629.496094 70.078125 631.335938 68.234375 631.335938 65.976562 " fill-opacity="1" fill-rule="evenodd"/><path fill="#ffffff" d="M 648.492188 65.976562 C 648.492188 63.71875 646.652344 61.875 644.394531 61.875 C 642.136719 61.875 640.292969 63.71875 640.292969 65.976562 C 640.292969 68.234375 642.136719 70.078125 644.394531 70.078125 C 646.652344 70.078125 648.492188 68.234375 648.492188 65.976562 " fill-opacity="1" fill-rule="evenodd"/><path fill="#ffffff" d="M 626.5625 199.601562 L 611.523438 199.601562 C 609.550781 199.601562 607.953125 198 607.953125 196.027344 L 607.953125 159.457031 C 607.953125 157.484375 609.550781 155.882812 611.523438 155.882812 L 626.5625 155.882812 C 628.53125 155.882812 630.132812 157.484375 630.132812 159.457031 L 630.132812 196.027344 C 630.132812 198 628.53125 199.601562 626.5625 199.601562 Z M 615.097656 192.457031 L 622.988281 192.457031 L 622.988281 163.027344 L 615.097656 163.027344 L 615.097656 192.457031 " fill-opacity="1" fill-rule="evenodd"/><path fill="#ffffff" d="M 655.269531 199.597656 L 640.234375 199.597656 C 638.261719 199.597656 636.664062 198 636.664062 196.027344 L 636.664062 170.636719 C 636.664062 168.664062 638.261719 167.0625 640.234375 167.0625 L 655.269531 167.0625 C 657.242188 167.0625 658.84375 168.664062 658.84375 170.636719 L 658.84375 196.027344 C 658.84375 198 657.242188 199.597656 655.269531 199.597656 Z M 643.804688 192.453125 L 651.699219 192.453125 L 651.699219 174.207031 L 643.804688 174.207031 L 643.804688 192.453125 " fill-opacity="1" fill-rule="evenodd"/><path fill="#ffffff" d="M 683.980469 199.601562 L 668.945312 199.601562 C 666.972656 199.601562 665.371094 198 665.371094 196.027344 L 665.371094 147.089844 C 665.371094 145.117188 666.972656 143.519531 668.945312 143.519531 L 683.980469 143.519531 C 685.953125 143.519531 687.554688 145.117188 687.554688 147.089844 L 687.554688 196.027344 C 687.554688 198 685.953125 199.601562 683.980469 199.601562 Z M 672.515625 192.457031 L 680.410156 192.457031 L 680.410156 150.660156 L 672.515625 150.660156 L 672.515625 192.457031 " fill-opacity="1" fill-rule="evenodd"/><path fill="#ffffff" d="M 712.691406 199.601562 L 697.65625 199.601562 C 695.679688 199.601562 694.082031 198 694.082031 196.027344 L 694.082031 167.867188 C 694.082031 165.894531 695.679688 164.296875 697.65625 164.296875 L 712.691406 164.296875 C 714.664062 164.296875 716.265625 165.894531 716.265625 167.867188 L 716.265625 196.027344 C 716.265625 198 714.664062 199.601562 712.691406 199.601562 Z M 701.226562 192.457031 L 709.117188 192.457031 L 709.117188 171.4375 L 701.226562 171.4375 L 701.226562 192.457031 " fill-opacity="1" fill-rule="evenodd"/><path fill="#ffffff" d="M 640.984375 142.886719 C 640.507812 142.886719 640.023438 142.792969 639.558594 142.589844 L 622.457031 135.144531 C 620.648438 134.359375 619.820312 132.257812 620.605469 130.445312 C 621.394531 128.636719 623.5 127.808594 625.308594 128.59375 L 642.410156 136.039062 C 644.222656 136.828125 645.050781 138.933594 644.261719 140.742188 C 643.675781 142.085938 642.363281 142.886719 640.984375 142.886719 " fill-opacity="1" fill-rule="evenodd"/><path fill="#ffffff" d="M 651.738281 141.089844 C 650.769531 141.089844 649.808594 140.699219 649.101562 139.929688 C 647.769531 138.476562 647.867188 136.214844 649.324219 134.882812 L 669.257812 116.609375 C 670.710938 115.277344 672.972656 115.375 674.304688 116.828125 C 675.640625 118.285156 675.539062 120.542969 674.085938 121.875 L 654.152344 140.152344 C 653.464844 140.777344 652.601562 141.089844 651.738281 141.089844 " fill-opacity="1" fill-rule="evenodd"/><path fill="#ffffff" d="M 700.925781 138.210938 C 700.136719 138.210938 699.34375 137.949219 698.679688 137.414062 L 679.269531 121.714844 C 677.734375 120.476562 677.496094 118.226562 678.738281 116.691406 C 679.980469 115.160156 682.230469 114.921875 683.761719 116.160156 L 703.171875 131.859375 C 704.707031 133.101562 704.945312 135.351562 703.703125 136.886719 C 703 137.757812 701.96875 138.210938 700.925781 138.210938 " fill-opacity="1" fill-rule="evenodd"/><path fill="#ffffff" d="M 618.023438 139.132812 C 612.46875 139.132812 607.953125 134.617188 607.953125 129.0625 C 607.953125 123.507812 612.46875 118.992188 618.023438 118.992188 C 623.578125 118.992188 628.09375 123.507812 628.09375 129.0625 C 628.09375 134.617188 623.578125 139.132812 618.023438 139.132812 Z M 618.023438 126.136719 C 616.410156 126.136719 615.097656 127.449219 615.097656 129.0625 C 615.097656 130.675781 616.410156 131.988281 618.023438 131.988281 C 619.636719 131.988281 620.949219 130.675781 620.949219 129.0625 C 620.949219 127.449219 619.636719 126.136719 618.023438 126.136719 " fill-opacity="1" fill-rule="evenodd"/><path fill="#ffffff" d="M 646.945312 151.980469 C 641.394531 151.980469 636.875 147.460938 636.875 141.910156 C 636.875 136.355469 641.394531 131.839844 646.945312 131.839844 C 652.5 131.839844 657.015625 136.355469 657.015625 141.910156 C 657.015625 147.460938 652.5 151.980469 646.945312 151.980469 Z M 646.945312 138.984375 C 645.332031 138.984375 644.019531 140.296875 644.019531 141.910156 C 644.019531 143.523438 645.332031 144.835938 646.945312 144.835938 C 648.558594 144.835938 649.871094 143.523438 649.871094 141.910156 C 649.871094 140.296875 648.558594 138.984375 646.945312 138.984375 " fill-opacity="1" fill-rule="evenodd"/><path fill="#ffffff" d="M 676.460938 124.921875 C 670.910156 124.921875 666.390625 120.40625 666.390625 114.851562 C 666.390625 109.300781 670.910156 104.78125 676.460938 104.78125 C 682.011719 104.78125 686.53125 109.300781 686.53125 114.851562 C 686.53125 120.40625 682.011719 124.921875 676.460938 124.921875 Z M 676.460938 111.925781 C 674.847656 111.925781 673.535156 113.238281 673.535156 114.851562 C 673.535156 116.464844 674.847656 117.78125 676.460938 117.78125 C 678.074219 117.78125 679.386719 116.464844 679.386719 114.851562 C 679.386719 113.238281 678.074219 111.925781 676.460938 111.925781 " fill-opacity="1" fill-rule="evenodd"/><path fill="#ffffff" d="M 705.980469 148.796875 C 700.425781 148.796875 695.910156 144.28125 695.910156 138.726562 C 695.910156 133.175781 700.425781 128.65625 705.980469 128.65625 C 711.535156 128.65625 716.046875 133.175781 716.046875 138.726562 C 716.050781 144.28125 711.535156 148.796875 705.980469 148.796875 Z M 705.980469 135.800781 C 704.367188 135.800781 703.054688 137.113281 703.054688 138.726562 C 703.054688 140.339844 704.367188 141.652344 705.980469 141.652344 C 707.59375 141.652344 708.90625 140.339844 708.90625 138.726562 C 708.90625 137.113281 707.59375 135.800781 705.980469 135.800781 " fill-opacity="1" fill-rule="evenodd"/><path fill="#ffffff" d="M 759.402344 183.371094 C 750.042969 183.371094 741.246094 179.730469 734.628906 173.109375 C 728.011719 166.496094 724.371094 157.699219 724.371094 148.339844 C 724.371094 138.984375 728.011719 130.183594 734.628906 123.570312 C 741.246094 116.953125 750.042969 113.308594 759.402344 113.308594 C 768.757812 113.308594 777.554688 116.953125 784.171875 123.570312 C 790.789062 130.1875 794.433594 138.984375 794.433594 148.339844 C 794.433594 157.695312 790.789062 166.496094 784.171875 173.109375 C 777.554688 179.730469 768.757812 183.371094 759.402344 183.371094 Z M 759.402344 120.453125 C 744.023438 120.453125 731.515625 132.964844 731.515625 148.339844 C 731.515625 163.714844 744.023438 176.226562 759.402344 176.226562 C 774.777344 176.226562 787.289062 163.714844 787.289062 148.339844 C 787.289062 132.964844 774.777344 120.453125 759.402344 120.453125 " fill-opacity="1" fill-rule="evenodd"/><path fill="#ffffff" d="M 759.402344 170.878906 C 746.972656 170.878906 736.863281 160.769531 736.863281 148.339844 C 736.863281 135.914062 746.972656 125.804688 759.402344 125.804688 C 771.824219 125.804688 781.9375 135.914062 781.9375 148.339844 C 781.9375 160.769531 771.824219 170.878906 759.402344 170.878906 Z M 759.402344 132.949219 C 750.914062 132.949219 744.007812 139.851562 744.007812 148.339844 C 744.007812 156.828125 750.914062 163.734375 759.402344 163.734375 C 767.890625 163.734375 774.792969 156.828125 774.792969 148.339844 C 774.792969 139.851562 767.890625 132.949219 759.402344 132.949219 " fill-opacity="1" fill-rule="evenodd"/><g clip-path="url(#04488f7d3c)"><path fill="#ffffff" d="M 804.917969 203.933594 C 802.222656 203.933594 799.691406 202.886719 797.792969 200.980469 L 774.042969 177.230469 C 772.648438 175.839844 772.648438 173.574219 774.042969 172.179688 C 775.4375 170.785156 777.699219 170.785156 779.09375 172.179688 L 802.84375 195.929688 C 803.398438 196.484375 804.132812 196.789062 804.917969 196.789062 C 805.664062 196.789062 806.375 196.507812 806.917969 196 C 807.492188 195.460938 807.816406 194.726562 807.828125 193.929688 C 807.84375 193.101562 807.523438 192.316406 806.933594 191.726562 L 783.242188 168.03125 C 781.847656 166.640625 781.847656 164.378906 783.242188 162.980469 C 784.636719 161.585938 786.898438 161.585938 788.292969 162.980469 L 811.984375 186.671875 C 813.929688 188.617188 815.019531 191.304688 814.972656 194.050781 C 814.925781 196.796875 813.800781 199.339844 811.804688 201.214844 C 809.929688 202.96875 807.488281 203.933594 804.917969 203.933594 " fill-opacity="1" fill-rule="evenodd"/></g><g clip-path="url(#b1f7b8e751)"><path fill="#ffffff" d="M 216.695312 368.519531 C 208.507812 368.746094 208.507812 380.714844 216.695312 380.910156 C 224.878906 380.714844 224.878906 368.746094 216.695312 368.519531 Z M 216.695312 372.136719 C 220.085938 372.203125 220.085938 377.257812 216.695312 377.324219 C 213.300781 377.257812 213.300781 372.203125 216.695312 372.136719 Z M 286.683594 418.90625 C 278.496094 419.132812 278.496094 431.105469 286.683594 431.300781 C 294.835938 431.105469 294.835938 419.132812 286.683594 418.90625 Z M 286.683594 422.527344 C 290.074219 422.589844 290.074219 427.648438 286.683594 427.710938 C 283.257812 427.648438 283.257812 422.589844 286.683594 422.527344 Z M 324.84375 389.324219 C 305.242188 357.070312 259.679688 349.667969 230.75 373.832031 C 230.195312 355.113281 203.355469 355.015625 202.636719 373.734375 C 202.636719 378.691406 208.019531 389.421875 212.714844 397.871094 C 210.59375 402.730469 209.128906 407.851562 208.3125 413.101562 C 198.527344 415.023438 191.15625 423.929688 189.949219 434.886719 C 189.363281 438.179688 191.515625 445.941406 192.039062 449.300781 C 192.039062 459.378906 197.972656 469.230469 206.78125 473.242188 L 205.671875 477.644531 L 187.144531 483.90625 C 181.4375 485.863281 176.90625 490.429688 175.015625 496.199219 C 174.882812 496.496094 169.761719 514.886719 168.199219 520.824219 C 168.066406 521.378906 168.164062 521.964844 168.523438 522.390625 C 168.882812 522.847656 169.40625 523.074219 169.957031 523.074219 C 176.222656 522.976562 217.542969 522.75 217.964844 522.75 L 283.910156 522.75 C 284.757812 522.75 285.476562 522.160156 285.671875 521.347656 L 286.78125 516.355469 C 287.042969 515.28125 286.128906 514.136719 285.019531 514.171875 L 282.410156 514.171875 L 287.859375 484.132812 C 328.363281 473.4375 347.34375 424.84375 324.84375 389.324219 Z M 323.308594 393.859375 C 327.746094 401.914062 330.355469 410.980469 330.746094 420.179688 C 326.636719 421.808594 322.589844 421.9375 320.796875 420.4375 C 319.625 419.460938 319.460938 417.570312 319.296875 415.546875 C 319.265625 411.863281 317.730469 407.589844 313.230469 407.65625 C 311.011719 407.65625 308.761719 408.699219 306.804688 409.609375 C 305.761719 410.101562 303.347656 411.210938 302.925781 410.882812 C 302.242188 410.328125 302.371094 406.480469 304.652344 403.609375 C 306.316406 401.523438 308.273438 401.164062 310.980469 400.675781 C 315.058594 400.285156 320.699219 397.871094 323.308594 393.859375 Z M 229.316406 379.933594 C 232.152344 377.128906 235.414062 374.648438 238.773438 372.464844 C 254.101562 362.582031 274.0625 360.332031 291.152344 366.5625 C 282.933594 371.617188 283.652344 378.59375 289.714844 384.628906 C 281.988281 380.976562 273.410156 381.726562 267.214844 387.957031 C 264.667969 390.140625 263.136719 391.347656 260.722656 391.054688 C 258.765625 390.824219 257.65625 389.683594 256.222656 388.183594 C 254.558594 386.457031 252.503906 384.335938 248.785156 384.042969 C 245.722656 383.714844 243.078125 385.25 241.253906 386.585938 C 236.851562 390.140625 232.054688 388.902344 227.066406 385.28125 C 227.882812 383.554688 228.664062 381.726562 229.316406 379.933594 Z M 206.226562 373.703125 C 206.226562 367.929688 210.921875 363.234375 216.695312 363.234375 C 222.46875 363.234375 227.132812 367.929688 227.132812 373.703125 C 226.316406 380.746094 219.628906 392.03125 216.695312 397.609375 C 210.59375 386.945312 206.09375 376.738281 206.226562 373.703125 Z M 193.539062 435.277344 C 195.460938 418.480469 211.671875 411.371094 223.902344 420.113281 C 224.816406 420.667969 225.078125 421.222656 226.023438 421.253906 C 227.195312 421.285156 228.695312 421.484375 229.871094 421.839844 C 238.253906 424.125 241.511719 433.355469 239.132812 441.605469 C 237.730469 438.867188 234.339844 437.070312 231.566406 437.007812 C 228.140625 436.941406 225.335938 434.398438 224.195312 431.070312 C 223.773438 429.832031 221.976562 429.503906 221.164062 430.515625 C 217.738281 434.332031 214.445312 436.714844 209.976562 437.886719 C 204.464844 439.125 198.234375 437.625 194.484375 443.105469 C 194.058594 440.886719 193.179688 437.429688 193.539062 435.277344 Z M 195.886719 452.695312 C 195.167969 449.433594 196.113281 446.007812 198.691406 443.855469 C 200.484375 442.421875 202.378906 442.324219 205.050781 442.160156 C 211.214844 442.09375 217.214844 439.679688 222.011719 434.886719 C 223.640625 438.148438 227.914062 440.625 231.109375 440.625 C 233.097656 440.789062 234.695312 441.378906 235.773438 443.136719 C 239.457031 449.367188 237.011719 457.519531 233.132812 463.128906 C 221.75 479.011719 198.496094 471.675781 195.886719 452.695312 Z M 235.609375 475.554688 C 233.394531 475.328125 231.175781 476.4375 230.488281 478.589844 L 227.621094 477.644531 L 226.511719 473.242188 C 227.71875 472.6875 228.859375 472 229.9375 471.25 C 231.730469 472.816406 233.621094 474.25 235.609375 475.554688 Z M 224.128906 478.523438 C 223.902344 478.71875 223.609375 478.914062 223.316406 479.109375 C 219.109375 481.394531 213.074219 481.394531 209.160156 478.523438 L 210.171875 474.546875 C 214.378906 475.753906 218.914062 475.753906 223.152344 474.546875 Z M 217.28125 515.539062 L 216.5 519.128906 C 209.8125 519.160156 181.796875 519.324219 172.273438 519.421875 C 174.199219 512.3125 178.210938 498.125 178.4375 497.277344 C 179.972656 492.613281 183.65625 488.894531 188.289062 487.328125 L 206.683594 481.132812 C 212.0625 485.535156 221.390625 485.4375 226.675781 481.132812 L 229.804688 482.175781 C 228.730469 488.113281 225.140625 507.875 224.03125 514.136719 L 219.074219 514.136719 C 218.195312 514.136719 217.445312 514.726562 217.28125 515.539062 Z M 282.703125 517.757812 L 282.410156 519.128906 L 220.183594 519.128906 L 220.476562 517.757812 Z M 284.433594 482.339844 C 284.433594 482.371094 284.433594 482.371094 284.433594 482.40625 L 278.691406 514.136719 L 227.683594 514.136719 L 231.597656 492.417969 L 233.882812 479.863281 C 233.945312 479.46875 234.304688 479.175781 234.699219 479.175781 C 238.511719 479.175781 279.085938 479.175781 284.042969 479.175781 C 284.367188 479.175781 284.5625 479.371094 284.660156 479.46875 C 284.757812 479.566406 284.855469 479.863281 284.855469 480.15625 Z M 288.671875 480.089844 C 288.609375 480.121094 288.542969 480.121094 288.476562 480.15625 C 288.542969 477.707031 286.488281 475.523438 284.042969 475.554688 C 284.042969 475.554688 277.84375 475.554688 277.84375 475.554688 C 277.746094 468.804688 271.648438 462.121094 266.496094 459.738281 C 263.59375 458.011719 261.277344 456.671875 259.90625 453.152344 C 258.863281 450.445312 259.253906 448.746094 259.808594 446.398438 C 263.136719 435.570312 255.929688 425.039062 249.601562 419.363281 C 248.328125 418.089844 246.601562 416.363281 246.371094 415.644531 C 249.960938 414.078125 255.539062 415.515625 259.320312 418.480469 C 261.960938 420.667969 262.941406 423.375 263.886719 426.015625 C 265.289062 431.300781 269.398438 435.375 275.074219 432.960938 C 277.78125 439.355469 281.074219 445.488281 284.53125 451.519531 C 285.25 452.726562 285.410156 453.3125 286.683594 453.445312 C 287.335938 453.445312 287.921875 453.117188 288.25 452.5625 C 288.609375 451.945312 293.957031 442.484375 295.261719 439.550781 C 304.230469 448.160156 317.40625 445.683594 327.386719 442.878906 C 321.320312 460.519531 306.511719 474.707031 288.671875 480.089844 Z M 276.214844 424.125 C 276.636719 410.328125 296.695312 410.296875 297.121094 424.125 C 297.121094 425.265625 296.597656 428.332031 293.074219 435.765625 C 290.859375 440.464844 288.671875 444.441406 286.683594 447.996094 C 283.421875 441.929688 276.996094 431.070312 276.214844 424.125 Z M 296.890625 436.125 C 299.46875 430.515625 300.738281 426.570312 300.738281 424.125 C 300.738281 416.363281 294.445312 410.066406 286.683594 410.066406 C 276.769531 410.066406 269.757812 420.210938 273.800781 429.636719 C 270.117188 431.070312 268.617188 428.851562 267.3125 424.84375 C 266.300781 422.035156 265.0625 418.578125 261.667969 415.742188 C 256.582031 411.601562 246.699219 409.253906 243.175781 413.980469 C 241.742188 416.589844 244.089844 418.972656 247.089844 421.972656 C 252.699219 426.996094 259.320312 436.320312 256.320312 445.617188 C 253.9375 452.890625 258.277344 459.804688 264.667969 462.871094 C 269.039062 464.988281 273.964844 469.980469 274.191406 475.589844 L 242.558594 475.589844 C 239.066406 473.699219 235.773438 471.480469 232.804688 469 C 236.785156 465.28125 239.589844 460.261719 240.730469 454.617188 C 246.210938 453.445312 247.382812 446.039062 242.492188 443.269531 C 246.210938 431.039062 239.6875 418.351562 226.707031 417.699219 C 222.46875 414.667969 217.3125 412.675781 212 412.742188 C 212.648438 409.023438 213.628906 405.371094 214.964844 401.847656 C 215.292969 402.566406 215.910156 403.054688 216.695312 403.054688 C 217.347656 403.054688 217.933594 402.730469 218.261719 402.175781 C 218.292969 402.109375 222.171875 395.554688 225.53125 388.671875 C 231.4375 392.945312 238.316406 393.792969 243.339844 389.652344 C 245.035156 388.476562 246.40625 387.5625 248.558594 387.726562 C 250.90625 387.921875 252.113281 389.164062 253.644531 390.761719 C 258.277344 396.335938 264.539062 395.75 269.5625 390.726562 C 271.910156 388.738281 274.324219 386.652344 278.238281 386.160156 C 282.507812 385.609375 286.257812 387.171875 289.03125 388.28125 C 291.414062 389.261719 293.628906 390.171875 294.933594 388.347656 C 296.238281 386.457031 294.542969 384.628906 292.78125 382.671875 C 286.78125 376.605469 287.238281 372.59375 295.292969 368.320312 C 305.957031 373.019531 314.894531 380.648438 321.222656 390.433594 C 319.132812 394.542969 314.503906 396.695312 310.359375 397.152344 C 307.394531 397.675781 304.328125 398.230469 301.847656 401.390625 C 298.914062 405.109375 297.738281 411.308594 300.640625 413.6875 C 302.792969 415.515625 305.632812 414.175781 308.339844 412.9375 C 310.523438 411.925781 313.003906 410.785156 314.371094 411.601562 C 315.351562 412.1875 315.546875 413.589844 315.710938 415.875 C 315.644531 424.875 323.015625 426.636719 330.777344 423.992188 C 330.679688 428.984375 329.996094 433.972656 328.625 438.800781 C 318.089844 441.734375 305.273438 444.964844 296.890625 436.125 Z M 241.21875 450.410156 C 241.1875 449.398438 241.449219 448.390625 241.644531 447.410156 C 242.066406 448.0625 242.066406 448.910156 241.773438 449.597656 C 241.644531 449.890625 241.480469 450.183594 241.21875 450.410156 Z M 256.90625 491.339844 C 247.285156 491.308594 244.644531 505.203125 255.277344 505.789062 C 264.898438 505.820312 267.539062 491.929688 256.90625 491.339844 Z M 252.015625 498.808594 C 252.4375 494.667969 260.496094 493.003906 260.203125 498.320312 C 259.746094 502.460938 251.722656 504.125 252.015625 498.808594 Z M 252.015625 498.808594 " fill-opacity="1" fill-rule="nonzero"/></g><path fill="#ffffff" d="M 702.683594 347.886719 L 705.070312 352.984375 L 707.863281 358.953125 L 719.675781 360.761719 C 722.921875 361.25 723.117188 362.71875 720.800781 365.105469 L 712.417969 373.730469 L 714.34375 385.484375 C 714.96875 389.320312 713.824219 390.246094 711.203125 388.796875 L 700.503906 382.875 L 700.503906 382.839844 L 700.492188 382.875 L 689.78125 388.808594 C 687.160156 390.257812 686.027344 389.332031 686.652344 385.496094 L 688.566406 373.746094 L 680.199219 365.121094 C 677.875 362.734375 678.078125 361.261719 681.320312 360.765625 L 693.132812 358.957031 L 698.300781 347.875 C 699.605469 345.113281 701.375 345.089844 702.683594 347.886719 Z M 702.683594 347.886719 " fill-opacity="1" fill-rule="nonzero"/><path fill="#ffffff" d="M 660.820312 369.335938 L 662.886719 373.75 L 665.308594 378.910156 L 675.519531 380.472656 C 678.328125 380.890625 678.5 382.164062 676.492188 384.242188 L 669.25 391.691406 L 670.90625 401.84375 C 671.449219 405.171875 670.457031 405.972656 668.195312 404.722656 L 658.945312 399.597656 L 658.933594 399.5625 L 658.925781 399.597656 L 649.675781 404.722656 C 647.402344 405.972656 646.414062 405.183594 646.964844 401.859375 L 648.617188 391.695312 L 641.375 384.242188 C 639.371094 382.175781 639.542969 380.90625 642.347656 380.476562 L 652.5625 378.910156 L 657.046875 369.339844 C 658.160156 366.941406 659.695312 366.914062 660.820312 369.335938 Z M 660.820312 369.335938 " fill-opacity="1" fill-rule="nonzero"/><path fill="#ffffff" d="M 743.941406 369.28125 L 746.007812 373.683594 L 748.429688 378.839844 L 758.644531 380.410156 C 761.445312 380.835938 761.621094 382.113281 759.617188 384.175781 L 752.371094 391.628906 L 754.027344 401.792969 C 754.574219 405.105469 753.589844 405.917969 751.316406 404.652344 L 742.066406 399.535156 L 742.058594 399.503906 L 742.046875 399.539062 L 732.796875 404.664062 C 730.535156 405.914062 729.542969 405.117188 730.085938 401.789062 L 731.738281 391.636719 L 724.5 384.183594 C 722.492188 382.121094 722.664062 380.847656 725.472656 380.417969 L 735.683594 378.851562 L 740.167969 369.265625 C 741.28125 366.878906 742.820312 366.855469 743.941406 369.28125 Z M 743.941406 369.28125 " fill-opacity="1" fill-rule="nonzero"/><g clip-path="url(#028b8e054d)"><path fill="#ffffff" d="M 629.75 402.03125 L 631.511719 405.777344 L 633.574219 410.144531 L 642.304688 411.464844 C 644.703125 411.835938 644.851562 412.917969 643.136719 414.664062 L 636.949219 420.980469 L 638.363281 429.59375 C 638.828125 432.414062 637.980469 433.085938 636.054688 432.015625 L 628.140625 427.679688 L 628.140625 427.65625 L 628.125 427.679688 L 620.222656 432.027344 C 618.285156 433.09375 617.441406 432.410156 617.902344 429.59375 L 619.320312 420.980469 L 613.132812 414.664062 C 611.425781 412.914062 611.566406 411.835938 613.964844 411.476562 L 622.695312 410.15625 L 626.519531 402.03125 C 627.476562 400.003906 628.785156 399.992188 629.75 402.03125 Z M 629.75 402.03125 " fill-opacity="1" fill-rule="nonzero"/></g><path fill="#ffffff" d="M 682.625 474.703125 C 661.550781 479.070312 648.316406 491.539062 644.203125 509.503906 C 643.066406 514.363281 644.8125 515.777344 646.996094 516.449219 C 661.949219 521.050781 689.632812 522.683594 700.496094 522.683594 C 711.355469 522.683594 739.039062 521.050781 753.992188 516.449219 C 756.171875 515.777344 757.921875 514.363281 756.800781 509.503906 C 753.011719 492.964844 741.476562 481.097656 723.234375 475.90625 C 720.257812 477.726562 717.070312 479.199219 713.707031 480.277344 C 712.582031 483.796875 709.8125 486.671875 705.964844 486.671875 L 695.554688 486.671875 C 690.828125 486.671875 686.863281 482.710938 686.863281 477.96875 L 686.863281 477.066406 Z M 682.625 474.703125 " fill-opacity="1" fill-rule="nonzero"/><path fill="#ffffff" d="M 702.011719 401.628906 C 694.214844 401.375 686.332031 403.496094 679.527344 408.035156 C 671.890625 413.148438 666.546875 420.679688 664.089844 429.109375 C 663.40625 429.035156 662.59375 429.070312 661.632812 429.339844 C 658.023438 430.371094 655.3125 433.316406 654.09375 435.921875 C 652.507812 439.308594 651.847656 443.792969 652.542969 448.425781 C 653.25 453.042969 655.199219 456.855469 657.640625 459.207031 C 660.078125 461.574219 662.847656 462.347656 665.582031 461.757812 C 669.671875 460.890625 671.703125 460.238281 671.121094 456.4375 L 668.351562 437.988281 C 668.921875 427.996094 674.078125 418.59375 682.738281 412.824219 C 694.300781 405.09375 709.476562 405.589844 720.507812 414.0625 C 728.191406 419.949219 732.652344 428.769531 733.164062 438.03125 L 731.230469 450.929688 C 726.90625 462.753906 716.210938 470.933594 703.808594 472.105469 L 695.554688 472.105469 C 693.4375 472.105469 691.71875 473.8125 691.71875 475.941406 L 691.71875 477.96875 C 691.71875 480.089844 693.433594 481.808594 695.554688 481.808594 L 705.964844 481.808594 C 708.085938 481.808594 709.800781 480.089844 709.800781 477.96875 L 709.800781 476.90625 C 719.144531 474.625 727.300781 468.882812 732.609375 460.875 L 735.9375 461.757812 C 738.660156 462.460938 741.457031 461.570312 743.886719 459.203125 C 746.335938 456.851562 748.28125 453.039062 748.984375 448.425781 C 749.683594 443.789062 749 439.316406 747.433594 435.921875 C 745.871094 432.527344 743.527344 430.359375 740.839844 429.59375 C 739.703125 429.269531 738.476562 429.140625 737.421875 429.117188 C 735.195312 421.492188 730.617188 414.558594 724.023438 409.492188 C 717.53125 404.523438 709.8125 401.882812 702.011719 401.628906 Z M 702.011719 401.628906 " fill-opacity="1" fill-rule="evenodd"/><path fill="#ffffff" d="M 700.496094 413.402344 C 685.878906 413.402344 674.089844 424.796875 674.089844 439.804688 C 674.089844 454.824219 685.878906 466.207031 700.496094 466.207031 C 715.117188 466.207031 726.898438 454.8125 726.898438 439.804688 C 726.898438 424.796875 715.117188 413.402344 700.496094 413.402344 Z M 687.894531 426.476562 C 690.492188 428.957031 695.152344 430.613281 700.496094 430.613281 C 705.835938 430.613281 710.507812 428.957031 713.101562 426.476562 C 716.640625 429.816406 718.851562 434.542969 718.851562 439.804688 C 718.851562 449.96875 710.667969 458.152344 700.496094 458.152344 C 690.328125 458.152344 682.148438 449.96875 682.148438 439.804688 C 682.148438 434.542969 684.359375 429.816406 687.894531 426.476562 Z M 687.894531 426.476562 " fill-opacity="1" fill-rule="evenodd"/><g clip-path="url(#6f263e9e0e)"><path fill="#ffffff" d="M 774.472656 402.03125 L 776.238281 405.777344 L 778.296875 410.144531 L 787.023438 411.464844 C 789.421875 411.835938 789.574219 412.917969 787.859375 414.664062 L 781.671875 420.980469 L 783.089844 429.59375 C 783.546875 432.414062 782.707031 433.085938 780.78125 432.015625 L 772.863281 427.679688 L 772.863281 427.65625 L 772.851562 427.679688 L 764.945312 432.03125 C 763.011719 433.09375 762.164062 432.414062 762.628906 429.59375 L 764.042969 420.980469 L 757.867188 414.664062 C 756.152344 412.917969 756.289062 411.835938 758.6875 411.480469 L 767.414062 410.160156 L 771.242188 402.035156 C 772.203125 400.003906 773.511719 399.992188 774.472656 402.03125 Z M 774.472656 402.03125 " fill-opacity="1" fill-rule="nonzero"/></g><g clip-path="url(#427c01ef75)"><path fill="#ffffff" d="M 349.453125 46.101562 C 346.421875 60.289062 343.371094 74.480469 340.25 88.648438 C 339.460938 92.230469 338.15625 92.652344 335.417969 90.210938 C 332.511719 87.625 329.777344 84.839844 326.957031 82.152344 C 326.746094 81.960938 326.542969 81.765625 326.324219 81.570312 L 324.824219 80.066406 L 323.632812 81.261719 C 323.558594 81.332031 323.476562 81.40625 323.398438 81.480469 C 304.613281 100.136719 285.828125 118.796875 267.046875 137.457031 C 261.226562 143.25 255.425781 149.0625 249.613281 154.867188 C 248.050781 156.429688 246.371094 156.609375 244.546875 155.289062 C 243.46875 154.507812 242.460938 153.609375 241.503906 152.667969 C 236.136719 147.375 230.796875 142.054688 225.441406 136.738281 C 225.121094 136.417969 224.785156 136.109375 224.375 135.71875 C 223.976562 136.097656 223.613281 136.433594 223.269531 136.777344 C 205.734375 154.257812 188.207031 171.75 170.652344 189.210938 C 170.144531 189.71875 169.628906 190.210938 169.109375 190.703125 L 160.773438 199.039062 C 160.09375 199.71875 158.988281 199.71875 158.304688 199.039062 L 147.089844 187.824219 C 146.40625 187.144531 146.40625 186.039062 147.089844 185.355469 L 149.207031 183.25 C 149.355469 183.039062 149.527344 182.839844 149.714844 182.65625 C 171.226562 161.214844 192.734375 139.757812 214.273438 118.347656 C 216.976562 115.667969 219.839844 113.132812 222.753906 110.683594 C 224.65625 109.089844 225.421875 109.191406 227.195312 110.910156 C 233.453125 116.972656 239.679688 123.070312 245.914062 129.160156 C 246.179688 129.421875 246.382812 129.75 246.574219 129.984375 C 267.980469 108.523438 289.269531 87.191406 310.902344 65.503906 C 307.964844 62.6875 304.855469 59.75 301.808594 56.769531 C 301 55.984375 300.28125 55.089844 299.632812 54.171875 C 298.535156 52.625 298.847656 51.621094 300.6875 51.0625 C 302.769531 50.433594 304.886719 49.9375 307.003906 49.460938 C 319.09375 46.777344 331.183594 44.113281 343.273438 41.464844 C 344 41.304688 344.765625 41.269531 345.511719 41.277344 C 348.394531 41.320312 350.054688 43.269531 349.453125 46.101562 " fill-opacity="1" fill-rule="nonzero"/></g><g clip-path="url(#c71ea31559)"><path fill="#ffffff" d="M 285.453125 132.9375 C 284.898438 133.457031 284.589844 133.726562 284.304688 134.011719 C 275.015625 143.265625 265.730469 152.527344 256.425781 161.765625 C 255.746094 162.441406 255.449219 163.09375 255.453125 164.054688 C 255.484375 175.113281 255.457031 186.179688 255.503906 197.238281 C 255.503906 198.054688 255.515625 198.871094 255.527344 199.6875 C 255.492188 199.824219 255.476562 199.96875 255.476562 200.121094 L 255.476562 212.148438 C 255.476562 213.25 256.367188 214.140625 257.46875 214.140625 L 283.441406 214.140625 C 284.542969 214.140625 285.4375 213.25 285.4375 212.148438 L 285.4375 209.554688 C 285.449219 209.394531 285.453125 209.230469 285.453125 209.070312 C 285.472656 184.1875 285.457031 159.300781 285.453125 134.414062 C 285.453125 134.042969 285.453125 133.671875 285.453125 132.9375 " fill-opacity="1" fill-rule="nonzero"/></g><g clip-path="url(#e79b6e4002)"><path fill="#ffffff" d="M 324.839844 194.773438 C 324.808594 161.625 324.75 128.476562 324.695312 95.324219 L 324.695312 93.5 L 323.953125 94.265625 C 314.382812 103.820312 304.816406 113.371094 295.265625 122.941406 C 294.960938 123.25 294.757812 123.808594 294.757812 124.253906 C 294.734375 152.957031 294.734375 181.664062 294.738281 210.367188 C 294.738281 210.511719 294.769531 210.660156 294.804688 210.820312 L 294.804688 212.148438 C 294.804688 213.25 295.695312 214.140625 296.800781 214.140625 L 322.777344 214.140625 C 323.878906 214.140625 324.769531 213.25 324.769531 212.148438 L 324.769531 202.742188 C 324.8125 200.085938 324.839844 197.429688 324.839844 194.773438 " fill-opacity="1" fill-rule="nonzero"/></g><g clip-path="url(#2b343c8702)"><path fill="#ffffff" d="M 205.269531 166.480469 C 195.84375 175.863281 186.421875 185.246094 177.023438 194.652344 C 176.710938 194.960938 176.507812 195.519531 176.507812 195.96875 C 176.492188 197.3125 176.492188 198.65625 176.488281 200.003906 C 176.488281 200.046875 176.480469 200.082031 176.480469 200.128906 L 176.480469 212.140625 C 176.480469 213.246094 177.375 214.140625 178.480469 214.140625 L 204.699219 214.140625 C 205.804688 214.140625 206.699219 213.246094 206.699219 212.140625 L 206.699219 200.128906 C 206.699219 200.097656 206.695312 200.070312 206.695312 200.039062 C 206.6875 190.835938 206.675781 181.636719 206.667969 172.433594 C 206.667969 170.632812 206.667969 168.832031 206.667969 167.03125 L 206.699219 164.972656 L 205.269531 166.480469 " fill-opacity="1" fill-rule="nonzero"/></g><g clip-path="url(#e401d3f496)"><path fill="#ffffff" d="M 245.949219 167.074219 L 245.949219 165.140625 L 245.839844 165.140625 C 241.011719 165.496094 237.691406 162.742188 234.511719 159.734375 C 232.359375 157.6875 230.234375 155.601562 228.09375 153.546875 C 227.441406 152.917969 226.785156 152.292969 226.132812 151.660156 L 223.042969 148.628906 L 222.109375 149.570312 C 222.09375 149.589844 222.070312 149.609375 222.050781 149.628906 C 220.277344 151.40625 218.539062 153.21875 216.726562 154.964844 C 216.011719 155.648438 215.726562 156.363281 215.730469 157.375 C 215.78125 169.4375 215.753906 181.496094 215.800781 193.5625 C 215.820312 197.714844 215.882812 201.867188 215.988281 206.019531 L 215.988281 212.148438 C 215.988281 213.25 216.882812 214.140625 217.984375 214.140625 L 243.957031 214.140625 C 245.058594 214.140625 245.949219 213.25 245.949219 212.148438 L 245.949219 200.121094 C 245.949219 199.957031 245.925781 199.800781 245.890625 199.652344 C 245.921875 188.792969 245.9375 177.9375 245.949219 167.074219 " fill-opacity="1" fill-rule="nonzero"/></g><g fill="#ffffff" fill-opacity="1"><g transform="translate(95.451371, 257.971384)"><g><path d="M 5.859375 0.1875 C 4.835938 0.1875 3.851562 0.046875 2.90625 -0.234375 C 1.957031 -0.523438 1.207031 -0.910156 0.65625 -1.390625 L 1.5 -3.296875 C 2.039062 -2.867188 2.703125 -2.519531 3.484375 -2.25 C 4.273438 -1.976562 5.066406 -1.84375 5.859375 -1.84375 C 6.835938 -1.84375 7.566406 -2 8.046875 -2.3125 C 8.535156 -2.625 8.78125 -3.039062 8.78125 -3.5625 C 8.78125 -3.9375 8.644531 -4.242188 8.375 -4.484375 C 8.101562 -4.734375 7.757812 -4.925781 7.34375 -5.0625 C 6.9375 -5.207031 6.375 -5.367188 5.65625 -5.546875 C 4.644531 -5.773438 3.828125 -6.007812 3.203125 -6.25 C 2.585938 -6.488281 2.054688 -6.863281 1.609375 -7.375 C 1.160156 -7.882812 0.9375 -8.570312 0.9375 -9.4375 C 0.9375 -10.164062 1.132812 -10.828125 1.53125 -11.421875 C 1.925781 -12.023438 2.519531 -12.5 3.3125 -12.84375 C 4.113281 -13.195312 5.09375 -13.375 6.25 -13.375 C 7.0625 -13.375 7.851562 -13.273438 8.625 -13.078125 C 9.40625 -12.878906 10.078125 -12.585938 10.640625 -12.203125 L 9.875 -10.3125 C 9.289062 -10.644531 8.6875 -10.898438 8.0625 -11.078125 C 7.4375 -11.253906 6.828125 -11.34375 6.234375 -11.34375 C 5.265625 -11.34375 4.546875 -11.175781 4.078125 -10.84375 C 3.609375 -10.519531 3.375 -10.085938 3.375 -9.546875 C 3.375 -9.171875 3.507812 -8.863281 3.78125 -8.625 C 4.050781 -8.382812 4.390625 -8.195312 4.796875 -8.0625 C 5.210938 -7.925781 5.78125 -7.769531 6.5 -7.59375 C 7.476562 -7.363281 8.28125 -7.125 8.90625 -6.875 C 9.539062 -6.632812 10.078125 -6.265625 10.515625 -5.765625 C 10.960938 -5.265625 11.1875 -4.585938 11.1875 -3.734375 C 11.1875 -3.003906 10.988281 -2.34375 10.59375 -1.75 C 10.195312 -1.15625 9.597656 -0.679688 8.796875 -0.328125 C 7.992188 0.015625 7.015625 0.1875 5.859375 0.1875 Z M 5.859375 0.1875 "/></g></g></g><g fill="#ffffff" fill-opacity="1"><g transform="translate(107.297654, 257.971384)"><g><path d="M 1.765625 -13.1875 L 4.21875 -13.1875 L 4.21875 0 L 1.765625 0 Z M 1.765625 -13.1875 "/></g></g></g><g fill="#ffffff" fill-opacity="1"><g transform="translate(113.305546, 257.971384)"><g><path d="M 13.484375 -13.1875 L 13.484375 0 L 11.46875 0 L 4.203125 -8.9375 L 4.203125 0 L 1.765625 0 L 1.765625 -13.1875 L 3.78125 -13.1875 L 11.0625 -4.265625 L 11.0625 -13.1875 Z M 13.484375 -13.1875 "/></g></g></g><g fill="#ffffff" fill-opacity="1"><g transform="translate(128.560704, 257.971384)"><g><path d="M 10.78125 -6.75 L 13.09375 -6.75 L 13.09375 -1.484375 C 12.414062 -0.941406 11.625 -0.523438 10.71875 -0.234375 C 9.8125 0.046875 8.882812 0.1875 7.9375 0.1875 C 6.59375 0.1875 5.378906 -0.101562 4.296875 -0.6875 C 3.210938 -1.269531 2.363281 -2.078125 1.75 -3.109375 C 1.132812 -4.140625 0.828125 -5.300781 0.828125 -6.59375 C 0.828125 -7.882812 1.132812 -9.046875 1.75 -10.078125 C 2.363281 -11.109375 3.210938 -11.914062 4.296875 -12.5 C 5.390625 -13.082031 6.613281 -13.375 7.96875 -13.375 C 9.070312 -13.375 10.078125 -13.191406 10.984375 -12.828125 C 11.890625 -12.460938 12.648438 -11.929688 13.265625 -11.234375 L 11.71875 -9.71875 C 10.71875 -10.726562 9.503906 -11.234375 8.078125 -11.234375 C 7.148438 -11.234375 6.320312 -11.035156 5.59375 -10.640625 C 4.875 -10.253906 4.3125 -9.707031 3.90625 -9 C 3.5 -8.300781 3.296875 -7.5 3.296875 -6.59375 C 3.296875 -5.71875 3.5 -4.925781 3.90625 -4.21875 C 4.3125 -3.519531 4.875 -2.96875 5.59375 -2.5625 C 6.320312 -2.15625 7.144531 -1.953125 8.0625 -1.953125 C 9.09375 -1.953125 10 -2.179688 10.78125 -2.640625 Z M 10.78125 -6.75 "/></g></g></g><g fill="#ffffff" fill-opacity="1"><g transform="translate(143.100191, 257.971384)"><g><path d="M 1.765625 -13.1875 L 4.21875 -13.1875 L 4.21875 -2.078125 L 11.125 -2.078125 L 11.125 0 L 1.765625 0 Z M 1.765625 -13.1875 "/></g></g></g><g fill="#ffffff" fill-opacity="1"><g transform="translate(154.38147, 257.971384)"><g><path d="M 11.671875 -2.046875 L 11.671875 0 L 1.765625 0 L 1.765625 -13.1875 L 11.40625 -13.1875 L 11.40625 -11.140625 L 4.21875 -11.140625 L 4.21875 -7.703125 L 10.59375 -7.703125 L 10.59375 -5.6875 L 4.21875 -5.6875 L 4.21875 -2.046875 Z M 11.671875 -2.046875 "/></g></g></g><g fill="#ffffff" fill-opacity="1"><g transform="translate(172.197988, 257.971384)"><g><path d="M 10.328125 -3.046875 L 3.734375 -3.046875 L 2.4375 0 L -0.09375 0 L 5.84375 -13.1875 L 8.25 -13.1875 L 14.203125 0 L 11.640625 0 Z M 9.515625 -4.96875 L 7.03125 -10.734375 L 4.5625 -4.96875 Z M 9.515625 -4.96875 "/></g></g></g><g fill="#ffffff" fill-opacity="1"><g transform="translate(186.304293, 257.971384)"><g><path d="M 7.875 0.1875 C 6.539062 0.1875 5.335938 -0.101562 4.265625 -0.6875 C 3.191406 -1.269531 2.347656 -2.078125 1.734375 -3.109375 C 1.128906 -4.140625 0.828125 -5.300781 0.828125 -6.59375 C 0.828125 -7.882812 1.132812 -9.046875 1.75 -10.078125 C 2.363281 -11.109375 3.207031 -11.914062 4.28125 -12.5 C 5.351562 -13.082031 6.554688 -13.375 7.890625 -13.375 C 8.972656 -13.375 9.957031 -13.1875 10.84375 -12.8125 C 11.738281 -12.4375 12.492188 -11.890625 13.109375 -11.171875 L 11.53125 -9.6875 C 10.570312 -10.71875 9.398438 -11.234375 8.015625 -11.234375 C 7.109375 -11.234375 6.296875 -11.035156 5.578125 -10.640625 C 4.859375 -10.242188 4.296875 -9.691406 3.890625 -8.984375 C 3.492188 -8.285156 3.296875 -7.488281 3.296875 -6.59375 C 3.296875 -5.695312 3.492188 -4.894531 3.890625 -4.1875 C 4.296875 -3.488281 4.859375 -2.941406 5.578125 -2.546875 C 6.296875 -2.148438 7.109375 -1.953125 8.015625 -1.953125 C 9.398438 -1.953125 10.570312 -2.476562 11.53125 -3.53125 L 13.109375 -2.015625 C 12.492188 -1.296875 11.738281 -0.75 10.84375 -0.375 C 9.945312 0 8.957031 0.1875 7.875 0.1875 Z M 7.875 0.1875 "/></g></g></g><g fill="#ffffff" fill-opacity="1"><g transform="translate(199.996263, 257.971384)"><g><path d="M 11.671875 -2.046875 L 11.671875 0 L 1.765625 0 L 1.765625 -13.1875 L 11.40625 -13.1875 L 11.40625 -11.140625 L 4.21875 -11.140625 L 4.21875 -7.703125 L 10.59375 -7.703125 L 10.59375 -5.6875 L 4.21875 -5.6875 L 4.21875 -2.046875 Z M 11.671875 -2.046875 "/></g></g></g><g fill="#ffffff" fill-opacity="1"><g transform="translate(212.614721, 257.971384)"><g><path d="M 11.671875 -2.046875 L 11.671875 0 L 1.765625 0 L 1.765625 -13.1875 L 11.40625 -13.1875 L 11.40625 -11.140625 L 4.21875 -11.140625 L 4.21875 -7.703125 L 10.59375 -7.703125 L 10.59375 -5.6875 L 4.21875 -5.6875 L 4.21875 -2.046875 Z M 11.671875 -2.046875 "/></g></g></g><g fill="#ffffff" fill-opacity="1"><g transform="translate(225.233179, 257.971384)"><g><path d="M 5.859375 0.1875 C 4.835938 0.1875 3.851562 0.046875 2.90625 -0.234375 C 1.957031 -0.523438 1.207031 -0.910156 0.65625 -1.390625 L 1.5 -3.296875 C 2.039062 -2.867188 2.703125 -2.519531 3.484375 -2.25 C 4.273438 -1.976562 5.066406 -1.84375 5.859375 -1.84375 C 6.835938 -1.84375 7.566406 -2 8.046875 -2.3125 C 8.535156 -2.625 8.78125 -3.039062 8.78125 -3.5625 C 8.78125 -3.9375 8.644531 -4.242188 8.375 -4.484375 C 8.101562 -4.734375 7.757812 -4.925781 7.34375 -5.0625 C 6.9375 -5.207031 6.375 -5.367188 5.65625 -5.546875 C 4.644531 -5.773438 3.828125 -6.007812 3.203125 -6.25 C 2.585938 -6.488281 2.054688 -6.863281 1.609375 -7.375 C 1.160156 -7.882812 0.9375 -8.570312 0.9375 -9.4375 C 0.9375 -10.164062 1.132812 -10.828125 1.53125 -11.421875 C 1.925781 -12.023438 2.519531 -12.5 3.3125 -12.84375 C 4.113281 -13.195312 5.09375 -13.375 6.25 -13.375 C 7.0625 -13.375 7.851562 -13.273438 8.625 -13.078125 C 9.40625 -12.878906 10.078125 -12.585938 10.640625 -12.203125 L 9.875 -10.3125 C 9.289062 -10.644531 8.6875 -10.898438 8.0625 -11.078125 C 7.4375 -11.253906 6.828125 -11.34375 6.234375 -11.34375 C 5.265625 -11.34375 4.546875 -11.175781 4.078125 -10.84375 C 3.609375 -10.519531 3.375 -10.085938 3.375 -9.546875 C 3.375 -9.171875 3.507812 -8.863281 3.78125 -8.625 C 4.050781 -8.382812 4.390625 -8.195312 4.796875 -8.0625 C 5.210938 -7.925781 5.78125 -7.769531 6.5 -7.59375 C 7.476562 -7.363281 8.28125 -7.125 8.90625 -6.875 C 9.539062 -6.632812 10.078125 -6.265625 10.515625 -5.765625 C 10.960938 -5.265625 11.1875 -4.585938 11.1875 -3.734375 C 11.1875 -3.003906 10.988281 -2.34375 10.59375 -1.75 C 10.195312 -1.15625 9.597656 -0.679688 8.796875 -0.328125 C 7.992188 0.015625 7.015625 0.1875 5.859375 0.1875 Z M 5.859375 0.1875 "/></g></g></g><g fill="#ffffff" fill-opacity="1"><g transform="translate(237.079462, 257.971384)"><g/></g></g><g fill="#ffffff" fill-opacity="1"><g transform="translate(242.27752, 257.971384)"><g><path d="M 4.453125 -11.125 L 0.078125 -11.125 L 0.078125 -13.1875 L 11.265625 -13.1875 L 11.265625 -11.125 L 6.890625 -11.125 L 6.890625 0 L 4.453125 0 Z M 4.453125 -11.125 "/></g></g></g><g fill="#ffffff" fill-opacity="1"><g transform="translate(253.615305, 257.971384)"><g><path d="M 7.9375 0.1875 C 6.59375 0.1875 5.378906 -0.101562 4.296875 -0.6875 C 3.210938 -1.269531 2.363281 -2.078125 1.75 -3.109375 C 1.132812 -4.148438 0.828125 -5.3125 0.828125 -6.59375 C 0.828125 -7.875 1.132812 -9.03125 1.75 -10.0625 C 2.363281 -11.101562 3.210938 -11.914062 4.296875 -12.5 C 5.378906 -13.082031 6.59375 -13.375 7.9375 -13.375 C 9.28125 -13.375 10.488281 -13.082031 11.5625 -12.5 C 12.644531 -11.914062 13.492188 -11.109375 14.109375 -10.078125 C 14.722656 -9.046875 15.03125 -7.882812 15.03125 -6.59375 C 15.03125 -5.300781 14.722656 -4.140625 14.109375 -3.109375 C 13.492188 -2.078125 12.644531 -1.269531 11.5625 -0.6875 C 10.488281 -0.101562 9.28125 0.1875 7.9375 0.1875 Z M 7.9375 -1.953125 C 8.8125 -1.953125 9.597656 -2.148438 10.296875 -2.546875 C 11.003906 -2.941406 11.554688 -3.492188 11.953125 -4.203125 C 12.359375 -4.921875 12.5625 -5.71875 12.5625 -6.59375 C 12.5625 -7.476562 12.359375 -8.273438 11.953125 -8.984375 C 11.554688 -9.691406 11.003906 -10.242188 10.296875 -10.640625 C 9.597656 -11.035156 8.8125 -11.234375 7.9375 -11.234375 C 7.050781 -11.234375 6.253906 -11.035156 5.546875 -10.640625 C 4.847656 -10.242188 4.296875 -9.691406 3.890625 -8.984375 C 3.492188 -8.273438 3.296875 -7.476562 3.296875 -6.59375 C 3.296875 -5.71875 3.492188 -4.921875 3.890625 -4.203125 C 4.296875 -3.492188 4.847656 -2.941406 5.546875 -2.546875 C 6.253906 -2.148438 7.050781 -1.953125 7.9375 -1.953125 Z M 7.9375 -1.953125 "/></g></g></g><g fill="#ffffff" fill-opacity="1"><g transform="translate(269.473135, 257.971384)"><g/></g></g><g fill="#ffffff" fill-opacity="1"><g transform="translate(274.671194, 257.971384)"><g><path d="M 10.328125 -3.046875 L 3.734375 -3.046875 L 2.4375 0 L -0.09375 0 L 5.84375 -13.1875 L 8.25 -13.1875 L 14.203125 0 L 11.640625 0 Z M 9.515625 -4.96875 L 7.03125 -10.734375 L 4.5625 -4.96875 Z M 9.515625 -4.96875 "/></g></g></g><g fill="#ffffff" fill-opacity="1"><g transform="translate(288.777499, 257.971384)"><g><path d="M 1.765625 -13.1875 L 4.21875 -13.1875 L 4.21875 -2.078125 L 11.125 -2.078125 L 11.125 0 L 1.765625 0 Z M 1.765625 -13.1875 "/></g></g></g><g fill="#ffffff" fill-opacity="1"><g transform="translate(300.058779, 257.971384)"><g><path d="M 1.765625 -13.1875 L 4.21875 -13.1875 L 4.21875 -2.078125 L 11.125 -2.078125 L 11.125 0 L 1.765625 0 Z M 1.765625 -13.1875 "/></g></g></g><g fill="#ffffff" fill-opacity="1"><g transform="translate(311.340058, 257.971384)"><g/></g></g><g fill="#ffffff" fill-opacity="1"><g transform="translate(316.538117, 257.971384)"><g><path d="M 13.890625 0 L 13.875 -8.75 L 9.53125 -1.5 L 8.4375 -1.5 L 4.109375 -8.625 L 4.109375 0 L 1.765625 0 L 1.765625 -13.1875 L 3.78125 -13.1875 L 9.03125 -4.453125 L 14.171875 -13.1875 L 16.1875 -13.1875 L 16.203125 0 Z M 13.890625 0 "/></g></g></g><g fill="#ffffff" fill-opacity="1"><g transform="translate(334.524138, 257.971384)"><g><path d="M 10.328125 -3.046875 L 3.734375 -3.046875 L 2.4375 0 L -0.09375 0 L 5.84375 -13.1875 L 8.25 -13.1875 L 14.203125 0 L 11.640625 0 Z M 9.515625 -4.96875 L 7.03125 -10.734375 L 4.5625 -4.96875 Z M 9.515625 -4.96875 "/></g></g></g><g fill="#ffffff" fill-opacity="1"><g transform="translate(348.630431, 257.971384)"><g><path d="M 10.40625 0 L 7.703125 -3.859375 C 7.585938 -3.847656 7.421875 -3.84375 7.203125 -3.84375 L 4.21875 -3.84375 L 4.21875 0 L 1.765625 0 L 1.765625 -13.1875 L 7.203125 -13.1875 C 8.335938 -13.1875 9.328125 -13 10.171875 -12.625 C 11.023438 -12.25 11.675781 -11.707031 12.125 -11 C 12.582031 -10.300781 12.8125 -9.46875 12.8125 -8.5 C 12.8125 -7.507812 12.566406 -6.65625 12.078125 -5.9375 C 11.597656 -5.21875 10.90625 -4.679688 10 -4.328125 L 13.046875 0 Z M 10.34375 -8.5 C 10.34375 -9.34375 10.066406 -9.988281 9.515625 -10.4375 C 8.960938 -10.894531 8.148438 -11.125 7.078125 -11.125 L 4.21875 -11.125 L 4.21875 -5.859375 L 7.078125 -5.859375 C 8.148438 -5.859375 8.960938 -6.085938 9.515625 -6.546875 C 10.066406 -7.003906 10.34375 -7.65625 10.34375 -8.5 Z M 10.34375 -8.5 "/></g></g></g><g fill="#ffffff" fill-opacity="1"><g transform="translate(362.397741, 257.971384)"><g><path d="M 6.3125 -5.515625 L 4.21875 -3.375 L 4.21875 0 L 1.765625 0 L 1.765625 -13.1875 L 4.21875 -13.1875 L 4.21875 -6.421875 L 10.734375 -13.1875 L 13.484375 -13.1875 L 7.953125 -7.296875 L 13.828125 0 L 10.96875 0 Z M 6.3125 -5.515625 "/></g></g></g><g fill="#ffffff" fill-opacity="1"><g transform="translate(376.127382, 257.971384)"><g><path d="M 11.671875 -2.046875 L 11.671875 0 L 1.765625 0 L 1.765625 -13.1875 L 11.40625 -13.1875 L 11.40625 -11.140625 L 4.21875 -11.140625 L 4.21875 -7.703125 L 10.59375 -7.703125 L 10.59375 -5.6875 L 4.21875 -5.6875 L 4.21875 -2.046875 Z M 11.671875 -2.046875 "/></g></g></g><g fill="#ffffff" fill-opacity="1"><g transform="translate(388.745841, 257.971384)"><g><path d="M 4.453125 -11.125 L 0.078125 -11.125 L 0.078125 -13.1875 L 11.265625 -13.1875 L 11.265625 -11.125 L 6.890625 -11.125 L 6.890625 0 L 4.453125 0 Z M 4.453125 -11.125 "/></g></g></g><g fill="#ffffff" fill-opacity="1"><g transform="translate(115.123997, 561.845262)"><g><path d="M 4.453125 -11.125 L 0.078125 -11.125 L 0.078125 -13.1875 L 11.265625 -13.1875 L 11.265625 -11.125 L 6.890625 -11.125 L 6.890625 0 L 4.453125 0 Z M 4.453125 -11.125 "/></g></g></g><g fill="#ffffff" fill-opacity="1"><g transform="translate(126.461782, 561.845262)"><g><path d="M 10.40625 0 L 7.703125 -3.859375 C 7.585938 -3.847656 7.421875 -3.84375 7.203125 -3.84375 L 4.21875 -3.84375 L 4.21875 0 L 1.765625 0 L 1.765625 -13.1875 L 7.203125 -13.1875 C 8.335938 -13.1875 9.328125 -13 10.171875 -12.625 C 11.023438 -12.25 11.675781 -11.707031 12.125 -11 C 12.582031 -10.300781 12.8125 -9.46875 12.8125 -8.5 C 12.8125 -7.507812 12.566406 -6.65625 12.078125 -5.9375 C 11.597656 -5.21875 10.90625 -4.679688 10 -4.328125 L 13.046875 0 Z M 10.34375 -8.5 C 10.34375 -9.34375 10.066406 -9.988281 9.515625 -10.4375 C 8.960938 -10.894531 8.148438 -11.125 7.078125 -11.125 L 4.21875 -11.125 L 4.21875 -5.859375 L 7.078125 -5.859375 C 8.148438 -5.859375 8.960938 -6.085938 9.515625 -6.546875 C 10.066406 -7.003906 10.34375 -7.65625 10.34375 -8.5 Z M 10.34375 -8.5 "/></g></g></g><g fill="#ffffff" fill-opacity="1"><g transform="translate(140.229093, 561.845262)"><g><path d="M 10.328125 -3.046875 L 3.734375 -3.046875 L 2.4375 0 L -0.09375 0 L 5.84375 -13.1875 L 8.25 -13.1875 L 14.203125 0 L 11.640625 0 Z M 9.515625 -4.96875 L 7.03125 -10.734375 L 4.5625 -4.96875 Z M 9.515625 -4.96875 "/></g></g></g><g fill="#ffffff" fill-opacity="1"><g transform="translate(154.335398, 561.845262)"><g><path d="M 1.765625 -13.1875 L 7.53125 -13.1875 C 8.9375 -13.1875 10.1875 -12.910156 11.28125 -12.359375 C 12.375 -11.816406 13.222656 -11.046875 13.828125 -10.046875 C 14.429688 -9.054688 14.734375 -7.90625 14.734375 -6.59375 C 14.734375 -5.289062 14.429688 -4.140625 13.828125 -3.140625 C 13.222656 -2.140625 12.375 -1.363281 11.28125 -0.8125 C 10.1875 -0.269531 8.9375 0 7.53125 0 L 1.765625 0 Z M 7.421875 -2.078125 C 8.390625 -2.078125 9.238281 -2.257812 9.96875 -2.625 C 10.707031 -3 11.273438 -3.523438 11.671875 -4.203125 C 12.066406 -4.890625 12.265625 -5.6875 12.265625 -6.59375 C 12.265625 -7.5 12.066406 -8.289062 11.671875 -8.96875 C 11.273438 -9.65625 10.707031 -10.1875 9.96875 -10.5625 C 9.238281 -10.9375 8.390625 -11.125 7.421875 -11.125 L 4.21875 -11.125 L 4.21875 -2.078125 Z M 7.421875 -2.078125 "/></g></g></g><g fill="#ffffff" fill-opacity="1"><g transform="translate(169.891892, 561.845262)"><g><path d="M 11.671875 -2.046875 L 11.671875 0 L 1.765625 0 L 1.765625 -13.1875 L 11.40625 -13.1875 L 11.40625 -11.140625 L 4.21875 -11.140625 L 4.21875 -7.703125 L 10.59375 -7.703125 L 10.59375 -5.6875 L 4.21875 -5.6875 L 4.21875 -2.046875 Z M 11.671875 -2.046875 "/></g></g></g><g fill="#ffffff" fill-opacity="1"><g transform="translate(182.510351, 561.845262)"><g/></g></g><g fill="#ffffff" fill-opacity="1"><g transform="translate(187.708409, 561.845262)"><g><path d="M 10.328125 -3.046875 L 3.734375 -3.046875 L 2.4375 0 L -0.09375 0 L 5.84375 -13.1875 L 8.25 -13.1875 L 14.203125 0 L 11.640625 0 Z M 9.515625 -4.96875 L 7.03125 -10.734375 L 4.5625 -4.96875 Z M 9.515625 -4.96875 "/></g></g></g><g fill="#ffffff" fill-opacity="1"><g transform="translate(201.814715, 561.845262)"><g><path d="M 13.484375 -13.1875 L 13.484375 0 L 11.46875 0 L 4.203125 -8.9375 L 4.203125 0 L 1.765625 0 L 1.765625 -13.1875 L 3.78125 -13.1875 L 11.0625 -4.265625 L 11.0625 -13.1875 Z M 13.484375 -13.1875 "/></g></g></g><g fill="#ffffff" fill-opacity="1"><g transform="translate(217.069872, 561.845262)"><g><path d="M 7.46875 -4.65625 L 7.46875 0 L 5.015625 0 L 5.015625 -4.609375 L -0.171875 -13.1875 L 2.453125 -13.1875 L 6.3125 -6.765625 L 10.21875 -13.1875 L 12.625 -13.1875 Z M 7.46875 -4.65625 "/></g></g></g><g fill="#ffffff" fill-opacity="1"><g transform="translate(229.518827, 561.845262)"><g><path d="M 4.453125 -11.125 L 0.078125 -11.125 L 0.078125 -13.1875 L 11.265625 -13.1875 L 11.265625 -11.125 L 6.890625 -11.125 L 6.890625 0 L 4.453125 0 Z M 4.453125 -11.125 "/></g></g></g><g fill="#ffffff" fill-opacity="1"><g transform="translate(240.856612, 561.845262)"><g><path d="M 1.765625 -13.1875 L 4.21875 -13.1875 L 4.21875 0 L 1.765625 0 Z M 1.765625 -13.1875 "/></g></g></g><g fill="#ffffff" fill-opacity="1"><g transform="translate(246.864505, 561.845262)"><g><path d="M 13.890625 0 L 13.875 -8.75 L 9.53125 -1.5 L 8.4375 -1.5 L 4.109375 -8.625 L 4.109375 0 L 1.765625 0 L 1.765625 -13.1875 L 3.78125 -13.1875 L 9.03125 -4.453125 L 14.171875 -13.1875 L 16.1875 -13.1875 L 16.203125 0 Z M 13.890625 0 "/></g></g></g><g fill="#ffffff" fill-opacity="1"><g transform="translate(264.850525, 561.845262)"><g><path d="M 11.671875 -2.046875 L 11.671875 0 L 1.765625 0 L 1.765625 -13.1875 L 11.40625 -13.1875 L 11.40625 -11.140625 L 4.21875 -11.140625 L 4.21875 -7.703125 L 10.59375 -7.703125 L 10.59375 -5.6875 L 4.21875 -5.6875 L 4.21875 -2.046875 Z M 11.671875 -2.046875 "/></g></g></g><g fill="#ffffff" fill-opacity="1"><g transform="translate(277.468983, 561.845262)"><g/></g></g><g fill="#ffffff" fill-opacity="1"><g transform="translate(282.667042, 561.845262)"><g><path d="M 10.328125 -3.046875 L 3.734375 -3.046875 L 2.4375 0 L -0.09375 0 L 5.84375 -13.1875 L 8.25 -13.1875 L 14.203125 0 L 11.640625 0 Z M 9.515625 -4.96875 L 7.03125 -10.734375 L 4.5625 -4.96875 Z M 9.515625 -4.96875 "/></g></g></g><g fill="#ffffff" fill-opacity="1"><g transform="translate(296.773347, 561.845262)"><g><path d="M 13.484375 -13.1875 L 13.484375 0 L 11.46875 0 L 4.203125 -8.9375 L 4.203125 0 L 1.765625 0 L 1.765625 -13.1875 L 3.78125 -13.1875 L 11.0625 -4.265625 L 11.0625 -13.1875 Z M 13.484375 -13.1875 "/></g></g></g><g fill="#ffffff" fill-opacity="1"><g transform="translate(312.028505, 561.845262)"><g><path d="M 7.46875 -4.65625 L 7.46875 0 L 5.015625 0 L 5.015625 -4.609375 L -0.171875 -13.1875 L 2.453125 -13.1875 L 6.3125 -6.765625 L 10.21875 -13.1875 L 12.625 -13.1875 Z M 7.46875 -4.65625 "/></g></g></g><g fill="#ffffff" fill-opacity="1"><g transform="translate(324.477473, 561.845262)"><g><path d="M 21.046875 -13.1875 L 16.671875 0 L 14.078125 0 L 10.8125 -9.765625 L 7.5 0 L 4.875 0 L 0.515625 -13.1875 L 3.046875 -13.1875 L 6.328125 -3.171875 L 9.734375 -13.1875 L 12 -13.1875 L 15.34375 -3.109375 L 18.71875 -13.1875 Z M 21.046875 -13.1875 "/></g></g></g><g fill="#ffffff" fill-opacity="1"><g transform="translate(346.023012, 561.845262)"><g><path d="M 13.484375 -13.1875 L 13.484375 0 L 11.046875 0 L 11.046875 -5.65625 L 4.21875 -5.65625 L 4.21875 0 L 1.765625 0 L 1.765625 -13.1875 L 4.21875 -13.1875 L 4.21875 -7.75 L 11.046875 -7.75 L 11.046875 -13.1875 Z M 13.484375 -13.1875 "/></g></g></g><g fill="#ffffff" fill-opacity="1"><g transform="translate(361.278157, 561.845262)"><g><path d="M 11.671875 -2.046875 L 11.671875 0 L 1.765625 0 L 1.765625 -13.1875 L 11.40625 -13.1875 L 11.40625 -11.140625 L 4.21875 -11.140625 L 4.21875 -7.703125 L 10.59375 -7.703125 L 10.59375 -5.6875 L 4.21875 -5.6875 L 4.21875 -2.046875 Z M 11.671875 -2.046875 "/></g></g></g><g fill="#ffffff" fill-opacity="1"><g transform="translate(373.896616, 561.845262)"><g><path d="M 10.40625 0 L 7.703125 -3.859375 C 7.585938 -3.847656 7.421875 -3.84375 7.203125 -3.84375 L 4.21875 -3.84375 L 4.21875 0 L 1.765625 0 L 1.765625 -13.1875 L 7.203125 -13.1875 C 8.335938 -13.1875 9.328125 -13 10.171875 -12.625 C 11.023438 -12.25 11.675781 -11.707031 12.125 -11 C 12.582031 -10.300781 12.8125 -9.46875 12.8125 -8.5 C 12.8125 -7.507812 12.566406 -6.65625 12.078125 -5.9375 C 11.597656 -5.21875 10.90625 -4.679688 10 -4.328125 L 13.046875 0 Z M 10.34375 -8.5 C 10.34375 -9.34375 10.066406 -9.988281 9.515625 -10.4375 C 8.960938 -10.894531 8.148438 -11.125 7.078125 -11.125 L 4.21875 -11.125 L 4.21875 -5.859375 L 7.078125 -5.859375 C 8.148438 -5.859375 8.960938 -6.085938 9.515625 -6.546875 C 10.066406 -7.003906 10.34375 -7.65625 10.34375 -8.5 Z M 10.34375 -8.5 "/></g></g></g><g fill="#ffffff" fill-opacity="1"><g transform="translate(387.663926, 561.845262)"><g><path d="M 11.671875 -2.046875 L 11.671875 0 L 1.765625 0 L 1.765625 -13.1875 L 11.40625 -13.1875 L 11.40625 -11.140625 L 4.21875 -11.140625 L 4.21875 -7.703125 L 10.59375 -7.703125 L 10.59375 -5.6875 L 4.21875 -5.6875 L 4.21875 -2.046875 Z M 11.671875 -2.046875 "/></g></g></g><g fill="#ffffff" fill-opacity="1"><g transform="translate(550.186293, 257.971384)"><g><path d="M 1.765625 -13.1875 L 4.21875 -13.1875 L 4.21875 0 L 1.765625 0 Z M 1.765625 -13.1875 "/></g></g></g><g fill="#ffffff" fill-opacity="1"><g transform="translate(556.194186, 257.971384)"><g><path d="M 13.484375 -13.1875 L 13.484375 0 L 11.46875 0 L 4.203125 -8.9375 L 4.203125 0 L 1.765625 0 L 1.765625 -13.1875 L 3.78125 -13.1875 L 11.0625 -4.265625 L 11.0625 -13.1875 Z M 13.484375 -13.1875 "/></g></g></g><g fill="#ffffff" fill-opacity="1"><g transform="translate(571.449344, 257.971384)"><g><path d="M 1.03125 -6.21875 L 6.21875 -6.21875 L 6.21875 -4.265625 L 1.03125 -4.265625 Z M 1.03125 -6.21875 "/></g></g></g><g fill="#ffffff" fill-opacity="1"><g transform="translate(578.700252, 257.971384)"><g><path d="M 1.765625 -13.1875 L 7.53125 -13.1875 C 8.9375 -13.1875 10.1875 -12.910156 11.28125 -12.359375 C 12.375 -11.816406 13.222656 -11.046875 13.828125 -10.046875 C 14.429688 -9.054688 14.734375 -7.90625 14.734375 -6.59375 C 14.734375 -5.289062 14.429688 -4.140625 13.828125 -3.140625 C 13.222656 -2.140625 12.375 -1.363281 11.28125 -0.8125 C 10.1875 -0.269531 8.9375 0 7.53125 0 L 1.765625 0 Z M 7.421875 -2.078125 C 8.390625 -2.078125 9.238281 -2.257812 9.96875 -2.625 C 10.707031 -3 11.273438 -3.523438 11.671875 -4.203125 C 12.066406 -4.890625 12.265625 -5.6875 12.265625 -6.59375 C 12.265625 -7.5 12.066406 -8.289062 11.671875 -8.96875 C 11.273438 -9.65625 10.707031 -10.1875 9.96875 -10.5625 C 9.238281 -10.9375 8.390625 -11.125 7.421875 -11.125 L 4.21875 -11.125 L 4.21875 -2.078125 Z M 7.421875 -2.078125 "/></g></g></g><g fill="#ffffff" fill-opacity="1"><g transform="translate(594.256747, 257.971384)"><g><path d="M 11.671875 -2.046875 L 11.671875 0 L 1.765625 0 L 1.765625 -13.1875 L 11.40625 -13.1875 L 11.40625 -11.140625 L 4.21875 -11.140625 L 4.21875 -7.703125 L 10.59375 -7.703125 L 10.59375 -5.6875 L 4.21875 -5.6875 L 4.21875 -2.046875 Z M 11.671875 -2.046875 "/></g></g></g><g fill="#ffffff" fill-opacity="1"><g transform="translate(606.875205, 257.971384)"><g><path d="M 7.203125 -13.1875 C 8.335938 -13.1875 9.328125 -13 10.171875 -12.625 C 11.023438 -12.25 11.675781 -11.707031 12.125 -11 C 12.582031 -10.300781 12.8125 -9.46875 12.8125 -8.5 C 12.8125 -7.539062 12.582031 -6.707031 12.125 -6 C 11.675781 -5.289062 11.023438 -4.75 10.171875 -4.375 C 9.328125 -4 8.335938 -3.8125 7.203125 -3.8125 L 4.21875 -3.8125 L 4.21875 0 L 1.765625 0 L 1.765625 -13.1875 Z M 7.078125 -5.875 C 8.148438 -5.875 8.960938 -6.097656 9.515625 -6.546875 C 10.066406 -7.003906 10.34375 -7.65625 10.34375 -8.5 C 10.34375 -9.34375 10.066406 -9.988281 9.515625 -10.4375 C 8.960938 -10.894531 8.148438 -11.125 7.078125 -11.125 L 4.21875 -11.125 L 4.21875 -5.875 Z M 7.078125 -5.875 "/></g></g></g><g fill="#ffffff" fill-opacity="1"><g transform="translate(620.54834, 257.971384)"><g><path d="M 4.453125 -11.125 L 0.078125 -11.125 L 0.078125 -13.1875 L 11.265625 -13.1875 L 11.265625 -11.125 L 6.890625 -11.125 L 6.890625 0 L 4.453125 0 Z M 4.453125 -11.125 "/></g></g></g><g fill="#ffffff" fill-opacity="1"><g transform="translate(631.886125, 257.971384)"><g><path d="M 13.484375 -13.1875 L 13.484375 0 L 11.046875 0 L 11.046875 -5.65625 L 4.21875 -5.65625 L 4.21875 0 L 1.765625 0 L 1.765625 -13.1875 L 4.21875 -13.1875 L 4.21875 -7.75 L 11.046875 -7.75 L 11.046875 -13.1875 Z M 13.484375 -13.1875 "/></g></g></g><g fill="#ffffff" fill-opacity="1"><g transform="translate(647.141283, 257.971384)"><g/></g></g><g fill="#ffffff" fill-opacity="1"><g transform="translate(652.339342, 257.971384)"><g><path d="M 15.703125 1.3125 C 15.253906 1.832031 14.738281 2.222656 14.15625 2.484375 C 13.570312 2.753906 12.9375 2.890625 12.25 2.890625 C 11.34375 2.890625 10.507812 2.679688 9.75 2.265625 C 9 1.859375 8.140625 1.15625 7.171875 0.15625 C 5.960938 0.0507812 4.875 -0.300781 3.90625 -0.90625 C 2.9375 -1.519531 2.179688 -2.316406 1.640625 -3.296875 C 1.097656 -4.285156 0.828125 -5.382812 0.828125 -6.59375 C 0.828125 -7.875 1.132812 -9.03125 1.75 -10.0625 C 2.363281 -11.101562 3.210938 -11.914062 4.296875 -12.5 C 5.378906 -13.082031 6.59375 -13.375 7.9375 -13.375 C 9.28125 -13.375 10.488281 -13.082031 11.5625 -12.5 C 12.644531 -11.914062 13.492188 -11.109375 14.109375 -10.078125 C 14.722656 -9.046875 15.03125 -7.882812 15.03125 -6.59375 C 15.03125 -5.550781 14.820312 -4.585938 14.40625 -3.703125 C 14 -2.816406 13.421875 -2.0625 12.671875 -1.4375 C 11.929688 -0.820312 11.070312 -0.375 10.09375 -0.09375 C 10.457031 0.289062 10.816406 0.570312 11.171875 0.75 C 11.523438 0.925781 11.90625 1.015625 12.3125 1.015625 C 13.175781 1.015625 13.925781 0.664062 14.5625 -0.03125 Z M 3.296875 -6.59375 C 3.296875 -5.71875 3.492188 -4.921875 3.890625 -4.203125 C 4.296875 -3.492188 4.847656 -2.941406 5.546875 -2.546875 C 6.253906 -2.148438 7.050781 -1.953125 7.9375 -1.953125 C 8.8125 -1.953125 9.597656 -2.148438 10.296875 -2.546875 C 11.003906 -2.941406 11.554688 -3.492188 11.953125 -4.203125 C 12.359375 -4.921875 12.5625 -5.71875 12.5625 -6.59375 C 12.5625 -7.476562 12.359375 -8.273438 11.953125 -8.984375 C 11.554688 -9.691406 11.003906 -10.242188 10.296875 -10.640625 C 9.597656 -11.035156 8.8125 -11.234375 7.9375 -11.234375 C 7.050781 -11.234375 6.253906 -11.035156 5.546875 -10.640625 C 4.847656 -10.242188 4.296875 -9.691406 3.890625 -8.984375 C 3.492188 -8.273438 3.296875 -7.476562 3.296875 -6.59375 Z M 3.296875 -6.59375 "/></g></g></g><g fill="#ffffff" fill-opacity="1"><g transform="translate(668.197172, 257.971384)"><g><path d="M 7.4375 0.1875 C 5.613281 0.1875 4.191406 -0.320312 3.171875 -1.34375 C 2.160156 -2.375 1.65625 -3.84375 1.65625 -5.75 L 1.65625 -13.1875 L 4.109375 -13.1875 L 4.109375 -5.84375 C 4.109375 -3.25 5.226562 -1.953125 7.46875 -1.953125 C 9.6875 -1.953125 10.796875 -3.25 10.796875 -5.84375 L 10.796875 -13.1875 L 13.203125 -13.1875 L 13.203125 -5.75 C 13.203125 -3.84375 12.695312 -2.375 11.6875 -1.34375 C 10.675781 -0.320312 9.257812 0.1875 7.4375 0.1875 Z M 7.4375 0.1875 "/></g></g></g><g fill="#ffffff" fill-opacity="1"><g transform="translate(683.056818, 257.971384)"><g><path d="M 10.328125 -3.046875 L 3.734375 -3.046875 L 2.4375 0 L -0.09375 0 L 5.84375 -13.1875 L 8.25 -13.1875 L 14.203125 0 L 11.640625 0 Z M 9.515625 -4.96875 L 7.03125 -10.734375 L 4.5625 -4.96875 Z M 9.515625 -4.96875 "/></g></g></g><g fill="#ffffff" fill-opacity="1"><g transform="translate(697.163123, 257.971384)"><g><path d="M 1.765625 -13.1875 L 4.21875 -13.1875 L 4.21875 -2.078125 L 11.125 -2.078125 L 11.125 0 L 1.765625 0 Z M 1.765625 -13.1875 "/></g></g></g><g fill="#ffffff" fill-opacity="1"><g transform="translate(708.444403, 257.971384)"><g><path d="M 1.765625 -13.1875 L 4.21875 -13.1875 L 4.21875 0 L 1.765625 0 Z M 1.765625 -13.1875 "/></g></g></g><g fill="#ffffff" fill-opacity="1"><g transform="translate(714.452296, 257.971384)"><g><path d="M 4.453125 -11.125 L 0.078125 -11.125 L 0.078125 -13.1875 L 11.265625 -13.1875 L 11.265625 -11.125 L 6.890625 -11.125 L 6.890625 0 L 4.453125 0 Z M 4.453125 -11.125 "/></g></g></g><g fill="#ffffff" fill-opacity="1"><g transform="translate(725.79008, 257.971384)"><g><path d="M 7.46875 -4.65625 L 7.46875 0 L 5.015625 0 L 5.015625 -4.609375 L -0.171875 -13.1875 L 2.453125 -13.1875 L 6.3125 -6.765625 L 10.21875 -13.1875 L 12.625 -13.1875 Z M 7.46875 -4.65625 "/></g></g></g><g fill="#ffffff" fill-opacity="1"><g transform="translate(738.239035, 257.971384)"><g/></g></g><g fill="#ffffff" fill-opacity="1"><g transform="translate(743.437094, 257.971384)"><g><path d="M 10.40625 0 L 7.703125 -3.859375 C 7.585938 -3.847656 7.421875 -3.84375 7.203125 -3.84375 L 4.21875 -3.84375 L 4.21875 0 L 1.765625 0 L 1.765625 -13.1875 L 7.203125 -13.1875 C 8.335938 -13.1875 9.328125 -13 10.171875 -12.625 C 11.023438 -12.25 11.675781 -11.707031 12.125 -11 C 12.582031 -10.300781 12.8125 -9.46875 12.8125 -8.5 C 12.8125 -7.507812 12.566406 -6.65625 12.078125 -5.9375 C 11.597656 -5.21875 10.90625 -4.679688 10 -4.328125 L 13.046875 0 Z M 10.34375 -8.5 C 10.34375 -9.34375 10.066406 -9.988281 9.515625 -10.4375 C 8.960938 -10.894531 8.148438 -11.125 7.078125 -11.125 L 4.21875 -11.125 L 4.21875 -5.859375 L 7.078125 -5.859375 C 8.148438 -5.859375 8.960938 -6.085938 9.515625 -6.546875 C 10.066406 -7.003906 10.34375 -7.65625 10.34375 -8.5 Z M 10.34375 -8.5 "/></g></g></g><g fill="#ffffff" fill-opacity="1"><g transform="translate(757.204417, 257.971384)"><g><path d="M 11.671875 -2.046875 L 11.671875 0 L 1.765625 0 L 1.765625 -13.1875 L 11.40625 -13.1875 L 11.40625 -11.140625 L 4.21875 -11.140625 L 4.21875 -7.703125 L 10.59375 -7.703125 L 10.59375 -5.6875 L 4.21875 -5.6875 L 4.21875 -2.046875 Z M 11.671875 -2.046875 "/></g></g></g><g fill="#ffffff" fill-opacity="1"><g transform="translate(769.822875, 257.971384)"><g><path d="M 5.859375 0.1875 C 4.835938 0.1875 3.851562 0.046875 2.90625 -0.234375 C 1.957031 -0.523438 1.207031 -0.910156 0.65625 -1.390625 L 1.5 -3.296875 C 2.039062 -2.867188 2.703125 -2.519531 3.484375 -2.25 C 4.273438 -1.976562 5.066406 -1.84375 5.859375 -1.84375 C 6.835938 -1.84375 7.566406 -2 8.046875 -2.3125 C 8.535156 -2.625 8.78125 -3.039062 8.78125 -3.5625 C 8.78125 -3.9375 8.644531 -4.242188 8.375 -4.484375 C 8.101562 -4.734375 7.757812 -4.925781 7.34375 -5.0625 C 6.9375 -5.207031 6.375 -5.367188 5.65625 -5.546875 C 4.644531 -5.773438 3.828125 -6.007812 3.203125 -6.25 C 2.585938 -6.488281 2.054688 -6.863281 1.609375 -7.375 C 1.160156 -7.882812 0.9375 -8.570312 0.9375 -9.4375 C 0.9375 -10.164062 1.132812 -10.828125 1.53125 -11.421875 C 1.925781 -12.023438 2.519531 -12.5 3.3125 -12.84375 C 4.113281 -13.195312 5.09375 -13.375 6.25 -13.375 C 7.0625 -13.375 7.851562 -13.273438 8.625 -13.078125 C 9.40625 -12.878906 10.078125 -12.585938 10.640625 -12.203125 L 9.875 -10.3125 C 9.289062 -10.644531 8.6875 -10.898438 8.0625 -11.078125 C 7.4375 -11.253906 6.828125 -11.34375 6.234375 -11.34375 C 5.265625 -11.34375 4.546875 -11.175781 4.078125 -10.84375 C 3.609375 -10.519531 3.375 -10.085938 3.375 -9.546875 C 3.375 -9.171875 3.507812 -8.863281 3.78125 -8.625 C 4.050781 -8.382812 4.390625 -8.195312 4.796875 -8.0625 C 5.210938 -7.925781 5.78125 -7.769531 6.5 -7.59375 C 7.476562 -7.363281 8.28125 -7.125 8.90625 -6.875 C 9.539062 -6.632812 10.078125 -6.265625 10.515625 -5.765625 C 10.960938 -5.265625 11.1875 -4.585938 11.1875 -3.734375 C 11.1875 -3.003906 10.988281 -2.34375 10.59375 -1.75 C 10.195312 -1.15625 9.597656 -0.679688 8.796875 -0.328125 C 7.992188 0.015625 7.015625 0.1875 5.859375 0.1875 Z M 5.859375 0.1875 "/></g></g></g><g fill="#ffffff" fill-opacity="1"><g transform="translate(781.669157, 257.971384)"><g><path d="M 11.671875 -2.046875 L 11.671875 0 L 1.765625 0 L 1.765625 -13.1875 L 11.40625 -13.1875 L 11.40625 -11.140625 L 4.21875 -11.140625 L 4.21875 -7.703125 L 10.59375 -7.703125 L 10.59375 -5.6875 L 4.21875 -5.6875 L 4.21875 -2.046875 Z M 11.671875 -2.046875 "/></g></g></g><g fill="#ffffff" fill-opacity="1"><g transform="translate(794.287616, 257.971384)"><g><path d="M 10.328125 -3.046875 L 3.734375 -3.046875 L 2.4375 0 L -0.09375 0 L 5.84375 -13.1875 L 8.25 -13.1875 L 14.203125 0 L 11.640625 0 Z M 9.515625 -4.96875 L 7.03125 -10.734375 L 4.5625 -4.96875 Z M 9.515625 -4.96875 "/></g></g></g><g fill="#ffffff" fill-opacity="1"><g transform="translate(808.393909, 257.971384)"><g><path d="M 10.40625 0 L 7.703125 -3.859375 C 7.585938 -3.847656 7.421875 -3.84375 7.203125 -3.84375 L 4.21875 -3.84375 L 4.21875 0 L 1.765625 0 L 1.765625 -13.1875 L 7.203125 -13.1875 C 8.335938 -13.1875 9.328125 -13 10.171875 -12.625 C 11.023438 -12.25 11.675781 -11.707031 12.125 -11 C 12.582031 -10.300781 12.8125 -9.46875 12.8125 -8.5 C 12.8125 -7.507812 12.566406 -6.65625 12.078125 -5.9375 C 11.597656 -5.21875 10.90625 -4.679688 10 -4.328125 L 13.046875 0 Z M 10.34375 -8.5 C 10.34375 -9.34375 10.066406 -9.988281 9.515625 -10.4375 C 8.960938 -10.894531 8.148438 -11.125 7.078125 -11.125 L 4.21875 -11.125 L 4.21875 -5.859375 L 7.078125 -5.859375 C 8.148438 -5.859375 8.960938 -6.085938 9.515625 -6.546875 C 10.066406 -7.003906 10.34375 -7.65625 10.34375 -8.5 Z M 10.34375 -8.5 "/></g></g></g><g fill="#ffffff" fill-opacity="1"><g transform="translate(822.161219, 257.971384)"><g><path d="M 7.875 0.1875 C 6.539062 0.1875 5.335938 -0.101562 4.265625 -0.6875 C 3.191406 -1.269531 2.347656 -2.078125 1.734375 -3.109375 C 1.128906 -4.140625 0.828125 -5.300781 0.828125 -6.59375 C 0.828125 -7.882812 1.132812 -9.046875 1.75 -10.078125 C 2.363281 -11.109375 3.207031 -11.914062 4.28125 -12.5 C 5.351562 -13.082031 6.554688 -13.375 7.890625 -13.375 C 8.972656 -13.375 9.957031 -13.1875 10.84375 -12.8125 C 11.738281 -12.4375 12.492188 -11.890625 13.109375 -11.171875 L 11.53125 -9.6875 C 10.570312 -10.71875 9.398438 -11.234375 8.015625 -11.234375 C 7.109375 -11.234375 6.296875 -11.035156 5.578125 -10.640625 C 4.859375 -10.242188 4.296875 -9.691406 3.890625 -8.984375 C 3.492188 -8.285156 3.296875 -7.488281 3.296875 -6.59375 C 3.296875 -5.695312 3.492188 -4.894531 3.890625 -4.1875 C 4.296875 -3.488281 4.859375 -2.941406 5.578125 -2.546875 C 6.296875 -2.148438 7.109375 -1.953125 8.015625 -1.953125 C 9.398438 -1.953125 10.570312 -2.476562 11.53125 -3.53125 L 13.109375 -2.015625 C 12.492188 -1.296875 11.738281 -0.75 10.84375 -0.375 C 9.945312 0 8.957031 0.1875 7.875 0.1875 Z M 7.875 0.1875 "/></g></g></g><g fill="#ffffff" fill-opacity="1"><g transform="translate(835.85319, 257.971384)"><g><path d="M 13.484375 -13.1875 L 13.484375 0 L 11.046875 0 L 11.046875 -5.65625 L 4.21875 -5.65625 L 4.21875 0 L 1.765625 0 L 1.765625 -13.1875 L 4.21875 -13.1875 L 4.21875 -7.75 L 11.046875 -7.75 L 11.046875 -13.1875 Z M 13.484375 -13.1875 "/></g></g></g><g fill="#ffffff" fill-opacity="1"><g transform="translate(500.27178, 561.845262)"><g><path d="M 7.203125 -13.1875 C 8.335938 -13.1875 9.328125 -13 10.171875 -12.625 C 11.023438 -12.25 11.675781 -11.707031 12.125 -11 C 12.582031 -10.300781 12.8125 -9.46875 12.8125 -8.5 C 12.8125 -7.539062 12.582031 -6.707031 12.125 -6 C 11.675781 -5.289062 11.023438 -4.75 10.171875 -4.375 C 9.328125 -4 8.335938 -3.8125 7.203125 -3.8125 L 4.21875 -3.8125 L 4.21875 0 L 1.765625 0 L 1.765625 -13.1875 Z M 7.078125 -5.875 C 8.148438 -5.875 8.960938 -6.097656 9.515625 -6.546875 C 10.066406 -7.003906 10.34375 -7.65625 10.34375 -8.5 C 10.34375 -9.34375 10.066406 -9.988281 9.515625 -10.4375 C 8.960938 -10.894531 8.148438 -11.125 7.078125 -11.125 L 4.21875 -11.125 L 4.21875 -5.875 Z M 7.078125 -5.875 "/></g></g></g><g fill="#ffffff" fill-opacity="1"><g transform="translate(513.944915, 561.845262)"><g><path d="M 11.671875 -2.046875 L 11.671875 0 L 1.765625 0 L 1.765625 -13.1875 L 11.40625 -13.1875 L 11.40625 -11.140625 L 4.21875 -11.140625 L 4.21875 -7.703125 L 10.59375 -7.703125 L 10.59375 -5.6875 L 4.21875 -5.6875 L 4.21875 -2.046875 Z M 11.671875 -2.046875 "/></g></g></g><g fill="#ffffff" fill-opacity="1"><g transform="translate(526.563374, 561.845262)"><g><path d="M 10.40625 0 L 7.703125 -3.859375 C 7.585938 -3.847656 7.421875 -3.84375 7.203125 -3.84375 L 4.21875 -3.84375 L 4.21875 0 L 1.765625 0 L 1.765625 -13.1875 L 7.203125 -13.1875 C 8.335938 -13.1875 9.328125 -13 10.171875 -12.625 C 11.023438 -12.25 11.675781 -11.707031 12.125 -11 C 12.582031 -10.300781 12.8125 -9.46875 12.8125 -8.5 C 12.8125 -7.507812 12.566406 -6.65625 12.078125 -5.9375 C 11.597656 -5.21875 10.90625 -4.679688 10 -4.328125 L 13.046875 0 Z M 10.34375 -8.5 C 10.34375 -9.34375 10.066406 -9.988281 9.515625 -10.4375 C 8.960938 -10.894531 8.148438 -11.125 7.078125 -11.125 L 4.21875 -11.125 L 4.21875 -5.859375 L 7.078125 -5.859375 C 8.148438 -5.859375 8.960938 -6.085938 9.515625 -6.546875 C 10.066406 -7.003906 10.34375 -7.65625 10.34375 -8.5 Z M 10.34375 -8.5 "/></g></g></g><g fill="#ffffff" fill-opacity="1"><g transform="translate(540.330684, 561.845262)"><g><path d="M 5.859375 0.1875 C 4.835938 0.1875 3.851562 0.046875 2.90625 -0.234375 C 1.957031 -0.523438 1.207031 -0.910156 0.65625 -1.390625 L 1.5 -3.296875 C 2.039062 -2.867188 2.703125 -2.519531 3.484375 -2.25 C 4.273438 -1.976562 5.066406 -1.84375 5.859375 -1.84375 C 6.835938 -1.84375 7.566406 -2 8.046875 -2.3125 C 8.535156 -2.625 8.78125 -3.039062 8.78125 -3.5625 C 8.78125 -3.9375 8.644531 -4.242188 8.375 -4.484375 C 8.101562 -4.734375 7.757812 -4.925781 7.34375 -5.0625 C 6.9375 -5.207031 6.375 -5.367188 5.65625 -5.546875 C 4.644531 -5.773438 3.828125 -6.007812 3.203125 -6.25 C 2.585938 -6.488281 2.054688 -6.863281 1.609375 -7.375 C 1.160156 -7.882812 0.9375 -8.570312 0.9375 -9.4375 C 0.9375 -10.164062 1.132812 -10.828125 1.53125 -11.421875 C 1.925781 -12.023438 2.519531 -12.5 3.3125 -12.84375 C 4.113281 -13.195312 5.09375 -13.375 6.25 -13.375 C 7.0625 -13.375 7.851562 -13.273438 8.625 -13.078125 C 9.40625 -12.878906 10.078125 -12.585938 10.640625 -12.203125 L 9.875 -10.3125 C 9.289062 -10.644531 8.6875 -10.898438 8.0625 -11.078125 C 7.4375 -11.253906 6.828125 -11.34375 6.234375 -11.34375 C 5.265625 -11.34375 4.546875 -11.175781 4.078125 -10.84375 C 3.609375 -10.519531 3.375 -10.085938 3.375 -9.546875 C 3.375 -9.171875 3.507812 -8.863281 3.78125 -8.625 C 4.050781 -8.382812 4.390625 -8.195312 4.796875 -8.0625 C 5.210938 -7.925781 5.78125 -7.769531 6.5 -7.59375 C 7.476562 -7.363281 8.28125 -7.125 8.90625 -6.875 C 9.539062 -6.632812 10.078125 -6.265625 10.515625 -5.765625 C 10.960938 -5.265625 11.1875 -4.585938 11.1875 -3.734375 C 11.1875 -3.003906 10.988281 -2.34375 10.59375 -1.75 C 10.195312 -1.15625 9.597656 -0.679688 8.796875 -0.328125 C 7.992188 0.015625 7.015625 0.1875 5.859375 0.1875 Z M 5.859375 0.1875 "/></g></g></g><g fill="#ffffff" fill-opacity="1"><g transform="translate(552.176967, 561.845262)"><g><path d="M 7.9375 0.1875 C 6.59375 0.1875 5.378906 -0.101562 4.296875 -0.6875 C 3.210938 -1.269531 2.363281 -2.078125 1.75 -3.109375 C 1.132812 -4.148438 0.828125 -5.3125 0.828125 -6.59375 C 0.828125 -7.875 1.132812 -9.03125 1.75 -10.0625 C 2.363281 -11.101562 3.210938 -11.914062 4.296875 -12.5 C 5.378906 -13.082031 6.59375 -13.375 7.9375 -13.375 C 9.28125 -13.375 10.488281 -13.082031 11.5625 -12.5 C 12.644531 -11.914062 13.492188 -11.109375 14.109375 -10.078125 C 14.722656 -9.046875 15.03125 -7.882812 15.03125 -6.59375 C 15.03125 -5.300781 14.722656 -4.140625 14.109375 -3.109375 C 13.492188 -2.078125 12.644531 -1.269531 11.5625 -0.6875 C 10.488281 -0.101562 9.28125 0.1875 7.9375 0.1875 Z M 7.9375 -1.953125 C 8.8125 -1.953125 9.597656 -2.148438 10.296875 -2.546875 C 11.003906 -2.941406 11.554688 -3.492188 11.953125 -4.203125 C 12.359375 -4.921875 12.5625 -5.71875 12.5625 -6.59375 C 12.5625 -7.476562 12.359375 -8.273438 11.953125 -8.984375 C 11.554688 -9.691406 11.003906 -10.242188 10.296875 -10.640625 C 9.597656 -11.035156 8.8125 -11.234375 7.9375 -11.234375 C 7.050781 -11.234375 6.253906 -11.035156 5.546875 -10.640625 C 4.847656 -10.242188 4.296875 -9.691406 3.890625 -8.984375 C 3.492188 -8.273438 3.296875 -7.476562 3.296875 -6.59375 C 3.296875 -5.71875 3.492188 -4.921875 3.890625 -4.203125 C 4.296875 -3.492188 4.847656 -2.941406 5.546875 -2.546875 C 6.253906 -2.148438 7.050781 -1.953125 7.9375 -1.953125 Z M 7.9375 -1.953125 "/></g></g></g><g fill="#ffffff" fill-opacity="1"><g transform="translate(568.034797, 561.845262)"><g><path d="M 13.484375 -13.1875 L 13.484375 0 L 11.46875 0 L 4.203125 -8.9375 L 4.203125 0 L 1.765625 0 L 1.765625 -13.1875 L 3.78125 -13.1875 L 11.0625 -4.265625 L 11.0625 -13.1875 Z M 13.484375 -13.1875 "/></g></g></g><g fill="#ffffff" fill-opacity="1"><g transform="translate(583.289955, 561.845262)"><g><path d="M 10.328125 -3.046875 L 3.734375 -3.046875 L 2.4375 0 L -0.09375 0 L 5.84375 -13.1875 L 8.25 -13.1875 L 14.203125 0 L 11.640625 0 Z M 9.515625 -4.96875 L 7.03125 -10.734375 L 4.5625 -4.96875 Z M 9.515625 -4.96875 "/></g></g></g><g fill="#ffffff" fill-opacity="1"><g transform="translate(597.39626, 561.845262)"><g><path d="M 1.765625 -13.1875 L 4.21875 -13.1875 L 4.21875 -2.078125 L 11.125 -2.078125 L 11.125 0 L 1.765625 0 Z M 1.765625 -13.1875 "/></g></g></g><g fill="#ffffff" fill-opacity="1"><g transform="translate(608.677539, 561.845262)"><g><path d="M 1.765625 -13.1875 L 4.21875 -13.1875 L 4.21875 0 L 1.765625 0 Z M 1.765625 -13.1875 "/></g></g></g><g fill="#ffffff" fill-opacity="1"><g transform="translate(614.685432, 561.845262)"><g><path d="M 12.015625 -2.078125 L 12.015625 0 L 0.765625 0 L 0.765625 -1.640625 L 8.53125 -11.125 L 0.90625 -11.125 L 0.90625 -13.1875 L 11.78125 -13.1875 L 11.78125 -11.546875 L 4.015625 -2.078125 Z M 12.015625 -2.078125 "/></g></g></g><g fill="#ffffff" fill-opacity="1"><g transform="translate(627.172057, 561.845262)"><g><path d="M 11.671875 -2.046875 L 11.671875 0 L 1.765625 0 L 1.765625 -13.1875 L 11.40625 -13.1875 L 11.40625 -11.140625 L 4.21875 -11.140625 L 4.21875 -7.703125 L 10.59375 -7.703125 L 10.59375 -5.6875 L 4.21875 -5.6875 L 4.21875 -2.046875 Z M 11.671875 -2.046875 "/></g></g></g><g fill="#ffffff" fill-opacity="1"><g transform="translate(639.790515, 561.845262)"><g><path d="M 1.765625 -13.1875 L 7.53125 -13.1875 C 8.9375 -13.1875 10.1875 -12.910156 11.28125 -12.359375 C 12.375 -11.816406 13.222656 -11.046875 13.828125 -10.046875 C 14.429688 -9.054688 14.734375 -7.90625 14.734375 -6.59375 C 14.734375 -5.289062 14.429688 -4.140625 13.828125 -3.140625 C 13.222656 -2.140625 12.375 -1.363281 11.28125 -0.8125 C 10.1875 -0.269531 8.9375 0 7.53125 0 L 1.765625 0 Z M 7.421875 -2.078125 C 8.390625 -2.078125 9.238281 -2.257812 9.96875 -2.625 C 10.707031 -3 11.273438 -3.523438 11.671875 -4.203125 C 12.066406 -4.890625 12.265625 -5.6875 12.265625 -6.59375 C 12.265625 -7.5 12.066406 -8.289062 11.671875 -8.96875 C 11.273438 -9.65625 10.707031 -10.1875 9.96875 -10.5625 C 9.238281 -10.9375 8.390625 -11.125 7.421875 -11.125 L 4.21875 -11.125 L 4.21875 -2.078125 Z M 7.421875 -2.078125 "/></g></g></g><g fill="#ffffff" fill-opacity="1"><g transform="translate(655.34701, 561.845262)"><g/></g></g><g fill="#ffffff" fill-opacity="1"><g transform="translate(660.545069, 561.845262)"><g><path d="M 7.875 0.1875 C 6.539062 0.1875 5.335938 -0.101562 4.265625 -0.6875 C 3.191406 -1.269531 2.347656 -2.078125 1.734375 -3.109375 C 1.128906 -4.140625 0.828125 -5.300781 0.828125 -6.59375 C 0.828125 -7.882812 1.132812 -9.046875 1.75 -10.078125 C 2.363281 -11.109375 3.207031 -11.914062 4.28125 -12.5 C 5.351562 -13.082031 6.554688 -13.375 7.890625 -13.375 C 8.972656 -13.375 9.957031 -13.1875 10.84375 -12.8125 C 11.738281 -12.4375 12.492188 -11.890625 13.109375 -11.171875 L 11.53125 -9.6875 C 10.570312 -10.71875 9.398438 -11.234375 8.015625 -11.234375 C 7.109375 -11.234375 6.296875 -11.035156 5.578125 -10.640625 C 4.859375 -10.242188 4.296875 -9.691406 3.890625 -8.984375 C 3.492188 -8.285156 3.296875 -7.488281 3.296875 -6.59375 C 3.296875 -5.695312 3.492188 -4.894531 3.890625 -4.1875 C 4.296875 -3.488281 4.859375 -2.941406 5.578125 -2.546875 C 6.296875 -2.148438 7.109375 -1.953125 8.015625 -1.953125 C 9.398438 -1.953125 10.570312 -2.476562 11.53125 -3.53125 L 13.109375 -2.015625 C 12.492188 -1.296875 11.738281 -0.75 10.84375 -0.375 C 9.945312 0 8.957031 0.1875 7.875 0.1875 Z M 7.875 0.1875 "/></g></g></g><g fill="#ffffff" fill-opacity="1"><g transform="translate(674.237039, 561.845262)"><g><path d="M 7.4375 0.1875 C 5.613281 0.1875 4.191406 -0.320312 3.171875 -1.34375 C 2.160156 -2.375 1.65625 -3.84375 1.65625 -5.75 L 1.65625 -13.1875 L 4.109375 -13.1875 L 4.109375 -5.84375 C 4.109375 -3.25 5.226562 -1.953125 7.46875 -1.953125 C 9.6875 -1.953125 10.796875 -3.25 10.796875 -5.84375 L 10.796875 -13.1875 L 13.203125 -13.1875 L 13.203125 -5.75 C 13.203125 -3.84375 12.695312 -2.375 11.6875 -1.34375 C 10.675781 -0.320312 9.257812 0.1875 7.4375 0.1875 Z M 7.4375 0.1875 "/></g></g></g><g fill="#ffffff" fill-opacity="1"><g transform="translate(689.096685, 561.845262)"><g><path d="M 5.859375 0.1875 C 4.835938 0.1875 3.851562 0.046875 2.90625 -0.234375 C 1.957031 -0.523438 1.207031 -0.910156 0.65625 -1.390625 L 1.5 -3.296875 C 2.039062 -2.867188 2.703125 -2.519531 3.484375 -2.25 C 4.273438 -1.976562 5.066406 -1.84375 5.859375 -1.84375 C 6.835938 -1.84375 7.566406 -2 8.046875 -2.3125 C 8.535156 -2.625 8.78125 -3.039062 8.78125 -3.5625 C 8.78125 -3.9375 8.644531 -4.242188 8.375 -4.484375 C 8.101562 -4.734375 7.757812 -4.925781 7.34375 -5.0625 C 6.9375 -5.207031 6.375 -5.367188 5.65625 -5.546875 C 4.644531 -5.773438 3.828125 -6.007812 3.203125 -6.25 C 2.585938 -6.488281 2.054688 -6.863281 1.609375 -7.375 C 1.160156 -7.882812 0.9375 -8.570312 0.9375 -9.4375 C 0.9375 -10.164062 1.132812 -10.828125 1.53125 -11.421875 C 1.925781 -12.023438 2.519531 -12.5 3.3125 -12.84375 C 4.113281 -13.195312 5.09375 -13.375 6.25 -13.375 C 7.0625 -13.375 7.851562 -13.273438 8.625 -13.078125 C 9.40625 -12.878906 10.078125 -12.585938 10.640625 -12.203125 L 9.875 -10.3125 C 9.289062 -10.644531 8.6875 -10.898438 8.0625 -11.078125 C 7.4375 -11.253906 6.828125 -11.34375 6.234375 -11.34375 C 5.265625 -11.34375 4.546875 -11.175781 4.078125 -10.84375 C 3.609375 -10.519531 3.375 -10.085938 3.375 -9.546875 C 3.375 -9.171875 3.507812 -8.863281 3.78125 -8.625 C 4.050781 -8.382812 4.390625 -8.195312 4.796875 -8.0625 C 5.210938 -7.925781 5.78125 -7.769531 6.5 -7.59375 C 7.476562 -7.363281 8.28125 -7.125 8.90625 -6.875 C 9.539062 -6.632812 10.078125 -6.265625 10.515625 -5.765625 C 10.960938 -5.265625 11.1875 -4.585938 11.1875 -3.734375 C 11.1875 -3.003906 10.988281 -2.34375 10.59375 -1.75 C 10.195312 -1.15625 9.597656 -0.679688 8.796875 -0.328125 C 7.992188 0.015625 7.015625 0.1875 5.859375 0.1875 Z M 5.859375 0.1875 "/></g></g></g><g fill="#ffffff" fill-opacity="1"><g transform="translate(700.942968, 561.845262)"><g><path d="M 4.453125 -11.125 L 0.078125 -11.125 L 0.078125 -13.1875 L 11.265625 -13.1875 L 11.265625 -11.125 L 6.890625 -11.125 L 6.890625 0 L 4.453125 0 Z M 4.453125 -11.125 "/></g></g></g><g fill="#ffffff" fill-opacity="1"><g transform="translate(712.280765, 561.845262)"><g><path d="M 7.9375 0.1875 C 6.59375 0.1875 5.378906 -0.101562 4.296875 -0.6875 C 3.210938 -1.269531 2.363281 -2.078125 1.75 -3.109375 C 1.132812 -4.148438 0.828125 -5.3125 0.828125 -6.59375 C 0.828125 -7.875 1.132812 -9.03125 1.75 -10.0625 C 2.363281 -11.101562 3.210938 -11.914062 4.296875 -12.5 C 5.378906 -13.082031 6.59375 -13.375 7.9375 -13.375 C 9.28125 -13.375 10.488281 -13.082031 11.5625 -12.5 C 12.644531 -11.914062 13.492188 -11.109375 14.109375 -10.078125 C 14.722656 -9.046875 15.03125 -7.882812 15.03125 -6.59375 C 15.03125 -5.300781 14.722656 -4.140625 14.109375 -3.109375 C 13.492188 -2.078125 12.644531 -1.269531 11.5625 -0.6875 C 10.488281 -0.101562 9.28125 0.1875 7.9375 0.1875 Z M 7.9375 -1.953125 C 8.8125 -1.953125 9.597656 -2.148438 10.296875 -2.546875 C 11.003906 -2.941406 11.554688 -3.492188 11.953125 -4.203125 C 12.359375 -4.921875 12.5625 -5.71875 12.5625 -6.59375 C 12.5625 -7.476562 12.359375 -8.273438 11.953125 -8.984375 C 11.554688 -9.691406 11.003906 -10.242188 10.296875 -10.640625 C 9.597656 -11.035156 8.8125 -11.234375 7.9375 -11.234375 C 7.050781 -11.234375 6.253906 -11.035156 5.546875 -10.640625 C 4.847656 -10.242188 4.296875 -9.691406 3.890625 -8.984375 C 3.492188 -8.273438 3.296875 -7.476562 3.296875 -6.59375 C 3.296875 -5.71875 3.492188 -4.921875 3.890625 -4.203125 C 4.296875 -3.492188 4.847656 -2.941406 5.546875 -2.546875 C 6.253906 -2.148438 7.050781 -1.953125 7.9375 -1.953125 Z M 7.9375 -1.953125 "/></g></g></g><g fill="#ffffff" fill-opacity="1"><g transform="translate(728.138583, 561.845262)"><g><path d="M 13.890625 0 L 13.875 -8.75 L 9.53125 -1.5 L 8.4375 -1.5 L 4.109375 -8.625 L 4.109375 0 L 1.765625 0 L 1.765625 -13.1875 L 3.78125 -13.1875 L 9.03125 -4.453125 L 14.171875 -13.1875 L 16.1875 -13.1875 L 16.203125 0 Z M 13.890625 0 "/></g></g></g><g fill="#ffffff" fill-opacity="1"><g transform="translate(746.124603, 561.845262)"><g><path d="M 11.671875 -2.046875 L 11.671875 0 L 1.765625 0 L 1.765625 -13.1875 L 11.40625 -13.1875 L 11.40625 -11.140625 L 4.21875 -11.140625 L 4.21875 -7.703125 L 10.59375 -7.703125 L 10.59375 -5.6875 L 4.21875 -5.6875 L 4.21875 -2.046875 Z M 11.671875 -2.046875 "/></g></g></g><g fill="#ffffff" fill-opacity="1"><g transform="translate(758.743061, 561.845262)"><g><path d="M 10.40625 0 L 7.703125 -3.859375 C 7.585938 -3.847656 7.421875 -3.84375 7.203125 -3.84375 L 4.21875 -3.84375 L 4.21875 0 L 1.765625 0 L 1.765625 -13.1875 L 7.203125 -13.1875 C 8.335938 -13.1875 9.328125 -13 10.171875 -12.625 C 11.023438 -12.25 11.675781 -11.707031 12.125 -11 C 12.582031 -10.300781 12.8125 -9.46875 12.8125 -8.5 C 12.8125 -7.507812 12.566406 -6.65625 12.078125 -5.9375 C 11.597656 -5.21875 10.90625 -4.679688 10 -4.328125 L 13.046875 0 Z M 10.34375 -8.5 C 10.34375 -9.34375 10.066406 -9.988281 9.515625 -10.4375 C 8.960938 -10.894531 8.148438 -11.125 7.078125 -11.125 L 4.21875 -11.125 L 4.21875 -5.859375 L 7.078125 -5.859375 C 8.148438 -5.859375 8.960938 -6.085938 9.515625 -6.546875 C 10.066406 -7.003906 10.34375 -7.65625 10.34375 -8.5 Z M 10.34375 -8.5 "/></g></g></g><g fill="#ffffff" fill-opacity="1"><g transform="translate(772.510372, 561.845262)"><g/></g></g><g fill="#ffffff" fill-opacity="1"><g transform="translate(777.708431, 561.845262)"><g><path d="M 5.859375 0.1875 C 4.835938 0.1875 3.851562 0.046875 2.90625 -0.234375 C 1.957031 -0.523438 1.207031 -0.910156 0.65625 -1.390625 L 1.5 -3.296875 C 2.039062 -2.867188 2.703125 -2.519531 3.484375 -2.25 C 4.273438 -1.976562 5.066406 -1.84375 5.859375 -1.84375 C 6.835938 -1.84375 7.566406 -2 8.046875 -2.3125 C 8.535156 -2.625 8.78125 -3.039062 8.78125 -3.5625 C 8.78125 -3.9375 8.644531 -4.242188 8.375 -4.484375 C 8.101562 -4.734375 7.757812 -4.925781 7.34375 -5.0625 C 6.9375 -5.207031 6.375 -5.367188 5.65625 -5.546875 C 4.644531 -5.773438 3.828125 -6.007812 3.203125 -6.25 C 2.585938 -6.488281 2.054688 -6.863281 1.609375 -7.375 C 1.160156 -7.882812 0.9375 -8.570312 0.9375 -9.4375 C 0.9375 -10.164062 1.132812 -10.828125 1.53125 -11.421875 C 1.925781 -12.023438 2.519531 -12.5 3.3125 -12.84375 C 4.113281 -13.195312 5.09375 -13.375 6.25 -13.375 C 7.0625 -13.375 7.851562 -13.273438 8.625 -13.078125 C 9.40625 -12.878906 10.078125 -12.585938 10.640625 -12.203125 L 9.875 -10.3125 C 9.289062 -10.644531 8.6875 -10.898438 8.0625 -11.078125 C 7.4375 -11.253906 6.828125 -11.34375 6.234375 -11.34375 C 5.265625 -11.34375 4.546875 -11.175781 4.078125 -10.84375 C 3.609375 -10.519531 3.375 -10.085938 3.375 -9.546875 C 3.375 -9.171875 3.507812 -8.863281 3.78125 -8.625 C 4.050781 -8.382812 4.390625 -8.195312 4.796875 -8.0625 C 5.210938 -7.925781 5.78125 -7.769531 6.5 -7.59375 C 7.476562 -7.363281 8.28125 -7.125 8.90625 -6.875 C 9.539062 -6.632812 10.078125 -6.265625 10.515625 -5.765625 C 10.960938 -5.265625 11.1875 -4.585938 11.1875 -3.734375 C 11.1875 -3.003906 10.988281 -2.34375 10.59375 -1.75 C 10.195312 -1.15625 9.597656 -0.679688 8.796875 -0.328125 C 7.992188 0.015625 7.015625 0.1875 5.859375 0.1875 Z M 5.859375 0.1875 "/></g></g></g><g fill="#ffffff" fill-opacity="1"><g transform="translate(789.554713, 561.845262)"><g><path d="M 7.4375 0.1875 C 5.613281 0.1875 4.191406 -0.320312 3.171875 -1.34375 C 2.160156 -2.375 1.65625 -3.84375 1.65625 -5.75 L 1.65625 -13.1875 L 4.109375 -13.1875 L 4.109375 -5.84375 C 4.109375 -3.25 5.226562 -1.953125 7.46875 -1.953125 C 9.6875 -1.953125 10.796875 -3.25 10.796875 -5.84375 L 10.796875 -13.1875 L 13.203125 -13.1875 L 13.203125 -5.75 C 13.203125 -3.84375 12.695312 -2.375 11.6875 -1.34375 C 10.675781 -0.320312 9.257812 0.1875 7.4375 0.1875 Z M 7.4375 0.1875 "/></g></g></g><g fill="#ffffff" fill-opacity="1"><g transform="translate(804.414359, 561.845262)"><g><path d="M 7.203125 -13.1875 C 8.335938 -13.1875 9.328125 -13 10.171875 -12.625 C 11.023438 -12.25 11.675781 -11.707031 12.125 -11 C 12.582031 -10.300781 12.8125 -9.46875 12.8125 -8.5 C 12.8125 -7.539062 12.582031 -6.707031 12.125 -6 C 11.675781 -5.289062 11.023438 -4.75 10.171875 -4.375 C 9.328125 -4 8.335938 -3.8125 7.203125 -3.8125 L 4.21875 -3.8125 L 4.21875 0 L 1.765625 0 L 1.765625 -13.1875 Z M 7.078125 -5.875 C 8.148438 -5.875 8.960938 -6.097656 9.515625 -6.546875 C 10.066406 -7.003906 10.34375 -7.65625 10.34375 -8.5 C 10.34375 -9.34375 10.066406 -9.988281 9.515625 -10.4375 C 8.960938 -10.894531 8.148438 -11.125 7.078125 -11.125 L 4.21875 -11.125 L 4.21875 -5.875 Z M 7.078125 -5.875 "/></g></g></g><g fill="#ffffff" fill-opacity="1"><g transform="translate(818.087507, 561.845262)"><g><path d="M 7.203125 -13.1875 C 8.335938 -13.1875 9.328125 -13 10.171875 -12.625 C 11.023438 -12.25 11.675781 -11.707031 12.125 -11 C 12.582031 -10.300781 12.8125 -9.46875 12.8125 -8.5 C 12.8125 -7.539062 12.582031 -6.707031 12.125 -6 C 11.675781 -5.289062 11.023438 -4.75 10.171875 -4.375 C 9.328125 -4 8.335938 -3.8125 7.203125 -3.8125 L 4.21875 -3.8125 L 4.21875 0 L 1.765625 0 L 1.765625 -13.1875 Z M 7.078125 -5.875 C 8.148438 -5.875 8.960938 -6.097656 9.515625 -6.546875 C 10.066406 -7.003906 10.34375 -7.65625 10.34375 -8.5 C 10.34375 -9.34375 10.066406 -9.988281 9.515625 -10.4375 C 8.960938 -10.894531 8.148438 -11.125 7.078125 -11.125 L 4.21875 -11.125 L 4.21875 -5.875 Z M 7.078125 -5.875 "/></g></g></g><g fill="#ffffff" fill-opacity="1"><g transform="translate(831.760654, 561.845262)"><g><path d="M 7.9375 0.1875 C 6.59375 0.1875 5.378906 -0.101562 4.296875 -0.6875 C 3.210938 -1.269531 2.363281 -2.078125 1.75 -3.109375 C 1.132812 -4.148438 0.828125 -5.3125 0.828125 -6.59375 C 0.828125 -7.875 1.132812 -9.03125 1.75 -10.0625 C 2.363281 -11.101562 3.210938 -11.914062 4.296875 -12.5 C 5.378906 -13.082031 6.59375 -13.375 7.9375 -13.375 C 9.28125 -13.375 10.488281 -13.082031 11.5625 -12.5 C 12.644531 -11.914062 13.492188 -11.109375 14.109375 -10.078125 C 14.722656 -9.046875 15.03125 -7.882812 15.03125 -6.59375 C 15.03125 -5.300781 14.722656 -4.140625 14.109375 -3.109375 C 13.492188 -2.078125 12.644531 -1.269531 11.5625 -0.6875 C 10.488281 -0.101562 9.28125 0.1875 7.9375 0.1875 Z M 7.9375 -1.953125 C 8.8125 -1.953125 9.597656 -2.148438 10.296875 -2.546875 C 11.003906 -2.941406 11.554688 -3.492188 11.953125 -4.203125 C 12.359375 -4.921875 12.5625 -5.71875 12.5625 -6.59375 C 12.5625 -7.476562 12.359375 -8.273438 11.953125 -8.984375 C 11.554688 -9.691406 11.003906 -10.242188 10.296875 -10.640625 C 9.597656 -11.035156 8.8125 -11.234375 7.9375 -11.234375 C 7.050781 -11.234375 6.253906 -11.035156 5.546875 -10.640625 C 4.847656 -10.242188 4.296875 -9.691406 3.890625 -8.984375 C 3.492188 -8.273438 3.296875 -7.476562 3.296875 -6.59375 C 3.296875 -5.71875 3.492188 -4.921875 3.890625 -4.203125 C 4.296875 -3.492188 4.847656 -2.941406 5.546875 -2.546875 C 6.253906 -2.148438 7.050781 -1.953125 7.9375 -1.953125 Z M 7.9375 -1.953125 "/></g></g></g><g fill="#ffffff" fill-opacity="1"><g transform="translate(847.618473, 561.845262)"><g><path d="M 10.40625 0 L 7.703125 -3.859375 C 7.585938 -3.847656 7.421875 -3.84375 7.203125 -3.84375 L 4.21875 -3.84375 L 4.21875 0 L 1.765625 0 L 1.765625 -13.1875 L 7.203125 -13.1875 C 8.335938 -13.1875 9.328125 -13 10.171875 -12.625 C 11.023438 -12.25 11.675781 -11.707031 12.125 -11 C 12.582031 -10.300781 12.8125 -9.46875 12.8125 -8.5 C 12.8125 -7.507812 12.566406 -6.65625 12.078125 -5.9375 C 11.597656 -5.21875 10.90625 -4.679688 10 -4.328125 L 13.046875 0 Z M 10.34375 -8.5 C 10.34375 -9.34375 10.066406 -9.988281 9.515625 -10.4375 C 8.960938 -10.894531 8.148438 -11.125 7.078125 -11.125 L 4.21875 -11.125 L 4.21875 -5.859375 L 7.078125 -5.859375 C 8.148438 -5.859375 8.960938 -6.085938 9.515625 -6.546875 C 10.066406 -7.003906 10.34375 -7.65625 10.34375 -8.5 Z M 10.34375 -8.5 "/></g></g></g><g fill="#ffffff" fill-opacity="1"><g transform="translate(861.385783, 561.845262)"><g><path d="M 4.453125 -11.125 L 0.078125 -11.125 L 0.078125 -13.1875 L 11.265625 -13.1875 L 11.265625 -11.125 L 6.890625 -11.125 L 6.890625 0 L 4.453125 0 Z M 4.453125 -11.125 "/></g></g></g></svg>